<svg width="223" height="78" viewBox="0 0 223 78" fill="none" xmlns="http://www.w3.org/2000/svg">
<path d="M0 17.1429C0 7.67512 7.67512 0 17.1429 0H55.7143H87.7922H205.714C215.182 0 222.857 7.67512 222.857 17.1429V60C222.857 69.4677 215.182 77.1429 205.714 77.1429H17.1429C7.67513 77.1429 0 69.4677 0 60V17.1429Z" fill="white" fill-opacity="0.05"/>
<path d="M0 17.1429C0 7.67512 7.67512 0 17.1429 0H55.7143H87.7922H205.714C215.182 0 222.857 7.67512 222.857 17.1429V60C222.857 69.4677 215.182 77.1429 205.714 77.1429H17.1429C7.67513 77.1429 0 69.4677 0 60V17.1429Z" fill="url(#paint0_linear_807_3217)" fill-opacity="0.4"/>
<path d="M0.857143 17.1429C0.857143 8.14851 8.14851 0.857143 17.1429 0.857143H55.7143H87.7922H205.714C214.709 0.857143 222 8.14851 222 17.1429V60C222 68.9943 214.709 76.2857 205.714 76.2857H17.1429C8.14852 76.2857 0.857143 68.9944 0.857143 60V17.1429Z" stroke="url(#paint1_linear_807_3217)" stroke-opacity="0.15" stroke-width="1.71429"/>
<path d="M37.7121 44.8566C37.4657 44.8566 37.2657 45.0566 37.2675 45.303C37.2675 45.5494 37.4675 45.7494 37.7139 45.7494C37.9603 45.7494 38.1603 45.5494 38.1603 45.303C38.1603 45.0566 37.9603 44.8566 37.7121 44.8566" stroke="#CA7192" stroke-width="2.67857" stroke-linecap="round" stroke-linejoin="round"/>
<path fill-rule="evenodd" clip-rule="evenodd" d="M29.5247 52.739L22.689 45.9033C22.0194 45.2337 21.6426 44.3247 21.6426 43.3783V32.0497C21.6426 31.1033 22.0194 30.1944 22.689 29.5247L29.5247 22.689C30.1944 22.0194 31.1033 21.6426 32.0497 21.6426H43.3765C44.3229 21.6426 45.2319 22.0194 45.9015 22.689L52.7372 29.5247C53.4086 30.1944 53.7854 31.1033 53.7854 32.0497V43.3765C53.7854 44.3229 53.4086 45.2319 52.739 45.9015L44.8569 53.7854H32.0497C31.1033 53.7854 30.1944 53.4086 29.5247 52.739V52.739Z" stroke="#CA7192" stroke-width="2.67857" stroke-linecap="round" stroke-linejoin="round"/>
<path d="M37.7139 38.6063V29.6777" stroke="#CA7192" stroke-width="2.67857" stroke-linecap="round" stroke-linejoin="round"/>
<path d="M73.2833 30.5V19.9026H76.864C77.6954 19.9026 78.375 20.0527 78.9028 20.3528C79.4341 20.6495 79.8273 21.0513 80.0826 21.5584C80.3379 22.0655 80.4655 22.6313 80.4655 23.2557C80.4655 23.8801 80.3379 24.4475 80.0826 24.9581C79.8308 25.4686 79.441 25.8757 78.9131 26.1793C78.3853 26.4794 77.7092 26.6295 76.8847 26.6295H74.3182V25.4911H76.8433C77.4125 25.4911 77.8696 25.3928 78.2146 25.1961C78.5596 24.9995 78.8097 24.7339 78.9649 24.3992C79.1236 24.0612 79.2029 23.68 79.2029 23.2557C79.2029 22.8314 79.1236 22.4519 78.9649 22.1173C78.8097 21.7827 78.5578 21.5205 78.2094 21.3308C77.861 21.1376 77.3987 21.041 76.8226 21.041H74.5666V30.5H73.2833ZM91.4743 25.2013C91.4743 26.319 91.2725 27.2849 90.8689 28.099C90.4652 28.9131 89.9116 29.541 89.2078 29.9825C88.5041 30.4241 87.7003 30.6449 86.7965 30.6449C85.8927 30.6449 85.0889 30.4241 84.3852 29.9825C83.6815 29.541 83.1278 28.9131 82.7242 28.099C82.3206 27.2849 82.1188 26.319 82.1188 25.2013C82.1188 24.0836 82.3206 23.1177 82.7242 22.3036C83.1278 21.4894 83.6815 20.8616 84.3852 20.42C85.0889 19.9785 85.8927 19.7577 86.7965 19.7577C87.7003 19.7577 88.5041 19.9785 89.2078 20.42C89.9116 20.8616 90.4652 21.4894 90.8689 22.3036C91.2725 23.1177 91.4743 24.0836 91.4743 25.2013ZM90.2324 25.2013C90.2324 24.2837 90.0789 23.5092 89.7719 22.8779C89.4683 22.2467 89.0561 21.7689 88.5352 21.4446C88.0177 21.1203 87.4382 20.9582 86.7965 20.9582C86.1549 20.9582 85.5736 21.1203 85.0527 21.4446C84.5353 21.7689 84.123 22.2467 83.816 22.8779C83.5124 23.5092 83.3606 24.2837 83.3606 25.2013C83.3606 26.1189 83.5124 26.8934 83.816 27.5247C84.123 28.1559 84.5353 28.6337 85.0527 28.958C85.5736 29.2823 86.1549 29.4444 86.7965 29.4444C87.4382 29.4444 88.0177 29.2823 88.5352 28.958C89.0561 28.6337 89.4683 28.1559 89.7719 27.5247C90.0789 26.8934 90.2324 26.1189 90.2324 25.2013ZM99.9036 30.6863C99.3999 30.6863 98.9428 30.5914 98.5323 30.4017C98.1218 30.2085 97.7958 29.9308 97.5543 29.5686C97.3129 29.2029 97.1921 28.7614 97.1921 28.2439C97.1921 27.7886 97.2818 27.4194 97.4612 27.1366C97.6406 26.8502 97.8803 26.626 98.1804 26.4639C98.4806 26.3017 98.8117 26.181 99.174 26.1017C99.5396 26.0189 99.907 25.9533 100.276 25.905C100.759 25.8429 101.151 25.7964 101.451 25.7653C101.754 25.7308 101.975 25.6739 102.113 25.5946C102.255 25.5152 102.325 25.3772 102.325 25.1806V25.1392C102.325 24.6287 102.186 24.2319 101.906 23.9491C101.63 23.6662 101.211 23.5248 100.649 23.5248C100.066 23.5248 99.6086 23.6524 99.2774 23.9077C98.9463 24.1629 98.7134 24.4355 98.5789 24.7252L97.4198 24.3113C97.6268 23.8283 97.9028 23.4523 98.2477 23.1832C98.5961 22.9107 98.9756 22.721 99.3861 22.614C99.8001 22.5037 100.207 22.4485 100.607 22.4485C100.863 22.4485 101.156 22.4795 101.487 22.5416C101.822 22.6002 102.144 22.7227 102.455 22.909C102.769 23.0953 103.029 23.3764 103.236 23.7524C103.443 24.1284 103.546 24.6321 103.546 25.2634V30.5H102.325V29.4237H102.263C102.18 29.5962 102.042 29.7807 101.849 29.9774C101.656 30.174 101.399 30.3413 101.078 30.4793C100.757 30.6173 100.366 30.6863 99.9036 30.6863ZM100.09 29.5893C100.573 29.5893 100.98 29.4944 101.311 29.3047C101.646 29.115 101.897 28.87 102.067 28.5699C102.239 28.2698 102.325 27.9541 102.325 27.623V26.5053C102.273 26.5674 102.16 26.6243 101.984 26.676C101.811 26.7243 101.611 26.7675 101.383 26.8054C101.159 26.8399 100.94 26.8709 100.726 26.8985C100.516 26.9227 100.345 26.9434 100.214 26.9606C99.8967 27.002 99.6 27.0693 99.324 27.1624C99.0515 27.2521 98.8307 27.3884 98.6617 27.5712C98.4961 27.7506 98.4133 27.9955 98.4133 28.306C98.4133 28.7303 98.5703 29.0511 98.8842 29.2685C99.2016 29.4823 99.6034 29.5893 100.09 29.5893ZM106.997 19.9026V30.5H105.775V19.9026H106.997ZM112.566 30.6656C111.8 30.6656 111.139 30.4966 110.584 30.1585C110.032 29.817 109.606 29.3409 109.306 28.7303C109.009 28.1163 108.861 27.4022 108.861 26.5881C108.861 25.7739 109.009 25.0564 109.306 24.4355C109.606 23.8111 110.023 23.3247 110.558 22.9763C111.096 22.6244 111.724 22.4485 112.441 22.4485C112.855 22.4485 113.264 22.5175 113.668 22.6554C114.071 22.7934 114.439 23.0177 114.77 23.3281C115.101 23.6351 115.365 24.0422 115.562 24.5493C115.758 25.0564 115.857 25.6808 115.857 26.4225V26.9399H109.73V25.8843H114.615C114.615 25.4359 114.525 25.0357 114.346 24.6838C114.17 24.332 113.918 24.0543 113.59 23.8508C113.266 23.6472 112.883 23.5455 112.441 23.5455C111.955 23.5455 111.534 23.6662 111.179 23.9077C110.827 24.1457 110.556 24.4562 110.366 24.8391C110.177 25.222 110.082 25.6325 110.082 26.0706V26.7744C110.082 27.3746 110.185 27.8834 110.392 28.3008C110.603 28.7148 110.894 29.0304 111.267 29.2478C111.639 29.4616 112.072 29.5686 112.566 29.5686C112.886 29.5686 113.176 29.5237 113.435 29.4341C113.697 29.3409 113.923 29.2029 114.113 29.0201C114.303 28.8338 114.449 28.6027 114.553 28.3267L115.732 28.6579C115.608 29.058 115.4 29.4099 115.106 29.7135C114.813 30.0136 114.451 30.2482 114.02 30.4172C113.588 30.5828 113.104 30.6656 112.566 30.6656ZM117.714 30.5V22.5519H118.894V23.7524H118.977C119.122 23.3592 119.384 23.0401 119.763 22.7951C120.143 22.5502 120.571 22.4278 121.047 22.4278C121.136 22.4278 121.248 22.4295 121.383 22.4329C121.518 22.4364 121.619 22.4416 121.688 22.4485V23.6903C121.647 23.68 121.552 23.6645 121.404 23.6438C121.259 23.6196 121.105 23.6075 120.943 23.6075C120.557 23.6075 120.212 23.6886 119.908 23.8508C119.608 24.0094 119.37 24.2302 119.194 24.5131C119.022 24.7925 118.935 25.1116 118.935 25.4704V30.5H117.714ZM127.09 22.5519V23.5869H122.972V22.5519H127.09ZM124.172 20.6477H125.393V28.2232C125.393 28.5682 125.443 28.8269 125.543 28.9994C125.647 29.1684 125.778 29.2823 125.937 29.3409C126.099 29.3961 126.269 29.4237 126.449 29.4237C126.583 29.4237 126.694 29.4168 126.78 29.403C126.866 29.3858 126.935 29.372 126.987 29.3616L127.235 30.4586C127.153 30.4897 127.037 30.5207 126.889 30.5517C126.74 30.5862 126.552 30.6035 126.325 30.6035C125.98 30.6035 125.642 30.5293 125.31 30.381C124.983 30.2327 124.71 30.0067 124.493 29.7031C124.279 29.3996 124.172 29.0166 124.172 28.5544V20.6477Z" fill="#DD9AB2" fill-opacity="0.71"/>
<path d="M78.9643 54.9277H73.9627V38.7199H79.1859C83.9026 38.7199 86.6883 41.7589 86.6883 46.7922C86.6883 51.8571 83.9026 54.9277 78.9643 54.9277ZM79.0593 40.461H75.9253V53.1867H78.8377C82.858 53.1867 84.789 50.7492 84.789 46.7922C84.789 42.8669 82.858 40.461 79.0593 40.461ZM94.8239 55.181C91.3101 55.181 89.1575 52.6802 89.1575 48.9448C89.1575 45.2094 91.3417 42.6136 94.6339 42.6136C97.1664 42.6136 99.8571 44.1647 99.8571 48.6915V49.4829H91.0489C91.2388 52.1104 92.6238 53.5032 94.8239 53.5032C96.3117 53.5032 97.388 52.8701 97.8628 51.6039L99.6672 52.1104C99.0974 53.9464 97.293 55.181 94.8239 55.181ZM94.6339 44.2914C92.7662 44.2914 91.3892 45.5893 91.0885 47.8685H97.9578C97.9578 45.8109 96.6599 44.2914 94.6339 44.2914ZM104.609 38.7199V54.9277H102.742V38.7199H104.609ZM115.311 54.9277V53.2816H115.216C114.836 54.073 113.728 55.2126 111.607 55.2126C109.297 55.2126 107.46 53.8514 107.46 51.4772C107.46 48.7232 109.898 48.185 112.177 47.9001C113.855 47.6785 115.311 47.7419 115.311 46.9505V46.9188C115.311 44.8928 114.235 44.2597 112.779 44.2597C110.974 44.2597 109.993 45.2094 109.581 46.0958L107.809 45.4626C108.758 43.2467 110.848 42.6136 112.684 42.6136C114.235 42.6136 117.179 43.0568 117.179 46.9188V54.9277H115.311ZM115.311 50.5276V48.8182C114.995 49.198 112.874 49.4196 112.082 49.5146C110.626 49.7045 109.328 50.1477 109.328 51.5722C109.328 52.8701 110.404 53.5349 111.892 53.5349C114.108 53.5349 115.311 52.0471 115.311 50.5276ZM123.047 56.1307L123.474 55.0069L118.963 42.7719H120.989L124.337 52.4586H124.472L127.827 42.7719H129.853L124.63 56.8904C123.933 58.7581 122.73 59.6445 121.053 59.6445C120.42 59.6445 119.881 59.5178 119.692 59.4229L120.166 57.7768C121.496 58.0933 122.351 57.935 123.047 56.1307ZM140.454 38.7199V54.9277H138.586V38.7199H140.454ZM144.793 41.0308C143.97 41.0308 143.463 40.461 143.463 39.7646C143.463 39.1315 143.97 38.4984 144.793 38.4984C145.616 38.4984 146.122 39.1315 146.122 39.7646C146.122 40.461 145.616 41.0308 144.793 41.0308ZM145.742 42.7719V54.9277H143.875V42.7719H145.742ZM156.824 54.9277L152.463 49.1347L151.031 50.6779V54.9277H149.163V38.7199H151.031V48.2484H151.252L156.191 42.7719H158.502L153.722 47.9476L159.008 54.9277H156.824ZM165.577 55.181C162.063 55.181 159.91 52.6802 159.91 48.9448C159.91 45.2094 162.095 42.6136 165.387 42.6136C167.919 42.6136 170.61 44.1647 170.61 48.6915V49.4829H161.802C161.992 52.1104 163.377 53.5032 165.577 53.5032C167.064 53.5032 168.141 52.8701 168.616 51.6039L170.42 52.1104C169.85 53.9464 168.046 55.181 165.577 55.181ZM165.387 44.2914C163.519 44.2914 162.142 45.5893 161.841 47.8685H168.711C168.711 45.8109 167.413 44.2914 165.387 44.2914ZM175.362 38.7199V54.9277H173.495V38.7199H175.362ZM181.917 56.1307L182.344 55.0069L177.833 42.7719H179.859L183.207 52.4586H183.342L186.697 42.7719H188.723L183.5 56.8904C182.803 58.7581 181.6 59.6445 179.923 59.6445C179.29 59.6445 178.751 59.5178 178.561 59.4229L179.036 57.7768C180.366 58.0933 181.221 57.935 181.917 56.1307Z" fill="white"/>
<defs>
<linearGradient id="paint0_linear_807_3217" x1="-111.006" y1="-45" x2="108.704" y2="193.042" gradientUnits="userSpaceOnUse">
<stop stop-color="#C77090"/>
<stop offset="0.709679" stop-color="#523C8F" stop-opacity="0.12"/>
<stop offset="1" stop-color="#62ECFF" stop-opacity="0"/>
</linearGradient>
<linearGradient id="paint1_linear_807_3217" x1="10.1548" y1="0.892904" x2="125.181" y2="161.221" gradientUnits="userSpaceOnUse">
<stop stop-color="#BC6D8F"/>
<stop offset="0.585513" stop-color="#C77090" stop-opacity="0.42"/>
<stop offset="1" stop-color="#5174F0" stop-opacity="0"/>
</linearGradient>
</defs>
</svg>
