<svg width="529" height="368" viewBox="0 0 529 368" fill="none" xmlns="http://www.w3.org/2000/svg">
<g>
<path d="M45 70.9999C45 62.1633 52.1634 54.9999 61 54.9999H408C416.837 54.9999 424 62.1633 424 70.9999V257C424 265.836 416.837 273 408 273H61C52.1634 273 45 265.836 45 257V70.9999Z" fill="url(#paint0_linear_514_7936)" fill-opacity="0.65" shape-rendering="crispEdges"/>
<path d="M45 70.9999C45 62.1633 52.1634 54.9999 61 54.9999H408C416.837 54.9999 424 62.1633 424 70.9999V257C424 265.836 416.837 273 408 273H61C52.1634 273 45 265.836 45 257V70.9999Z" fill="#181B33" fill-opacity="0.4" shape-rendering="crispEdges"/>
</g>
<rect x="57" y="70.9999" width="352.727" height="54" rx="11.7391" fill="#6D72E2" fill-opacity="0.1"/>
<rect x="68" y="81.9999" width="33" height="33" rx="11" fill="#5F5D92" fill-opacity="0.56"/>
<path d="M89.0833 95.7499L86.2141 98.0416C85.2699 98.7933 83.7207 98.7933 82.7766 98.0416L79.9166 95.7499M89.0833 106.292H79.9166C77.1666 106.292 75.3333 104.917 75.3333 101.708V95.2916C75.3333 92.0833 77.1666 90.7083 79.9166 90.7083H89.0833C91.8333 90.7083 93.6666 92.0833 93.6666 95.2916V101.708C93.6666 104.917 91.8333 106.292 89.0833 106.292Z" stroke="#A9B8EE" stroke-width="1.375" stroke-miterlimit="10" stroke-linecap="round" stroke-linejoin="round"/>
<path d="M115.342 95.4999H112.224V85.3946H115.48C118.421 85.3946 120.158 87.2894 120.158 90.4275C120.158 93.5854 118.421 95.4999 115.342 95.4999ZM115.401 86.4801H113.447V94.4144H115.263C117.77 94.4144 118.974 92.8946 118.974 90.4275C118.974 87.9801 117.77 86.4801 115.401 86.4801ZM126.87 95.4999V94.4736H126.811C126.574 94.967 125.883 95.6775 124.561 95.6775C123.12 95.6775 121.975 94.8288 121.975 93.3486C121.975 91.6315 123.495 91.2959 124.916 91.1183C125.962 90.9801 126.87 91.0196 126.87 90.5262V90.5065C126.87 89.2433 126.199 88.8486 125.291 88.8486C124.166 88.8486 123.554 89.4407 123.298 89.9933L122.192 89.5986C122.784 88.217 124.087 87.8222 125.232 87.8222C126.199 87.8222 128.034 88.0986 128.034 90.5065V95.4999H126.87ZM126.87 92.7565V91.6907C126.673 91.9275 125.35 92.0657 124.857 92.1249C123.949 92.2433 123.14 92.5196 123.14 93.4078C123.14 94.217 123.811 94.6315 124.738 94.6315C126.12 94.6315 126.87 93.7038 126.87 92.7565ZM131.971 96.2499L132.238 95.5492L129.425 87.9209H130.688L132.775 93.9604H132.859L134.951 87.9209H136.215L132.958 96.7236C132.524 97.888 131.774 98.4407 130.728 98.4407C130.333 98.4407 129.997 98.3617 129.879 98.3025L130.175 97.2762C131.004 97.4736 131.537 97.3749 131.971 96.2499ZM145.432 85.3946V95.4999H144.268V87.1709H144.189C144.051 87.4472 143.222 87.9209 142.057 87.9209V86.8946C143.636 86.8946 144.288 85.513 144.406 85.3946H145.432ZM149.556 88.8683C149.063 88.8683 148.668 88.4736 148.668 87.9801C148.668 87.4867 149.083 87.1117 149.556 87.1117C150.05 87.1117 150.445 87.5065 150.445 87.9801C150.445 88.4736 150.05 88.8683 149.556 88.8683ZM149.556 93.9801C149.063 93.9801 148.668 93.5854 148.668 93.092C148.668 92.5986 149.083 92.2236 149.556 92.2236C150.05 92.2236 150.445 92.6183 150.445 93.092C150.445 93.5854 150.05 93.9801 149.556 93.9801ZM157.57 95.4999H156.287L159.998 85.3946H161.261L164.972 95.4999H163.689L162.736 92.7959H158.523L157.57 95.4999ZM160.57 86.9933L158.907 91.7104H162.352L160.689 86.9933H160.57ZM171.103 92.4999V87.9209H172.267V95.4999H171.103V94.4341H171.024C170.649 95.0065 169.918 95.5986 168.774 95.5986C167.668 95.5986 166.326 94.7301 166.326 92.7367V87.9209H167.491V92.7367C167.491 93.842 168.182 94.4736 169.149 94.4736C170.017 94.4736 171.103 93.9209 171.103 92.4999ZM177.855 87.9209V89.0065H176.237V93.3288C176.237 94.3157 176.73 94.4736 177.244 94.4736C177.5 94.4736 177.658 94.4341 177.757 94.4144L177.994 95.4604C177.836 95.5196 177.559 95.5986 177.125 95.5986C176.138 95.5986 175.073 94.967 175.073 93.6446V89.0065H173.928V87.9209H175.073V86.3025H176.237V87.9209H177.855ZM182.879 95.6578C180.826 95.6578 179.445 94.0986 179.445 91.7499C179.445 89.3815 180.826 87.8222 182.879 87.8222C184.931 87.8222 186.313 89.3815 186.313 91.7499C186.313 94.0986 184.931 95.6578 182.879 95.6578ZM182.879 94.6117C184.438 94.6117 185.149 93.2696 185.149 91.7499C185.149 90.2301 184.438 88.8683 182.879 88.8683C181.32 88.8683 180.609 90.2301 180.609 91.7499C180.609 93.2696 181.32 94.6117 182.879 94.6117ZM193.836 90.7433V95.4999H192.651V90.5459C192.651 89.4012 192.119 88.9472 191.27 88.9472C190.382 88.9472 189.533 89.7367 189.533 90.9801V95.4999H188.369V87.9209H189.533V89.2038H189.612C189.829 88.5525 190.619 87.8222 191.586 87.8222C192.533 87.8222 193.204 88.4341 193.54 89.1841H193.619C193.836 88.5525 194.704 87.8222 195.809 87.8222C197.072 87.8222 198.099 88.6907 198.099 90.5459V95.4999H196.934V90.5065C196.934 89.3222 196.086 88.9472 195.454 88.9472C194.428 88.9472 193.836 89.6775 193.836 90.7433ZM205.045 95.4999V94.4736H204.986C204.749 94.967 204.058 95.6775 202.736 95.6775C201.295 95.6775 200.151 94.8288 200.151 93.3486C200.151 91.6315 201.67 91.2959 203.091 91.1183C204.137 90.9801 205.045 91.0196 205.045 90.5262V90.5065C205.045 89.2433 204.374 88.8486 203.466 88.8486C202.341 88.8486 201.729 89.4407 201.473 89.9933L200.368 89.5986C200.96 88.217 202.262 87.8222 203.407 87.8222C204.374 87.8222 206.21 88.0986 206.21 90.5065V95.4999H205.045ZM205.045 92.7565V91.6907C204.848 91.9275 203.526 92.0657 203.032 92.1249C202.124 92.2433 201.315 92.5196 201.315 93.4078C201.315 94.217 201.986 94.6315 202.914 94.6315C204.295 94.6315 205.045 93.7038 205.045 92.7565ZM211.709 87.9209V89.0065H210.091V93.3288C210.091 94.3157 210.584 94.4736 211.097 94.4736C211.354 94.4736 211.512 94.4341 211.611 94.4144L211.847 95.4604C211.69 95.5196 211.413 95.5986 210.979 95.5986C209.992 95.5986 208.926 94.967 208.926 93.6446V89.0065H207.782V87.9209H208.926V86.3025H210.091V87.9209H211.709ZM214.321 86.8354C213.808 86.8354 213.492 86.4801 213.492 86.0459C213.492 85.6512 213.808 85.2565 214.321 85.2565C214.834 85.2565 215.15 85.6512 215.15 86.0459C215.15 86.4801 214.834 86.8354 214.321 86.8354ZM214.913 87.9209V95.4999H213.749V87.9209H214.913ZM223.383 90.1907H222.219C222.041 89.4999 221.429 88.8683 220.403 88.8683C219.041 88.8683 218.133 89.9933 218.133 91.7104C218.133 93.467 219.021 94.6117 220.403 94.6117C221.311 94.6117 222.001 94.1183 222.219 93.2894H223.383C223.186 94.6315 222.08 95.6578 220.403 95.6578C218.291 95.6578 216.969 94.0394 216.969 91.7104C216.969 89.4407 218.33 87.8222 220.383 87.8222C221.982 87.8222 223.186 88.7696 223.383 90.1907ZM235.885 94.4144V95.4999H229.707V85.3946H235.806V86.4801H230.931V89.8946H235.292V90.9801H230.931V94.4144H235.885ZM243.598 90.7433V95.4999H242.414V90.5459C242.414 89.4012 241.881 88.9472 241.033 88.9472C240.144 88.9472 239.296 89.7367 239.296 90.9801V95.4999H238.131V87.9209H239.296V89.2038H239.375C239.592 88.5525 240.381 87.8222 241.348 87.8222C242.296 87.8222 242.967 88.4341 243.302 89.1841H243.381C243.598 88.5525 244.467 87.8222 245.572 87.8222C246.835 87.8222 247.861 88.6907 247.861 90.5459V95.4999H246.697V90.5065C246.697 89.3222 245.848 88.9472 245.217 88.9472C244.19 88.9472 243.598 89.6775 243.598 90.7433ZM254.808 95.4999V94.4736H254.749C254.512 94.967 253.821 95.6775 252.499 95.6775C251.058 95.6775 249.913 94.8288 249.913 93.3486C249.913 91.6315 251.433 91.2959 252.854 91.1183C253.9 90.9801 254.808 91.0196 254.808 90.5262V90.5065C254.808 89.2433 254.137 88.8486 253.229 88.8486C252.104 88.8486 251.492 89.4407 251.236 89.9933L250.13 89.5986C250.722 88.217 252.025 87.8222 253.17 87.8222C254.137 87.8222 255.972 88.0986 255.972 90.5065V95.4999H254.808ZM254.808 92.7565V91.6907C254.611 91.9275 253.288 92.0657 252.795 92.1249C251.887 92.2433 251.078 92.5196 251.078 93.4078C251.078 94.217 251.749 94.6315 252.676 94.6315C254.058 94.6315 254.808 93.7038 254.808 92.7565ZM258.948 86.8354C258.435 86.8354 258.119 86.4801 258.119 86.0459C258.119 85.6512 258.435 85.2565 258.948 85.2565C259.461 85.2565 259.777 85.6512 259.777 86.0459C259.777 86.4801 259.461 86.8354 258.948 86.8354ZM259.54 87.9209V95.4999H258.376V87.9209H259.54ZM263.115 85.3946V95.4999H261.951V85.3946H263.115Z" fill="#A9B8EE"/>
<rect x="111" y="104.5" width="90" height="10" rx="5" fill="#96ADFF" fill-opacity="0.1"/>
<rect x="207" y="104.5" width="45" height="10" rx="5" fill="#96ADFF" fill-opacity="0.1"/>
<rect x="258" y="104.5" width="66" height="10" rx="5" fill="#96ADFF" fill-opacity="0.1"/>
<rect x="330" y="104.5" width="66" height="10" rx="5" fill="#96ADFF" fill-opacity="0.1"/>
<g opacity="0.6">
<rect x="57" y="137" width="352.727" height="54" rx="11.7391" fill="#6D72E2" fill-opacity="0.1"/>
<rect x="68" y="148" width="33" height="33" rx="11" fill="#5F5D92" fill-opacity="0.56"/>
<path d="M89.0833 161.75L86.2141 164.042C85.2699 164.793 83.7207 164.793 82.7766 164.042L79.9166 161.75M89.0833 172.292H79.9166C77.1666 172.292 75.3333 170.917 75.3333 167.708V161.292C75.3333 158.083 77.1666 156.708 79.9166 156.708H89.0833C91.8333 156.708 93.6666 158.083 93.6666 161.292V167.708C93.6666 170.917 91.8333 172.292 89.0833 172.292Z" stroke="#A9B8EE" stroke-width="1.375" stroke-miterlimit="10" stroke-linecap="round" stroke-linejoin="round"/>
<path d="M115.342 161.5H112.224V151.395H115.48C118.421 151.395 120.158 153.289 120.158 156.428C120.158 159.585 118.421 161.5 115.342 161.5ZM115.401 152.48H113.447V160.414H115.263C117.77 160.414 118.974 158.895 118.974 156.428C118.974 153.98 117.77 152.48 115.401 152.48ZM126.87 161.5V160.474H126.811C126.574 160.967 125.883 161.678 124.561 161.678C123.12 161.678 121.975 160.829 121.975 159.349C121.975 157.631 123.495 157.296 124.916 157.118C125.962 156.98 126.87 157.02 126.87 156.526V156.506C126.87 155.243 126.199 154.849 125.291 154.849C124.166 154.849 123.554 155.441 123.298 155.993L122.192 155.599C122.784 154.217 124.087 153.822 125.232 153.822C126.199 153.822 128.034 154.099 128.034 156.506V161.5H126.87ZM126.87 158.756V157.691C126.673 157.928 125.35 158.066 124.857 158.125C123.949 158.243 123.14 158.52 123.14 159.408C123.14 160.217 123.811 160.631 124.738 160.631C126.12 160.631 126.87 159.704 126.87 158.756ZM131.971 162.25L132.238 161.549L129.425 153.921H130.688L132.775 159.96H132.859L134.951 153.921H136.215L132.958 162.724C132.524 163.888 131.774 164.441 130.728 164.441C130.333 164.441 129.997 164.362 129.879 164.303L130.175 163.276C131.004 163.474 131.537 163.375 131.971 162.25ZM144.505 156.941V155.816H145.077C146.34 155.816 147.051 155.006 147.051 154.039C147.051 152.914 146.281 152.224 145.195 152.224C144.11 152.224 143.399 152.934 143.399 153.921H142.235C142.235 152.441 143.281 151.256 145.215 151.256C146.972 151.256 148.255 152.224 148.255 154.059C148.255 154.775 147.83 155.811 146.765 156.329C148.102 156.783 148.472 157.863 148.472 158.756C148.472 160.572 146.972 161.638 145.176 161.638C143.399 161.638 142.136 160.71 142.136 158.974H143.399C143.399 159.98 144.031 160.592 145.156 160.592C146.281 160.592 147.189 159.98 147.189 158.756C147.189 157.553 146.301 156.941 145.077 156.941H144.505ZM151.632 154.868C151.139 154.868 150.744 154.474 150.744 153.98C150.744 153.487 151.159 153.112 151.632 153.112C152.126 153.112 152.521 153.506 152.521 153.98C152.521 154.474 152.126 154.868 151.632 154.868ZM151.632 159.98C151.139 159.98 150.744 159.585 150.744 159.092C150.744 158.599 151.159 158.224 151.632 158.224C152.126 158.224 152.521 158.618 152.521 159.092C152.521 159.585 152.126 159.98 151.632 159.98ZM159.646 161.5H158.363L162.074 151.395H163.337L167.048 161.5H165.765L164.812 158.796H160.599L159.646 161.5ZM162.646 152.993L160.984 157.71H164.428L162.765 152.993H162.646ZM173.179 158.5V153.921H174.343V161.5H173.179V160.434H173.1C172.725 161.006 171.995 161.599 170.85 161.599C169.745 161.599 168.402 160.73 168.402 158.737V153.921H169.567V158.737C169.567 159.842 170.258 160.474 171.225 160.474C172.093 160.474 173.179 159.921 173.179 158.5ZM179.932 153.921V155.006H178.313V159.329C178.313 160.316 178.807 160.474 179.32 160.474C179.576 160.474 179.734 160.434 179.833 160.414L180.07 161.46C179.912 161.52 179.636 161.599 179.201 161.599C178.214 161.599 177.149 160.967 177.149 159.645V155.006H176.004V153.921H177.149V152.303H178.313V153.921H179.932ZM184.955 161.658C182.902 161.658 181.521 160.099 181.521 157.75C181.521 155.381 182.902 153.822 184.955 153.822C187.008 153.822 188.389 155.381 188.389 157.75C188.389 160.099 187.008 161.658 184.955 161.658ZM184.955 160.612C186.514 160.612 187.225 159.27 187.225 157.75C187.225 156.23 186.514 154.868 184.955 154.868C183.396 154.868 182.685 156.23 182.685 157.75C182.685 159.27 183.396 160.612 184.955 160.612ZM195.912 156.743V161.5H194.727V156.546C194.727 155.401 194.195 154.947 193.346 154.947C192.458 154.947 191.609 155.737 191.609 156.98V161.5H190.445V153.921H191.609V155.204H191.688C191.905 154.553 192.695 153.822 193.662 153.822C194.609 153.822 195.28 154.434 195.616 155.184H195.695C195.912 154.553 196.78 153.822 197.885 153.822C199.149 153.822 200.175 154.691 200.175 156.546V161.5H199.01V156.506C199.01 155.322 198.162 154.947 197.53 154.947C196.504 154.947 195.912 155.678 195.912 156.743ZM207.121 161.5V160.474H207.062C206.825 160.967 206.134 161.678 204.812 161.678C203.371 161.678 202.227 160.829 202.227 159.349C202.227 157.631 203.746 157.296 205.167 157.118C206.213 156.98 207.121 157.02 207.121 156.526V156.506C207.121 155.243 206.45 154.849 205.542 154.849C204.417 154.849 203.806 155.441 203.549 155.993L202.444 155.599C203.036 154.217 204.338 153.822 205.483 153.822C206.45 153.822 208.286 154.099 208.286 156.506V161.5H207.121ZM207.121 158.756V157.691C206.924 157.928 205.602 158.066 205.108 158.125C204.2 158.243 203.391 158.52 203.391 159.408C203.391 160.217 204.062 160.631 204.99 160.631C206.371 160.631 207.121 159.704 207.121 158.756ZM213.785 153.921V155.006H212.167V159.329C212.167 160.316 212.66 160.474 213.173 160.474C213.43 160.474 213.588 160.434 213.687 160.414L213.923 161.46C213.766 161.52 213.489 161.599 213.055 161.599C212.068 161.599 211.002 160.967 211.002 159.645V155.006H209.858V153.921H211.002V152.303H212.167V153.921H213.785ZM216.397 152.835C215.884 152.835 215.568 152.48 215.568 152.046C215.568 151.651 215.884 151.256 216.397 151.256C216.91 151.256 217.226 151.651 217.226 152.046C217.226 152.48 216.91 152.835 216.397 152.835ZM216.989 153.921V161.5H215.825V153.921H216.989ZM225.459 156.191H224.295C224.117 155.5 223.505 154.868 222.479 154.868C221.117 154.868 220.209 155.993 220.209 157.71C220.209 159.467 221.097 160.612 222.479 160.612C223.387 160.612 224.078 160.118 224.295 159.289H225.459C225.262 160.631 224.156 161.658 222.479 161.658C220.367 161.658 219.045 160.039 219.045 157.71C219.045 155.441 220.406 153.822 222.459 153.822C224.058 153.822 225.262 154.77 225.459 156.191ZM237.961 160.414V161.5H231.783V151.395H237.882V152.48H233.007V155.895H237.369V156.98H233.007V160.414H237.961ZM245.674 156.743V161.5H244.49V156.546C244.49 155.401 243.957 154.947 243.109 154.947C242.22 154.947 241.372 155.737 241.372 156.98V161.5H240.207V153.921H241.372V155.204H241.451C241.668 154.553 242.457 153.822 243.424 153.822C244.372 153.822 245.043 154.434 245.378 155.184H245.457C245.674 154.553 246.543 153.822 247.648 153.822C248.911 153.822 249.938 154.691 249.938 156.546V161.5H248.773V156.506C248.773 155.322 247.924 154.947 247.293 154.947C246.266 154.947 245.674 155.678 245.674 156.743ZM256.884 161.5V160.474H256.825C256.588 160.967 255.897 161.678 254.575 161.678C253.134 161.678 251.989 160.829 251.989 159.349C251.989 157.631 253.509 157.296 254.93 157.118C255.976 156.98 256.884 157.02 256.884 156.526V156.506C256.884 155.243 256.213 154.849 255.305 154.849C254.18 154.849 253.568 155.441 253.312 155.993L252.206 155.599C252.798 154.217 254.101 153.822 255.246 153.822C256.213 153.822 258.049 154.099 258.049 156.506V161.5H256.884ZM256.884 158.756V157.691C256.687 157.928 255.364 158.066 254.871 158.125C253.963 158.243 253.154 158.52 253.154 159.408C253.154 160.217 253.825 160.631 254.752 160.631C256.134 160.631 256.884 159.704 256.884 158.756ZM261.024 152.835C260.511 152.835 260.195 152.48 260.195 152.046C260.195 151.651 260.511 151.256 261.024 151.256C261.537 151.256 261.853 151.651 261.853 152.046C261.853 152.48 261.537 152.835 261.024 152.835ZM261.616 153.921V161.5H260.452V153.921H261.616ZM265.191 151.395V161.5H264.027V151.395H265.191Z" fill="#A9B8EE"/>
<rect x="111" y="170.5" width="90" height="10" rx="5" fill="#96ADFF" fill-opacity="0.1"/>
<rect x="207" y="170.5" width="66" height="10" rx="5" fill="#96ADFF" fill-opacity="0.1"/>
<rect x="279" y="170.5" width="45" height="10" rx="5" fill="#96ADFF" fill-opacity="0.1"/>
<rect x="330" y="170.5" width="66" height="10" rx="5" fill="#96ADFF" fill-opacity="0.1"/>
</g>
<g opacity="0.3">
<rect x="57" y="203" width="352.727" height="54" rx="11.7391" fill="#6D72E2" fill-opacity="0.1"/>
<rect x="68" y="214" width="33" height="33" rx="11" fill="#5F5D92" fill-opacity="0.56"/>
<path d="M89.0833 227.75L86.2141 230.042C85.2699 230.793 83.7207 230.793 82.7766 230.042L79.9166 227.75M89.0833 238.292H79.9166C77.1666 238.292 75.3333 236.917 75.3333 233.708V227.292C75.3333 224.083 77.1666 222.708 79.9166 222.708H89.0833C91.8333 222.708 93.6666 224.083 93.6666 227.292V233.708C93.6666 236.917 91.8333 238.292 89.0833 238.292Z" stroke="#A9B8EE" stroke-width="1.375" stroke-miterlimit="10" stroke-linecap="round" stroke-linejoin="round"/>
<path d="M115.342 227.5H112.224V217.395H115.48C118.421 217.395 120.158 219.289 120.158 222.428C120.158 225.585 118.421 227.5 115.342 227.5ZM115.401 218.48H113.447V226.414H115.263C117.77 226.414 118.974 224.895 118.974 222.428C118.974 219.98 117.77 218.48 115.401 218.48ZM126.87 227.5V226.474H126.811C126.574 226.967 125.883 227.678 124.561 227.678C123.12 227.678 121.975 226.829 121.975 225.349C121.975 223.631 123.495 223.296 124.916 223.118C125.962 222.98 126.87 223.02 126.87 222.526V222.506C126.87 221.243 126.199 220.849 125.291 220.849C124.166 220.849 123.554 221.441 123.298 221.993L122.192 221.599C122.784 220.217 124.087 219.822 125.232 219.822C126.199 219.822 128.034 220.099 128.034 222.506V227.5H126.87ZM126.87 224.756V223.691C126.673 223.928 125.35 224.066 124.857 224.125C123.949 224.243 123.14 224.52 123.14 225.408C123.14 226.217 123.811 226.631 124.738 226.631C126.12 226.631 126.87 225.704 126.87 224.756ZM131.971 228.25L132.238 227.549L129.425 219.921H130.688L132.775 225.96H132.859L134.951 219.921H136.215L132.958 228.724C132.524 229.888 131.774 230.441 130.728 230.441C130.333 230.441 129.997 230.362 129.879 230.303L130.175 229.276C131.004 229.474 131.537 229.375 131.971 228.25ZM144.505 222.941V221.816H145.077C146.34 221.816 147.051 221.006 147.051 220.039C147.051 218.914 146.281 218.224 145.195 218.224C144.11 218.224 143.399 218.934 143.399 219.921H142.235C142.235 218.441 143.281 217.256 145.215 217.256C146.972 217.256 148.255 218.224 148.255 220.059C148.255 220.775 147.83 221.811 146.765 222.329C148.102 222.783 148.472 223.863 148.472 224.756C148.472 226.572 146.972 227.638 145.176 227.638C143.399 227.638 142.136 226.71 142.136 224.974H143.399C143.399 225.98 144.031 226.592 145.156 226.592C146.281 226.592 147.189 225.98 147.189 224.756C147.189 223.553 146.301 222.941 145.077 222.941H144.505ZM151.632 220.868C151.139 220.868 150.744 220.474 150.744 219.98C150.744 219.487 151.159 219.112 151.632 219.112C152.126 219.112 152.521 219.506 152.521 219.98C152.521 220.474 152.126 220.868 151.632 220.868ZM151.632 225.98C151.139 225.98 150.744 225.585 150.744 225.092C150.744 224.599 151.159 224.224 151.632 224.224C152.126 224.224 152.521 224.618 152.521 225.092C152.521 225.585 152.126 225.98 151.632 225.98ZM159.646 227.5H158.363L162.074 217.395H163.337L167.048 227.5H165.765L164.812 224.796H160.599L159.646 227.5ZM162.646 218.993L160.984 223.71H164.428L162.765 218.993H162.646ZM173.179 224.5V219.921H174.343V227.5H173.179V226.434H173.1C172.725 227.006 171.995 227.599 170.85 227.599C169.745 227.599 168.402 226.73 168.402 224.737V219.921H169.567V224.737C169.567 225.842 170.258 226.474 171.225 226.474C172.093 226.474 173.179 225.921 173.179 224.5ZM179.932 219.921V221.006H178.313V225.329C178.313 226.316 178.807 226.474 179.32 226.474C179.576 226.474 179.734 226.434 179.833 226.414L180.07 227.46C179.912 227.52 179.636 227.599 179.201 227.599C178.214 227.599 177.149 226.967 177.149 225.645V221.006H176.004V219.921H177.149V218.303H178.313V219.921H179.932ZM184.955 227.658C182.902 227.658 181.521 226.099 181.521 223.75C181.521 221.381 182.902 219.822 184.955 219.822C187.008 219.822 188.389 221.381 188.389 223.75C188.389 226.099 187.008 227.658 184.955 227.658ZM184.955 226.612C186.514 226.612 187.225 225.27 187.225 223.75C187.225 222.23 186.514 220.868 184.955 220.868C183.396 220.868 182.685 222.23 182.685 223.75C182.685 225.27 183.396 226.612 184.955 226.612ZM195.912 222.743V227.5H194.727V222.546C194.727 221.401 194.195 220.947 193.346 220.947C192.458 220.947 191.609 221.737 191.609 222.98V227.5H190.445V219.921H191.609V221.204H191.688C191.905 220.553 192.695 219.822 193.662 219.822C194.609 219.822 195.28 220.434 195.616 221.184H195.695C195.912 220.553 196.78 219.822 197.885 219.822C199.149 219.822 200.175 220.691 200.175 222.546V227.5H199.01V222.506C199.01 221.322 198.162 220.947 197.53 220.947C196.504 220.947 195.912 221.678 195.912 222.743ZM207.121 227.5V226.474H207.062C206.825 226.967 206.134 227.678 204.812 227.678C203.371 227.678 202.227 226.829 202.227 225.349C202.227 223.631 203.746 223.296 205.167 223.118C206.213 222.98 207.121 223.02 207.121 222.526V222.506C207.121 221.243 206.45 220.849 205.542 220.849C204.417 220.849 203.806 221.441 203.549 221.993L202.444 221.599C203.036 220.217 204.338 219.822 205.483 219.822C206.45 219.822 208.286 220.099 208.286 222.506V227.5H207.121ZM207.121 224.756V223.691C206.924 223.928 205.602 224.066 205.108 224.125C204.2 224.243 203.391 224.52 203.391 225.408C203.391 226.217 204.062 226.631 204.99 226.631C206.371 226.631 207.121 225.704 207.121 224.756ZM213.785 219.921V221.006H212.167V225.329C212.167 226.316 212.66 226.474 213.173 226.474C213.43 226.474 213.588 226.434 213.687 226.414L213.923 227.46C213.766 227.52 213.489 227.599 213.055 227.599C212.068 227.599 211.002 226.967 211.002 225.645V221.006H209.858V219.921H211.002V218.303H212.167V219.921H213.785ZM216.397 218.835C215.884 218.835 215.568 218.48 215.568 218.046C215.568 217.651 215.884 217.256 216.397 217.256C216.91 217.256 217.226 217.651 217.226 218.046C217.226 218.48 216.91 218.835 216.397 218.835ZM216.989 219.921V227.5H215.825V219.921H216.989ZM225.459 222.191H224.295C224.117 221.5 223.505 220.868 222.479 220.868C221.117 220.868 220.209 221.993 220.209 223.71C220.209 225.467 221.097 226.612 222.479 226.612C223.387 226.612 224.078 226.118 224.295 225.289H225.459C225.262 226.631 224.156 227.658 222.479 227.658C220.367 227.658 219.045 226.039 219.045 223.71C219.045 221.441 220.406 219.822 222.459 219.822C224.058 219.822 225.262 220.77 225.459 222.191ZM237.961 226.414V227.5H231.783V217.395H237.882V218.48H233.007V221.895H237.369V222.98H233.007V226.414H237.961ZM245.674 222.743V227.5H244.49V222.546C244.49 221.401 243.957 220.947 243.109 220.947C242.22 220.947 241.372 221.737 241.372 222.98V227.5H240.207V219.921H241.372V221.204H241.451C241.668 220.553 242.457 219.822 243.424 219.822C244.372 219.822 245.043 220.434 245.378 221.184H245.457C245.674 220.553 246.543 219.822 247.648 219.822C248.911 219.822 249.938 220.691 249.938 222.546V227.5H248.773V222.506C248.773 221.322 247.924 220.947 247.293 220.947C246.266 220.947 245.674 221.678 245.674 222.743ZM256.884 227.5V226.474H256.825C256.588 226.967 255.897 227.678 254.575 227.678C253.134 227.678 251.989 226.829 251.989 225.349C251.989 223.631 253.509 223.296 254.93 223.118C255.976 222.98 256.884 223.02 256.884 222.526V222.506C256.884 221.243 256.213 220.849 255.305 220.849C254.18 220.849 253.568 221.441 253.312 221.993L252.206 221.599C252.798 220.217 254.101 219.822 255.246 219.822C256.213 219.822 258.049 220.099 258.049 222.506V227.5H256.884ZM256.884 224.756V223.691C256.687 223.928 255.364 224.066 254.871 224.125C253.963 224.243 253.154 224.52 253.154 225.408C253.154 226.217 253.825 226.631 254.752 226.631C256.134 226.631 256.884 225.704 256.884 224.756ZM261.024 218.835C260.511 218.835 260.195 218.48 260.195 218.046C260.195 217.651 260.511 217.256 261.024 217.256C261.537 217.256 261.853 217.651 261.853 218.046C261.853 218.48 261.537 218.835 261.024 218.835ZM261.616 219.921V227.5H260.452V219.921H261.616ZM265.191 217.395V227.5H264.027V217.395H265.191Z" fill="#A9B8EE"/>
<rect x="111" y="236.5" width="90" height="10" rx="5" fill="#96ADFF" fill-opacity="0.1"/>
<rect x="207" y="236.5" width="46" height="10" rx="5" fill="#96ADFF" fill-opacity="0.1"/>
<rect x="259" y="236.5" width="66" height="10" rx="5" fill="#96ADFF" fill-opacity="0.1"/>
<rect x="331" y="236.5" width="66" height="10" rx="5" fill="#96ADFF" fill-opacity="0.1"/>
</g>
<defs>

<linearGradient id="paint0_linear_514_7936" x1="424" y1="76.9999" x2="61.9046" y2="339.337" gradientUnits="userSpaceOnUse">
<stop stop-color="#3A3B54"/>
<stop offset="1" stop-color="#564B76" stop-opacity="0.38"/>
</linearGradient>
</defs>
</svg>
