<svg width="379" height="218" viewBox="0 0 379 218" fill="none" xmlns="http://www.w3.org/2000/svg">
<path d="M0 16C0 7.16344 7.16344 0 16 0H363C371.837 0 379 7.16344 379 16V202C379 210.837 371.837 218 363 218H16C7.16344 218 0 210.837 0 202V16Z" fill="url(#paint0_linear_807_3355)" fill-opacity="0.65"/>
<path d="M0 16C0 7.16344 7.16344 0 16 0H363C371.837 0 379 7.16344 379 16V202C379 210.837 371.837 218 363 218H16C7.16344 218 0 210.837 0 202V16Z" fill="#181B33" fill-opacity="0.4"/>
<rect x="12" y="16" width="352.727" height="54" rx="11.7391" fill="#6D72E2" fill-opacity="0.1"/>
<rect x="23" y="27" width="33" height="33" rx="11" fill="#5F5D92" fill-opacity="0.56"/>
<path d="M44.0833 40.7507L41.2141 43.0423C40.2699 43.794 38.7207 43.794 37.7766 43.0423L34.9166 40.7507M44.0833 51.2923H34.9166C32.1666 51.2923 30.3333 49.9173 30.3333 46.709V40.2923C30.3333 37.084 32.1666 35.709 34.9166 35.709H44.0833C46.8333 35.709 48.6666 37.084 48.6666 40.2923V46.709C48.6666 49.9173 46.8333 51.2923 44.0833 51.2923Z" stroke="#A9B8EE" stroke-width="1.375" stroke-miterlimit="10" stroke-linecap="round" stroke-linejoin="round"/>
<path d="M70.3421 40.5H67.2237V30.3947H70.4803C73.4211 30.3947 75.1579 32.2895 75.1579 35.4276C75.1579 38.5855 73.4211 40.5 70.3421 40.5ZM70.4013 31.4803H68.4474V39.4145H70.2632C72.7697 39.4145 73.9737 37.8947 73.9737 35.4276C73.9737 32.9803 72.7697 31.4803 70.4013 31.4803ZM81.87 40.5V39.4737H81.8108C81.5739 39.9671 80.8832 40.6776 79.5608 40.6776C78.12 40.6776 76.9753 39.8289 76.9753 38.3487C76.9753 36.6316 78.495 36.2961 79.9161 36.1184C80.9621 35.9803 81.87 36.0197 81.87 35.5263V35.5066C81.87 34.2434 81.1989 33.8487 80.2911 33.8487C79.1661 33.8487 78.5542 34.4408 78.2976 34.9934L77.1924 34.5987C77.7845 33.2171 79.0871 32.8224 80.2318 32.8224C81.1989 32.8224 83.0345 33.0987 83.0345 35.5066V40.5H81.87ZM81.87 37.7566V36.6908C81.6726 36.9276 80.3503 37.0658 79.8568 37.125C78.9489 37.2434 78.1397 37.5197 78.1397 38.4079C78.1397 39.2171 78.8108 39.6316 79.7384 39.6316C81.12 39.6316 81.87 38.7039 81.87 37.7566ZM86.9711 41.25L87.2375 40.5493L84.425 32.9211H85.6882L87.7754 38.9605H87.8592L89.9513 32.9211H91.2145L87.9579 41.7237C87.5237 42.8882 86.7737 43.4408 85.7277 43.4408C85.3329 43.4408 84.9974 43.3618 84.879 43.3026L85.175 42.2763C86.004 42.4737 86.5369 42.375 86.9711 41.25ZM100.432 30.3947V40.5H99.2678V32.1711H99.1889C99.0507 32.4474 98.2218 32.9211 97.0573 32.9211V31.8947C98.6363 31.8947 99.2876 30.5132 99.406 30.3947H100.432ZM104.556 33.8684C104.063 33.8684 103.668 33.4737 103.668 32.9803C103.668 32.4868 104.083 32.1118 104.556 32.1118C105.05 32.1118 105.445 32.5066 105.445 32.9803C105.445 33.4737 105.05 33.8684 104.556 33.8684ZM104.556 38.9803C104.063 38.9803 103.668 38.5855 103.668 38.0921C103.668 37.5987 104.083 37.2237 104.556 37.2237C105.05 37.2237 105.445 37.6184 105.445 38.0921C105.445 38.5855 105.05 38.9803 104.556 38.9803ZM112.57 40.5H111.287L114.998 30.3947H116.261L119.972 40.5H118.689L117.736 37.7961H113.523L112.57 40.5ZM115.57 31.9934L113.907 36.7105H117.352L115.689 31.9934H115.57ZM126.103 37.5V32.9211H127.267V40.5H126.103V39.4342H126.024C125.649 40.0066 124.918 40.5987 123.774 40.5987C122.668 40.5987 121.326 39.7303 121.326 37.7368V32.9211H122.491V37.7368C122.491 38.8421 123.182 39.4737 124.149 39.4737C125.017 39.4737 126.103 38.9211 126.103 37.5ZM132.855 32.9211V34.0066H131.237V38.3289C131.237 39.3158 131.73 39.4737 132.244 39.4737C132.5 39.4737 132.658 39.4342 132.757 39.4145L132.994 40.4605C132.836 40.5197 132.559 40.5987 132.125 40.5987C131.138 40.5987 130.073 39.9671 130.073 38.6447V34.0066H128.928V32.9211H130.073V31.3026H131.237V32.9211H132.855ZM137.879 40.6579C135.826 40.6579 134.445 39.0987 134.445 36.75C134.445 34.3816 135.826 32.8224 137.879 32.8224C139.931 32.8224 141.313 34.3816 141.313 36.75C141.313 39.0987 139.931 40.6579 137.879 40.6579ZM137.879 39.6118C139.438 39.6118 140.149 38.2697 140.149 36.75C140.149 35.2303 139.438 33.8684 137.879 33.8684C136.32 33.8684 135.609 35.2303 135.609 36.75C135.609 38.2697 136.32 39.6118 137.879 39.6118ZM148.836 35.7434V40.5H147.651V35.5461C147.651 34.4013 147.119 33.9474 146.27 33.9474C145.382 33.9474 144.533 34.7368 144.533 35.9803V40.5H143.369V32.9211H144.533V34.2039H144.612C144.829 33.5526 145.619 32.8224 146.586 32.8224C147.533 32.8224 148.204 33.4342 148.54 34.1842H148.619C148.836 33.5526 149.704 32.8224 150.809 32.8224C152.072 32.8224 153.099 33.6908 153.099 35.5461V40.5H151.934V35.5066C151.934 34.3224 151.086 33.9474 150.454 33.9474C149.428 33.9474 148.836 34.6776 148.836 35.7434ZM160.045 40.5V39.4737H159.986C159.749 39.9671 159.058 40.6776 157.736 40.6776C156.295 40.6776 155.151 39.8289 155.151 38.3487C155.151 36.6316 156.67 36.2961 158.091 36.1184C159.137 35.9803 160.045 36.0197 160.045 35.5263V35.5066C160.045 34.2434 159.374 33.8487 158.466 33.8487C157.341 33.8487 156.729 34.4408 156.473 34.9934L155.368 34.5987C155.96 33.2171 157.262 32.8224 158.407 32.8224C159.374 32.8224 161.21 33.0987 161.21 35.5066V40.5H160.045ZM160.045 37.7566V36.6908C159.848 36.9276 158.526 37.0658 158.032 37.125C157.124 37.2434 156.315 37.5197 156.315 38.4079C156.315 39.2171 156.986 39.6316 157.914 39.6316C159.295 39.6316 160.045 38.7039 160.045 37.7566ZM166.709 32.9211V34.0066H165.091V38.3289C165.091 39.3158 165.584 39.4737 166.097 39.4737C166.354 39.4737 166.512 39.4342 166.611 39.4145L166.847 40.4605C166.69 40.5197 166.413 40.5987 165.979 40.5987C164.992 40.5987 163.926 39.9671 163.926 38.6447V34.0066H162.782V32.9211H163.926V31.3026H165.091V32.9211H166.709ZM169.321 31.8355C168.808 31.8355 168.492 31.4803 168.492 31.0461C168.492 30.6513 168.808 30.2566 169.321 30.2566C169.834 30.2566 170.15 30.6513 170.15 31.0461C170.15 31.4803 169.834 31.8355 169.321 31.8355ZM169.913 32.9211V40.5H168.749V32.9211H169.913ZM178.383 35.1908H177.219C177.041 34.5 176.429 33.8684 175.403 33.8684C174.041 33.8684 173.133 34.9934 173.133 36.7105C173.133 38.4671 174.021 39.6118 175.403 39.6118C176.311 39.6118 177.001 39.1184 177.219 38.2895H178.383C178.186 39.6316 177.08 40.6579 175.403 40.6579C173.291 40.6579 171.969 39.0395 171.969 36.7105C171.969 34.4408 173.33 32.8224 175.383 32.8224C176.982 32.8224 178.186 33.7697 178.383 35.1908ZM190.885 39.4145V40.5H184.707V30.3947H190.806V31.4803H185.931V34.8947H190.292V35.9803H185.931V39.4145H190.885ZM198.598 35.7434V40.5H197.414V35.5461C197.414 34.4013 196.881 33.9474 196.033 33.9474C195.144 33.9474 194.296 34.7368 194.296 35.9803V40.5H193.131V32.9211H194.296V34.2039H194.375C194.592 33.5526 195.381 32.8224 196.348 32.8224C197.296 32.8224 197.967 33.4342 198.302 34.1842H198.381C198.598 33.5526 199.467 32.8224 200.572 32.8224C201.835 32.8224 202.861 33.6908 202.861 35.5461V40.5H201.697V35.5066C201.697 34.3224 200.848 33.9474 200.217 33.9474C199.19 33.9474 198.598 34.6776 198.598 35.7434ZM209.808 40.5V39.4737H209.749C209.512 39.9671 208.821 40.6776 207.499 40.6776C206.058 40.6776 204.913 39.8289 204.913 38.3487C204.913 36.6316 206.433 36.2961 207.854 36.1184C208.9 35.9803 209.808 36.0197 209.808 35.5263V35.5066C209.808 34.2434 209.137 33.8487 208.229 33.8487C207.104 33.8487 206.492 34.4408 206.236 34.9934L205.13 34.5987C205.722 33.2171 207.025 32.8224 208.17 32.8224C209.137 32.8224 210.972 33.0987 210.972 35.5066V40.5H209.808ZM209.808 37.7566V36.6908C209.611 36.9276 208.288 37.0658 207.795 37.125C206.887 37.2434 206.078 37.5197 206.078 38.4079C206.078 39.2171 206.749 39.6316 207.676 39.6316C209.058 39.6316 209.808 38.7039 209.808 37.7566ZM213.948 31.8355C213.435 31.8355 213.119 31.4803 213.119 31.0461C213.119 30.6513 213.435 30.2566 213.948 30.2566C214.461 30.2566 214.777 30.6513 214.777 31.0461C214.777 31.4803 214.461 31.8355 213.948 31.8355ZM214.54 32.9211V40.5H213.376V32.9211H214.54ZM218.115 30.3947V40.5H216.951V30.3947H218.115Z" fill="#A9B8EE"/>
<rect x="66" y="49.5" width="90" height="10" rx="5" fill="#96ADFF" fill-opacity="0.1"/>
<rect x="162" y="49.5" width="45" height="10" rx="5" fill="#96ADFF" fill-opacity="0.1"/>
<rect x="213" y="49.5" width="66" height="10" rx="5" fill="#96ADFF" fill-opacity="0.1"/>
<rect x="285" y="49.5" width="66" height="10" rx="5" fill="#96ADFF" fill-opacity="0.1"/>
<g opacity="0.6">
<rect x="12" y="82" width="352.727" height="54" rx="11.7391" fill="#6D72E2" fill-opacity="0.1"/>
<rect x="23" y="93" width="33" height="33" rx="11" fill="#5F5D92" fill-opacity="0.56"/>
<path d="M44.0833 106.751L41.2141 109.042C40.2699 109.794 38.7207 109.794 37.7766 109.042L34.9166 106.751M44.0833 117.292H34.9166C32.1666 117.292 30.3333 115.917 30.3333 112.709V106.292C30.3333 103.084 32.1666 101.709 34.9166 101.709H44.0833C46.8333 101.709 48.6666 103.084 48.6666 106.292V112.709C48.6666 115.917 46.8333 117.292 44.0833 117.292Z" stroke="#A9B8EE" stroke-width="1.375" stroke-miterlimit="10" stroke-linecap="round" stroke-linejoin="round"/>
<path d="M70.3421 106.5H67.2237V96.3947H70.4803C73.4211 96.3947 75.1579 98.2895 75.1579 101.428C75.1579 104.586 73.4211 106.5 70.3421 106.5ZM70.4013 97.4803H68.4474V105.414H70.2632C72.7697 105.414 73.9737 103.895 73.9737 101.428C73.9737 98.9803 72.7697 97.4803 70.4013 97.4803ZM81.87 106.5V105.474H81.8108C81.5739 105.967 80.8832 106.678 79.5608 106.678C78.12 106.678 76.9753 105.829 76.9753 104.349C76.9753 102.632 78.495 102.296 79.9161 102.118C80.9621 101.98 81.87 102.02 81.87 101.526V101.507C81.87 100.243 81.1989 99.8487 80.2911 99.8487C79.1661 99.8487 78.5542 100.441 78.2976 100.993L77.1924 100.599C77.7845 99.2171 79.0871 98.8224 80.2318 98.8224C81.1989 98.8224 83.0345 99.0987 83.0345 101.507V106.5H81.87ZM81.87 103.757V102.691C81.6726 102.928 80.3503 103.066 79.8568 103.125C78.9489 103.243 78.1397 103.52 78.1397 104.408C78.1397 105.217 78.8108 105.632 79.7384 105.632C81.12 105.632 81.87 104.704 81.87 103.757ZM86.9711 107.25L87.2375 106.549L84.425 98.9211H85.6882L87.7754 104.961H87.8592L89.9513 98.9211H91.2145L87.9579 107.724C87.5237 108.888 86.7737 109.441 85.7277 109.441C85.3329 109.441 84.9974 109.362 84.879 109.303L85.175 108.276C86.004 108.474 86.5369 108.375 86.9711 107.25ZM99.5047 101.941V100.816H100.077C101.34 100.816 102.051 100.007 102.051 99.0395C102.051 97.9145 101.281 97.2237 100.195 97.2237C99.1099 97.2237 98.3994 97.9342 98.3994 98.9211H97.2349C97.2349 97.4408 98.281 96.2566 100.215 96.2566C101.972 96.2566 103.255 97.2237 103.255 99.0592C103.255 99.7747 102.83 100.811 101.765 101.329C103.102 101.783 103.472 102.863 103.472 103.757C103.472 105.572 101.972 106.638 100.176 106.638C98.3994 106.638 97.1363 105.711 97.1363 103.974H98.3994C98.3994 104.98 99.031 105.592 100.156 105.592C101.281 105.592 102.189 104.98 102.189 103.757C102.189 102.553 101.301 101.941 100.077 101.941H99.5047ZM106.632 99.8684C106.139 99.8684 105.744 99.4737 105.744 98.9803C105.744 98.4868 106.159 98.1118 106.632 98.1118C107.126 98.1118 107.521 98.5066 107.521 98.9803C107.521 99.4737 107.126 99.8684 106.632 99.8684ZM106.632 104.98C106.139 104.98 105.744 104.586 105.744 104.092C105.744 103.599 106.159 103.224 106.632 103.224C107.126 103.224 107.521 103.618 107.521 104.092C107.521 104.586 107.126 104.98 106.632 104.98ZM114.646 106.5H113.363L117.074 96.3947H118.337L122.048 106.5H120.765L119.812 103.796H115.599L114.646 106.5ZM117.646 97.9934L115.984 102.711H119.428L117.765 97.9934H117.646ZM128.179 103.5V98.9211H129.343V106.5H128.179V105.434H128.1C127.725 106.007 126.995 106.599 125.85 106.599C124.745 106.599 123.402 105.73 123.402 103.737V98.9211H124.567V103.737C124.567 104.842 125.258 105.474 126.225 105.474C127.093 105.474 128.179 104.921 128.179 103.5ZM134.932 98.9211V100.007H133.313V104.329C133.313 105.316 133.807 105.474 134.32 105.474C134.576 105.474 134.734 105.434 134.833 105.414L135.07 106.461C134.912 106.52 134.636 106.599 134.201 106.599C133.214 106.599 132.149 105.967 132.149 104.645V100.007H131.004V98.9211H132.149V97.3026H133.313V98.9211H134.932ZM139.955 106.658C137.902 106.658 136.521 105.099 136.521 102.75C136.521 100.382 137.902 98.8224 139.955 98.8224C142.008 98.8224 143.389 100.382 143.389 102.75C143.389 105.099 142.008 106.658 139.955 106.658ZM139.955 105.612C141.514 105.612 142.225 104.27 142.225 102.75C142.225 101.23 141.514 99.8684 139.955 99.8684C138.396 99.8684 137.685 101.23 137.685 102.75C137.685 104.27 138.396 105.612 139.955 105.612ZM150.912 101.743V106.5H149.727V101.546C149.727 100.401 149.195 99.9474 148.346 99.9474C147.458 99.9474 146.609 100.737 146.609 101.98V106.5H145.445V98.9211H146.609V100.204H146.688C146.905 99.5526 147.695 98.8224 148.662 98.8224C149.609 98.8224 150.28 99.4342 150.616 100.184H150.695C150.912 99.5526 151.78 98.8224 152.885 98.8224C154.149 98.8224 155.175 99.6908 155.175 101.546V106.5H154.01V101.507C154.01 100.322 153.162 99.9474 152.53 99.9474C151.504 99.9474 150.912 100.678 150.912 101.743ZM162.121 106.5V105.474H162.062C161.825 105.967 161.134 106.678 159.812 106.678C158.371 106.678 157.227 105.829 157.227 104.349C157.227 102.632 158.746 102.296 160.167 102.118C161.213 101.98 162.121 102.02 162.121 101.526V101.507C162.121 100.243 161.45 99.8487 160.542 99.8487C159.417 99.8487 158.806 100.441 158.549 100.993L157.444 100.599C158.036 99.2171 159.338 98.8224 160.483 98.8224C161.45 98.8224 163.286 99.0987 163.286 101.507V106.5H162.121ZM162.121 103.757V102.691C161.924 102.928 160.602 103.066 160.108 103.125C159.2 103.243 158.391 103.52 158.391 104.408C158.391 105.217 159.062 105.632 159.99 105.632C161.371 105.632 162.121 104.704 162.121 103.757ZM168.785 98.9211V100.007H167.167V104.329C167.167 105.316 167.66 105.474 168.173 105.474C168.43 105.474 168.588 105.434 168.687 105.414L168.923 106.461C168.766 106.52 168.489 106.599 168.055 106.599C167.068 106.599 166.002 105.967 166.002 104.645V100.007H164.858V98.9211H166.002V97.3026H167.167V98.9211H168.785ZM171.397 97.8355C170.884 97.8355 170.568 97.4803 170.568 97.0461C170.568 96.6513 170.884 96.2566 171.397 96.2566C171.91 96.2566 172.226 96.6513 172.226 97.0461C172.226 97.4803 171.91 97.8355 171.397 97.8355ZM171.989 98.9211V106.5H170.825V98.9211H171.989ZM180.459 101.191H179.295C179.117 100.5 178.505 99.8684 177.479 99.8684C176.117 99.8684 175.209 100.993 175.209 102.711C175.209 104.467 176.097 105.612 177.479 105.612C178.387 105.612 179.078 105.118 179.295 104.289H180.459C180.262 105.632 179.156 106.658 177.479 106.658C175.367 106.658 174.045 105.039 174.045 102.711C174.045 100.441 175.406 98.8224 177.459 98.8224C179.058 98.8224 180.262 99.7697 180.459 101.191ZM192.961 105.414V106.5H186.783V96.3947H192.882V97.4803H188.007V100.895H192.369V101.98H188.007V105.414H192.961ZM200.674 101.743V106.5H199.49V101.546C199.49 100.401 198.957 99.9474 198.109 99.9474C197.22 99.9474 196.372 100.737 196.372 101.98V106.5H195.207V98.9211H196.372V100.204H196.451C196.668 99.5526 197.457 98.8224 198.424 98.8224C199.372 98.8224 200.043 99.4342 200.378 100.184H200.457C200.674 99.5526 201.543 98.8224 202.648 98.8224C203.911 98.8224 204.938 99.6908 204.938 101.546V106.5H203.773V101.507C203.773 100.322 202.924 99.9474 202.293 99.9474C201.266 99.9474 200.674 100.678 200.674 101.743ZM211.884 106.5V105.474H211.825C211.588 105.967 210.897 106.678 209.575 106.678C208.134 106.678 206.989 105.829 206.989 104.349C206.989 102.632 208.509 102.296 209.93 102.118C210.976 101.98 211.884 102.02 211.884 101.526V101.507C211.884 100.243 211.213 99.8487 210.305 99.8487C209.18 99.8487 208.568 100.441 208.312 100.993L207.206 100.599C207.798 99.2171 209.101 98.8224 210.246 98.8224C211.213 98.8224 213.049 99.0987 213.049 101.507V106.5H211.884ZM211.884 103.757V102.691C211.687 102.928 210.364 103.066 209.871 103.125C208.963 103.243 208.154 103.52 208.154 104.408C208.154 105.217 208.825 105.632 209.752 105.632C211.134 105.632 211.884 104.704 211.884 103.757ZM216.024 97.8355C215.511 97.8355 215.195 97.4803 215.195 97.0461C215.195 96.6513 215.511 96.2566 216.024 96.2566C216.537 96.2566 216.853 96.6513 216.853 97.0461C216.853 97.4803 216.537 97.8355 216.024 97.8355ZM216.616 98.9211V106.5H215.452V98.9211H216.616ZM220.191 96.3947V106.5H219.027V96.3947H220.191Z" fill="#A9B8EE"/>
<rect x="66" y="115.5" width="90" height="10" rx="5" fill="#96ADFF" fill-opacity="0.1"/>
<rect x="162" y="115.5" width="66" height="10" rx="5" fill="#96ADFF" fill-opacity="0.1"/>
<rect x="234" y="115.5" width="45" height="10" rx="5" fill="#96ADFF" fill-opacity="0.1"/>
<rect x="285" y="115.5" width="66" height="10" rx="5" fill="#96ADFF" fill-opacity="0.1"/>
</g>
<g opacity="0.3">
<rect x="12" y="148" width="352.727" height="54" rx="11.7391" fill="#6D72E2" fill-opacity="0.1"/>
<rect x="23" y="159" width="33" height="33" rx="11" fill="#5F5D92" fill-opacity="0.56"/>
<path d="M44.0833 172.751L41.2141 175.042C40.2699 175.794 38.7207 175.794 37.7766 175.042L34.9166 172.751M44.0833 183.292H34.9166C32.1666 183.292 30.3333 181.917 30.3333 178.709V172.292C30.3333 169.084 32.1666 167.709 34.9166 167.709H44.0833C46.8333 167.709 48.6666 169.084 48.6666 172.292V178.709C48.6666 181.917 46.8333 183.292 44.0833 183.292Z" stroke="#A9B8EE" stroke-width="1.375" stroke-miterlimit="10" stroke-linecap="round" stroke-linejoin="round"/>
<path d="M70.3421 172.5H67.2237V162.395H70.4803C73.4211 162.395 75.1579 164.289 75.1579 167.428C75.1579 170.586 73.4211 172.5 70.3421 172.5ZM70.4013 163.48H68.4474V171.414H70.2632C72.7697 171.414 73.9737 169.895 73.9737 167.428C73.9737 164.98 72.7697 163.48 70.4013 163.48ZM81.87 172.5V171.474H81.8108C81.5739 171.967 80.8832 172.678 79.5608 172.678C78.12 172.678 76.9753 171.829 76.9753 170.349C76.9753 168.632 78.495 168.296 79.9161 168.118C80.9621 167.98 81.87 168.02 81.87 167.526V167.507C81.87 166.243 81.1989 165.849 80.2911 165.849C79.1661 165.849 78.5542 166.441 78.2976 166.993L77.1924 166.599C77.7845 165.217 79.0871 164.822 80.2318 164.822C81.1989 164.822 83.0345 165.099 83.0345 167.507V172.5H81.87ZM81.87 169.757V168.691C81.6726 168.928 80.3503 169.066 79.8568 169.125C78.9489 169.243 78.1397 169.52 78.1397 170.408C78.1397 171.217 78.8108 171.632 79.7384 171.632C81.12 171.632 81.87 170.704 81.87 169.757ZM86.9711 173.25L87.2375 172.549L84.425 164.921H85.6882L87.7754 170.961H87.8592L89.9513 164.921H91.2145L87.9579 173.724C87.5237 174.888 86.7737 175.441 85.7277 175.441C85.3329 175.441 84.9974 175.362 84.879 175.303L85.175 174.276C86.004 174.474 86.5369 174.375 86.9711 173.25ZM99.5047 167.941V166.816H100.077C101.34 166.816 102.051 166.007 102.051 165.039C102.051 163.914 101.281 163.224 100.195 163.224C99.1099 163.224 98.3994 163.934 98.3994 164.921H97.2349C97.2349 163.441 98.281 162.257 100.215 162.257C101.972 162.257 103.255 163.224 103.255 165.059C103.255 165.775 102.83 166.811 101.765 167.329C103.102 167.783 103.472 168.863 103.472 169.757C103.472 171.572 101.972 172.638 100.176 172.638C98.3994 172.638 97.1363 171.711 97.1363 169.974H98.3994C98.3994 170.98 99.031 171.592 100.156 171.592C101.281 171.592 102.189 170.98 102.189 169.757C102.189 168.553 101.301 167.941 100.077 167.941H99.5047ZM106.632 165.868C106.139 165.868 105.744 165.474 105.744 164.98C105.744 164.487 106.159 164.112 106.632 164.112C107.126 164.112 107.521 164.507 107.521 164.98C107.521 165.474 107.126 165.868 106.632 165.868ZM106.632 170.98C106.139 170.98 105.744 170.586 105.744 170.092C105.744 169.599 106.159 169.224 106.632 169.224C107.126 169.224 107.521 169.618 107.521 170.092C107.521 170.586 107.126 170.98 106.632 170.98ZM114.646 172.5H113.363L117.074 162.395H118.337L122.048 172.5H120.765L119.812 169.796H115.599L114.646 172.5ZM117.646 163.993L115.984 168.711H119.428L117.765 163.993H117.646ZM128.179 169.5V164.921H129.343V172.5H128.179V171.434H128.1C127.725 172.007 126.995 172.599 125.85 172.599C124.745 172.599 123.402 171.73 123.402 169.737V164.921H124.567V169.737C124.567 170.842 125.258 171.474 126.225 171.474C127.093 171.474 128.179 170.921 128.179 169.5ZM134.932 164.921V166.007H133.313V170.329C133.313 171.316 133.807 171.474 134.32 171.474C134.576 171.474 134.734 171.434 134.833 171.414L135.07 172.461C134.912 172.52 134.636 172.599 134.201 172.599C133.214 172.599 132.149 171.967 132.149 170.645V166.007H131.004V164.921H132.149V163.303H133.313V164.921H134.932ZM139.955 172.658C137.902 172.658 136.521 171.099 136.521 168.75C136.521 166.382 137.902 164.822 139.955 164.822C142.008 164.822 143.389 166.382 143.389 168.75C143.389 171.099 142.008 172.658 139.955 172.658ZM139.955 171.612C141.514 171.612 142.225 170.27 142.225 168.75C142.225 167.23 141.514 165.868 139.955 165.868C138.396 165.868 137.685 167.23 137.685 168.75C137.685 170.27 138.396 171.612 139.955 171.612ZM150.912 167.743V172.5H149.727V167.546C149.727 166.401 149.195 165.947 148.346 165.947C147.458 165.947 146.609 166.737 146.609 167.98V172.5H145.445V164.921H146.609V166.204H146.688C146.905 165.553 147.695 164.822 148.662 164.822C149.609 164.822 150.28 165.434 150.616 166.184H150.695C150.912 165.553 151.78 164.822 152.885 164.822C154.149 164.822 155.175 165.691 155.175 167.546V172.5H154.01V167.507C154.01 166.322 153.162 165.947 152.53 165.947C151.504 165.947 150.912 166.678 150.912 167.743ZM162.121 172.5V171.474H162.062C161.825 171.967 161.134 172.678 159.812 172.678C158.371 172.678 157.227 171.829 157.227 170.349C157.227 168.632 158.746 168.296 160.167 168.118C161.213 167.98 162.121 168.02 162.121 167.526V167.507C162.121 166.243 161.45 165.849 160.542 165.849C159.417 165.849 158.806 166.441 158.549 166.993L157.444 166.599C158.036 165.217 159.338 164.822 160.483 164.822C161.45 164.822 163.286 165.099 163.286 167.507V172.5H162.121ZM162.121 169.757V168.691C161.924 168.928 160.602 169.066 160.108 169.125C159.2 169.243 158.391 169.52 158.391 170.408C158.391 171.217 159.062 171.632 159.99 171.632C161.371 171.632 162.121 170.704 162.121 169.757ZM168.785 164.921V166.007H167.167V170.329C167.167 171.316 167.66 171.474 168.173 171.474C168.43 171.474 168.588 171.434 168.687 171.414L168.923 172.461C168.766 172.52 168.489 172.599 168.055 172.599C167.068 172.599 166.002 171.967 166.002 170.645V166.007H164.858V164.921H166.002V163.303H167.167V164.921H168.785ZM171.397 163.836C170.884 163.836 170.568 163.48 170.568 163.046C170.568 162.651 170.884 162.257 171.397 162.257C171.91 162.257 172.226 162.651 172.226 163.046C172.226 163.48 171.91 163.836 171.397 163.836ZM171.989 164.921V172.5H170.825V164.921H171.989ZM180.459 167.191H179.295C179.117 166.5 178.505 165.868 177.479 165.868C176.117 165.868 175.209 166.993 175.209 168.711C175.209 170.467 176.097 171.612 177.479 171.612C178.387 171.612 179.078 171.118 179.295 170.289H180.459C180.262 171.632 179.156 172.658 177.479 172.658C175.367 172.658 174.045 171.039 174.045 168.711C174.045 166.441 175.406 164.822 177.459 164.822C179.058 164.822 180.262 165.77 180.459 167.191ZM192.961 171.414V172.5H186.783V162.395H192.882V163.48H188.007V166.895H192.369V167.98H188.007V171.414H192.961ZM200.674 167.743V172.5H199.49V167.546C199.49 166.401 198.957 165.947 198.109 165.947C197.22 165.947 196.372 166.737 196.372 167.98V172.5H195.207V164.921H196.372V166.204H196.451C196.668 165.553 197.457 164.822 198.424 164.822C199.372 164.822 200.043 165.434 200.378 166.184H200.457C200.674 165.553 201.543 164.822 202.648 164.822C203.911 164.822 204.938 165.691 204.938 167.546V172.5H203.773V167.507C203.773 166.322 202.924 165.947 202.293 165.947C201.266 165.947 200.674 166.678 200.674 167.743ZM211.884 172.5V171.474H211.825C211.588 171.967 210.897 172.678 209.575 172.678C208.134 172.678 206.989 171.829 206.989 170.349C206.989 168.632 208.509 168.296 209.93 168.118C210.976 167.98 211.884 168.02 211.884 167.526V167.507C211.884 166.243 211.213 165.849 210.305 165.849C209.18 165.849 208.568 166.441 208.312 166.993L207.206 166.599C207.798 165.217 209.101 164.822 210.246 164.822C211.213 164.822 213.049 165.099 213.049 167.507V172.5H211.884ZM211.884 169.757V168.691C211.687 168.928 210.364 169.066 209.871 169.125C208.963 169.243 208.154 169.52 208.154 170.408C208.154 171.217 208.825 171.632 209.752 171.632C211.134 171.632 211.884 170.704 211.884 169.757ZM216.024 163.836C215.511 163.836 215.195 163.48 215.195 163.046C215.195 162.651 215.511 162.257 216.024 162.257C216.537 162.257 216.853 162.651 216.853 163.046C216.853 163.48 216.537 163.836 216.024 163.836ZM216.616 164.921V172.5H215.452V164.921H216.616ZM220.191 162.395V172.5H219.027V162.395H220.191Z" fill="#A9B8EE"/>
<rect x="66" y="181.5" width="90" height="10" rx="5" fill="#96ADFF" fill-opacity="0.1"/>
<rect x="162" y="181.5" width="46" height="10" rx="5" fill="#96ADFF" fill-opacity="0.1"/>
<rect x="214" y="181.5" width="66" height="10" rx="5" fill="#96ADFF" fill-opacity="0.1"/>
<rect x="286" y="181.5" width="66" height="10" rx="5" fill="#96ADFF" fill-opacity="0.1"/>
</g>
<defs>
<linearGradient id="paint0_linear_807_3355" x1="379" y1="22" x2="16.9046" y2="284.337" gradientUnits="userSpaceOnUse">
<stop stop-color="#3A3B54"/>
<stop offset="1" stop-color="#564B76" stop-opacity="0.38"/>
</linearGradient>
</defs>
</svg>
