<svg width="427" height="351" viewBox="0 0 427 351" fill="none" xmlns="http://www.w3.org/2000/svg">
<rect x="2" y="2" width="423" height="347" rx="20" fill="#16183A" fill-opacity="0.5"/>
<rect x="2" y="2" width="423" height="347" rx="20" fill="url(#paint0_linear_807_2923)" fill-opacity="0.35"/>
<rect x="1" y="1" width="425" height="349" rx="21" stroke="url(#paint1_linear_807_2923)" stroke-opacity="0.05" stroke-width="2" stroke-linecap="round"/>
<path fill-rule="evenodd" clip-rule="evenodd" d="M340.276 129.361C314.043 129.361 292.776 108.095 292.776 81.8613C292.776 55.6278 314.043 34.3613 340.276 34.3613C366.51 34.3613 387.776 55.6278 387.776 81.8613C387.776 108.095 366.51 129.361 340.276 129.361ZM340.275 104.276C327.896 104.276 317.861 94.2405 317.861 81.8614C317.861 69.4823 327.896 59.4471 340.275 59.4471C352.654 59.4471 362.689 69.4823 362.689 81.8614C362.689 94.2405 352.654 104.276 340.275 104.276Z" fill="#B379EE" fill-opacity="0.18"/>
<path fill-rule="evenodd" clip-rule="evenodd" d="M298.395 104.298C294.808 97.6161 292.773 89.9764 292.773 81.8613C292.773 55.6278 314.039 34.3613 340.273 34.3613C359.191 34.3613 375.527 45.4214 383.166 61.4283L360.513 72.2207C356.908 64.6667 349.2 59.4471 340.272 59.4471C327.893 59.4471 317.858 69.4823 317.858 81.8614C317.858 85.6913 318.818 89.2968 320.512 92.4502L298.395 104.298Z" fill="#798CF1" fill-opacity="0.33"/>
<path fill-rule="evenodd" clip-rule="evenodd" d="M298.397 104.297C294.809 97.6155 292.774 89.9761 292.774 81.8613C292.774 55.6278 314.041 34.3613 340.274 34.3613C344.249 34.3613 348.11 34.8495 351.8 35.7693L345.714 60.112C343.972 59.6776 342.15 59.4471 340.274 59.4471C327.894 59.4471 317.859 69.4823 317.859 81.8614C317.859 85.691 318.82 89.2962 320.513 92.4494L298.397 104.297Z" fill="#DBC4F8" fill-opacity="0.52"/>
<rect x="288.274" y="149.361" width="106" height="19" rx="7.6333" fill="#B8A3F2" fill-opacity="0.1"/>
<rect x="288.274" y="180.361" width="85" height="19" rx="7.6333" fill="#B8A3F2" fill-opacity="0.05"/>
<path d="M36 40L32 44L36 48" stroke="#C8C7F6" stroke-opacity="0.25" stroke-width="1.5" stroke-linecap="round" stroke-linejoin="round"/>
<path opacity="0.75" d="M114.886 50H113.409L117.682 38.3636H119.136L123.409 50H121.932L120.835 46.8864H115.983L114.886 50ZM118.341 40.2045L116.426 45.6364H120.392L118.477 40.2045H118.341ZM130.469 46.5455V41.2727H131.81V50H130.469V48.7727H130.378C129.946 49.4318 129.106 50.1136 127.787 50.1136C126.515 50.1136 124.969 49.1136 124.969 46.8182V41.2727H126.31V46.8182C126.31 48.0909 127.106 48.8182 128.219 48.8182C129.219 48.8182 130.469 48.1818 130.469 46.5455ZM140.586 41.2727H141.881V50.0682C141.881 52.3182 140.086 53.2727 138.063 53.2727C136.2 53.2727 135.086 52.4545 134.541 51.5227L135.609 50.7727C135.95 51.2045 136.563 52.0682 138.063 52.0682C139.404 52.0682 140.563 51.3864 140.541 49.9318V48.3864H140.427C140.131 48.8636 139.586 49.8636 137.881 49.8636C135.768 49.8636 134.177 48.3182 134.177 45.5909C134.177 42.9091 135.7 41.1591 137.904 41.1591C139.609 41.1591 140.154 42.2045 140.45 42.6591H140.586V41.2727ZM135.518 45.5682C135.518 47.3864 136.381 48.6591 138.063 48.6591C139.677 48.6591 140.563 47.5 140.563 45.5682C140.563 43.6818 139.7 42.3636 138.063 42.3636C136.359 42.3636 135.518 43.7955 135.518 45.5682ZM150.156 46.5455V41.2727H151.497V50H150.156V48.7727H150.065C149.633 49.4318 148.792 50.1136 147.474 50.1136C146.201 50.1136 144.656 49.1136 144.656 46.8182V41.2727H145.997V46.8182C145.997 48.0909 146.792 48.8182 147.906 48.8182C148.906 48.8182 150.156 48.1818 150.156 46.5455ZM160.296 43.2273L159.091 43.5682C158.932 43.1818 158.591 42.2955 157.25 42.2955C156.182 42.2955 155.387 42.8636 155.387 43.6136C155.387 44.2045 155.864 44.7273 156.864 44.9773L158.159 45.2955C159.75 45.6818 160.409 46.5909 160.409 47.5909C160.409 48.9318 159.25 50.1818 157.091 50.1818C155 50.1818 154.046 49.0682 153.614 47.9773L154.841 47.5227C155.159 48.3182 155.773 49.0227 157.068 49.0227C158.318 49.0227 159.046 48.3636 159.046 47.6364C159.046 47.0682 158.659 46.6818 157.796 46.4773L156.341 46.1136C154.75 45.7045 154.046 44.75 154.046 43.6818C154.046 42.2045 155.409 41.1591 157.25 41.1591C158.864 41.1591 159.841 41.9545 160.296 43.2273ZM166.471 41.2727V42.5227H164.607V47.5C164.607 48.6364 165.175 48.8182 165.766 48.8182C166.062 48.8182 166.243 48.7727 166.357 48.75L166.63 49.9545C166.448 50.0227 166.13 50.1136 165.63 50.1136C164.493 50.1136 163.266 49.3864 163.266 47.8636V42.5227H161.948V41.2727H163.266V39.4091H164.607V41.2727H166.471Z" fill="#C8C7F7" fill-opacity="0.5"/>
<path d="M245 40L249 44L245 48" stroke="#C8C7F6" stroke-opacity="0.25" stroke-width="1.5" stroke-linecap="round" stroke-linejoin="round"/>
<mask id="mask0_807_2923" style="mask-type:alpha" maskUnits="userSpaceOnUse" x="6" y="93" width="271" height="226">
<rect x="6" y="93" width="271" height="226" fill="url(#paint2_radial_807_2923)"/>
</mask>
<g mask="url(#mask0_807_2923)">
<path d="M19 113C19 107.477 23.4772 103 29 103H54.4286V137H19V113Z" stroke="#8780A9" stroke-opacity="0.2"/>
<rect x="54.4285" y="103" width="35.4286" height="34" stroke="#8780A9" stroke-opacity="0.2"/>
<rect x="89.8572" y="103" width="35.4286" height="34" stroke="#8780A9" stroke-opacity="0.2"/>
<rect x="125.286" y="103" width="35.4286" height="34" stroke="#8780A9" stroke-opacity="0.2"/>
<rect x="160.714" y="103" width="35.4286" height="34" stroke="#8780A9" stroke-opacity="0.2"/>
<rect x="196.143" y="103" width="35.4286" height="34" stroke="#8780A9" stroke-opacity="0.2"/>
<path d="M231.571 103H257C262.523 103 267 107.477 267 113V137H231.571V103Z" stroke="#8780A9"/>
<rect x="19" y="137" width="35.4286" height="34" stroke="#8780A9"/>
<rect x="54.4285" y="137" width="35.4286" height="34" stroke="#8780A9"/>
<rect x="89.8572" y="137" width="35.4286" height="34" stroke="#8780A9"/>
<rect x="125.286" y="137" width="35.4286" height="34" stroke="#8780A9"/>
<rect x="160.714" y="137" width="35.4286" height="34" stroke="#8780A9"/>
<rect x="196.143" y="137" width="35.4286" height="34" stroke="#8780A9"/>
<rect x="231.571" y="137" width="35.4286" height="34" stroke="#8780A9"/>
<rect x="19" y="171" width="35.4286" height="34" stroke="#8780A9"/>
<rect x="54.4285" y="171" width="35.4286" height="34" stroke="#8780A9"/>
<rect x="89.8572" y="171" width="35.4286" height="34" stroke="#8780A9"/>
<rect x="125.286" y="171" width="35.4286" height="34" stroke="#8780A9"/>
<rect x="160.714" y="171" width="35.4286" height="34" stroke="#8780A9"/>
<rect x="196.143" y="171" width="35.4286" height="34" stroke="#8780A9"/>
<rect x="231.571" y="171" width="35.4286" height="34" stroke="#8780A9"/>
<rect x="19" y="205" width="35.4286" height="34" stroke="#8780A9"/>
<rect x="54.4285" y="205" width="35.4286" height="34" stroke="#8780A9"/>
<rect x="89.8572" y="205" width="35.4286" height="34" fill="#8C88B6" stroke="#8780A9"/>
<rect x="125.286" y="205" width="35.4286" height="34" stroke="#8780A9"/>
<rect x="160.714" y="205" width="35.4286" height="34" stroke="#8780A9"/>
<rect x="196.143" y="205" width="35.4286" height="34" stroke="#8780A9"/>
<rect x="231.571" y="205" width="35.4286" height="34" stroke="#8780A9"/>
<rect x="19" y="239" width="35.4286" height="34" stroke="#8780A9"/>
<rect x="54.4285" y="239" width="35.4286" height="34" stroke="#8780A9"/>
<rect x="89.8572" y="239" width="35.4286" height="34" stroke="#8780A9"/>
<rect x="125.286" y="239" width="35.4286" height="34" stroke="#8780A9"/>
<rect x="160.714" y="239" width="35.4286" height="34" stroke="#8780A9"/>
<rect x="196.143" y="239" width="35.4286" height="34" stroke="#8780A9"/>
<rect x="231.571" y="239" width="35.4286" height="34" stroke="#8780A9"/>
<path d="M19 273H54.4286V307H29C23.4771 307 19 302.523 19 297V273Z" stroke="#8780A9"/>
<rect x="54.4285" y="273" width="35.4286" height="34" stroke="#8780A9"/>
<rect x="89.8572" y="273" width="35.4286" height="34" stroke="#8780A9" stroke-opacity="0.2"/>
<rect x="125.286" y="273" width="35.4286" height="34" stroke="#8780A9" stroke-opacity="0.2"/>
<rect x="160.714" y="273" width="35.4286" height="34" stroke="#8780A9" stroke-opacity="0.2"/>
<rect x="196.143" y="273" width="35.4286" height="34" stroke="#8780A9" stroke-opacity="0.2"/>
<path d="M231.571 273H267V297C267 302.523 262.523 307 257 307H231.571V273Z" stroke="#8780A9" stroke-opacity="0.2"/>
</g>
<g filter="url(#filter0_d_807_2923)">
<rect x="82" y="197" width="50" height="50" rx="6" fill="url(#paint3_linear_807_2923)"/>
</g>
<path opacity="0.75" d="M112.944 207.8V219H110.352V209.88H108.112V207.8H112.944ZM123.578 216.888V219H115.114V217.32L119.434 213.24C119.892 212.803 120.202 212.429 120.362 212.12C120.522 211.8 120.602 211.485 120.602 211.176C120.602 210.728 120.447 210.387 120.138 210.152C119.839 209.907 119.396 209.784 118.81 209.784C118.319 209.784 117.876 209.88 117.482 210.072C117.087 210.253 116.756 210.531 116.49 210.904L114.602 209.688C115.039 209.037 115.642 208.531 116.41 208.168C117.178 207.795 118.058 207.608 119.05 207.608C119.882 207.608 120.607 207.747 121.226 208.024C121.855 208.291 122.34 208.675 122.682 209.176C123.034 209.667 123.21 210.248 123.21 210.92C123.21 211.528 123.082 212.099 122.826 212.632C122.57 213.165 122.074 213.773 121.338 214.456L118.762 216.888H123.578Z" fill="white"/>
<rect x="90" y="231" width="25" height="7" rx="3" fill="white" fill-opacity="0.76"/>
<rect x="184" y="246" width="60" height="7" rx="3" fill="#CE98C9" fill-opacity="0.73"/>
<rect x="201" y="191" width="26" height="7" rx="3" fill="#9587B8"/>
<rect x="131" y="144" width="60" height="7" rx="3" fill="#C0AB8C"/>
<rect x="149" y="258" width="60" height="7" rx="3" fill="#8FA1E1"/>
<rect x="60" y="157" width="96" height="7" rx="3" fill="#8CCDB6" fill-opacity="0.56"/>
<g opacity="0.5">
<path opacity="0.3" d="M25.7614 80.4432C25.5824 79.3494 24.7074 78.7727 23.4744 78.7727C22.1222 78.7727 21.2273 79.4886 21.2273 80.483C21.2273 81.2983 21.8438 81.7955 23.196 82.1534L24.2301 82.4318C26.1591 82.9489 27.0938 83.804 27.0938 85.2159C27.0938 86.8864 25.7614 88.179 23.4148 88.179C21.2273 88.179 19.875 87.0455 19.7557 85.375H21.0284C21.1278 86.5284 22.2017 87.0653 23.4148 87.0653C24.8267 87.0653 25.9006 86.3295 25.9006 85.2159C25.9006 84.3011 25.2443 83.9233 23.8722 83.5256L22.6193 83.1676C21.0284 82.7102 20.0341 81.8949 20.0341 80.5227C20.0341 78.8125 21.5653 77.679 23.5142 77.679C25.483 77.679 26.8551 78.8324 26.9545 80.4432H25.7614ZM34.0531 84.9773V80.3636H35.2264V88H34.0531V86.9261H33.9735C33.5957 87.5028 32.8599 88.0994 31.7065 88.0994C30.5929 88.0994 29.2406 87.2244 29.2406 85.2159V80.3636H30.4139V85.2159C30.4139 86.3295 31.1099 86.9659 32.0843 86.9659C32.9593 86.9659 34.0531 86.4091 34.0531 84.9773ZM38.8286 83.4858V88H37.6553V80.3636H38.8286V81.6562H38.9082C39.2661 80.8807 40.0218 80.2642 41.1752 80.2642C42.6071 80.2642 43.6411 81.1989 43.6411 83.1477V88H42.4678V83.2273C42.4678 82.1136 41.7718 81.3977 40.7974 81.3977C39.9224 81.3977 38.8286 82.054 38.8286 83.4858Z" fill="#C8C7F7" fill-opacity="0.5"/>
<path opacity="0.5" d="M55.6614 77.8182H57.0336L60.5137 86.1307H60.633L64.0734 77.8182H65.4455V88H64.2921V80.3636H64.1927L61.1103 87.9205H59.9966L56.9143 80.3636H56.8148V88H55.6614V77.8182ZM71.1346 88.1591C69.0664 88.1591 67.6744 86.5881 67.6744 84.2216C67.6744 81.8352 69.0664 80.2642 71.1346 80.2642C73.2028 80.2642 74.5948 81.8352 74.5948 84.2216C74.5948 86.5881 73.2028 88.1591 71.1346 88.1591ZM71.1346 87.1051C72.7056 87.1051 73.4215 85.7528 73.4215 84.2216C73.4215 82.6903 72.7056 81.3182 71.1346 81.3182C69.5636 81.3182 68.8477 82.6903 68.8477 84.2216C68.8477 85.7528 69.5636 87.1051 71.1346 87.1051ZM77.8391 83.4858V88H76.6658V80.3636H77.8391V81.6562H77.9187C78.2766 80.8807 79.0323 80.2642 80.1857 80.2642C81.6176 80.2642 82.6516 81.1989 82.6516 83.1477V88H81.4783V83.2273C81.4783 82.1136 80.7823 81.3977 79.8079 81.3977C78.9329 81.3977 77.8391 82.054 77.8391 83.4858Z" fill="#C8C7F7" fill-opacity="0.5"/>
<path opacity="0.75" d="M98.1697 77.8182V78.9119H94.968V88H93.735V78.9119H90.5333V77.8182H98.1697ZM103.981 84.9773V80.3636H105.154V88H103.981V86.9261H103.901C103.523 87.5028 102.787 88.0994 101.634 88.0994C100.52 88.0994 99.1681 87.2244 99.1681 85.2159V80.3636H100.341V85.2159C100.341 86.3295 101.037 86.9659 102.012 86.9659C102.887 86.9659 103.981 86.4091 103.981 84.9773ZM110.785 88.1591C108.577 88.1591 107.225 86.5881 107.225 84.2415C107.225 81.8949 108.597 80.2642 110.665 80.2642C112.256 80.2642 113.946 81.2386 113.946 84.0824V84.5795H108.413C108.532 86.2301 109.402 87.1051 110.785 87.1051C111.719 87.1051 112.395 86.7074 112.694 85.9119L113.827 86.2301C113.469 87.3835 112.336 88.1591 110.785 88.1591ZM110.665 81.3182C109.492 81.3182 108.627 82.1335 108.438 83.5653H112.753C112.753 82.2727 111.938 81.3182 110.665 81.3182Z" fill="#C8C7F7" fill-opacity="0.5"/>
<path opacity="0.75" d="M126.837 77.8182L128.965 86.1108H129.064L131.232 77.8182H132.624L134.791 86.1108H134.891L137.019 77.8182H138.271L135.487 88H134.215L131.967 79.8864H131.888L129.641 88H128.368L125.584 77.8182H126.837ZM142.447 88.1591C140.239 88.1591 138.887 86.5881 138.887 84.2415C138.887 81.8949 140.259 80.2642 142.327 80.2642C143.918 80.2642 145.609 81.2386 145.609 84.0824V84.5795H140.075C140.195 86.2301 141.065 87.1051 142.447 87.1051C143.381 87.1051 144.057 86.7074 144.356 85.9119L145.489 86.2301C145.131 87.3835 143.998 88.1591 142.447 88.1591ZM142.327 81.3182C141.154 81.3182 140.289 82.1335 140.1 83.5653H144.415C144.415 82.2727 143.6 81.3182 142.327 81.3182ZM154.084 88H152.951V86.8267H152.831C152.573 87.2443 152.056 88.1591 150.584 88.1591C148.675 88.1591 147.343 86.6278 147.343 84.2017C147.343 81.7955 148.675 80.2642 150.604 80.2642C152.096 80.2642 152.573 81.179 152.831 81.5767H152.911V77.8182H154.084V88ZM148.516 84.1818C148.516 85.8125 149.272 87.1051 150.743 87.1051C152.155 87.1051 152.931 85.9119 152.931 84.1818C152.931 82.4716 152.175 81.3182 150.743 81.3182C149.252 81.3182 148.516 82.571 148.516 84.1818Z" fill="#C8C7F7" fill-opacity="0.5"/>
<path opacity="0.75" d="M169.027 77.8182V78.9119H165.825V88H164.592V78.9119H161.39V77.8182H169.027ZM172.224 83.3864V88H171.051V77.8182H172.224V81.4375H172.303C172.681 80.8608 173.417 80.2642 174.571 80.2642C176.002 80.2642 177.036 81.2585 177.036 83.1477V88H175.863V83.1477C175.863 82.0341 175.207 81.3977 174.193 81.3977C173.258 81.3977 172.224 81.9545 172.224 83.3864ZM184.278 84.9773V80.3636H185.451V88H184.278V86.9261H184.198C183.821 87.5028 183.085 88.0994 181.931 88.0994C180.818 88.0994 179.465 87.2244 179.465 85.2159V80.3636H180.639V85.2159C180.639 86.3295 181.335 86.9659 182.309 86.9659C183.184 86.9659 184.278 86.4091 184.278 84.9773Z" fill="#C8C7F7" fill-opacity="0.5"/>
<path opacity="0.5" d="M202.825 82.3523V83.446H198.609V88H197.376V77.8182H203.481V78.9119H198.609V82.3523H202.825ZM209.287 80.5227L208.889 81.6165C208.77 81.5568 208.571 81.4574 208.233 81.4574C206.98 81.4574 206.264 82.6506 206.244 83.6847V88H205.071V80.3636H206.244V81.6761H206.324C206.542 80.9403 207.378 80.2443 208.273 80.2443C208.67 80.2443 209.048 80.3835 209.287 80.5227ZM211.478 79.2699C210.961 79.2699 210.643 78.9119 210.643 78.4744C210.643 78.0767 210.961 77.679 211.478 77.679C211.995 77.679 212.314 78.0767 212.314 78.4744C212.314 78.9119 211.995 79.2699 211.478 79.2699ZM212.075 80.3636V88H210.902V80.3636H212.075Z" fill="#C8C7F7" fill-opacity="0.5"/>
<path opacity="0.3" d="M238.333 80.4432C238.154 79.3494 237.279 78.7727 236.046 78.7727C234.693 78.7727 233.799 79.4886 233.799 80.483C233.799 81.2983 234.415 81.7955 235.767 82.1534L236.801 82.4318C238.73 82.9489 239.665 83.804 239.665 85.2159C239.665 86.8864 238.333 88.179 235.986 88.179C233.799 88.179 232.446 87.0455 232.327 85.375H233.6C233.699 86.5284 234.773 87.0653 235.986 87.0653C237.398 87.0653 238.472 86.3295 238.472 85.2159C238.472 84.3011 237.816 83.9233 236.443 83.5256L235.191 83.1676C233.6 82.7102 232.605 81.8949 232.605 80.5227C232.605 78.8125 234.137 77.679 236.085 77.679C238.054 77.679 239.426 78.8324 239.526 80.4432H238.333ZM246.386 88V86.9659H246.326C246.087 87.4631 245.391 88.179 244.059 88.179C242.607 88.179 241.454 87.3239 241.454 85.8324C241.454 84.1023 242.985 83.7642 244.417 83.5852C245.471 83.446 246.386 83.4858 246.386 82.9886V82.9688C246.386 81.696 245.71 81.2983 244.795 81.2983C243.661 81.2983 243.045 81.8949 242.786 82.4517L241.673 82.054C242.269 80.6619 243.582 80.2642 244.735 80.2642C245.71 80.2642 247.559 80.5426 247.559 82.9688V88H246.386ZM246.386 85.2358V84.1619C246.187 84.4006 244.854 84.5398 244.357 84.5994C243.443 84.7188 242.627 84.9972 242.627 85.892C242.627 86.7074 243.303 87.125 244.238 87.125C245.63 87.125 246.386 86.1903 246.386 85.2358ZM253.1 80.3636V81.4574H251.47V85.8125C251.47 86.8068 251.967 86.9659 252.484 86.9659C252.742 86.9659 252.901 86.9261 253.001 86.9062L253.239 87.9602C253.08 88.0199 252.802 88.0994 252.364 88.0994C251.37 88.0994 250.296 87.4631 250.296 86.1307V81.4574H249.143V80.3636H250.296V78.733H251.47V80.3636H253.1Z" fill="#C8C7F7" fill-opacity="0.5"/>
</g>
<defs>
<filter id="filter0_d_807_2923" x="42" y="161" width="130" height="130" filterUnits="userSpaceOnUse" color-interpolation-filters="sRGB">
<feFlood flood-opacity="0" result="BackgroundImageFix"/>
<feColorMatrix in="SourceAlpha" type="matrix" values="0 0 0 0 0 0 0 0 0 0 0 0 0 0 0 0 0 0 127 0" result="hardAlpha"/>
<feOffset dy="4"/>
<feGaussianBlur stdDeviation="20"/>
<feComposite in2="hardAlpha" operator="out"/>
<feColorMatrix type="matrix" values="0 0 0 0 0.115207 0 0 0 0 0.0722396 0 0 0 0 0.2375 0 0 0 0.25 0"/>
<feBlend mode="normal" in2="BackgroundImageFix" result="effect1_dropShadow_807_2923"/>
<feBlend mode="normal" in="SourceGraphic" in2="effect1_dropShadow_807_2923" result="shape"/>
</filter>
<linearGradient id="paint0_linear_807_2923" x1="-23" y1="-64.0002" x2="178.822" y2="191.511" gradientUnits="userSpaceOnUse">
<stop stop-color="#F2B98F"/>
<stop offset="0.811437" stop-color="#646FCC" stop-opacity="0"/>
</linearGradient>
<linearGradient id="paint1_linear_807_2923" x1="21.2747" y1="6.01638" x2="116.331" y2="198.934" gradientUnits="userSpaceOnUse">
<stop stop-color="#FFC876"/>
<stop offset="1" stop-color="#5174F0" stop-opacity="0"/>
</linearGradient>
<radialGradient id="paint2_radial_807_2923" cx="0" cy="0" r="1" gradientUnits="userSpaceOnUse" gradientTransform="translate(141.5 206) rotate(90) scale(142 131.029)">
<stop stop-color="#D9D9D9"/>
<stop offset="1" stop-color="#D9D9D9" stop-opacity="0"/>
</radialGradient>
<linearGradient id="paint3_linear_807_2923" x1="48.3043" y1="128.521" x2="183.087" y2="363.848" gradientUnits="userSpaceOnUse">
<stop stop-color="#7A86C7"/>
<stop offset="1" stop-color="#743989"/>
</linearGradient>
</defs>
</svg>
