<svg width="136" height="34" viewBox="0 0 136 34" fill="none" xmlns="http://www.w3.org/2000/svg">
<path fill-rule="evenodd" clip-rule="evenodd" d="M45.3913 8.14937H63.6222V11.7747H49.5252V17.1083H61.4966V20.512H49.5252V28.532H45.3913V8.14937ZM67.2345 6.89746H71.0945V28.532H67.2345V6.89746ZM97.3468 10.8923C97.6598 10.9966 98.0076 11.0488 98.3901 11.0488C98.7813 11.0488 99.1291 10.9966 99.4333 10.8923C99.7463 10.7793 100.011 10.6315 100.229 10.4489C100.446 10.2576 100.611 10.0403 100.724 9.79685C100.846 9.54473 100.907 9.27957 100.907 9.00137C100.907 8.71447 100.846 8.44931 100.724 8.20588C100.611 7.95376 100.446 7.73642 100.229 7.55385C100.011 7.37128 99.7463 7.22783 99.4333 7.1235C99.1291 7.01048 98.7813 6.95397 98.3901 6.95397C98.0076 6.95397 97.6598 7.01048 97.3468 7.1235C97.0425 7.22783 96.7817 7.37128 96.5644 7.55385C96.347 7.73642 96.1775 7.95376 96.0558 8.20588C95.9428 8.44931 95.8863 8.71447 95.8863 9.00137C95.8863 9.27957 95.9428 9.54473 96.0558 9.79685C96.1775 10.0403 96.347 10.2576 96.5644 10.4489C96.7817 10.6315 97.0425 10.7793 97.3468 10.8923ZM100.32 13.1483H96.4601V26.9973C96.0701 24.6188 94.7948 22.6533 93.124 21.1545C92.9186 20.9702 92.7068 20.7925 92.4893 20.6214C92.4912 20.5654 92.4928 20.5092 92.4941 20.4527C92.5502 17.8846 91.8341 15.7871 90.541 14.1784C89.2645 12.5903 87.5247 11.6004 85.7206 11.0424C82.1958 9.95235 78.046 10.3934 75.405 11.7019L75.396 11.706V15.6118C75.8289 15.2884 76.3059 15.0038 76.8311 14.765L76.8595 14.7521L76.8873 14.7382C78.7284 13.818 81.9949 13.4269 84.7223 14.2704C86.0506 14.6811 87.1511 15.3542 87.9075 16.2952C88.3808 16.884 88.7599 17.6272 88.9609 18.5748C87.9842 18.1673 86.976 17.8553 85.9759 17.6388C83.4465 17.0912 80.7718 17.1133 78.6332 17.938C77.5492 18.356 76.5451 19.0044 75.8076 19.9494C75.0561 20.9124 74.6529 22.094 74.6529 23.4288C74.6529 25.6145 76.0745 27.2346 77.7064 28.2049C79.3537 29.1845 81.4674 29.6832 83.5475 29.6095C85.6344 29.5355 87.8402 28.8774 89.5652 27.3576C90.4423 26.5849 91.1555 25.6238 91.6588 24.4784C92.6387 25.6308 93.2053 26.987 93.2053 28.5365H96.5841C96.5841 28.5364 96.5841 28.5364 96.5841 28.5364H100.32V13.1483ZM108.845 13.1483H104.985V28.5364H108.845V19.3818C109.549 18.4428 110.462 17.7169 111.583 17.204C112.714 16.6823 114.022 16.3476 115.509 16.1998L114.374 12.6658C113.435 12.9092 112.492 13.2613 111.544 13.7221C110.597 14.1829 109.697 14.7306 108.845 15.3652V13.1483ZM116.592 20.7902C116.592 19.7469 116.805 18.7515 117.231 17.8039C117.657 16.8475 118.27 16.0042 119.07 15.274C119.87 14.5437 120.848 13.9612 122.004 13.5265C123.169 13.0918 124.49 12.8745 125.968 12.8745C127.438 12.8745 128.759 13.0962 129.933 13.5395C131.115 13.9742 132.115 14.5741 132.932 15.3392C133.758 16.1042 134.388 17.004 134.823 18.0386C135.266 19.0731 135.488 20.1816 135.488 21.364C135.488 21.5118 135.484 21.6726 135.475 21.8465C135.475 22.0117 135.466 22.1638 135.449 22.3029H120.896C121.061 22.7637 121.326 23.1853 121.691 23.5678C122.065 23.9504 122.53 24.2807 123.086 24.5589C123.643 24.8371 124.286 25.0545 125.016 25.211C125.747 25.3588 126.555 25.4327 127.442 25.4327C128.329 25.4327 129.211 25.3414 130.089 25.1588C130.967 24.9676 131.806 24.7285 132.606 24.4416L133.91 27.3888C133.406 27.6235 132.893 27.8322 132.371 28.0147C131.858 28.1886 131.319 28.3364 130.754 28.4581C130.198 28.5711 129.611 28.6581 128.994 28.7189C128.385 28.7798 127.742 28.8102 127.064 28.8102C125.334 28.8102 123.817 28.6016 122.513 28.1843C121.208 27.767 120.117 27.1975 119.239 26.4759C118.361 25.7543 117.701 24.9067 117.257 23.933C116.814 22.9593 116.592 21.9117 116.592 20.7902ZM131.393 19.2905C131.254 18.8645 131.037 18.4689 130.741 18.1038C130.454 17.73 130.094 17.4083 129.659 17.1388C129.224 16.8606 128.72 16.6432 128.146 16.4867C127.572 16.3302 126.942 16.252 126.255 16.252C125.525 16.252 124.86 16.3346 124.26 16.4998C123.66 16.665 123.134 16.8867 122.682 17.1649C122.23 17.4431 121.852 17.7647 121.548 18.1299C121.252 18.495 121.035 18.8819 120.896 19.2905H131.393ZM85.261 20.9411C86.5172 21.213 87.7541 21.6639 88.8627 22.269C88.5527 23.4241 87.9895 24.2428 87.3317 24.8224C86.3234 25.7107 84.9278 26.1797 83.4277 26.2328C81.9208 26.2863 80.4619 25.9125 79.4333 25.3008C78.3892 24.68 78.0317 23.9903 78.0317 23.4288C78.0316 22.8055 78.2082 22.3652 78.4713 22.0281C78.7484 21.673 79.1937 21.3431 79.8489 21.0905C81.1889 20.5737 83.1524 20.4845 85.261 20.9411Z" fill="white"/>
<g clip-path="url(#clip0_630_16712)">
<g clip-path="url(#clip1_630_16712)">
<path fill-rule="evenodd" clip-rule="evenodd" d="M-11.7786 38.0922C-6.13233 21.8463 2.14831 12.6101 8.70764 8.84263C15.3763 5.01234 20.8525 6.21464 22.7394 8.78235L22.735 8.78644C25.2051 11.9943 25.0848 17.3958 22.2291 21.5802C19.8748 25.0299 15.752 27.2155 11.9279 27.5067C10.0684 27.6483 8.53523 27.3048 7.55959 26.6251C6.60839 25.9626 6.26124 25.0567 6.39397 23.9925L0.878109 25.4705C0.4968 28.5275 1.63871 30.6394 3.41899 31.8795C5.17484 33.1025 7.61557 33.5466 10.2117 33.3489C15.2989 32.9615 22.0142 29.9612 26.3396 23.6233C31.181 16.5293 30.8022 8.94773 27.6552 4.60135C24.4394 0.0951574 16.079 -0.827639 8.13113 4.5033C0.0737715 9.90767 -6.98658 20.4556 -13.1163 38.0925L-11.7786 38.0922Z" fill="white"/>
<path fill-rule="evenodd" clip-rule="evenodd" d="M-11.7786 38.0922C-6.13233 21.8463 2.14831 12.6101 8.70764 8.84263C15.3763 5.01234 20.8525 6.21464 22.7394 8.78235L22.735 8.78644C25.2051 11.9943 25.0848 17.3958 22.2291 21.5802C19.8748 25.0299 15.752 27.2155 11.9279 27.5067C10.0684 27.6483 8.53523 27.3048 7.55959 26.6251C6.60839 25.9626 6.26124 25.0567 6.39397 23.9925L0.878109 25.4705C0.4968 28.5275 1.63871 30.6394 3.41899 31.8795C5.17484 33.1025 7.61557 33.5466 10.2117 33.3489C15.2989 32.9615 22.0142 29.9612 26.3396 23.6233C31.181 16.5293 30.8022 8.94773 27.6552 4.60135C24.4394 0.0951574 16.079 -0.827639 8.13113 4.5033C0.0737715 9.90767 -6.98658 20.4556 -13.1163 38.0925L-11.7786 38.0922Z" fill="url(#paint0_linear_630_16712)"/>
<path fill-rule="evenodd" clip-rule="evenodd" d="M-11.7786 38.0922C-6.13233 21.8463 2.14831 12.6101 8.70764 8.84263C15.3763 5.01234 20.8525 6.21464 22.7394 8.78235L22.735 8.78644C25.2051 11.9943 25.0848 17.3958 22.2291 21.5802C19.8748 25.0299 15.752 27.2155 11.9279 27.5067C10.0684 27.6483 8.53523 27.3048 7.55959 26.6251C6.60839 25.9626 6.26124 25.0567 6.39397 23.9925L0.878109 25.4705C0.4968 28.5275 1.63871 30.6394 3.41899 31.8795C5.17484 33.1025 7.61557 33.5466 10.2117 33.3489C15.2989 32.9615 22.0142 29.9612 26.3396 23.6233C31.181 16.5293 30.8022 8.94773 27.6552 4.60135C24.4394 0.0951574 16.079 -0.827639 8.13113 4.5033C0.0737715 9.90767 -6.98658 20.4556 -13.1163 38.0925L-11.7786 38.0922Z" fill="url(#paint1_radial_630_16712)"/>
<path fill-rule="evenodd" clip-rule="evenodd" d="M-11.7786 38.0922C-6.13233 21.8463 2.14831 12.6101 8.70764 8.84263C15.3763 5.01234 20.8525 6.21464 22.7394 8.78235L22.735 8.78644C25.2051 11.9943 25.0848 17.3958 22.2291 21.5802C19.8748 25.0299 15.752 27.2155 11.9279 27.5067C10.0684 27.6483 8.53523 27.3048 7.55959 26.6251C6.60839 25.9626 6.26124 25.0567 6.39397 23.9925L0.878109 25.4705C0.4968 28.5275 1.63871 30.6394 3.41899 31.8795C5.17484 33.1025 7.61557 33.5466 10.2117 33.3489C15.2989 32.9615 22.0142 29.9612 26.3396 23.6233C31.181 16.5293 30.8022 8.94773 27.6552 4.60135C24.4394 0.0951574 16.079 -0.827639 8.13113 4.5033C0.0737715 9.90767 -6.98658 20.4556 -13.1163 38.0925L-11.7786 38.0922Z" fill="url(#paint2_radial_630_16712)"/>
<path fill-rule="evenodd" clip-rule="evenodd" d="M-11.7786 38.0922C-6.13233 21.8463 2.14831 12.6101 8.70764 8.84263C15.3763 5.01234 20.8525 6.21464 22.7394 8.78235L22.735 8.78644C25.2051 11.9943 25.0848 17.3958 22.2291 21.5802C19.8748 25.0299 15.752 27.2155 11.9279 27.5067C10.0684 27.6483 8.53523 27.3048 7.55959 26.6251C6.60839 25.9626 6.26124 25.0567 6.39397 23.9925L0.878109 25.4705C0.4968 28.5275 1.63871 30.6394 3.41899 31.8795C5.17484 33.1025 7.61557 33.5466 10.2117 33.3489C15.2989 32.9615 22.0142 29.9612 26.3396 23.6233C31.181 16.5293 30.8022 8.94773 27.6552 4.60135C24.4394 0.0951574 16.079 -0.827639 8.13113 4.5033C0.0737715 9.90767 -6.98658 20.4556 -13.1163 38.0925L-11.7786 38.0922Z" fill="url(#paint3_radial_630_16712)"/>
<path fill-rule="evenodd" clip-rule="evenodd" d="M-11.7786 38.0922C-6.13233 21.8463 2.14831 12.6101 8.70764 8.84263C15.3763 5.01234 20.8525 6.21464 22.7394 8.78235L22.735 8.78644C25.2051 11.9943 25.0848 17.3958 22.2291 21.5802C19.8748 25.0299 15.752 27.2155 11.9279 27.5067C10.0684 27.6483 8.53523 27.3048 7.55959 26.6251C6.60839 25.9626 6.26124 25.0567 6.39397 23.9925L0.878109 25.4705C0.4968 28.5275 1.63871 30.6394 3.41899 31.8795C5.17484 33.1025 7.61557 33.5466 10.2117 33.3489C15.2989 32.9615 22.0142 29.9612 26.3396 23.6233C31.181 16.5293 30.8022 8.94773 27.6552 4.60135C24.4394 0.0951574 16.079 -0.827639 8.13113 4.5033C0.0737715 9.90767 -6.98658 20.4556 -13.1163 38.0925L-11.7786 38.0922Z" fill="url(#paint4_radial_630_16712)"/>
<path fill-rule="evenodd" clip-rule="evenodd" d="M-11.7786 38.0922C-6.13233 21.8463 2.14831 12.6101 8.70764 8.84263C15.3763 5.01234 20.8525 6.21464 22.7394 8.78235L22.735 8.78644C25.2051 11.9943 25.0848 17.3958 22.2291 21.5802C19.8748 25.0299 15.752 27.2155 11.9279 27.5067C10.0684 27.6483 8.53523 27.3048 7.55959 26.6251C6.60839 25.9626 6.26124 25.0567 6.39397 23.9925L0.878109 25.4705C0.4968 28.5275 1.63871 30.6394 3.41899 31.8795C5.17484 33.1025 7.61557 33.5466 10.2117 33.3489C15.2989 32.9615 22.0142 29.9612 26.3396 23.6233C31.181 16.5293 30.8022 8.94773 27.6552 4.60135C24.4394 0.0951574 16.079 -0.827639 8.13113 4.5033C0.0737715 9.90767 -6.98658 20.4556 -13.1163 38.0925L-11.7786 38.0922Z" fill="url(#paint5_radial_630_16712)"/>
<path fill-rule="evenodd" clip-rule="evenodd" d="M-11.7786 38.0922C-6.13233 21.8463 2.14831 12.6101 8.70764 8.84263C15.3763 5.01234 20.8525 6.21464 22.7394 8.78235L22.735 8.78644C25.2051 11.9943 25.0848 17.3958 22.2291 21.5802C19.8748 25.0299 15.752 27.2155 11.9279 27.5067C10.0684 27.6483 8.53523 27.3048 7.55959 26.6251C6.60839 25.9626 6.26124 25.0567 6.39397 23.9925L0.878109 25.4705C0.4968 28.5275 1.63871 30.6394 3.41899 31.8795C5.17484 33.1025 7.61557 33.5466 10.2117 33.3489C15.2989 32.9615 22.0142 29.9612 26.3396 23.6233C31.181 16.5293 30.8022 8.94773 27.6552 4.60135C24.4394 0.0951574 16.079 -0.827639 8.13113 4.5033C0.0737715 9.90767 -6.98658 20.4556 -13.1163 38.0925L-11.7786 38.0922Z" fill="url(#paint6_radial_630_16712)"/>
<path fill-rule="evenodd" clip-rule="evenodd" d="M-11.7786 38.0922C-6.13233 21.8463 2.14831 12.6101 8.70764 8.84263C15.3763 5.01234 20.8525 6.21464 22.7394 8.78235L22.735 8.78644C25.2051 11.9943 25.0848 17.3958 22.2291 21.5802C19.8748 25.0299 15.752 27.2155 11.9279 27.5067C10.0684 27.6483 8.53523 27.3048 7.55959 26.6251C6.60839 25.9626 6.26124 25.0567 6.39397 23.9925L0.878109 25.4705C0.4968 28.5275 1.63871 30.6394 3.41899 31.8795C5.17484 33.1025 7.61557 33.5466 10.2117 33.3489C15.2989 32.9615 22.0142 29.9612 26.3396 23.6233C31.181 16.5293 30.8022 8.94773 27.6552 4.60135C24.4394 0.0951574 16.079 -0.827639 8.13113 4.5033C0.0737715 9.90767 -6.98658 20.4556 -13.1163 38.0925L-11.7786 38.0922Z" fill="url(#paint7_radial_630_16712)"/>
<path fill-rule="evenodd" clip-rule="evenodd" d="M1.84947 22.0353C3.36122 18.5258 6.31358 15.4588 9.52344 13.4714C13.7827 10.8343 19.0061 9.57164 23.9674 9.50743C34.032 9.37719 43.5709 15.4034 42.6466 32.1551L36.6227 36.8656C37.4016 22.7484 29.637 17.0104 21.5414 16.4789C17.4367 16.2094 13.7732 16.8126 10.9642 18.5249C8.53773 20.004 7.03917 21.8291 6.55008 23.3087C6.47521 23.5631 6.42403 23.8116 6.39398 24.0525L0.878113 25.5305C0.881237 25.5055 0.884443 25.4805 0.88773 25.4554L0.878509 25.4579C1.02841 24.2561 1.36514 23.1123 1.84947 22.0353Z" fill="white"/>
<path fill-rule="evenodd" clip-rule="evenodd" d="M1.84947 22.0353C3.36122 18.5258 6.31358 15.4588 9.52344 13.4714C13.7827 10.8343 19.0061 9.57164 23.9674 9.50743C34.032 9.37719 43.5709 15.4034 42.6466 32.1551L36.6227 36.8656C37.4016 22.7484 29.637 17.0104 21.5414 16.4789C17.4367 16.2094 13.7732 16.8126 10.9642 18.5249C8.53773 20.004 7.03917 21.8291 6.55008 23.3087C6.47521 23.5631 6.42403 23.8116 6.39398 24.0525L0.878113 25.5305C0.881237 25.5055 0.884443 25.4805 0.88773 25.4554L0.878509 25.4579C1.02841 24.2561 1.36514 23.1123 1.84947 22.0353Z" fill="url(#paint8_linear_630_16712)"/>
<path fill-rule="evenodd" clip-rule="evenodd" d="M1.84947 22.0353C3.36122 18.5258 6.31358 15.4588 9.52344 13.4714C13.7827 10.8343 19.0061 9.57164 23.9674 9.50743C34.032 9.37719 43.5709 15.4034 42.6466 32.1551L36.6227 36.8656C37.4016 22.7484 29.637 17.0104 21.5414 16.4789C17.4367 16.2094 13.7732 16.8126 10.9642 18.5249C8.53773 20.004 7.03917 21.8291 6.55008 23.3087C6.47521 23.5631 6.42403 23.8116 6.39398 24.0525L0.878113 25.5305C0.881237 25.5055 0.884443 25.4805 0.88773 25.4554L0.878509 25.4579C1.02841 24.2561 1.36514 23.1123 1.84947 22.0353Z" fill="url(#paint9_radial_630_16712)"/>
</g>
</g>
<defs>
<linearGradient id="paint0_linear_630_16712" x1="0.145181" y1="8.8259" x2="25.2936" y2="15.466" gradientUnits="userSpaceOnUse">
<stop stop-color="#FFCE4F"/>
<stop offset="0.73604" stop-color="#E93693"/>
<stop offset="0.920303" stop-color="#CC45B4"/>
<stop offset="0.952503" stop-color="#CF42B3"/>
<stop offset="1" stop-color="#C74AB7"/>
</linearGradient>
<radialGradient id="paint1_radial_630_16712" cx="0" cy="0" r="1" gradientUnits="userSpaceOnUse" gradientTransform="translate(16.9564 28.1748) rotate(-77.4123) scale(21.7352 15.2519)">
<stop stop-color="#23BCFE"/>
<stop offset="1" stop-color="#23BCFE" stop-opacity="0"/>
</radialGradient>
<radialGradient id="paint2_radial_630_16712" cx="0" cy="0" r="1" gradientUnits="userSpaceOnUse" gradientTransform="translate(8.37522 31.058) rotate(-59.2435) scale(13.0214 9.13732)">
<stop stop-color="#23BCFE"/>
<stop offset="1" stop-color="#23BCFE" stop-opacity="0"/>
</radialGradient>
<radialGradient id="paint3_radial_630_16712" cx="0" cy="0" r="1" gradientUnits="userSpaceOnUse" gradientTransform="translate(3.02055 27.8315) rotate(-79.8409) scale(12.0656 28.2913)">
<stop stop-color="#78EEC4"/>
<stop offset="1" stop-color="#78EEC4" stop-opacity="0"/>
</radialGradient>
<radialGradient id="paint4_radial_630_16712" cx="0" cy="0" r="1" gradientUnits="userSpaceOnUse" gradientTransform="translate(5.08003 23.9871) rotate(-44.5692) scale(6.45636 7.5399)">
<stop stop-color="#78EEC4"/>
<stop offset="1" stop-color="#78EEC4" stop-opacity="0"/>
</radialGradient>
<radialGradient id="paint5_radial_630_16712" cx="0" cy="0" r="1" gradientUnits="userSpaceOnUse" gradientTransform="translate(0.205908 25.772) rotate(-53.5691) scale(7.16724 8.37008)">
<stop stop-color="#78EEC4"/>
<stop offset="1" stop-color="#78EEC4" stop-opacity="0"/>
</radialGradient>
<radialGradient id="paint6_radial_630_16712" cx="0" cy="0" r="1" gradientUnits="userSpaceOnUse" gradientTransform="translate(24.2333 23.0947) rotate(-96.3402) scale(19.2711 18.6513)">
<stop stop-color="#7451FF"/>
<stop offset="1" stop-color="#7451FF" stop-opacity="0"/>
</radialGradient>
<radialGradient id="paint7_radial_630_16712" cx="0" cy="0" r="1" gradientUnits="userSpaceOnUse" gradientTransform="translate(38.5811 10.9437) rotate(164.524) scale(21.8683 59.796)">
<stop stop-color="#CF41B2"/>
<stop offset="1" stop-color="#CF41B2" stop-opacity="0"/>
</radialGradient>
<linearGradient id="paint8_linear_630_16712" x1="4.9455" y1="23.2124" x2="32.8153" y2="28.921" gradientUnits="userSpaceOnUse">
<stop stop-color="#78EEC4"/>
<stop offset="0.271274" stop-color="#D2FF99"/>
<stop offset="0.634081" stop-color="#FDFF9E"/>
<stop offset="1" stop-color="white"/>
</linearGradient>
<radialGradient id="paint9_radial_630_16712" cx="0" cy="0" r="1" gradientUnits="userSpaceOnUse" gradientTransform="translate(5.49201 23.8499) rotate(-8.35076) scale(7.563 9.23961)">
<stop stop-color="#78EEC4"/>
<stop offset="1" stop-color="#78EEC4" stop-opacity="0"/>
</radialGradient>
<clipPath id="clip0_630_16712">
<rect width="35.4796" height="32.6074" fill="white" transform="translate(0 0.853516)"/>
</clipPath>
<clipPath id="clip1_630_16712">
<rect width="35.4232" height="32.5647" fill="white" transform="translate(0 0.853516)"/>
</clipPath>
</defs>
</svg>
