<svg width="223" height="219" viewBox="0 0 223 219" fill="none" xmlns="http://www.w3.org/2000/svg">
<g filter="url(#filter0_f_514_7373)">
<path d="M133.37 180.072L86.7785 181.089L86.7784 181.089C79.5139 181.248 75.8817 181.327 72.6594 180.282C69.8102 179.357 67.205 177.804 65.0362 175.738C62.5835 173.402 60.9251 170.169 57.6082 163.704L37.9604 125.407C35.0147 119.665 33.5419 116.795 33.022 113.788C32.5618 111.127 32.6454 108.4 33.2676 105.772C33.9707 102.803 35.6165 100.027 38.9082 94.4769L62.6459 54.4504C65.7817 49.1627 67.3497 46.5189 69.4962 44.5374C71.3967 42.783 73.6196 41.4139 76.0415 40.506C78.7769 39.4806 81.8434 39.2699 87.9766 38.8486L132.664 35.7787C139.962 35.2774 143.612 35.0267 146.897 35.9321C149.801 36.7325 152.487 38.1789 154.754 40.163C157.319 42.4072 159.118 45.5916 162.717 51.9604L184.897 91.2106C188.215 97.0834 189.875 100.02 190.504 103.131C191.061 105.883 191.032 108.722 190.419 111.462C189.726 114.56 188.006 117.461 184.568 123.265L160.202 164.391C156.895 169.972 155.242 172.763 152.961 174.812C150.942 176.625 148.575 178.008 146.004 178.877C143.1 179.859 139.857 179.93 133.37 180.072Z" stroke="url(#paint0_linear_514_7373)" stroke-width="4"/>
</g>
<path d="M133.37 180.072L86.778 181.089L86.7779 181.089C79.5134 181.248 75.8812 181.327 72.6589 180.282C69.8097 179.357 67.2045 177.804 65.0357 175.738C62.583 173.402 60.9246 170.169 57.6078 163.704L37.9599 125.407C35.0143 119.665 33.5414 116.795 33.0215 113.788C32.5613 111.127 32.6449 108.4 33.2671 105.772C33.9702 102.803 35.616 100.027 38.9077 94.4769L62.6454 54.4504C65.7812 49.1627 67.3492 46.5189 69.4957 44.5374C71.3963 42.783 73.6191 41.4139 76.041 40.506C78.7764 39.4806 81.8429 39.2699 87.9761 38.8486L132.664 35.7787C139.962 35.2774 143.611 35.0267 146.896 35.9321C149.801 36.7325 152.487 38.1789 154.754 40.163C157.318 42.4072 159.118 45.5916 162.716 51.9604L184.896 91.2106C188.215 97.0834 189.874 100.02 190.504 103.131C191.06 105.883 191.031 108.722 190.418 111.462C189.725 114.56 188.006 117.461 184.568 123.265L160.202 164.391C156.895 169.972 155.241 172.763 152.96 174.812C150.941 176.625 148.574 178.008 146.004 178.877C143.099 179.859 139.856 179.93 133.37 180.072Z" stroke="url(#paint1_linear_514_7373)" stroke-width="4"/>
<path d="M90.25 101.75H133.75" stroke="#36517A" stroke-width="3.625" stroke-linecap="round" stroke-linejoin="round"/>
<path fill-rule="evenodd" clip-rule="evenodd" d="M128.917 89.6667H95.0833C92.4129 89.6667 90.25 91.8296 90.25 94.5V125.917C90.25 128.587 92.4129 130.75 95.0833 130.75H128.917C131.587 130.75 133.75 128.587 133.75 125.917V94.5C133.75 91.8296 131.587 89.6667 128.917 89.6667Z" stroke="#36517A" stroke-width="3.625" stroke-linecap="round" stroke-linejoin="round"/>
<path d="M104.75 101.75V130.75" stroke="#36517A" stroke-width="3.625" stroke-linecap="round" stroke-linejoin="round"/>
<path d="M119.25 101.75V130.75" stroke="#36517A" stroke-width="3.625" stroke-linecap="round" stroke-linejoin="round"/>
<path d="M90.25 116.25H133.75" stroke="#36517A" stroke-width="3.625" stroke-linecap="round" stroke-linejoin="round"/>
<defs>
<filter id="filter0_f_514_7373" x="0.729492" y="3.32745" width="222.171" height="209.857" filterUnits="userSpaceOnUse" color-interpolation-filters="sRGB">
<feFlood flood-opacity="0" result="BackgroundImageFix"/>
<feBlend mode="normal" in="SourceGraphic" in2="BackgroundImageFix" result="shape"/>
<feGaussianBlur stdDeviation="15" result="effect1_foregroundBlur_514_7373"/>
</filter>
<linearGradient id="paint0_linear_514_7373" x1="148.997" y1="32" x2="69.0316" y2="182.843" gradientUnits="userSpaceOnUse">
<stop stop-color="#1B4760" stop-opacity="0"/>
<stop offset="1" stop-color="#3A5680"/>
</linearGradient>
<linearGradient id="paint1_linear_514_7373" x1="148.997" y1="32" x2="69.0312" y2="182.843" gradientUnits="userSpaceOnUse">
<stop stop-color="#1B4760" stop-opacity="0"/>
<stop offset="1" stop-color="#3A5680"/>
</linearGradient>
</defs>
</svg>
