<svg width="135" height="144" viewBox="0 0 135 144" fill="none" xmlns="http://www.w3.org/2000/svg">
<g opacity="0.7" filter="url(#filter0_f_514_7382)">
<path d="M78.6619 117.572L94.5593 110.29C101.097 107.296 104.366 105.799 106.786 103.497C109.112 101.283 110.872 98.5424 111.915 95.5057C113 92.3467 113 88.7513 113 81.5605V62.5392C113 56.1129 113 52.8998 112.104 50.0078C111.242 47.2257 109.783 44.6654 107.828 42.506C105.797 40.2614 103.032 38.6241 97.5026 35.3495L85.1821 28.0531C79.7243 24.8209 76.9954 23.2048 74.0868 22.5004C71.2884 21.8227 68.3766 21.7572 65.5505 22.3084C62.6131 22.8813 59.8143 24.373 54.2168 27.3565L38.7373 35.6069C32.7816 38.7813 29.8038 40.3684 27.6087 42.6432C25.4976 44.8308 23.913 47.471 22.9754 50.3629C22.0005 53.37 22.0005 56.7444 22.0005 63.4932V82.6552C22.0005 89.4791 22.0005 92.8911 22.994 95.9244C23.9494 98.8415 25.5635 101.499 27.7111 103.693C29.9444 105.973 32.9719 107.547 39.0268 110.694L50.9294 116.88L50.9295 116.881C55.8497 119.438 58.3098 120.717 60.8993 121.284C63.3926 121.831 65.9675 121.895 68.485 121.473C71.0995 121.035 73.6203 119.881 78.6619 117.572Z" stroke="url(#paint0_linear_514_7382)" stroke-width="3"/>
</g>
<path opacity="0.5" d="M78.6619 117.572L94.5593 110.29C101.097 107.296 104.366 105.799 106.786 103.497C109.112 101.283 110.872 98.5424 111.915 95.5057C113 92.3467 113 88.7513 113 81.5605V62.5392C113 56.1129 113 52.8998 112.104 50.0078C111.242 47.2257 109.783 44.6654 107.828 42.506C105.797 40.2614 103.032 38.6241 97.5026 35.3495L85.1821 28.0531C79.7243 24.8209 76.9954 23.2048 74.0868 22.5004C71.2884 21.8227 68.3766 21.7572 65.5505 22.3084C62.6131 22.8813 59.8143 24.373 54.2168 27.3565L38.7373 35.6069C32.7816 38.7813 29.8038 40.3684 27.6087 42.6432C25.4976 44.8308 23.913 47.471 22.9754 50.3629C22.0005 53.37 22.0005 56.7444 22.0005 63.4932V82.6552C22.0005 89.4791 22.0005 92.8911 22.994 95.9244C23.9494 98.8415 25.5635 101.499 27.7111 103.693C29.9444 105.973 32.9719 107.547 39.0268 110.694L50.9294 116.88L50.9295 116.881C55.8497 119.438 58.3098 120.717 60.8993 121.284C63.3926 121.831 65.9675 121.895 68.485 121.473C71.0995 121.035 73.6203 119.881 78.6619 117.572Z" stroke="url(#paint1_linear_514_7382)" stroke-width="3"/>
<g opacity="0.6">
<path d="M74.0005 93L72.0005 85" stroke="#3E6B84" stroke-width="2.33333" stroke-linecap="round" stroke-linejoin="round"/>
<path d="M58.0005 93L60.0005 85" stroke="#3E6B84" stroke-width="2.33333" stroke-linecap="round" stroke-linejoin="round"/>
<path fill-rule="evenodd" clip-rule="evenodd" d="M79.8505 85H52.1505C49.8585 85 48.0005 83.142 48.0005 80.85V61.15C48.0005 58.858 49.8585 57 52.1505 57H79.8485C82.1425 57 84.0005 58.858 84.0005 61.15V80.848C84.0005 83.142 82.1425 85 79.8505 85Z" stroke="#3E6B84" stroke-width="2.33333" stroke-linecap="round" stroke-linejoin="round"/>
<path d="M57.0005 77V71.54" stroke="#3E6B84" stroke-width="2.33333" stroke-linecap="round" stroke-linejoin="round"/>
<path d="M63.0005 77V65" stroke="#3E6B84" stroke-width="2.33333" stroke-linecap="round" stroke-linejoin="round"/>
<path d="M69.0005 77V70.36" stroke="#3E6B84" stroke-width="2.33333" stroke-linecap="round" stroke-linejoin="round"/>
<path d="M75.0005 77V66.1" stroke="#3E6B84" stroke-width="2.33333" stroke-linecap="round" stroke-linejoin="round"/>
</g>
<defs>
<filter id="filter0_f_514_7382" x="0.500488" y="0.438477" width="134" height="142.81" filterUnits="userSpaceOnUse" color-interpolation-filters="sRGB">
<feFlood flood-opacity="0" result="BackgroundImageFix"/>
<feBlend mode="normal" in="SourceGraphic" in2="BackgroundImageFix" result="shape"/>
<feGaussianBlur stdDeviation="10" result="effect1_foregroundBlur_514_7382"/>
</filter>
<linearGradient id="paint0_linear_514_7382" x1="42.1163" y1="151.936" x2="77.4465" y2="25.846" gradientUnits="userSpaceOnUse">
<stop stop-color="#58739F"/>
<stop offset="1" stop-color="#5376AF" stop-opacity="0"/>
</linearGradient>
<linearGradient id="paint1_linear_514_7382" x1="42.1163" y1="151.936" x2="77.4465" y2="25.846" gradientUnits="userSpaceOnUse">
<stop stop-color="#58739F"/>
<stop offset="1" stop-color="#5376AF" stop-opacity="0"/>
</linearGradient>
</defs>
</svg>
