<svg width="189" height="181" viewBox="0 0 189 181" fill="none" xmlns="http://www.w3.org/2000/svg">
<g opacity="0.5" filter="url(#filter0_f_514_7391)">
<path d="M80.8281 148.051L110.204 148.693C117.469 148.852 121.101 148.931 124.323 147.885C127.173 146.961 129.778 145.408 131.946 143.342C134.399 141.005 136.058 137.773 139.374 131.308L151.503 107.667C154.448 101.926 155.921 99.055 156.441 96.0483C156.901 93.3871 156.818 90.6603 156.196 88.0323C155.492 85.0631 153.847 82.2878 150.555 76.7374L135.247 50.9258C132.112 45.6381 130.544 42.9942 128.397 41.0128C126.497 39.2584 124.274 37.8893 121.852 36.9814C119.116 35.9559 116.05 35.7453 109.917 35.324L81.8706 33.3973C74.5724 32.896 70.9234 32.6453 67.6383 33.5506C64.7338 34.3511 62.0477 35.7974 59.7805 37.7816C57.2164 40.0257 55.4169 43.2101 51.8179 49.579L38.0462 73.95C34.7276 79.8227 33.0683 82.759 32.439 85.8699C31.8822 88.6224 31.9113 91.4613 32.5244 94.2018C33.2174 97.2991 34.9365 100.201 38.3749 106.004L38.3749 106.004L53.9959 132.37C57.303 137.952 58.9565 140.743 61.2377 142.791C63.2567 144.604 65.6235 145.988 68.1941 146.857C71.0986 147.839 74.3417 147.91 80.8281 148.051Z" stroke="url(#paint0_linear_514_7391)" stroke-width="4"/>
</g>
<path opacity="0.6" d="M80.8281 148.051L110.204 148.693C117.469 148.852 121.101 148.931 124.323 147.885C127.173 146.961 129.778 145.408 131.946 143.342C134.399 141.005 136.058 137.773 139.374 131.308L151.503 107.667C154.448 101.926 155.921 99.055 156.441 96.0483C156.901 93.3871 156.818 90.6603 156.196 88.0323C155.492 85.0631 153.847 82.2878 150.555 76.7374L135.247 50.9258C132.112 45.6381 130.544 42.9942 128.397 41.0128C126.497 39.2584 124.274 37.8893 121.852 36.9814C119.116 35.9559 116.05 35.7453 109.917 35.324L81.8706 33.3973C74.5724 32.896 70.9234 32.6453 67.6383 33.5506C64.7338 34.3511 62.0477 35.7974 59.7805 37.7816C57.2164 40.0257 55.4169 43.2101 51.8179 49.579L38.0462 73.95C34.7276 79.8227 33.0683 82.759 32.439 85.8699C31.8822 88.6224 31.9113 91.4613 32.5244 94.2018C33.2174 97.2991 34.9365 100.201 38.3749 106.004L38.3749 106.004L53.9959 132.37C57.303 137.952 58.9565 140.743 61.2377 142.791C63.2567 144.604 65.6235 145.988 68.1941 146.857C71.0986 147.839 74.3417 147.91 80.8281 148.051Z" stroke="url(#paint1_linear_514_7391)" stroke-width="4"/>
<path fill-rule="evenodd" clip-rule="evenodd" d="M85.1961 111.926H107.377C111.052 111.926 114.032 108.946 114.032 105.271V83.9146C114.032 82.1497 113.331 80.4572 112.083 79.2092L106.822 73.9486C105.574 72.7007 103.881 71.9996 102.117 71.9996H85.1961C81.521 71.9996 78.5417 74.9788 78.5417 78.6539V105.271C78.5417 108.946 81.521 111.926 85.1961 111.926Z" stroke="#896C7D" stroke-width="2.5" stroke-linecap="round" stroke-linejoin="round"/>
<path d="M105.159 103.053H87.4143" stroke="#896C7D" stroke-width="2.5" stroke-linecap="round" stroke-linejoin="round"/>
<path d="M105.159 95.2898H87.4143" stroke="#896C7D" stroke-width="2.5" stroke-linecap="round" stroke-linejoin="round"/>
<path d="M94.0687 87.5264H87.4143" stroke="#896C7D" stroke-width="2.5" stroke-linecap="round" stroke-linejoin="round"/>
<path d="M114.032 84.1992H106.268C103.818 84.1992 101.832 82.2131 101.832 79.763V71.9996" stroke="#896C7D" stroke-width="2.5" stroke-linecap="round" stroke-linejoin="round"/>
<defs>
<filter id="filter0_f_514_7391" x="0.0419922" y="0.946045" width="188.692" height="179.842" filterUnits="userSpaceOnUse" color-interpolation-filters="sRGB">
<feFlood flood-opacity="0" result="BackgroundImageFix"/>
<feBlend mode="normal" in="SourceGraphic" in2="BackgroundImageFix" result="shape"/>
<feGaussianBlur stdDeviation="15" result="effect1_foregroundBlur_514_7391"/>
</filter>
<linearGradient id="paint0_linear_514_7391" x1="90.0758" y1="75.9922" x2="94.5121" y2="159.393" gradientUnits="userSpaceOnUse">
<stop stop-color="#FFB3D3" stop-opacity="0"/>
<stop offset="1" stop-color="#FFB3D3"/>
</linearGradient>
<linearGradient id="paint1_linear_514_7391" x1="56.8041" y1="26.3063" x2="94.5121" y2="165.161" gradientUnits="userSpaceOnUse">
<stop stop-color="#695767" stop-opacity="0"/>
<stop offset="1" stop-color="#695767"/>
</linearGradient>
</defs>
</svg>
