<svg width="249" height="184" viewBox="0 0 249 184" fill="none" xmlns="http://www.w3.org/2000/svg">
<rect width="249" height="184" rx="18.8636" fill="url(#paint0_linear_807_3407)" fill-opacity="0.65"/>
<rect x="12.2612" y="68.8525" width="222.591" height="43.3864" rx="9.43182" fill="#909ED2" fill-opacity="0.2"/>
<g opacity="0.7">
<path fill-rule="evenodd" clip-rule="evenodd" d="M30.6532 100.448H42.1061C44.0036 100.448 45.5419 98.91 45.5419 97.0124V85.9851C45.5419 85.0739 45.1799 84.2 44.5356 83.5556L41.8193 80.8394C41.175 80.195 40.3011 79.833 39.3898 79.833H30.6532C28.7556 79.833 27.2173 81.3713 27.2173 83.2689V97.0124C27.2173 98.91 28.7556 100.448 30.6532 100.448Z" stroke="#A9B8EE" stroke-width="1.71794" stroke-linecap="round" stroke-linejoin="round"/>
<path d="M40.9609 95.8676H31.7986" stroke="#A9B8EE" stroke-width="1.71794" stroke-linecap="round" stroke-linejoin="round"/>
<path d="M40.9609 91.8588H31.7986" stroke="#A9B8EE" stroke-width="1.71794" stroke-linecap="round" stroke-linejoin="round"/>
<path d="M35.2345 87.85H31.7986" stroke="#A9B8EE" stroke-width="1.71794" stroke-linecap="round" stroke-linejoin="round"/>
<path d="M45.542 86.1321H41.5335C40.2684 86.1321 39.2429 85.1066 39.2429 83.8415V79.833" stroke="#A9B8EE" stroke-width="1.71794" stroke-linecap="round" stroke-linejoin="round"/>
</g>
<rect x="56.5906" y="84.8867" width="83" height="11.3182" rx="5.65909" fill="#A5B1DE" fill-opacity="0.2"/>
<rect x="150.909" y="84.8867" width="47.1591" height="11.3182" rx="5.65909" fill="#A5B1DE" fill-opacity="0.2"/>
<rect x="12.2615" y="14.1475" width="222.591" height="43.3864" rx="9.43182" fill="#6D72E2" fill-opacity="0.2"/>
<g opacity="0.7">
<path d="M29.6689 30.1397V27.8594C29.6689 26.6 30.6899 25.5791 31.9493 25.5791H43.3508C44.6102 25.5791 45.6311 26.6 45.6311 27.8594V43.8215C45.6311 45.0809 44.6102 46.1019 43.3508 46.1019H31.9493C30.6899 46.1019 29.6689 45.0809 29.6689 43.8215V41.5412" stroke="#6A8BFF" stroke-width="1.70952" stroke-linecap="round" stroke-linejoin="round"/>
<rect x="25.1086" y="30.1396" width="11.4015" height="11.4015" rx="2.27936" stroke="#6A8BFF" stroke-width="1.70952" stroke-linecap="round" stroke-linejoin="round"/>
<path d="M45.631 32.5105H36.5098" stroke="#6A8BFF" stroke-width="1.70952" stroke-linecap="round" stroke-linejoin="round"/>
<path d="M45.631 39.2605H36.5098" stroke="#6A8BFF" stroke-width="1.70952" stroke-linecap="round" stroke-linejoin="round"/>
<path d="M28.2439 33.8447L28.814 37.8353H29.1891L30.8092 34.4148L32.4294 37.8353H32.8045L33.3746 33.8447" stroke="#6A8BFF" stroke-width="1.70952" stroke-linecap="round" stroke-linejoin="round"/>
</g>
<rect x="56.5908" y="30.1816" width="83" height="11.3182" rx="5.65909" fill="#96ADFF" fill-opacity="0.2"/>
<rect x="150.909" y="30.1816" width="47.1591" height="11.3182" rx="5.65909" fill="#96ADFF" fill-opacity="0.2"/>
<rect x="12.2615" y="123.557" width="222.591" height="43.3864" rx="9.43182" fill="url(#paint1_linear_807_3407)" fill-opacity="0.2"/>
<g opacity="0.7">
<path d="M37.525 138.446H35.2344" stroke="#DCCB91" stroke-width="1.71794" stroke-linecap="round" stroke-linejoin="round"/>
<path d="M37.525 141.881H35.2344" stroke="#DCCB91" stroke-width="1.71794" stroke-linecap="round" stroke-linejoin="round"/>
<path fill-rule="evenodd" clip-rule="evenodd" d="M37.3881 145.316H35.3715C35.088 145.316 34.8472 145.524 34.8052 145.804L34.3884 148.582C34.339 148.912 34.4356 149.247 34.6532 149.5C34.8708 149.752 35.1876 149.898 35.521 149.898H37.2385C37.5719 149.898 37.8888 149.752 38.1063 149.5C38.3239 149.247 38.4206 148.912 38.3711 148.582L37.9544 145.804C37.9124 145.524 37.6716 145.316 37.3881 145.316V145.316Z" stroke="#DCCB91" stroke-width="1.71794" stroke-linecap="round" stroke-linejoin="round"/>
<path fill-rule="evenodd" clip-rule="evenodd" d="M30.6534 154.479H42.6789C44.2602 154.479 45.5422 153.197 45.5422 151.615V140.015C45.5422 139.104 45.1802 138.23 44.5358 137.586L41.8196 134.87C41.1752 134.225 40.3013 133.863 39.39 133.863H31.226C29.6447 133.863 28.3628 135.145 28.3628 136.727V152.188C28.3628 153.453 29.3883 154.479 30.6534 154.479Z" stroke="#DCCB91" stroke-width="1.71794" stroke-linecap="round" stroke-linejoin="round"/>
</g>
<rect x="56.5908" y="139.59" width="109.409" height="11.3182" rx="5.65909" fill="#F9EDC3" fill-opacity="0.2"/>
<rect x="174.489" y="139.59" width="40.5568" height="11.3182" rx="5.65909" fill="#F9EDC3" fill-opacity="0.2"/>
<defs>
<linearGradient id="paint0_linear_807_3407" x1="280.597" y1="72.8131" x2="-4.46593" y2="206.453" gradientUnits="userSpaceOnUse">
<stop stop-color="#3A314E"/>
<stop offset="0.749096" stop-color="#716790" stop-opacity="0.38"/>
<stop offset="1" stop-color="#62A1FF" stop-opacity="0"/>
</linearGradient>
<linearGradient id="paint1_linear_807_3407" x1="77.341" y1="120.727" x2="389.063" y2="197.596" gradientUnits="userSpaceOnUse">
<stop stop-color="#DABC99"/>
<stop offset="1" stop-color="#DABC99" stop-opacity="0"/>
</linearGradient>
</defs>
</svg>
