<svg width="253" height="226" viewBox="0 0 253 226" fill="none" xmlns="http://www.w3.org/2000/svg">
<rect x="2.27441" y="0.361328" width="249" height="225" rx="15" fill="url(#paint0_linear_807_3015)" fill-opacity="0.15"/>
<path d="M34.9108 28.9068V30.1568H30.0926V35.3613H28.6835V23.725H35.6608V24.975H30.0926V28.9068H34.9108ZM43.1654 31.9068V26.6341H44.5063V35.3613H43.1654V34.1341H43.0745C42.6427 34.7931 41.8018 35.475 40.4836 35.475C39.2109 35.475 37.6654 34.475 37.6654 32.1795V26.6341H39.0063V32.1795C39.0063 33.4522 39.8018 34.1795 40.9154 34.1795C41.9154 34.1795 43.1654 33.5431 43.1654 31.9068ZM50.9414 26.6341V27.8841H49.0778V32.8613C49.0778 33.9977 49.6459 34.1795 50.2369 34.1795C50.5323 34.1795 50.7141 34.1341 50.8278 34.1113L51.1005 35.3159C50.9187 35.3841 50.6005 35.475 50.1005 35.475C48.9641 35.475 47.7369 34.7477 47.7369 33.225V27.8841H46.4187V26.6341H47.7369V24.7704H49.0778V26.6341H50.9414ZM58.7898 31.9068V26.6341H60.1307V35.3613H58.7898V34.1341H58.6989C58.2671 34.7931 57.4262 35.475 56.108 35.475C54.8353 35.475 53.2898 34.475 53.2898 32.1795V26.6341H54.6307V32.1795C54.6307 33.4522 55.4262 34.1795 56.5398 34.1795C57.5398 34.1795 58.7898 33.5431 58.7898 31.9068ZM67.7249 26.8159L67.2703 28.0659C67.134 27.9977 66.9067 27.8841 66.5203 27.8841C65.0885 27.8841 64.2703 29.2477 64.2476 30.4295V35.3613H62.9067V26.6341H64.2476V28.1341H64.3385C64.5885 27.2931 65.543 26.4977 66.5658 26.4977C67.0203 26.4977 67.4521 26.6568 67.7249 26.8159ZM72.7139 35.5431C70.1912 35.5431 68.6457 33.7477 68.6457 31.0659C68.6457 28.3841 70.2139 26.5204 72.5775 26.5204C74.3957 26.5204 76.3275 27.6341 76.3275 30.8841V31.4522H70.0037C70.14 33.3386 71.1344 34.3386 72.7139 34.3386C73.7821 34.3386 74.5548 33.8841 74.8957 32.975L76.1912 33.3386C75.7821 34.6568 74.4866 35.5431 72.7139 35.5431ZM72.5775 27.725C71.2366 27.725 70.248 28.6568 70.0321 30.2931H74.9639C74.9639 28.8159 74.0321 27.725 72.5775 27.725ZM38.0471 45.3613H36.6381C36.2971 43.7477 34.9108 42.8841 33.3653 42.8841C31.2517 42.8841 29.5926 44.5204 29.5926 47.5431C29.5926 50.5659 31.2517 52.2022 33.3653 52.2022C34.9108 52.2022 36.2971 51.3386 36.6381 49.725H38.0471C37.6153 52.1113 35.7062 53.5204 33.3653 53.5204C30.3881 53.5204 28.229 51.225 28.229 47.5431C28.229 43.8613 30.3881 41.5659 33.3653 41.5659C35.7062 41.5659 37.6153 42.975 38.0471 45.3613ZM45.6896 53.3613V52.1795H45.6214C45.3487 52.7477 44.5532 53.5659 43.0305 53.5659C41.3714 53.5659 40.0532 52.5886 40.0532 50.8841C40.0532 48.9068 41.8032 48.5204 43.4396 48.3159C44.6441 48.1568 45.6896 48.2022 45.6896 47.6341V47.6113C45.6896 46.1568 44.9169 45.7022 43.8714 45.7022C42.5759 45.7022 41.8714 46.3841 41.5759 47.0204L40.3032 46.5659C40.985 44.975 42.485 44.5204 43.8032 44.5204C44.9169 44.5204 47.0305 44.8386 47.0305 47.6113V53.3613H45.6896ZM45.6896 50.2022V48.975C45.4623 49.2477 43.9396 49.4068 43.3714 49.475C42.3259 49.6113 41.3941 49.9295 41.3941 50.9522C41.3941 51.8841 42.1669 52.3613 43.235 52.3613C44.8259 52.3613 45.6896 51.2931 45.6896 50.2022ZM55.8207 46.5886L54.6161 46.9295C54.457 46.5431 54.1161 45.6568 52.7752 45.6568C51.707 45.6568 50.9116 46.225 50.9116 46.975C50.9116 47.5659 51.3888 48.0886 52.3888 48.3386L53.6843 48.6568C55.2752 49.0431 55.9343 49.9522 55.9343 50.9522C55.9343 52.2931 54.7752 53.5431 52.6161 53.5431C50.5252 53.5431 49.5707 52.4295 49.1388 51.3386L50.3661 50.8841C50.6843 51.6795 51.2979 52.3841 52.5934 52.3841C53.8434 52.3841 54.5707 51.725 54.5707 50.9977C54.5707 50.4295 54.1843 50.0431 53.3207 49.8386L51.8661 49.475C50.2752 49.0659 49.5707 48.1113 49.5707 47.0431C49.5707 45.5659 50.9343 44.5204 52.7752 44.5204C54.3888 44.5204 55.3661 45.3159 55.8207 46.5886ZM59.3963 48.0886V53.3613H58.0554V41.725H59.3963V45.8613H59.4873C59.9191 45.2022 60.76 44.5204 62.0782 44.5204C63.7145 44.5204 64.8963 45.6568 64.8963 47.8159V53.3613H63.5554V47.8159C63.5554 46.5431 62.8054 45.8159 61.6463 45.8159C60.5782 45.8159 59.3963 46.4522 59.3963 48.0886ZM81.6741 41.725V53.3613H80.3105L74.1969 44.2477H74.0832V53.3613H72.6741V41.725H74.0378L80.1741 50.8841H80.2878V41.725H81.6741ZM88.2839 53.5431C85.7612 53.5431 84.2157 51.7477 84.2157 49.0659C84.2157 46.3841 85.7839 44.5204 88.1475 44.5204C89.9657 44.5204 91.8975 45.6341 91.8975 48.8841V49.4522H85.5737C85.71 51.3386 86.7044 52.3386 88.2839 52.3386C89.3521 52.3386 90.1248 51.8841 90.4657 50.975L91.7612 51.3386C91.3521 52.6568 90.0566 53.5431 88.2839 53.5431ZM88.1475 45.725C86.8066 45.725 85.818 46.6568 85.6021 48.2931H90.5339C90.5339 46.8159 89.6021 45.725 88.1475 45.725ZM97.9477 53.5431C95.4249 53.5431 93.8795 51.7477 93.8795 49.0659C93.8795 46.3841 95.4477 44.5204 97.8113 44.5204C99.6295 44.5204 101.561 45.6341 101.561 48.8841V49.4522H95.2374C95.3738 51.3386 96.3681 52.3386 97.9477 52.3386C99.0158 52.3386 99.7886 51.8841 100.129 50.975L101.425 51.3386C101.016 52.6568 99.7204 53.5431 97.9477 53.5431ZM97.8113 45.725C96.4704 45.725 95.4817 46.6568 95.2658 48.2931H100.198C100.198 46.8159 99.2658 45.725 97.8113 45.725ZM111.248 53.3613H109.952V52.0204H109.816C109.52 52.4977 108.93 53.5431 107.248 53.5431C105.066 53.5431 103.543 51.7931 103.543 49.0204C103.543 46.2704 105.066 44.5204 107.27 44.5204C108.975 44.5204 109.52 45.5659 109.816 46.0204H109.907V41.725H111.248V53.3613ZM104.884 48.9977C104.884 50.8613 105.748 52.3386 107.43 52.3386C109.043 52.3386 109.93 50.975 109.93 48.9977C109.93 47.0431 109.066 45.725 107.43 45.725C105.725 45.725 104.884 47.1568 104.884 48.9977ZM120.045 46.5886L118.84 46.9295C118.681 46.5431 118.34 45.6568 117 45.6568C115.931 45.6568 115.136 46.225 115.136 46.975C115.136 47.5659 115.613 48.0886 116.613 48.3386L117.909 48.6568C119.5 49.0431 120.159 49.9522 120.159 50.9522C120.159 52.2931 119 53.5431 116.84 53.5431C114.75 53.5431 113.795 52.4295 113.363 51.3386L114.59 50.8841C114.909 51.6795 115.522 52.3841 116.818 52.3841C118.068 52.3841 118.795 51.725 118.795 50.9977C118.795 50.4295 118.409 50.0431 117.545 49.8386L116.09 49.475C114.5 49.0659 113.795 48.1113 113.795 47.0431C113.795 45.5659 115.159 44.5204 117 44.5204C118.613 44.5204 119.59 45.3159 120.045 46.5886Z" fill="#D3ADE6" fill-opacity="0.5"/>
<path opacity="0.3" d="M2.77539 123.968L9.94787 116.551L22.5383 106.445C24.6031 104.787 27.5865 104.958 29.4487 106.84L33.3777 110.812C36.03 113.493 40.5675 112.523 41.892 108.992L50.7089 85.4878C51.8071 82.5603 55.2327 81.2705 57.9891 82.7466L71.1903 89.8167C72.7358 90.6444 74.5955 90.6323 76.1301 89.7846L80.68 87.2713C82.9564 86.0138 85.8126 86.6434 87.3493 88.7414L96.5928 101.36C98.859 104.454 103.587 104.09 105.352 100.685L117.427 77.3921C119.005 74.3497 123.052 73.6564 125.552 76.0004L131.719 81.7823C133.696 83.6362 136.769 83.6479 138.761 81.8091L154.402 67.3662C155.715 66.1542 157.56 65.706 159.283 66.1807L174.806 70.4597C176.733 70.9909 178.793 70.3634 180.097 68.8484L188.914 58.6032C191.017 56.16 194.819 56.2163 196.848 58.7208L221.809 89.525C224.04 92.2782 228.317 92.0211 230.202 89.0205L231.163 87.4912C232.109 85.9857 233.762 85.072 235.54 85.072H241.221C243.627 85.072 245.716 83.4111 246.257 81.0663L251.275 59.3451" stroke="url(#paint1_linear_807_3015)" stroke-width="2.06778"/>
<path opacity="0.4" d="M9.94786 116.551L4.06377 121.637C2.92765 122.619 2.27466 124.046 2.27466 125.548V211.362H251.275V59.3451L246.257 81.0663C245.716 83.4111 243.627 85.072 241.221 85.072H235.54C233.762 85.072 232.109 85.9857 231.163 87.4912L230.202 89.0205C228.317 92.0211 224.04 92.2782 221.809 89.525L196.848 58.7208C194.819 56.2163 191.017 56.16 188.914 58.6032L180.097 68.8484C178.793 70.3634 176.733 70.9909 174.806 70.4597L159.283 66.1807C157.56 65.706 155.715 66.1542 154.402 67.3662L138.761 81.8091C136.769 83.6479 133.696 83.6362 131.719 81.7823L125.552 76.0004C123.052 73.6565 119.005 74.3498 117.427 77.3922L105.352 100.685C103.587 104.09 98.859 104.454 96.5928 101.36L87.3493 88.7414C85.8126 86.6434 82.9564 86.0138 80.68 87.2713L76.1301 89.7846C74.5955 90.6323 72.7358 90.6444 71.1903 89.8167L57.989 82.7466C55.2327 81.2705 51.8071 82.5603 50.7089 85.4878L41.892 108.992C40.5675 112.523 36.03 113.493 33.3777 110.812L29.4487 106.84C27.5865 104.958 24.6031 104.787 22.5383 106.445L9.94786 116.551Z" fill="url(#paint2_linear_807_3015)"/>
<path d="M251.274 139.31L241.488 109.927C241.145 108.898 240.412 108.045 239.446 107.551L214.712 94.9107C214.244 94.6716 213.826 94.3457 213.48 93.9502L199.97 78.4967C198.77 77.1241 196.812 76.6993 195.151 77.4508L181.881 83.455C179.51 84.5275 176.75 83.1706 176.152 80.6384L171.924 62.7504C171.697 61.7916 171.136 60.9452 170.34 60.3636L161.955 54.2309C159.501 52.4358 156.013 53.8146 155.45 56.8029L151.09 79.9275C150.985 80.4872 150.765 81.0191 150.444 81.4898L135.855 102.905C134.651 104.672 132.297 105.23 130.428 104.191L113.086 94.5488L95.7062 86.5038C94.3931 85.896 92.8579 86.0187 91.6579 86.8272L60.434 107.868C59.9893 108.167 59.4907 108.378 58.9657 108.487L27.0081 115.139C25.9497 115.36 25.0196 115.986 24.4171 116.883L1.27441 151.361" stroke="url(#paint3_radial_807_3015)" stroke-width="2.51041" stroke-linecap="round"/>
<path d="M75.8742 179.063H72.0061V184.023H68.0755V179.063H56.0968V176.256L66.859 162.187H71.195L61.0567 175.632H68.2003V171.234H72.0061V175.632H75.8742V179.063ZM82.0219 177.153C80.9585 177.153 80.1006 176.778 79.4484 176.026C78.7961 175.275 78.47 174.289 78.47 173.07C78.47 171.85 78.7961 170.865 79.4484 170.113C80.1006 169.362 80.9585 168.986 82.0219 168.986C83.0854 168.986 83.9433 169.362 84.5955 170.113C85.2619 170.851 85.5952 171.836 85.5952 173.07C85.5952 174.303 85.2619 175.296 84.5955 176.047C83.9433 176.785 83.0854 177.153 82.0219 177.153ZM90.955 169.135H93.0394L82.8727 184.023H80.7883L90.955 169.135ZM82.0219 175.665C82.6033 175.665 83.0499 175.438 83.3619 174.984C83.688 174.53 83.8511 173.892 83.8511 173.07C83.8511 172.247 83.688 171.609 83.3619 171.156C83.0499 170.702 82.6033 170.475 82.0219 170.475C81.4689 170.475 81.0223 170.709 80.682 171.177C80.3559 171.631 80.1928 172.262 80.1928 173.07C80.1928 173.878 80.3559 174.516 80.682 174.984C81.0223 175.438 81.4689 175.665 82.0219 175.665ZM91.7845 184.172C90.721 184.172 89.8632 183.797 89.2109 183.045C88.5587 182.294 88.2325 181.308 88.2325 180.089C88.2325 178.869 88.5587 177.884 89.2109 177.132C89.8632 176.381 90.721 176.005 91.7845 176.005C92.8479 176.005 93.7058 176.381 94.3581 177.132C95.0245 177.884 95.3577 178.869 95.3577 180.089C95.3577 181.308 95.0245 182.294 94.3581 183.045C93.7058 183.797 92.8479 184.172 91.7845 184.172ZM91.7845 182.683C92.3517 182.683 92.7983 182.457 93.1244 182.003C93.4506 181.535 93.6136 180.897 93.6136 180.089C93.6136 179.28 93.4506 178.649 93.1244 178.196C92.7983 177.728 92.3517 177.494 91.7845 177.494C91.2173 177.494 90.7707 177.721 90.4445 178.174C90.1184 178.628 89.9553 179.266 89.9553 180.089C89.9553 180.911 90.1184 181.549 90.4445 182.003C90.7707 182.457 91.2173 182.683 91.7845 182.683Z" fill="#D5C5F1"/>
<g opacity="0.6">
<path d="M42.0098 164.053L24.9681 181.095" stroke="#B580F9" stroke-width="2.5822" stroke-linecap="round" stroke-linejoin="round"/>
<path d="M42.0109 176.228V164.053H29.8358" stroke="#B580F9" stroke-width="2.5822" stroke-linecap="round" stroke-linejoin="round"/>
</g>
<rect x="111.274" y="148.361" width="120" height="19" rx="7.6333" fill="#C6A3F2" fill-opacity="0.15"/>
<rect x="111.274" y="179.361" width="76" height="19" rx="7.6333" fill="#C6A3F2" fill-opacity="0.05"/>
<defs>
<linearGradient id="paint0_linear_807_3015" x1="22.2559" y1="8.73899" x2="145.693" y2="383.349" gradientUnits="userSpaceOnUse">
<stop stop-color="#6471A0"/>
<stop offset="1" stop-color="#A9B8EE" stop-opacity="0"/>
</linearGradient>
<linearGradient id="paint1_linear_807_3015" x1="-12.3312" y1="125.738" x2="252.432" y2="36.4069" gradientUnits="userSpaceOnUse">
<stop stop-color="#F1A5F8" stop-opacity="0"/>
<stop offset="0.490783" stop-color="#F1A5F8"/>
<stop offset="1" stop-color="#F1A5F8" stop-opacity="0"/>
</linearGradient>
<linearGradient id="paint2_linear_807_3015" x1="159.275" y1="153.362" x2="148.545" y2="52.9913" gradientUnits="userSpaceOnUse">
<stop stop-color="#6046C7" stop-opacity="0"/>
<stop offset="1" stop-color="#F1A5F8"/>
</linearGradient>
<radialGradient id="paint3_radial_807_3015" cx="0" cy="0" r="1" gradientUnits="userSpaceOnUse" gradientTransform="translate(126.274 41.3613) rotate(90) scale(121.5 194.698)">
<stop stop-color="white"/>
<stop offset="1" stop-color="white" stop-opacity="0"/>
</radialGradient>
</defs>
</svg>
