<svg width="146" height="116" viewBox="0 0 146 116" fill="none" xmlns="http://www.w3.org/2000/svg">
<g id="Sign">
<path id="Subtract" fill-rule="evenodd" clip-rule="evenodd" d="M37.4906 36.4516V53.1771L53.9884 69.6894L64.1233 59.7464L52.4869 47.4361V36.4516C52.4869 24.6095 62.0784 15.0095 73.9101 15.0095C84.0844 15.0095 92.6022 22.1083 94.7889 31.6272H110.013C107.655 13.7759 92.39 0 73.9101 0C53.7962 0 37.4906 16.32 37.4906 36.4516ZM111.401 46.6367H98.9093L83.6101 61.6462H111.401C122.049 61.6462 130.682 70.2862 130.682 80.9441C130.682 91.6021 122.049 100.242 111.401 100.242H87.7276L72.839 115.252H111.401C130.332 115.252 145.678 99.8916 145.678 80.9441C145.678 61.9966 130.332 46.6367 111.401 46.6367ZM88.8526 76.6557L68.5543 76.6557L44.5609 100.242H34.2772C23.6286 100.242 14.9963 91.6021 14.9963 80.9441C14.9963 74.7273 17.9333 69.1971 22.4944 65.6678V48.7174C9.36807 53.5265 0 66.1403 0 80.9441C0 99.8916 15.3464 115.252 34.2772 115.252H50.8259L88.8526 76.6557Z" fill="#FF7C32"/>
</g>
</svg>
