<svg width="1813" height="1834" viewBox="0 0 1813 1834" fill="none" xmlns="http://www.w3.org/2000/svg">
<g opacity="0.45">
<path fill-rule="evenodd" clip-rule="evenodd" d="M1646.29 723.055C1779.13 917.7 1784.72 1168.96 1669.82 1318.18L1890.23 1524.19C2044.33 1324.06 2066.97 964.266 1837.49 628.017C1636.29 333.202 1323.92 193.636 1087.28 175.617C966.519 166.421 852.985 187.077 771.309 243.971C688.497 301.655 635.379 399.893 653.116 542.093L909.695 610.843C903.52 561.343 919.669 519.204 963.915 488.383C1009.3 456.77 1080.62 440.791 1167.12 447.377C1345 460.922 1536.78 562.59 1646.29 723.055Z" fill="white"/>
<path fill-rule="evenodd" clip-rule="evenodd" d="M1646.29 723.055C1779.13 917.7 1784.72 1168.96 1669.82 1318.18L1890.23 1524.19C2044.33 1324.06 2066.97 964.266 1837.49 628.017C1636.29 333.202 1323.92 193.636 1087.28 175.617C966.519 166.421 852.985 187.077 771.309 243.971C688.497 301.655 635.379 399.893 653.116 542.093L909.695 610.843C903.52 561.343 919.669 519.204 963.915 488.383C1009.3 456.77 1080.62 440.791 1167.12 447.377C1345 460.922 1536.78 562.59 1646.29 723.055Z" fill="url(#paint0_linear_302_22681)"/>
<path fill-rule="evenodd" clip-rule="evenodd" d="M1646.29 723.055C1779.13 917.7 1784.72 1168.96 1669.82 1318.18L1890.23 1524.19C2044.33 1324.06 2066.97 964.266 1837.49 628.017C1636.29 333.202 1323.92 193.636 1087.28 175.617C966.519 166.421 852.985 187.077 771.309 243.971C688.497 301.655 635.379 399.893 653.116 542.093L909.695 610.843C903.52 561.343 919.669 519.204 963.915 488.383C1009.3 456.77 1080.62 440.791 1167.12 447.377C1345 460.922 1536.78 562.59 1646.29 723.055Z" fill="url(#paint1_radial_302_22681)" fill-opacity="0.8"/>
<path fill-rule="evenodd" clip-rule="evenodd" d="M1017.32 1315.52C712.205 1140.27 327.019 710.64 64.373 -45.0656L2.14999 -45.0769C287.282 775.329 615.705 1265.98 990.505 1517.37C1365.31 1768.77 1759.83 1721.19 1904.74 1504.06L1674.91 1311.37C1592.04 1435.53 1333.49 1497.12 1017.32 1315.52Z" fill="white"/>
<path fill-rule="evenodd" clip-rule="evenodd" d="M1017.32 1315.52C712.205 1140.27 327.019 710.64 64.373 -45.0656L2.14999 -45.0769C287.282 775.329 615.705 1265.98 990.505 1517.37C1365.31 1768.77 1759.83 1721.19 1904.74 1504.06L1674.91 1311.37C1592.04 1435.53 1333.49 1497.12 1017.32 1315.52Z" fill="url(#paint2_linear_302_22681)"/>
<path fill-rule="evenodd" clip-rule="evenodd" d="M1017.32 1315.52C712.205 1140.27 327.019 710.64 64.373 -45.0656L2.14999 -45.0769C287.282 775.329 615.705 1265.98 990.505 1517.37C1365.31 1768.77 1759.83 1721.19 1904.74 1504.06L1674.91 1311.37C1592.04 1435.53 1333.49 1497.12 1017.32 1315.52Z" fill="url(#paint3_radial_302_22681)"/>
<path fill-rule="evenodd" clip-rule="evenodd" d="M698.571 702.552C768.983 865.508 906.138 1007.9 1055.24 1100.22C1253.36 1222.89 1496.34 1281.62 1727.12 1284.61C2195.29 1290.66 2826.96 1013.66 2782.97 46.9258L2623.44 5.63631C2625.33 39.85 2623.28 -26.7914 2623.44 5.63631L2354.46 -82C2354.46 755.448 2056.33 998.81 1653.04 987.578C1249.75 976.346 950.767 790.215 909.665 608.018L653.086 539.267C653.232 540.442 653.383 541.616 653.537 542.79L653.104 542.674C660.108 598.826 675.88 652.257 698.571 702.552Z" fill="white"/>
<path fill-rule="evenodd" clip-rule="evenodd" d="M698.571 702.552C768.983 865.508 906.138 1007.9 1055.24 1100.22C1253.36 1222.89 1496.34 1281.62 1727.12 1284.61C2195.29 1290.66 2826.96 1013.66 2782.97 46.9258L2623.44 5.63631C2625.33 39.85 2623.28 -26.7914 2623.44 5.63631L2354.46 -82C2354.46 755.448 2056.33 998.81 1653.04 987.578C1249.75 976.346 950.767 790.215 909.665 608.018L653.086 539.267C653.232 540.442 653.383 541.616 653.537 542.79L653.104 542.674C660.108 598.826 675.88 652.257 698.571 702.552Z" fill="url(#paint4_linear_302_22681)"/>
</g>
<defs>
<linearGradient id="paint0_linear_302_22681" x1="818.678" y1="548.176" x2="1541.93" y2="184.416" gradientUnits="userSpaceOnUse">
<stop stop-color="#78EEC4"/>
<stop offset="0.39092" stop-color="#23BCFE"/>
<stop offset="1" stop-color="#7451FF"/>
</linearGradient>
<radialGradient id="paint1_radial_302_22681" cx="0" cy="0" r="1" gradientUnits="userSpaceOnUse" gradientTransform="translate(1822.06 1534.42) rotate(-97.4882) scale(1010.27 651.021)">
<stop stop-color="#FF2681"/>
<stop offset="1" stop-color="#FF589E" stop-opacity="0"/>
</radialGradient>
<linearGradient id="paint2_linear_302_22681" x1="619.027" y1="1316.3" x2="1718.29" y2="1025.82" gradientUnits="userSpaceOnUse">
<stop stop-color="#FFCE4F"/>
<stop offset="0.73604" stop-color="#E93693"/>
<stop offset="1" stop-color="#C24BAA"/>
</linearGradient>
<radialGradient id="paint3_radial_302_22681" cx="0" cy="0" r="1" gradientUnits="userSpaceOnUse" gradientTransform="translate(1693.58 1306.71) rotate(97.2318) scale(90.3184 223.713)">
<stop stop-color="#AF5BB6"/>
<stop offset="1" stop-color="#AF5BB6" stop-opacity="0"/>
</radialGradient>
<linearGradient id="paint4_linear_302_22681" x1="853.724" y1="647.115" x2="2221.64" y2="349.978" gradientUnits="userSpaceOnUse">
<stop stop-color="#E4FAFF"/>
<stop offset="0.271274" stop-color="#9CA6FF"/>
<stop offset="0.634081" stop-color="#9EFFEE"/>
<stop offset="1" stop-color="white"/>
</linearGradient>
</defs>
</svg>
