<svg width="161" height="54" viewBox="0 0 161 54" fill="none" xmlns="http://www.w3.org/2000/svg">
<path d="M58.1418 18.6543H78.9007V22.7823H62.8489V28.8556H76.4803V32.7311H62.8489V41.8633H58.1418V18.6543ZM83.0138 17.2288H87.4091V41.8633H83.0138V17.2288Z" fill="white"/>
<path d="M118.127 22.0825C117.692 22.0825 117.296 22.0231 116.939 21.9043C116.593 21.7756 116.296 21.6073 116.049 21.3995C115.801 21.1817 115.608 20.9342 115.469 20.657C115.341 20.3699 115.276 20.068 115.276 19.7512C115.276 19.4245 115.341 19.1226 115.469 18.8454C115.608 18.5583 115.801 18.3109 116.049 18.103C116.296 17.8951 116.593 17.7318 116.939 17.613C117.296 17.4843 117.692 17.4199 118.127 17.4199C118.573 17.4199 118.969 17.4843 119.315 17.613C119.672 17.7318 119.974 17.8951 120.221 18.103C120.469 18.3109 120.657 18.5583 120.785 18.8454C120.924 19.1226 120.993 19.4245 120.993 19.7512C120.993 20.068 120.924 20.3699 120.785 20.657C120.657 20.9342 120.469 21.1817 120.221 21.3995C119.974 21.6073 119.672 21.7756 119.315 21.9043C118.969 22.0231 118.573 22.0825 118.127 22.0825ZM115.93 24.4732H120.325V41.995H115.93V24.4732Z" fill="white"/>
<path d="M125.637 24.4732H130.032V26.9975C131.002 26.2749 132.027 25.6512 133.106 25.1265C134.185 24.6019 135.259 24.201 136.328 23.9238L137.62 27.9479C135.927 28.1161 134.437 28.4973 133.15 29.0912C131.873 29.6753 130.834 30.5019 130.032 31.571V41.995H125.637V24.4732Z" fill="white"/>
<path d="M138.853 33.1747C138.853 31.9868 139.096 30.8533 139.581 29.7743C140.066 28.6854 140.764 27.7251 141.675 26.8936C142.585 26.062 143.699 25.3988 145.016 24.9038C146.342 24.4088 147.847 24.1614 149.53 24.1614C151.203 24.1614 152.707 24.4138 154.044 24.9187C155.39 25.4136 156.529 26.0967 157.459 26.9678C158.4 27.839 159.117 28.8635 159.612 30.0416C160.117 31.2196 160.37 32.4818 160.37 33.8281C160.37 33.9963 160.365 34.1795 160.355 34.3775C160.355 34.5656 160.345 34.7388 160.325 34.8972H143.753C143.942 35.4219 144.244 35.902 144.659 36.3375C145.085 36.7731 145.615 37.1493 146.248 37.4661C146.882 37.7828 147.614 38.0303 148.446 38.2085C149.277 38.3768 150.198 38.4609 151.208 38.4609C152.217 38.4609 153.222 38.357 154.222 38.1491C155.222 37.9313 156.177 37.6591 157.088 37.3324L158.573 40.6883C157.999 40.9556 157.415 41.1932 156.821 41.401C156.237 41.599 155.623 41.7673 154.979 41.9059C154.346 42.0346 153.678 42.1336 152.975 42.2029C152.282 42.2722 151.549 42.3068 150.777 42.3068C148.807 42.3068 147.08 42.0693 145.595 41.5941C144.11 41.1189 142.867 40.4705 141.868 39.6489C140.868 38.8272 140.115 37.862 139.611 36.7533C139.106 35.6446 138.853 34.4517 138.853 33.1747ZM155.707 31.4671C155.549 30.982 155.301 30.5316 154.964 30.1158C154.638 29.6901 154.227 29.3239 153.732 29.017C153.237 28.7002 152.663 28.4527 152.01 28.2745C151.356 28.0963 150.638 28.0073 149.856 28.0073C149.025 28.0073 148.268 28.1013 147.585 28.2894C146.901 28.4775 146.303 28.7299 145.788 29.0467C145.273 29.3635 144.842 29.7297 144.496 30.1455C144.159 30.5613 143.912 31.0018 143.753 31.4671H155.707Z" fill="white"/>
<path fill-rule="evenodd" clip-rule="evenodd" d="M91.9447 27.2776C92.4377 26.9093 92.9808 26.5852 93.5789 26.3134L93.6112 26.2987L93.6429 26.2828C95.7392 25.235 99.4587 24.7897 102.564 25.7501C104.077 26.2179 105.33 26.9842 106.191 28.0557C106.73 28.7261 107.162 29.5725 107.391 30.6514C106.278 30.1875 105.13 29.8322 103.992 29.5856C101.112 28.9621 98.066 28.9873 95.6309 29.9263C94.3965 30.4023 93.2532 31.1406 92.4135 32.2166C91.5577 33.3131 91.0986 34.6586 91.0986 36.1785C91.0986 38.6672 92.7174 40.512 94.5755 41.6169C96.4512 42.7322 98.8581 43.3002 101.227 43.2162C103.603 43.1319 106.115 42.3826 108.079 40.6521C109.077 39.7722 109.89 38.6779 110.463 37.3737C111.578 38.6859 112.224 40.2301 112.224 41.9944H116.071C116.071 38.4886 114.43 35.6508 112.131 33.5888C111.897 33.379 111.656 33.1766 111.408 32.9818C111.41 32.918 111.412 32.854 111.414 32.7897C111.478 29.8655 110.662 27.4772 109.19 25.6454C107.736 23.8371 105.755 22.7099 103.701 22.0746C99.6874 20.8334 94.9622 21.3356 91.955 22.8255C91.9516 22.8271 91.9481 22.8286 91.9447 22.8302V27.2776ZM107.279 34.8579C106.016 34.1689 104.608 33.6555 103.178 33.3458C100.777 32.826 98.541 32.9275 97.0151 33.5159C96.269 33.8036 95.762 34.1792 95.4465 34.5835C95.1469 34.9674 94.9459 35.4688 94.9459 36.1785C94.9459 36.8179 95.353 37.6032 96.5418 38.3101C97.7131 39.0066 99.3743 39.4322 101.09 39.3714C102.798 39.3108 104.387 38.7768 105.535 37.7654C106.285 37.1054 106.926 36.1732 107.279 34.8579Z" fill="white"/>
<g clip-path="url(#clip0_57_8656)">
<path fill-rule="evenodd" clip-rule="evenodd" d="M29.7414 33.7367C33.5622 28.1382 33.7231 20.9113 30.4183 16.6193L36.7577 10.6938C41.1901 16.4502 41.8414 26.7988 35.241 36.4703C29.4539 44.95 20.4692 48.9643 13.6627 49.4826C10.1893 49.7471 6.9237 49.153 4.57448 47.5166C2.19256 45.8574 0.664743 43.0318 1.17491 38.9417L8.55484 36.9643C8.37725 38.388 8.84172 39.6001 10.1144 40.4866C11.4197 41.3958 13.471 41.8555 15.959 41.666C21.0753 41.2764 26.5915 38.3522 29.7414 33.7367Z" fill="white"/>
<path fill-rule="evenodd" clip-rule="evenodd" d="M29.7414 33.7367C33.5622 28.1382 33.7231 20.9113 30.4183 16.6193L36.7577 10.6938C41.1901 16.4502 41.8414 26.7988 35.241 36.4703C29.4539 44.95 20.4692 48.9643 13.6627 49.4826C10.1893 49.7471 6.9237 49.153 4.57448 47.5166C2.19256 45.8574 0.664743 43.0318 1.17491 38.9417L8.55484 36.9643C8.37725 38.388 8.84172 39.6001 10.1144 40.4866C11.4197 41.3958 13.471 41.8555 15.959 41.666C21.0753 41.2764 26.5915 38.3522 29.7414 33.7367Z" fill="url(#paint0_linear_57_8656)"/>
<path fill-rule="evenodd" clip-rule="evenodd" d="M29.7414 33.7367C33.5622 28.1382 33.7231 20.9113 30.4183 16.6193L36.7577 10.6938C41.1901 16.4502 41.8414 26.7988 35.241 36.4703C29.4539 44.95 20.4692 48.9643 13.6627 49.4826C10.1893 49.7471 6.9237 49.153 4.57448 47.5166C2.19256 45.8574 0.664743 43.0318 1.17491 38.9417L8.55484 36.9643C8.37725 38.388 8.84172 39.6001 10.1144 40.4866C11.4197 41.3958 13.471 41.8555 15.959 41.666C21.0753 41.2764 26.5915 38.3522 29.7414 33.7367Z" fill="url(#paint1_radial_57_8656)" fill-opacity="0.8"/>
<path fill-rule="evenodd" clip-rule="evenodd" d="M11.6504 16.6955C2.87436 21.7362 -8.2047 34.0937 -15.7591 55.8299L-17.5488 55.8302C-9.34763 32.233 0.098737 18.1204 10.8791 10.8897C21.6594 3.65894 33.0069 5.02742 37.175 11.2727L30.5644 16.8151C28.1809 13.2438 20.7443 11.4722 11.6504 16.6955Z" fill="white"/>
<path fill-rule="evenodd" clip-rule="evenodd" d="M11.6504 16.6955C2.87436 21.7362 -8.2047 34.0937 -15.7591 55.8299L-17.5488 55.8302C-9.34763 32.233 0.098737 18.1204 10.8791 10.8897C21.6594 3.65894 33.0069 5.02742 37.175 11.2727L30.5644 16.8151C28.1809 13.2438 20.7443 11.4722 11.6504 16.6955Z" fill="url(#paint2_linear_57_8656)"/>
<path fill-rule="evenodd" clip-rule="evenodd" d="M11.6504 16.6955C2.87436 21.7362 -8.2047 34.0937 -15.7591 55.8299L-17.5488 55.8302C-9.34763 32.233 0.098737 18.1204 10.8791 10.8897C21.6594 3.65894 33.0069 5.02742 37.175 11.2727L30.5644 16.8151C28.1809 13.2438 20.7443 11.4722 11.6504 16.6955Z" fill="url(#paint3_radial_57_8656)"/>
<path fill-rule="evenodd" clip-rule="evenodd" d="M2.48348 34.3244C4.50884 29.6377 8.45356 25.5425 12.7418 22.8874C18.4404 19.3591 25.4291 17.6697 32.0671 17.5838C45.533 17.4096 58.2954 25.4723 57.0588 47.8852L56.5086 48.0719C56.5226 49.2295 56.4965 50.4272 56.4282 51.666L48.9992 54.1868C50.0413 35.2988 39.6527 27.6216 28.8211 26.9105C23.3293 26.55 18.4277 27.3569 14.6694 29.6479C11.4271 31.6243 9.42311 34.0624 8.7661 36.0407C8.66455 36.3841 8.59528 36.7193 8.55474 37.0444L1.1748 39.0219C1.17902 38.9881 1.18334 38.9543 1.18778 38.9206L1.17528 38.9239C1.37678 37.3085 1.83059 35.7713 2.48348 34.3244Z" fill="white"/>
<path fill-rule="evenodd" clip-rule="evenodd" d="M2.48348 34.3244C4.50884 29.6377 8.45356 25.5425 12.7418 22.8874C18.4404 19.3591 25.4291 17.6697 32.0671 17.5838C45.533 17.4096 58.2954 25.4723 57.0588 47.8852L56.5086 48.0719C56.5226 49.2295 56.4965 50.4272 56.4282 51.666L48.9992 54.1868C50.0413 35.2988 39.6527 27.6216 28.8211 26.9105C23.3293 26.55 18.4277 27.3569 14.6694 29.6479C11.4271 31.6243 9.42311 34.0624 8.7661 36.0407C8.66455 36.3841 8.59528 36.7193 8.55474 37.0444L1.1748 39.0219C1.17902 38.9881 1.18334 38.9543 1.18778 38.9206L1.17528 38.9239C1.37678 37.3085 1.83059 35.7713 2.48348 34.3244Z" fill="url(#paint4_linear_57_8656)"/>
</g>
<defs>
<linearGradient id="paint0_linear_57_8656" x1="5.93694" y1="38.7668" x2="26.7396" y2="49.2295" gradientUnits="userSpaceOnUse">
<stop stop-color="#78EEC4"/>
<stop offset="0.39092" stop-color="#23BCFE"/>
<stop offset="1" stop-color="#7451FF"/>
</linearGradient>
<radialGradient id="paint1_radial_57_8656" cx="0" cy="0" r="1" gradientUnits="userSpaceOnUse" gradientTransform="translate(34.7972 10.3996) rotate(97.4882) scale(29.0582 18.7252)">
<stop stop-color="#FF2681"/>
<stop offset="1" stop-color="#FF589E" stop-opacity="0"/>
</radialGradient>
<linearGradient id="paint2_linear_57_8656" x1="0.194279" y1="16.6732" x2="31.8123" y2="25.0283" gradientUnits="userSpaceOnUse">
<stop stop-color="#FFCE4F"/>
<stop offset="0.73604" stop-color="#E93693"/>
<stop offset="1" stop-color="#C24BAA"/>
</linearGradient>
<radialGradient id="paint3_radial_57_8656" cx="0" cy="0" r="1" gradientUnits="userSpaceOnUse" gradientTransform="translate(31.1014 16.9491) rotate(-97.2318) scale(2.59781 6.43462)">
<stop stop-color="#AF5BB6"/>
<stop offset="1" stop-color="#AF5BB6" stop-opacity="0"/>
</radialGradient>
<linearGradient id="paint4_linear_57_8656" x1="6.61675" y1="35.9199" x2="43.905" y2="43.5579" gradientUnits="userSpaceOnUse">
<stop stop-color="#78EEC4"/>
<stop offset="0.271274" stop-color="#D2FF99"/>
<stop offset="0.634081" stop-color="#FDFF9E"/>
<stop offset="1" stop-color="white"/>
</linearGradient>
<clipPath id="clip0_57_8656">
<rect width="47.4443" height="53.1298" fill="white" transform="translate(0 0.401367)"/>
</clipPath>
</defs>
</svg>
