<svg width="134" height="33" viewBox="0 0 134 33" fill="none" xmlns="http://www.w3.org/2000/svg">
<path fill-rule="evenodd" clip-rule="evenodd" d="M44.8894 7.65652H62.9188V11.2418H48.9776V16.5164H60.8166V19.8824H48.9776V27.8138H44.8894V7.65652ZM66.4911 6.41846H70.3085V27.8138H66.4911V6.41846ZM96.2705 10.3691C96.58 10.4723 96.9239 10.5239 97.3022 10.5239C97.6891 10.5239 98.033 10.4723 98.334 10.3691C98.6435 10.2573 98.9057 10.1112 99.1207 9.93062C99.3356 9.74147 99.4989 9.52652 99.6107 9.28579C99.7311 9.03646 99.7913 8.77423 99.7913 8.4991C99.7913 8.21538 99.7311 7.95315 99.6107 7.71241C99.4989 7.46308 99.3356 7.24814 99.1207 7.06759C98.9057 6.88703 98.6435 6.74517 98.334 6.642C98.033 6.53023 97.6891 6.47435 97.3022 6.47435C96.9239 6.47435 96.58 6.53023 96.2705 6.642C95.9696 6.74517 95.7117 6.88703 95.4967 7.06759C95.2818 7.24814 95.1141 7.46308 94.9938 7.71241C94.882 7.95315 94.8261 8.21538 94.8261 8.4991C94.8261 8.77423 94.882 9.03646 94.9938 9.28579C95.1141 9.52652 95.2818 9.74147 95.4967 9.93062C95.7117 10.1112 95.9696 10.2573 96.2705 10.3691ZM99.2109 12.6002H95.3936V26.2961C95.0079 23.9439 93.7467 22.0001 92.0943 20.5178C91.8912 20.3356 91.6818 20.1599 91.4667 19.9906C91.4686 19.9353 91.4702 19.8797 91.4714 19.8238C91.5269 17.2841 90.8188 15.2098 89.5399 13.6189C88.2775 12.0483 86.557 11.0694 84.7728 10.5176C81.287 9.43957 77.183 9.87576 74.5712 11.1698L74.5624 11.1738V15.0364C74.9905 14.7166 75.4622 14.4351 75.9816 14.199L76.0097 14.1863L76.0372 14.1725C77.8579 13.2624 81.0884 12.8757 83.7856 13.7098C85.0992 14.1161 86.1876 14.7817 86.9356 15.7123C87.4037 16.2946 87.7785 17.0296 87.9773 17.9667C87.0114 17.5637 86.0143 17.2552 85.0254 17.041C82.5239 16.4995 79.8788 16.5213 77.7638 17.3369C76.6918 17.7503 75.6988 18.3915 74.9695 19.3261C74.2262 20.2784 73.8275 21.447 73.8275 22.767C73.8275 24.9285 75.2334 26.5307 76.8472 27.4903C78.4763 28.459 80.5667 28.9523 82.6237 28.8794C84.6876 28.8062 86.869 28.1553 88.5749 26.6524C89.4423 25.8882 90.1476 24.9378 90.6453 23.8051C91.6144 24.9447 92.1748 26.2859 92.1748 27.8182H95.5162C95.5162 27.8182 95.5162 27.8181 95.5162 27.8181H99.2109V12.6002ZM107.641 12.6002H103.824V27.8181H107.641V18.7647C108.338 17.8362 109.241 17.1183 110.35 16.611C111.467 16.0952 112.761 15.7641 114.232 15.618L113.11 12.123C112.181 12.3638 111.248 12.712 110.311 13.1676C109.374 13.6233 108.484 14.165 107.641 14.7926V12.6002ZM115.303 20.1576C115.303 19.1258 115.514 18.1414 115.935 17.2043C116.356 16.2585 116.962 15.4245 117.753 14.7023C118.544 13.9801 119.512 13.4041 120.655 12.9742C121.807 12.5443 123.114 12.3294 124.576 12.3294C126.029 12.3294 127.335 12.5486 128.496 12.9871C129.665 13.417 130.654 14.0102 131.462 14.7668C132.279 15.5234 132.902 16.4133 133.332 17.4364C133.771 18.4595 133.99 19.5557 133.99 20.725C133.99 20.8712 133.986 21.0302 133.977 21.2022C133.977 21.3655 133.969 21.516 133.951 21.6536H119.559C119.722 22.1092 119.984 22.5262 120.346 22.9045C120.715 23.2828 121.175 23.6095 121.725 23.8847C122.276 24.1598 122.912 24.3747 123.634 24.5295C124.356 24.6757 125.156 24.7487 126.033 24.7487C126.91 24.7487 127.783 24.6585 128.651 24.4779C129.519 24.2888 130.349 24.0523 131.14 23.7686L132.43 26.6832C131.931 26.9153 131.424 27.1217 130.908 27.3022C130.401 27.4742 129.867 27.6204 129.309 27.7407C128.758 27.8525 128.178 27.9385 127.568 27.9987C126.966 28.0588 126.33 28.0889 125.659 28.0889C123.948 28.0889 122.448 27.8826 121.158 27.4699C119.868 27.0572 118.789 26.4941 117.921 25.7805C117.053 25.0668 116.399 24.2286 115.961 23.2656C115.522 22.3027 115.303 21.2667 115.303 20.1576ZM129.941 18.6745C129.803 18.2532 129.588 17.862 129.296 17.5009C129.012 17.1312 128.655 16.8131 128.225 16.5465C127.795 16.2714 127.297 16.0565 126.729 15.9017C126.162 15.747 125.539 15.6696 124.859 15.6696C124.137 15.6696 123.479 15.7513 122.886 15.9146C122.293 16.078 121.773 16.2972 121.326 16.5723C120.879 16.8475 120.505 17.1656 120.204 17.5267C119.911 17.8878 119.696 18.2704 119.559 18.6745H129.941ZM84.3183 20.3068C85.5606 20.5757 86.7838 21.0216 87.8802 21.62C87.5737 22.7624 87.0167 23.572 86.3661 24.1452C85.369 25.0237 83.9888 25.4875 82.5053 25.5401C81.015 25.5929 79.5723 25.2232 78.555 24.6183C77.5225 24.0044 77.1689 23.3223 77.1689 22.767C77.1689 22.1506 77.3435 21.7151 77.6036 21.3818C77.8777 21.0306 78.3181 20.7044 78.9661 20.4545C80.2913 19.9435 82.233 19.8553 84.3183 20.3068Z" fill="white"/>
<g clip-path="url(#clip0_552_5665)">
<g clip-path="url(#clip1_552_5665)">
<path fill-rule="evenodd" clip-rule="evenodd" d="M-11.7049 37.4471C-6.09395 21.3028 2.13487 12.1245 8.65315 8.38052C15.28 4.5742 20.722 5.76898 22.5971 8.32062L22.5927 8.32469C25.0473 11.5125 24.9278 16.8802 22.09 21.0384C19.7505 24.4665 15.6534 26.6384 11.8533 26.9278C10.0054 27.0685 8.48182 26.7271 7.51229 26.0518C6.56704 25.3933 6.22206 24.4931 6.35396 23.4356L0.872622 24.9043C0.493699 27.9422 1.62847 30.0409 3.3976 31.2732C5.14246 32.4886 7.56791 32.9299 10.1478 32.7334C15.2032 32.3485 21.8765 29.3669 26.1747 23.0687C30.9859 16.0191 30.6095 8.48497 27.4821 4.16579C24.2865 -0.312206 15.9784 -1.22923 8.08026 4.06835C0.0733175 9.4389 -6.94285 19.9208 -13.0342 37.4473L-11.7049 37.4471Z" fill="white"/>
<path fill-rule="evenodd" clip-rule="evenodd" d="M-11.7049 37.4471C-6.09395 21.3028 2.13487 12.1245 8.65315 8.38052C15.28 4.5742 20.722 5.76898 22.5971 8.32062L22.5927 8.32469C25.0473 11.5125 24.9278 16.8802 22.09 21.0384C19.7505 24.4665 15.6534 26.6384 11.8533 26.9278C10.0054 27.0685 8.48182 26.7271 7.51229 26.0518C6.56704 25.3933 6.22206 24.4931 6.35396 23.4356L0.872622 24.9043C0.493699 27.9422 1.62847 30.0409 3.3976 31.2732C5.14246 32.4886 7.56791 32.9299 10.1478 32.7334C15.2032 32.3485 21.8765 29.3669 26.1747 23.0687C30.9859 16.0191 30.6095 8.48497 27.4821 4.16579C24.2865 -0.312206 15.9784 -1.22923 8.08026 4.06835C0.0733175 9.4389 -6.94285 19.9208 -13.0342 37.4473L-11.7049 37.4471Z" fill="url(#paint0_linear_552_5665)"/>
<path fill-rule="evenodd" clip-rule="evenodd" d="M-11.7049 37.4471C-6.09395 21.3028 2.13487 12.1245 8.65315 8.38052C15.28 4.5742 20.722 5.76898 22.5971 8.32062L22.5927 8.32469C25.0473 11.5125 24.9278 16.8802 22.09 21.0384C19.7505 24.4665 15.6534 26.6384 11.8533 26.9278C10.0054 27.0685 8.48182 26.7271 7.51229 26.0518C6.56704 25.3933 6.22206 24.4931 6.35396 23.4356L0.872622 24.9043C0.493699 27.9422 1.62847 30.0409 3.3976 31.2732C5.14246 32.4886 7.56791 32.9299 10.1478 32.7334C15.2032 32.3485 21.8765 29.3669 26.1747 23.0687C30.9859 16.0191 30.6095 8.48497 27.4821 4.16579C24.2865 -0.312206 15.9784 -1.22923 8.08026 4.06835C0.0733175 9.4389 -6.94285 19.9208 -13.0342 37.4473L-11.7049 37.4471Z" fill="url(#paint1_radial_552_5665)"/>
<path fill-rule="evenodd" clip-rule="evenodd" d="M-11.7049 37.4471C-6.09395 21.3028 2.13487 12.1245 8.65315 8.38052C15.28 4.5742 20.722 5.76898 22.5971 8.32062L22.5927 8.32469C25.0473 11.5125 24.9278 16.8802 22.09 21.0384C19.7505 24.4665 15.6534 26.6384 11.8533 26.9278C10.0054 27.0685 8.48182 26.7271 7.51229 26.0518C6.56704 25.3933 6.22206 24.4931 6.35396 23.4356L0.872622 24.9043C0.493699 27.9422 1.62847 30.0409 3.3976 31.2732C5.14246 32.4886 7.56791 32.9299 10.1478 32.7334C15.2032 32.3485 21.8765 29.3669 26.1747 23.0687C30.9859 16.0191 30.6095 8.48497 27.4821 4.16579C24.2865 -0.312206 15.9784 -1.22923 8.08026 4.06835C0.0733175 9.4389 -6.94285 19.9208 -13.0342 37.4473L-11.7049 37.4471Z" fill="url(#paint2_radial_552_5665)"/>
<path fill-rule="evenodd" clip-rule="evenodd" d="M-11.7049 37.4471C-6.09395 21.3028 2.13487 12.1245 8.65315 8.38052C15.28 4.5742 20.722 5.76898 22.5971 8.32062L22.5927 8.32469C25.0473 11.5125 24.9278 16.8802 22.09 21.0384C19.7505 24.4665 15.6534 26.6384 11.8533 26.9278C10.0054 27.0685 8.48182 26.7271 7.51229 26.0518C6.56704 25.3933 6.22206 24.4931 6.35396 23.4356L0.872622 24.9043C0.493699 27.9422 1.62847 30.0409 3.3976 31.2732C5.14246 32.4886 7.56791 32.9299 10.1478 32.7334C15.2032 32.3485 21.8765 29.3669 26.1747 23.0687C30.9859 16.0191 30.6095 8.48497 27.4821 4.16579C24.2865 -0.312206 15.9784 -1.22923 8.08026 4.06835C0.0733175 9.4389 -6.94285 19.9208 -13.0342 37.4473L-11.7049 37.4471Z" fill="url(#paint3_radial_552_5665)"/>
<path fill-rule="evenodd" clip-rule="evenodd" d="M-11.7049 37.4471C-6.09395 21.3028 2.13487 12.1245 8.65315 8.38052C15.28 4.5742 20.722 5.76898 22.5971 8.32062L22.5927 8.32469C25.0473 11.5125 24.9278 16.8802 22.09 21.0384C19.7505 24.4665 15.6534 26.6384 11.8533 26.9278C10.0054 27.0685 8.48182 26.7271 7.51229 26.0518C6.56704 25.3933 6.22206 24.4931 6.35396 23.4356L0.872622 24.9043C0.493699 27.9422 1.62847 30.0409 3.3976 31.2732C5.14246 32.4886 7.56791 32.9299 10.1478 32.7334C15.2032 32.3485 21.8765 29.3669 26.1747 23.0687C30.9859 16.0191 30.6095 8.48497 27.4821 4.16579C24.2865 -0.312206 15.9784 -1.22923 8.08026 4.06835C0.0733175 9.4389 -6.94285 19.9208 -13.0342 37.4473L-11.7049 37.4471Z" fill="url(#paint4_radial_552_5665)"/>
<path fill-rule="evenodd" clip-rule="evenodd" d="M-11.7049 37.4471C-6.09395 21.3028 2.13487 12.1245 8.65315 8.38052C15.28 4.5742 20.722 5.76898 22.5971 8.32062L22.5927 8.32469C25.0473 11.5125 24.9278 16.8802 22.09 21.0384C19.7505 24.4665 15.6534 26.6384 11.8533 26.9278C10.0054 27.0685 8.48182 26.7271 7.51229 26.0518C6.56704 25.3933 6.22206 24.4931 6.35396 23.4356L0.872622 24.9043C0.493699 27.9422 1.62847 30.0409 3.3976 31.2732C5.14246 32.4886 7.56791 32.9299 10.1478 32.7334C15.2032 32.3485 21.8765 29.3669 26.1747 23.0687C30.9859 16.0191 30.6095 8.48497 27.4821 4.16579C24.2865 -0.312206 15.9784 -1.22923 8.08026 4.06835C0.0733175 9.4389 -6.94285 19.9208 -13.0342 37.4473L-11.7049 37.4471Z" fill="url(#paint5_radial_552_5665)"/>
<path fill-rule="evenodd" clip-rule="evenodd" d="M-11.7049 37.4471C-6.09395 21.3028 2.13487 12.1245 8.65315 8.38052C15.28 4.5742 20.722 5.76898 22.5971 8.32062L22.5927 8.32469C25.0473 11.5125 24.9278 16.8802 22.09 21.0384C19.7505 24.4665 15.6534 26.6384 11.8533 26.9278C10.0054 27.0685 8.48182 26.7271 7.51229 26.0518C6.56704 25.3933 6.22206 24.4931 6.35396 23.4356L0.872622 24.9043C0.493699 27.9422 1.62847 30.0409 3.3976 31.2732C5.14246 32.4886 7.56791 32.9299 10.1478 32.7334C15.2032 32.3485 21.8765 29.3669 26.1747 23.0687C30.9859 16.0191 30.6095 8.48497 27.4821 4.16579C24.2865 -0.312206 15.9784 -1.22923 8.08026 4.06835C0.0733175 9.4389 -6.94285 19.9208 -13.0342 37.4473L-11.7049 37.4471Z" fill="url(#paint6_radial_552_5665)"/>
<path fill-rule="evenodd" clip-rule="evenodd" d="M-11.7049 37.4471C-6.09395 21.3028 2.13487 12.1245 8.65315 8.38052C15.28 4.5742 20.722 5.76898 22.5971 8.32062L22.5927 8.32469C25.0473 11.5125 24.9278 16.8802 22.09 21.0384C19.7505 24.4665 15.6534 26.6384 11.8533 26.9278C10.0054 27.0685 8.48182 26.7271 7.51229 26.0518C6.56704 25.3933 6.22206 24.4931 6.35396 23.4356L0.872622 24.9043C0.493699 27.9422 1.62847 30.0409 3.3976 31.2732C5.14246 32.4886 7.56791 32.9299 10.1478 32.7334C15.2032 32.3485 21.8765 29.3669 26.1747 23.0687C30.9859 16.0191 30.6095 8.48497 27.4821 4.16579C24.2865 -0.312206 15.9784 -1.22923 8.08026 4.06835C0.0733175 9.4389 -6.94285 19.9208 -13.0342 37.4473L-11.7049 37.4471Z" fill="url(#paint7_radial_552_5665)"/>
<path fill-rule="evenodd" clip-rule="evenodd" d="M1.83784 21.4905C3.34012 18.0031 6.27401 14.9552 9.46379 12.9803C13.6964 10.3597 18.8871 9.10491 23.8174 9.04111C33.819 8.91168 43.2981 14.9002 42.3797 31.5471L36.3935 36.228C37.1675 22.1993 29.4515 16.4971 21.4065 15.9689C17.3275 15.7012 13.687 16.3005 10.8956 18.0021C8.48424 19.472 6.99506 21.2856 6.50903 22.756C6.43462 23.0088 6.38377 23.2557 6.3539 23.4952L0.872559 24.9639C0.875663 24.939 0.878849 24.9142 0.882116 24.8893L0.872952 24.8918C1.02191 23.6975 1.35654 22.5608 1.83784 21.4905Z" fill="white"/>
<path fill-rule="evenodd" clip-rule="evenodd" d="M1.83784 21.4905C3.34012 18.0031 6.27401 14.9552 9.46379 12.9803C13.6964 10.3597 18.8871 9.10491 23.8174 9.04111C33.819 8.91168 43.2981 14.9002 42.3797 31.5471L36.3935 36.228C37.1675 22.1993 29.4515 16.4971 21.4065 15.9689C17.3275 15.7012 13.687 16.3005 10.8956 18.0021C8.48424 19.472 6.99506 21.2856 6.50903 22.756C6.43462 23.0088 6.38377 23.2557 6.3539 23.4952L0.872559 24.9639C0.875663 24.939 0.878849 24.9142 0.882116 24.8893L0.872952 24.8918C1.02191 23.6975 1.35654 22.5608 1.83784 21.4905Z" fill="url(#paint8_linear_552_5665)"/>
<path fill-rule="evenodd" clip-rule="evenodd" d="M1.83784 21.4905C3.34012 18.0031 6.27401 14.9552 9.46379 12.9803C13.6964 10.3597 18.8871 9.10491 23.8174 9.04111C33.819 8.91168 43.2981 14.9002 42.3797 31.5471L36.3935 36.228C37.1675 22.1993 29.4515 16.4971 21.4065 15.9689C17.3275 15.7012 13.687 16.3005 10.8956 18.0021C8.48424 19.472 6.99506 21.2856 6.50903 22.756C6.43462 23.0088 6.38377 23.2557 6.3539 23.4952L0.872559 24.9639C0.875663 24.939 0.878849 24.9142 0.882116 24.8893L0.872952 24.8918C1.02191 23.6975 1.35654 22.5608 1.83784 21.4905Z" fill="url(#paint9_radial_552_5665)"/>
</g>
</g>
<defs>
<linearGradient id="paint0_linear_552_5665" x1="0.14428" y1="8.3639" x2="25.1353" y2="14.9624" gradientUnits="userSpaceOnUse">
<stop stop-color="#FFCE4F"/>
<stop offset="0.73604" stop-color="#E93693"/>
<stop offset="0.920303" stop-color="#CC45B4"/>
<stop offset="0.952503" stop-color="#CF42B3"/>
<stop offset="1" stop-color="#C74AB7"/>
</linearGradient>
<radialGradient id="paint1_radial_552_5665" cx="0" cy="0" r="1" gradientUnits="userSpaceOnUse" gradientTransform="translate(16.8503 27.5917) rotate(-77.4123) scale(21.5992 15.1565)">
<stop stop-color="#23BCFE"/>
<stop offset="1" stop-color="#23BCFE" stop-opacity="0"/>
</radialGradient>
<radialGradient id="paint2_radial_552_5665" cx="0" cy="0" r="1" gradientUnits="userSpaceOnUse" gradientTransform="translate(8.32282 30.4569) rotate(-59.2435) scale(12.9399 9.08014)">
<stop stop-color="#23BCFE"/>
<stop offset="1" stop-color="#23BCFE" stop-opacity="0"/>
</radialGradient>
<radialGradient id="paint3_radial_552_5665" cx="0" cy="0" r="1" gradientUnits="userSpaceOnUse" gradientTransform="translate(3.00165 27.2506) rotate(-79.8409) scale(11.9901 28.1143)">
<stop stop-color="#78EEC4"/>
<stop offset="1" stop-color="#78EEC4" stop-opacity="0"/>
</radialGradient>
<radialGradient id="paint4_radial_552_5665" cx="0" cy="0" r="1" gradientUnits="userSpaceOnUse" gradientTransform="translate(5.04825 23.4302) rotate(-44.5692) scale(6.41595 7.49271)">
<stop stop-color="#78EEC4"/>
<stop offset="1" stop-color="#78EEC4" stop-opacity="0"/>
</radialGradient>
<radialGradient id="paint5_radial_552_5665" cx="0" cy="0" r="1" gradientUnits="userSpaceOnUse" gradientTransform="translate(0.204627 25.204) rotate(-53.5691) scale(7.12238 8.3177)">
<stop stop-color="#78EEC4"/>
<stop offset="1" stop-color="#78EEC4" stop-opacity="0"/>
</radialGradient>
<radialGradient id="paint6_radial_552_5665" cx="0" cy="0" r="1" gradientUnits="userSpaceOnUse" gradientTransform="translate(24.0817 22.5434) rotate(-96.3402) scale(19.1505 18.5346)">
<stop stop-color="#7451FF"/>
<stop offset="1" stop-color="#7451FF" stop-opacity="0"/>
</radialGradient>
<radialGradient id="paint7_radial_552_5665" cx="0" cy="0" r="1" gradientUnits="userSpaceOnUse" gradientTransform="translate(38.3396 10.4684) rotate(164.524) scale(21.7315 59.4218)">
<stop stop-color="#CF41B2"/>
<stop offset="1" stop-color="#CF41B2" stop-opacity="0"/>
</radialGradient>
<linearGradient id="paint8_linear_552_5665" x1="4.91449" y1="22.6603" x2="32.6099" y2="28.3332" gradientUnits="userSpaceOnUse">
<stop stop-color="#78EEC4"/>
<stop offset="0.271274" stop-color="#D2FF99"/>
<stop offset="0.634081" stop-color="#FDFF9E"/>
<stop offset="1" stop-color="white"/>
</linearGradient>
<radialGradient id="paint9_radial_552_5665" cx="0" cy="0" r="1" gradientUnits="userSpaceOnUse" gradientTransform="translate(5.45758 23.2939) rotate(-8.35076) scale(7.51567 9.18178)">
<stop stop-color="#78EEC4"/>
<stop offset="1" stop-color="#78EEC4" stop-opacity="0"/>
</radialGradient>
<clipPath id="clip0_552_5665">
<rect width="35.0873" height="32.2469" fill="white" transform="translate(0 0.441406)"/>
</clipPath>
<clipPath id="clip1_552_5665">
<rect width="35.2016" height="32.3609" fill="white" transform="translate(0 0.441406)"/>
</clipPath>
</defs>
</svg>
