<svg width="406" height="423" viewBox="0 0 406 423" fill="none" xmlns="http://www.w3.org/2000/svg">
<g filter="url(#filter0_b_514_7868)">
<path d="M0 -0.00012207H382C395.255 -0.00012207 406 10.745 406 23.9999V399C406 412.255 395.255 423 382 423H0V-0.00012207Z" fill="#16183A" fill-opacity="0.55"/>
<path d="M0 -0.00012207H382C395.255 -0.00012207 406 10.745 406 23.9999V399C406 412.255 395.255 423 382 423H0V-0.00012207Z" fill="url(#paint0_linear_514_7868)" fill-opacity="0.15"/>
</g>
<rect x="19" y="18.6357" width="368" height="67" rx="15" fill="#A9B8EE" fill-opacity="0.15"/>
<g opacity="0.3">
<path d="M357.286 51.85C357.286 55.203 354.567 57.9215 351.214 57.9215C347.861 57.9215 345.143 55.203 345.143 51.85C345.143 48.4971 347.861 45.7786 351.214 45.7786V45.7786C354.567 45.7786 357.286 48.4971 357.286 51.85V54.1268C357.286 56.223 358.984 57.9215 361.08 57.9215C363.176 57.9215 364.875 56.223 364.875 54.1268V51.85C364.875 44.3048 358.759 38.1893 351.214 38.1893C343.669 38.1893 337.553 44.3048 337.553 51.85C337.553 59.3953 343.669 65.5107 351.214 65.5107C352.958 65.5107 354.731 65.1798 356.442 64.471C357.365 64.0885 358.218 63.6089 359.005 63.0609" stroke="#A9B8EE" stroke-width="2.27678" stroke-linecap="round" stroke-linejoin="round"/>
</g>
<rect x="86" y="35.6357" width="209" height="12" rx="6" fill="#A9B8EE" fill-opacity="0.2"/>
<rect x="86" y="57.6357" width="134" height="12" rx="6" fill="#A9B8EE" fill-opacity="0.2"/>
<rect x="35" y="32.6357" width="39" height="39" rx="19.5" fill="#A9B8EE" fill-opacity="0.2"/>
<rect x="35" y="107.636" width="298" height="12" rx="6" fill="#A9B8EE" fill-opacity="0.2"/>
<rect opacity="0.85" x="35" y="134" width="152" height="12" rx="6" fill="#A9B8EE" fill-opacity="0.2"/>
<rect opacity="0.85" x="203" y="134" width="152" height="12" rx="6" fill="#A9B8EE" fill-opacity="0.2"/>
<rect opacity="0.7" x="35" y="159.636" width="245.364" height="12" rx="6" fill="#A9B8EE" fill-opacity="0.2"/>
<rect opacity="0.6" x="35" y="186" width="106" height="12" rx="6" fill="#A9B8EE" fill-opacity="0.2"/>
<rect opacity="0.6" x="158" y="186" width="164" height="12" rx="6" fill="#A9B8EE" fill-opacity="0.2"/>
<rect opacity="0.5" x="35" y="211.636" width="252.652" height="12" rx="6" fill="#A9B8EE" fill-opacity="0.2"/>
<rect opacity="0.4" x="35" y="237.636" width="236.457" height="12" rx="6" fill="#A9B8EE" fill-opacity="0.2"/>
<rect opacity="0.3" x="215" y="264" width="109" height="12" rx="6" fill="#A9B8EE" fill-opacity="0.2"/>
<rect opacity="0.3" x="35" y="264" width="168" height="12" rx="6" fill="#A9B8EE" fill-opacity="0.2"/>
<rect opacity="0.2" x="35" y="289.636" width="221.071" height="12" rx="6" fill="#A9B8EE" fill-opacity="0.2"/>
<path d="M0 349.636H406V398.636C406 411.891 395.255 422.636 382 422.636H0V349.636Z" fill="#CAEDF9" fill-opacity="0.06"/>
<rect x="287" y="362.636" width="103" height="45" rx="12" fill="#ECA0FF" fill-opacity="0.1"/>
<path d="M320.562 390.78C319.602 390.78 318.684 390.636 317.808 390.348C316.932 390.048 316.242 389.664 315.738 389.196L316.404 387.792C316.884 388.212 317.496 388.56 318.24 388.836C318.984 389.112 319.758 389.25 320.562 389.25C321.294 389.25 321.888 389.166 322.344 388.998C322.8 388.83 323.136 388.602 323.352 388.314C323.568 388.014 323.676 387.678 323.676 387.306C323.676 386.874 323.532 386.526 323.244 386.262C322.968 385.998 322.602 385.788 322.146 385.632C321.702 385.464 321.21 385.32 320.67 385.2C320.13 385.08 319.584 384.942 319.032 384.786C318.492 384.618 317.994 384.408 317.538 384.156C317.094 383.904 316.734 383.568 316.458 383.148C316.182 382.716 316.044 382.164 316.044 381.492C316.044 380.844 316.212 380.25 316.548 379.71C316.896 379.158 317.424 378.72 318.132 378.396C318.852 378.06 319.764 377.892 320.868 377.892C321.6 377.892 322.326 377.988 323.046 378.18C323.766 378.372 324.39 378.648 324.918 379.008L324.324 380.448C323.784 380.088 323.214 379.83 322.614 379.674C322.014 379.506 321.432 379.422 320.868 379.422C320.16 379.422 319.578 379.512 319.122 379.692C318.666 379.872 318.33 380.112 318.114 380.412C317.91 380.712 317.808 381.048 317.808 381.42C317.808 381.864 317.946 382.218 318.222 382.482C318.51 382.746 318.876 382.956 319.32 383.112C319.776 383.268 320.274 383.412 320.814 383.544C321.354 383.664 321.894 383.802 322.434 383.958C322.986 384.114 323.484 384.318 323.928 384.57C324.384 384.822 324.75 385.158 325.026 385.578C325.302 385.998 325.44 386.538 325.44 387.198C325.44 387.834 325.266 388.428 324.918 388.98C324.57 389.52 324.03 389.958 323.298 390.294C322.578 390.618 321.666 390.78 320.562 390.78ZM332.066 390.744C331.046 390.744 330.146 390.534 329.366 390.114C328.598 389.694 327.998 389.118 327.566 388.386C327.146 387.654 326.936 386.814 326.936 385.866C326.936 384.918 327.14 384.078 327.548 383.346C327.968 382.614 328.538 382.044 329.258 381.636C329.99 381.216 330.812 381.006 331.724 381.006C332.648 381.006 333.464 381.21 334.172 381.618C334.88 382.026 335.432 382.602 335.828 383.346C336.236 384.078 336.44 384.936 336.44 385.92C336.44 385.992 336.434 386.076 336.422 386.172C336.422 386.268 336.416 386.358 336.404 386.442H328.286V385.2H335.504L334.802 385.632C334.814 385.02 334.688 384.474 334.424 383.994C334.16 383.514 333.794 383.142 333.326 382.878C332.87 382.602 332.336 382.464 331.724 382.464C331.124 382.464 330.59 382.602 330.122 382.878C329.654 383.142 329.288 383.52 329.024 384.012C328.76 384.492 328.628 385.044 328.628 385.668V385.956C328.628 386.592 328.772 387.162 329.06 387.666C329.36 388.158 329.774 388.542 330.302 388.818C330.83 389.094 331.436 389.232 332.12 389.232C332.684 389.232 333.194 389.136 333.65 388.944C334.118 388.752 334.526 388.464 334.874 388.08L335.828 389.196C335.396 389.7 334.856 390.084 334.208 390.348C333.572 390.612 332.858 390.744 332.066 390.744ZM343.933 381.006C344.713 381.006 345.397 381.156 345.985 381.456C346.585 381.756 347.053 382.212 347.389 382.824C347.725 383.436 347.893 384.21 347.893 385.146V390.636H346.165V385.344C346.165 384.42 345.937 383.724 345.481 383.256C345.037 382.788 344.407 382.554 343.591 382.554C342.979 382.554 342.445 382.674 341.989 382.914C341.533 383.154 341.179 383.508 340.927 383.976C340.687 384.444 340.567 385.026 340.567 385.722V390.636H338.839V381.096H340.495V383.67L340.225 382.986C340.537 382.362 341.017 381.876 341.665 381.528C342.313 381.18 343.069 381.006 343.933 381.006ZM355.033 390.744C354.109 390.744 353.281 390.54 352.549 390.132C351.829 389.724 351.259 389.154 350.839 388.422C350.419 387.69 350.209 386.838 350.209 385.866C350.209 384.894 350.419 384.048 350.839 383.328C351.259 382.596 351.829 382.026 352.549 381.618C353.281 381.21 354.109 381.006 355.033 381.006C355.837 381.006 356.563 381.186 357.211 381.546C357.859 381.906 358.375 382.446 358.759 383.166C359.155 383.886 359.353 384.786 359.353 385.866C359.353 386.946 359.161 387.846 358.777 388.566C358.405 389.286 357.895 389.832 357.247 390.204C356.599 390.564 355.861 390.744 355.033 390.744ZM355.177 389.232C355.777 389.232 356.317 389.094 356.797 388.818C357.289 388.542 357.673 388.152 357.949 387.648C358.237 387.132 358.381 386.538 358.381 385.866C358.381 385.182 358.237 384.594 357.949 384.102C357.673 383.598 357.289 383.208 356.797 382.932C356.317 382.656 355.777 382.518 355.177 382.518C354.565 382.518 354.019 382.656 353.539 382.932C353.059 383.208 352.675 383.598 352.387 384.102C352.099 384.594 351.955 385.182 351.955 385.866C351.955 386.538 352.099 387.132 352.387 387.648C352.675 388.152 353.059 388.542 353.539 388.818C354.019 389.094 354.565 389.232 355.177 389.232ZM358.435 390.636V388.062L358.543 385.848L358.363 383.634V377.28H360.091V390.636H358.435Z" fill="#E7B9FD" fill-opacity="0.48"/>
<rect x="19" y="362.636" width="99.5713" height="43.7142" rx="12" fill="#A9B8EE" fill-opacity="0.06"/>
<g opacity="0.5">
<path fill-rule="evenodd" clip-rule="evenodd" d="M42.0713 395.422H54.2142C56.2261 395.422 57.857 393.791 57.857 391.779V380.087C57.857 379.121 57.4732 378.195 56.7901 377.511L53.9102 374.632C53.227 373.948 52.3004 373.565 51.3343 373.565H42.0713C40.0594 373.565 38.4285 375.196 38.4285 377.207V391.779C38.4285 393.791 40.0594 395.422 42.0713 395.422Z" stroke="#A2AED9" stroke-width="1.82143" stroke-linecap="round" stroke-linejoin="round"/>
<path d="M52.9999 390.565H43.2856" stroke="#A2AED9" stroke-width="1.82143" stroke-linecap="round" stroke-linejoin="round"/>
<path d="M52.9999 386.315H43.2856" stroke="#A2AED9" stroke-width="1.82143" stroke-linecap="round" stroke-linejoin="round"/>
<path d="M46.9285 382.065H43.2856" stroke="#A2AED9" stroke-width="1.82143" stroke-linecap="round" stroke-linejoin="round"/>
<path d="M57.857 380.243H53.607C52.2658 380.243 51.1785 379.156 51.1785 377.815V373.565" stroke="#A2AED9" stroke-width="1.82143" stroke-linecap="round" stroke-linejoin="round"/>
</g>
<g opacity="0.5">
<path d="M90.6429 378.422H88.2144" stroke="#A2AED9" stroke-width="1.82143" stroke-linecap="round" stroke-linejoin="round"/>
<path d="M90.6429 382.064H88.2144" stroke="#A2AED9" stroke-width="1.82143" stroke-linecap="round" stroke-linejoin="round"/>
<path fill-rule="evenodd" clip-rule="evenodd" d="M90.4978 385.707H88.3597C88.0591 385.707 87.8038 385.927 87.7593 386.224L87.3174 389.17C87.265 389.52 87.3675 389.875 87.5981 390.143C87.8288 390.41 88.1648 390.564 88.5183 390.564H90.3392C90.6927 390.564 91.0286 390.41 91.2593 390.143C91.49 389.875 91.5925 389.52 91.54 389.17L91.0982 386.224C91.0536 385.927 90.7983 385.707 90.4978 385.707V385.707Z" stroke="#A2AED9" stroke-width="1.82143" stroke-linecap="round" stroke-linejoin="round"/>
<path fill-rule="evenodd" clip-rule="evenodd" d="M83.3573 395.422H96.1073C97.7838 395.422 99.143 394.062 99.143 392.386V380.087C99.143 379.121 98.7592 378.194 98.076 377.511L95.1961 374.631C94.513 373.948 93.5864 373.564 92.6202 373.564H83.9644C82.2878 373.564 80.9287 374.924 80.9287 376.6V392.993C80.9287 394.334 82.016 395.422 83.3573 395.422Z" stroke="#A2AED9" stroke-width="1.82143" stroke-linecap="round" stroke-linejoin="round"/>
</g>
<g opacity="0.5">
<path d="M258.853 380.806L252.191 387.467C251.188 388.47 251.188 390.097 252.191 391.1V391.1C253.194 392.103 254.822 392.103 255.825 391.1L264.606 382.319C266.446 380.479 266.446 377.497 264.606 375.657V375.657C262.767 373.817 259.784 373.817 257.945 375.657L249.163 384.439C246.487 387.115 246.487 391.452 249.163 394.129V394.129C251.839 396.805 256.177 396.805 258.853 394.129L264.182 388.799" stroke="#A2AED9" stroke-width="1.82143" stroke-linecap="round" stroke-linejoin="round"/>
</g>
<defs>
<filter id="filter0_b_514_7868" x="-20" y="-20.0001" width="446" height="463" filterUnits="userSpaceOnUse" color-interpolation-filters="sRGB">
<feFlood flood-opacity="0" result="BackgroundImageFix"/>
<feGaussianBlur in="BackgroundImageFix" stdDeviation="10"/>
<feComposite in2="SourceAlpha" operator="in" result="effect1_backgroundBlur_514_7868"/>
<feBlend mode="normal" in="SourceGraphic" in2="effect1_backgroundBlur_514_7868" result="shape"/>
</filter>
<linearGradient id="paint0_linear_514_7868" x1="22.5" y1="-0.000151805" x2="207.487" y2="198.183" gradientUnits="userSpaceOnUse">
<stop stop-color="#8FCFF2"/>
<stop offset="1" stop-color="#646FCC" stop-opacity="0"/>
</linearGradient>
</defs>
</svg>
