<svg width="406" height="423" viewBox="0 0 406 423" fill="none" xmlns="http://www.w3.org/2000/svg">
<path d="M0 0H382C395.255 0 406 10.7452 406 24V399C406 412.255 395.255 423 382 423H0V0Z" fill="#16183A" fill-opacity="0.55"/>
<path d="M0 0H382C395.255 0 406 10.7452 406 24V399C406 412.255 395.255 423 382 423H0V0Z" fill="url(#paint0_linear_807_3287)" fill-opacity="0.15"/>
<rect x="19" y="18.6357" width="368" height="67" rx="15" fill="#A9B8EE" fill-opacity="0.15"/>
<g opacity="0.3">
<path d="M357.286 51.8502C357.286 55.2031 354.567 57.9216 351.214 57.9216C347.861 57.9216 345.143 55.2031 345.143 51.8502C345.143 48.4972 347.861 45.7787 351.214 45.7787V45.7787C354.567 45.7787 357.286 48.4972 357.286 51.8502V54.1269C357.286 56.2231 358.984 57.9216 361.08 57.9216C363.176 57.9216 364.875 56.2231 364.875 54.1269V51.8502C364.875 44.3049 358.759 38.1895 351.214 38.1895C343.669 38.1895 337.553 44.3049 337.553 51.8502C337.553 59.3954 343.669 65.5109 351.214 65.5109C352.958 65.5109 354.731 65.18 356.442 64.4711C357.365 64.0886 358.218 63.609 359.005 63.061" stroke="#A9B8EE" stroke-width="2.27678" stroke-linecap="round" stroke-linejoin="round"/>
</g>
<rect x="86" y="35.6357" width="209" height="12" rx="6" fill="#A9B8EE" fill-opacity="0.2"/>
<rect x="86" y="57.6357" width="134" height="12" rx="6" fill="#A9B8EE" fill-opacity="0.2"/>
<rect x="35" y="32.6357" width="39" height="39" rx="19.5" fill="#A9B8EE" fill-opacity="0.2"/>
<rect x="35" y="107.636" width="298" height="12" rx="6" fill="#A9B8EE" fill-opacity="0.2"/>
<rect opacity="0.85" x="35" y="134" width="152" height="12" rx="6" fill="#A9B8EE" fill-opacity="0.2"/>
<rect opacity="0.85" x="203" y="134" width="152" height="12" rx="6" fill="#A9B8EE" fill-opacity="0.2"/>
<rect opacity="0.7" x="35" y="159.636" width="245.364" height="12" rx="6" fill="#A9B8EE" fill-opacity="0.2"/>
<rect opacity="0.6" x="35" y="186" width="106" height="12" rx="6" fill="#A9B8EE" fill-opacity="0.2"/>
<rect opacity="0.6" x="158" y="186" width="164" height="12" rx="6" fill="#A9B8EE" fill-opacity="0.2"/>
<rect opacity="0.5" x="35" y="211.636" width="252.652" height="12" rx="6" fill="#A9B8EE" fill-opacity="0.2"/>
<rect opacity="0.4" x="35" y="237.636" width="236.457" height="12" rx="6" fill="#A9B8EE" fill-opacity="0.2"/>
<rect opacity="0.3" x="215" y="264" width="109" height="12" rx="6" fill="#A9B8EE" fill-opacity="0.2"/>
<rect opacity="0.3" x="35" y="264" width="168" height="12" rx="6" fill="#A9B8EE" fill-opacity="0.2"/>
<rect opacity="0.2" x="35" y="289.637" width="221.071" height="12" rx="6" fill="#A9B8EE" fill-opacity="0.2"/>
<path d="M0 349.637H406V398.637C406 411.892 395.255 422.637 382 422.637H0V349.637Z" fill="#CAEDF9" fill-opacity="0.06"/>
<rect x="287" y="362.637" width="103" height="45" rx="12" fill="#ECA0FF" fill-opacity="0.1"/>
<path d="M320.562 390.781C319.602 390.781 318.684 390.637 317.808 390.349C316.932 390.049 316.242 389.665 315.738 389.197L316.404 387.793C316.884 388.213 317.496 388.561 318.24 388.837C318.984 389.113 319.758 389.251 320.562 389.251C321.294 389.251 321.888 389.167 322.344 388.999C322.8 388.831 323.136 388.603 323.352 388.315C323.568 388.015 323.676 387.679 323.676 387.307C323.676 386.875 323.532 386.527 323.244 386.263C322.968 385.999 322.602 385.789 322.146 385.633C321.702 385.465 321.21 385.321 320.67 385.201C320.13 385.081 319.584 384.943 319.032 384.787C318.492 384.619 317.994 384.409 317.538 384.157C317.094 383.905 316.734 383.569 316.458 383.149C316.182 382.717 316.044 382.165 316.044 381.493C316.044 380.845 316.212 380.251 316.548 379.711C316.896 379.159 317.424 378.721 318.132 378.397C318.852 378.061 319.764 377.893 320.868 377.893C321.6 377.893 322.326 377.989 323.046 378.181C323.766 378.373 324.39 378.649 324.918 379.009L324.324 380.449C323.784 380.089 323.214 379.831 322.614 379.675C322.014 379.507 321.432 379.423 320.868 379.423C320.16 379.423 319.578 379.513 319.122 379.693C318.666 379.873 318.33 380.113 318.114 380.413C317.91 380.713 317.808 381.049 317.808 381.421C317.808 381.865 317.946 382.219 318.222 382.483C318.51 382.747 318.876 382.957 319.32 383.113C319.776 383.269 320.274 383.413 320.814 383.545C321.354 383.665 321.894 383.803 322.434 383.959C322.986 384.115 323.484 384.319 323.928 384.571C324.384 384.823 324.75 385.159 325.026 385.579C325.302 385.999 325.44 386.539 325.44 387.199C325.44 387.835 325.266 388.429 324.918 388.981C324.57 389.521 324.03 389.959 323.298 390.295C322.578 390.619 321.666 390.781 320.562 390.781ZM332.066 390.745C331.046 390.745 330.146 390.535 329.366 390.115C328.598 389.695 327.998 389.119 327.566 388.387C327.146 387.655 326.936 386.815 326.936 385.867C326.936 384.919 327.14 384.079 327.548 383.347C327.968 382.615 328.538 382.045 329.258 381.637C329.99 381.217 330.812 381.007 331.724 381.007C332.648 381.007 333.464 381.211 334.172 381.619C334.88 382.027 335.432 382.603 335.828 383.347C336.236 384.079 336.44 384.937 336.44 385.921C336.44 385.993 336.434 386.077 336.422 386.173C336.422 386.269 336.416 386.359 336.404 386.443H328.286V385.201H335.504L334.802 385.633C334.814 385.021 334.688 384.475 334.424 383.995C334.16 383.515 333.794 383.143 333.326 382.879C332.87 382.603 332.336 382.465 331.724 382.465C331.124 382.465 330.59 382.603 330.122 382.879C329.654 383.143 329.288 383.521 329.024 384.013C328.76 384.493 328.628 385.045 328.628 385.669V385.957C328.628 386.593 328.772 387.163 329.06 387.667C329.36 388.159 329.774 388.543 330.302 388.819C330.83 389.095 331.436 389.233 332.12 389.233C332.684 389.233 333.194 389.137 333.65 388.945C334.118 388.753 334.526 388.465 334.874 388.081L335.828 389.197C335.396 389.701 334.856 390.085 334.208 390.349C333.572 390.613 332.858 390.745 332.066 390.745ZM343.933 381.007C344.713 381.007 345.397 381.157 345.985 381.457C346.585 381.757 347.053 382.213 347.389 382.825C347.725 383.437 347.893 384.211 347.893 385.147V390.637H346.165V385.345C346.165 384.421 345.937 383.725 345.481 383.257C345.037 382.789 344.407 382.555 343.591 382.555C342.979 382.555 342.445 382.675 341.989 382.915C341.533 383.155 341.179 383.509 340.927 383.977C340.687 384.445 340.567 385.027 340.567 385.723V390.637H338.839V381.097H340.495V383.671L340.225 382.987C340.537 382.363 341.017 381.877 341.665 381.529C342.313 381.181 343.069 381.007 343.933 381.007ZM355.033 390.745C354.109 390.745 353.281 390.541 352.549 390.133C351.829 389.725 351.259 389.155 350.839 388.423C350.419 387.691 350.209 386.839 350.209 385.867C350.209 384.895 350.419 384.049 350.839 383.329C351.259 382.597 351.829 382.027 352.549 381.619C353.281 381.211 354.109 381.007 355.033 381.007C355.837 381.007 356.563 381.187 357.211 381.547C357.859 381.907 358.375 382.447 358.759 383.167C359.155 383.887 359.353 384.787 359.353 385.867C359.353 386.947 359.161 387.847 358.777 388.567C358.405 389.287 357.895 389.833 357.247 390.205C356.599 390.565 355.861 390.745 355.033 390.745ZM355.177 389.233C355.777 389.233 356.317 389.095 356.797 388.819C357.289 388.543 357.673 388.153 357.949 387.649C358.237 387.133 358.381 386.539 358.381 385.867C358.381 385.183 358.237 384.595 357.949 384.103C357.673 383.599 357.289 383.209 356.797 382.933C356.317 382.657 355.777 382.519 355.177 382.519C354.565 382.519 354.019 382.657 353.539 382.933C353.059 383.209 352.675 383.599 352.387 384.103C352.099 384.595 351.955 385.183 351.955 385.867C351.955 386.539 352.099 387.133 352.387 387.649C352.675 388.153 353.059 388.543 353.539 388.819C354.019 389.095 354.565 389.233 355.177 389.233ZM358.435 390.637V388.063L358.543 385.849L358.363 383.635V377.281H360.091V390.637H358.435Z" fill="#E7B9FD" fill-opacity="0.48"/>
<rect x="19" y="362.637" width="99.5713" height="43.7142" rx="12" fill="#A9B8EE" fill-opacity="0.06"/>
<g opacity="0.5">
<path fill-rule="evenodd" clip-rule="evenodd" d="M42.0716 395.422H54.2144C56.2263 395.422 57.8573 393.791 57.8573 391.779V380.087C57.8573 379.121 57.4735 378.194 56.7903 377.511L53.9104 374.631C53.2272 373.948 52.3007 373.564 51.3345 373.564H42.0716C40.0597 373.564 38.4287 375.195 38.4287 377.207V391.779C38.4287 393.791 40.0597 395.422 42.0716 395.422Z" stroke="#A2AED9" stroke-width="1.82143" stroke-linecap="round" stroke-linejoin="round"/>
<path d="M53.0002 390.564H43.2859" stroke="#A2AED9" stroke-width="1.82143" stroke-linecap="round" stroke-linejoin="round"/>
<path d="M53.0002 386.314H43.2859" stroke="#A2AED9" stroke-width="1.82143" stroke-linecap="round" stroke-linejoin="round"/>
<path d="M46.9287 382.064H43.2859" stroke="#A2AED9" stroke-width="1.82143" stroke-linecap="round" stroke-linejoin="round"/>
<path d="M57.8573 380.243H53.6073C52.266 380.243 51.1787 379.156 51.1787 377.814V373.564" stroke="#A2AED9" stroke-width="1.82143" stroke-linecap="round" stroke-linejoin="round"/>
</g>
<g opacity="0.5">
<path d="M90.6429 378.422H88.2144" stroke="#A2AED9" stroke-width="1.82143" stroke-linecap="round" stroke-linejoin="round"/>
<path d="M90.6429 382.064H88.2144" stroke="#A2AED9" stroke-width="1.82143" stroke-linecap="round" stroke-linejoin="round"/>
<path fill-rule="evenodd" clip-rule="evenodd" d="M90.4978 385.707H88.3597C88.0591 385.707 87.8038 385.927 87.7593 386.224L87.3174 389.17C87.265 389.519 87.3675 389.874 87.5981 390.142C87.8288 390.41 88.1648 390.564 88.5183 390.564H90.3392C90.6927 390.564 91.0286 390.41 91.2593 390.142C91.49 389.874 91.5925 389.519 91.54 389.17L91.0982 386.224C91.0536 385.927 90.7983 385.707 90.4978 385.707V385.707Z" stroke="#A2AED9" stroke-width="1.82143" stroke-linecap="round" stroke-linejoin="round"/>
<path fill-rule="evenodd" clip-rule="evenodd" d="M83.3573 395.422H96.1073C97.7838 395.422 99.143 394.062 99.143 392.386V380.087C99.143 379.121 98.7592 378.194 98.076 377.511L95.1961 374.631C94.513 373.948 93.5864 373.564 92.6202 373.564H83.9644C82.2878 373.564 80.9287 374.924 80.9287 376.6V392.993C80.9287 394.334 82.016 395.422 83.3573 395.422Z" stroke="#A2AED9" stroke-width="1.82143" stroke-linecap="round" stroke-linejoin="round"/>
</g>
<g opacity="0.5">
<path d="M258.853 380.806L252.192 387.467C251.189 388.47 251.189 390.097 252.192 391.1V391.1C253.195 392.103 254.822 392.103 255.825 391.1L264.606 382.319C266.446 380.479 266.446 377.497 264.606 375.657V375.657C262.767 373.817 259.785 373.817 257.945 375.657L249.163 384.439C246.487 387.115 246.487 391.452 249.163 394.129V394.129C251.84 396.805 256.177 396.805 258.853 394.129L264.183 388.799" stroke="#A2AED9" stroke-width="1.82143" stroke-linecap="round" stroke-linejoin="round"/>
</g>
<defs>
<linearGradient id="paint0_linear_807_3287" x1="22.5" y1="-2.97346e-05" x2="207.487" y2="198.183" gradientUnits="userSpaceOnUse">
<stop stop-color="#8FCFF2"/>
<stop offset="1" stop-color="#646FCC" stop-opacity="0"/>
</linearGradient>
</defs>
</svg>
