<svg width="40" height="40" viewBox="0 0 40 40" fill="none" xmlns="http://www.w3.org/2000/svg">
<path d="M20.0001 23.3333C18.1591 23.3333 16.6667 21.8409 16.6667 20C16.6667 18.159 18.1591 16.6667 20.0001 16.6667" stroke="white" stroke-width="2.5" stroke-linecap="round" stroke-linejoin="round"/>
<path fill-rule="evenodd" clip-rule="evenodd" d="M30.3453 16.6667H35.8321C36.135 16.6667 36.4141 16.8311 36.561 17.096C36.7078 17.361 36.6993 17.6848 36.5387 17.9417L35.2523 20L36.5387 22.0583C36.6993 22.3152 36.7078 22.639 36.561 22.904C36.4141 23.1689 36.135 23.3333 35.8321 23.3333H30.3453C30.1242 23.3333 29.9123 23.2455 29.756 23.0892L26.6667 20L29.756 16.9107C29.9123 16.7545 30.1242 16.6667 30.3453 16.6667V16.6667Z" stroke="white" stroke-width="2.5" stroke-linecap="round" stroke-linejoin="round"/>
<path d="M23.3333 20H26.6666" stroke="white" stroke-width="2.5" stroke-linecap="round" stroke-linejoin="round"/>
<path d="M26.2785 13.3333C22.6467 9.90594 16.9398 10.0161 13.4429 13.581C9.9461 17.146 9.9461 22.854 13.4429 26.419C16.9398 29.984 22.6467 30.0941 26.2785 26.6667" stroke="white" stroke-width="2.5" stroke-linecap="round" stroke-linejoin="round"/>
<path d="M32.4705 11.6667C28.7998 6.17294 21.9668 3.72795 15.6441 5.64585C9.32148 7.56375 4.99829 13.3928 4.99829 20C4.99829 26.6071 9.32148 32.4362 15.6441 34.3541C21.9668 36.272 28.7998 33.827 32.4705 28.3333" stroke="white" stroke-width="2.5" stroke-linecap="round" stroke-linejoin="round"/>
</svg>
