<svg width="40" height="40" viewBox="0 0 40 40" fill="none" xmlns="http://www.w3.org/2000/svg">
<path fill-rule="evenodd" clip-rule="evenodd" d="M12.497 14.9979H7.49494C6.11365 14.9979 4.9939 13.8782 4.9939 12.4969V7.49479C4.9939 6.1135 6.11365 4.99374 7.49494 4.99374H12.497C13.8783 4.99374 14.9981 6.1135 14.9981 7.49479V12.4969C14.9981 13.8782 13.8783 14.9979 12.497 14.9979Z" stroke="white" stroke-width="2.5" stroke-linecap="round" stroke-linejoin="round"/>
<path fill-rule="evenodd" clip-rule="evenodd" d="M32.505 14.9979H22.5008C21.1195 14.9979 19.9998 13.8782 19.9998 12.4969V7.49479C19.9998 6.1135 21.1195 4.99374 22.5008 4.99374H32.505C33.8863 4.99374 35.006 6.1135 35.006 7.49479V12.4969C35.006 13.8782 33.8863 14.9979 32.505 14.9979Z" stroke="white" stroke-width="2.5" stroke-linecap="round" stroke-linejoin="round"/>
<path d="M19.2847 22.501L12.0784 29.5556L9.7124 27.1863" stroke="white" stroke-width="2.5" stroke-linecap="round" stroke-linejoin="round"/>
<path d="M13.9259 20.7153H9.14563C6.85269 20.7153 4.9939 22.5741 4.9939 24.867V30.8545C4.9939 33.1474 6.85269 35.0062 9.14563 35.0062H15.1331C17.4261 35.0062 19.2848 33.1474 19.2848 30.8545V29.6473" stroke="white" stroke-width="2.5" stroke-linecap="round" stroke-linejoin="round"/>
<path fill-rule="evenodd" clip-rule="evenodd" d="M32.5053 30.0042H27.5032C26.122 30.0042 25.0022 28.8844 25.0022 27.5031V22.501C25.0022 21.1198 26.122 20 27.5032 20H32.5053C33.8866 20 35.0064 21.1198 35.0064 22.501V27.5031C35.0064 28.8844 33.8866 30.0042 32.5053 30.0042Z" stroke="white" stroke-width="2.5" stroke-linecap="round" stroke-linejoin="round"/>
</svg>
