<svg width="1920" height="1389" viewBox="0 0 1920 1389" fill="none" xmlns="http://www.w3.org/2000/svg" filter="url(#blurMe)">
<filter id="blurMe">
    <feGaussianBlur in="SourceGraphic" stdDeviation="5" />
  </filter>
<mask id="mask0_57_8355" style="mask-type:alpha" maskUnits="userSpaceOnUse" x="-191" y="-453" width="2308" height="1842">
<g opacity="0.7">
<mask id="mask1_57_8355" style="mask-type:luminance" maskUnits="userSpaceOnUse" x="-191" y="-453" width="2308" height="1842">
<path d="M1753 1388.46L-190.954 842.97L172.709 -453L2116.66 92.4949L1753 1388.46Z" fill="white"/>
</mask>
<g mask="url(#mask1_57_8355)">
<path d="M-162.131 939.882C-62.16 963.252 -0.829601 1051.59 83.1783 1102.82C126.709 1129.79 177.548 1139.49 226.526 1151.84C292.85 1167.95 359.612 1182.12 426.184 1197.1C620.594 1240.45 821.476 1294.3 978.991 1422.05C1052.82 1495.86 1160.31 1445.17 1238.53 1405.51C1306.94 1373.63 1377.94 1326.26 1456.56 1336.42C1615.2 1374.75 1699.36 1546.29 1855.02 1591.32" stroke="white" stroke-width="3.75983" stroke-miterlimit="10"/>
<path d="M-167.077 926.244C-57.7132 954.94 9.94921 1054.4 109.447 1101.32C158.836 1124.59 213.874 1131.48 265.936 1146.78C351.832 1169.24 437.345 1193.14 523.432 1214.79C687.853 1257.84 860.396 1304.95 992.798 1416.63C1083.67 1490.26 1198.93 1414.29 1286.88 1372.46C1339.69 1347.17 1395.91 1317.77 1456.14 1323.33C1620.55 1356.08 1706.17 1535.64 1865.43 1580.71" stroke="white" stroke-width="3.75983" stroke-miterlimit="10"/>
<path d="M-173.918 913.824C-39.5949 953.09 46.8619 1085.84 187.862 1109.47C317.327 1141.88 440.947 1194.25 571.182 1223.86C717.948 1267.86 876.851 1299.55 996.701 1401.23C1108.17 1488.05 1238.68 1376.38 1345.63 1334.23C1423.03 1298.46 1485.44 1301.12 1557.56 1347.97C1668.16 1414.97 1748.4 1532.39 1876 1569.95" stroke="white" stroke-width="3.75983" stroke-miterlimit="10"/>
<path d="M-182.421 902.455C-78.7844 933.127 -0.441977 1011.59 95.2037 1058.16C146.176 1084.57 203.852 1091.46 257.169 1111.7C331.22 1137.51 402.493 1170.55 476.59 1196.2C557.526 1222.95 640.702 1242.34 723.191 1263.74C822.084 1289.15 924.248 1319.34 1003.34 1386.79C1118.14 1473.02 1248.42 1359.12 1357.68 1316.73C1429.59 1284.05 1491.94 1288.47 1558.74 1330.98C1673.47 1398.58 1755.49 1520.23 1886.67 1559.06" stroke="white" stroke-width="3.75983" stroke-miterlimit="10"/>
<path d="M-192.365 891.94C-86.696 923.777 -0.556001 995.813 99.4871 1039.79C154.303 1064.71 214.87 1073.13 269.466 1098.9C349.281 1132.88 424.445 1177.46 506.404 1206.42C657.415 1261.25 827.674 1259.33 968.571 1341.37C998.312 1358.75 1022.5 1385.77 1056.55 1395.26C1162.15 1424.62 1256.53 1345.98 1348.84 1306.98C1427.68 1268.81 1491.78 1269.24 1566.41 1317.34C1681.82 1386.33 1765.19 1508.48 1897.52 1547.99" stroke="white" stroke-width="3.75983" stroke-miterlimit="10"/>
<path d="M-203.49 882.058C-105.546 911.656 -18.6636 966.723 74.4363 1007.67C115.633 1026.76 159.362 1038.51 202.493 1052.08C237.556 1064.5 270.989 1081 303.502 1098.96C372.708 1137.19 438.641 1182.34 512.836 1210.69C619.491 1251.03 734.744 1254.94 845.253 1279.12C899.625 1291.3 953.745 1309.3 999.808 1341.38C1083.43 1416.27 1182.09 1380.19 1269.32 1332.93C1333.1 1301.45 1398.49 1257.72 1472.52 1263.14C1642.69 1294.16 1743.01 1490.11 1908.5 1536.81" stroke="white" stroke-width="3.75983" stroke-miterlimit="10"/>
<path d="M-215.544 872.645C-119.879 901.15 -30.1578 945.165 62.5092 981.549C127.899 1009.02 199.533 1020.59 260.865 1057.48C414.967 1150 484.168 1237.19 678.466 1251.49C762.447 1260.72 848.335 1262.79 929.517 1288.35C972.257 1299.88 1007.59 1325.79 1044.38 1349.01C1100.22 1379.92 1167.16 1366.63 1222.46 1341.24C1301.89 1308.17 1374.56 1247.29 1463.69 1245.28C1634.34 1261.03 1753.5 1480.44 1919.67 1525.42" stroke="white" stroke-width="3.75983" stroke-miterlimit="10"/>
<path d="M-228.288 863.497C-134.31 890.724 -42.6179 924.668 50.0748 955.728C113.615 979.081 182.419 989.965 240.973 1025.36C359.975 1094.87 450.907 1220.33 593.753 1242.8C707.066 1262.15 824.529 1245.61 936.5 1274.47C1045.15 1301.92 1062.64 1379.7 1195.1 1336.42C1282 1308.13 1354.62 1242.01 1446.52 1228.62C1617.51 1216.57 1763.63 1471.24 1930.96 1513.92" stroke="white" stroke-width="3.75983" stroke-miterlimit="10"/>
<path d="M-241.484 854.427C-148.425 880.384 -55.1835 905.377 38.0185 930.762C99.9254 949.846 166.373 958.916 222.899 992.131C337.676 1059.2 411.723 1183.8 537.746 1233.34C662.646 1272.81 796.765 1234.7 924.453 1256.45C1032.19 1268.03 1057.25 1346.17 1166.54 1326.99C1261.53 1309.52 1335.47 1237.75 1428.35 1214.24C1603.46 1172.78 1771.18 1460.03 1942.45 1502.21" stroke="white" stroke-width="3.75983" stroke-miterlimit="10"/>
<path d="M-254.894 845.246C-154.939 871.914 -53.0214 889.591 48.0168 911.338C162.388 934.956 218.225 948.021 302.34 1034.75C379.989 1110.32 446.35 1210.06 554.261 1243.88C616.425 1256.81 680.507 1251.08 743.308 1246.61C828.524 1240.92 917.555 1229.17 1000.05 1257.41C1027.16 1265.85 1048.93 1284.81 1074.65 1296.22C1187.28 1346.78 1290.4 1252.62 1388.91 1210.31C1475.08 1167.83 1550.9 1203.68 1622.58 1255.98C1733.29 1332.82 1822.29 1448.4 1954.05 1490.39" stroke="white" stroke-width="3.75983" stroke-miterlimit="10"/>
<path d="M-268.258 835.75C-166.233 861.705 -61.2226 871.163 42.4659 887.887C149.244 905.058 207.439 915.324 283.691 998.374C365.925 1082.21 426.152 1198.14 539.889 1243.64C589.795 1257.66 643.174 1251.9 694.207 1247.52C785.715 1238.65 878.072 1217.78 970.115 1231.05C1012.15 1235.12 1046.72 1258.54 1083.2 1277.25C1184.14 1322.87 1281.33 1248.49 1367.84 1203.62C1466.12 1148.82 1535.76 1173.36 1622.51 1235.05C1737.92 1313.83 1829.61 1434.15 1965.86 1478.36" stroke="white" stroke-width="3.75983" stroke-miterlimit="10"/>
<path d="M-281.356 825.746C-179.8 850.382 -74.9915 852.776 28.4643 863.79C128.535 875.846 194.504 880.08 265.532 959.759C353.968 1051.02 406.964 1182.94 525.495 1241.12C565.411 1257.86 611.087 1251.96 653.265 1248.99C745.315 1239.44 835.651 1214.32 928.487 1212.23C999.59 1210.25 1031.81 1225.34 1091.78 1258.3C1181.52 1298.89 1272.2 1242.45 1348.6 1197.99C1451.19 1136.64 1515.47 1140.85 1613.85 1208.13C1737.9 1288.85 1834.17 1418.77 1977.81 1466.18" stroke="white" stroke-width="3.75983" stroke-miterlimit="10"/>
<path d="M-293.925 815.072C-187.034 839.999 -76.6781 834.582 32.072 842.049C126.448 850.235 189.515 852.293 255.648 928.309C326.102 1005.68 370.409 1103.11 441.273 1180.14C497.754 1241.04 542.062 1258.7 624.56 1248.68C725.06 1238.72 822.03 1205.9 922.792 1197.74C965.143 1194.59 1009.27 1195.95 1048.82 1212.88C1124.84 1259.96 1189.73 1266.96 1270.96 1225.73C1340.92 1193.27 1404.75 1134.74 1485.65 1135.55C1662.13 1155.66 1813.76 1403.02 1989.98 1453.78" stroke="white" stroke-width="3.75983" stroke-miterlimit="10"/>
<path d="M-305.727 803.494C-196.703 828.233 -84.4458 816.412 26.2379 819.791C126.49 824.908 190.005 825.185 257.129 909.064C323.532 988.913 364.224 1086.71 429.977 1167.01C482.345 1229.55 525.889 1256.78 609.085 1245.65C714.688 1234.81 815.315 1196.31 920.577 1183.26C963.539 1178.19 1008.44 1177.03 1049.66 1191.87C1119.86 1228.66 1168.9 1250.72 1248.64 1220.18C1325.61 1192.27 1388.28 1128.09 1471.63 1118.1C1645.31 1110.66 1826.11 1393.55 2002.29 1441.22" stroke="white" stroke-width="3.75983" stroke-miterlimit="10"/>
<path d="M-316.505 790.839C-205.634 815.782 -91.8151 798.336 20.4306 798.203C66.9425 798.166 113.632 801.359 159.137 811.384C193.868 822.878 222.374 847.898 246.024 875.155C312.218 953.879 349.822 1051.6 408.001 1135.78C455.031 1203.27 505.41 1253.6 593.581 1240.49C739.217 1230.78 916.849 1131.09 1057.4 1173.96C1114.99 1202.55 1159.46 1227.62 1226.93 1211.19C1313.94 1191.56 1378.65 1118.19 1466.64 1101.87C1640.44 1078.86 1837.2 1381.81 2014.79 1428.49" stroke="white" stroke-width="3.75983" stroke-miterlimit="10"/>
<path d="M-326.056 776.925C-210.415 803.363 -92.0269 779.038 24.7635 777.158C117.771 777.516 188.571 776.989 248.674 857.866C306.721 932.365 340.852 1021.79 389.265 1102.28C431.688 1173.99 489.001 1246.5 581.628 1232.33C732.648 1223.93 916.922 1113.83 1062.16 1155.48C1111.17 1177.88 1152.87 1204.53 1210.11 1197.7C1301.94 1189.42 1368.18 1114.36 1454.09 1089.01C1630.27 1037.65 1846.68 1369.95 2027.47 1415.56" stroke="white" stroke-width="3.75983" stroke-miterlimit="10"/>
<path d="M-334.095 761.542C-220.588 788.675 -104.262 762.356 10.2018 757.306C100.094 755.252 185.4 752.103 243.677 831.891C297.843 901.229 329.147 984.72 370.31 1061.79C409.875 1137.76 468.091 1231.65 566.339 1221.05C726.086 1215.86 897.339 1103.97 1054.86 1134.12C1074.63 1138.38 1091.86 1148.96 1109.67 1158.24C1136.41 1171.44 1165.48 1180.3 1195.33 1181.42C1293.36 1186.17 1364.55 1106.12 1451.75 1075.61C1631.19 1009.95 1856.21 1356.61 2040.37 1402.42" stroke="white" stroke-width="3.75983" stroke-miterlimit="10"/>
<path d="M-340.391 744.503C-170.805 797.788 131.44 658.936 239.892 808.27C298.496 883.03 328.637 974.897 372.785 1058.08C411.351 1134.31 467.359 1213.9 563.166 1205.59C725.264 1201.67 899.452 1086.11 1059.02 1116.82C1082.38 1121.82 1101.91 1135.79 1123.51 1145.43C1148.09 1156.47 1174.34 1163.93 1201.26 1165.36C1298.75 1172.03 1370.18 1093.45 1455.95 1061.57C1638.08 990.181 1866.79 1343.08 2053.44 1389.1" stroke="white" stroke-width="3.75983" stroke-miterlimit="10"/>
<path d="M-345.351 726.127C-240.527 752.815 -132.215 731.08 -26.3948 723.081C32.5735 718.448 92.7536 717.405 150.639 731.202C185.092 739.018 213.019 763.176 234.81 790.017C292.89 864.402 322.477 955.817 365.895 1038.67C403.425 1114.17 459.535 1195.33 554.307 1187.65C660.641 1184.12 760.602 1141.76 862.739 1116.12C925.033 1100.38 990.43 1085.23 1054.67 1096.99C1101.17 1106.73 1140.36 1139.01 1188.74 1143.14C1290.53 1160.39 1371.29 1084.23 1460.68 1050.88C1558.8 1011.41 1650.28 1085.05 1725.96 1139.72C1837.03 1220.59 1935.48 1326.85 2067.11 1374.06" stroke="white" stroke-width="3.75983" stroke-miterlimit="10"/>
<path d="M-350.347 707.425C-255.247 730.965 -156.694 717.169 -60.4472 709.593C-3.64877 705.033 53.7508 702.005 110.403 709.549C153.993 712.764 194.532 731.147 222.453 765.352C325.2 872.368 365.229 1168.76 537.131 1165.78C668.977 1164.49 790.949 1103.91 919.014 1079.66C973.346 1069.13 1031.19 1062.14 1084.74 1079.82C1104.65 1086.83 1123.14 1097.99 1143.41 1104.4C1241.8 1142.42 1331.37 1102.11 1420.04 1059.71C1552.04 999.189 1611.69 1046.35 1722.23 1119C1840.88 1198.76 1947.08 1302.3 2082.13 1354.3" stroke="white" stroke-width="3.75983" stroke-miterlimit="10"/>
<path d="M-355.437 688.447C-269.818 709.344 -180.928 702.081 -93.924 696.246C-30.5976 691.962 33.2473 687.824 96.4985 695.018C139.412 698.339 181.999 710.482 211.471 743.707C318.001 844.777 357.478 1126.2 518.658 1139.81C671.333 1143.51 810.932 1063.71 960.55 1044.24C1017.66 1035.26 1076.97 1038.9 1128.82 1066.17C1197.2 1095.35 1274.58 1097.68 1345.19 1075.1C1420.85 1052.19 1497.22 1015.39 1578.18 1030.2C1766.53 1101.71 1910.72 1257.01 2098.45 1330.25" stroke="white" stroke-width="3.75983" stroke-miterlimit="10"/>
<path d="M-360.583 669.161C-281.617 688.419 -199.609 685.568 -119.041 681.929C-33.7159 680.271 135.058 661.032 199.007 722.473C312.78 819.966 344.327 1063.63 492.898 1108.17C600.715 1125.88 722.234 1070.72 826.116 1043.4C915.203 1019 1012.26 988.847 1103.57 1018.31C1159.64 1043.06 1219.78 1061.27 1281.66 1059.85C1388.83 1060.18 1495.42 1002.28 1602.05 1033.26C1781.89 1105.87 1934.97 1232.22 2115.89 1302.54" stroke="white" stroke-width="3.75983" stroke-miterlimit="10"/>
<path d="M-365.823 649.589C-280.844 670.464 -192.632 668.043 -105.81 666.158C-24.3492 666.562 131.525 654.433 194.149 709.386C309.137 803.795 338.288 1017.2 480.14 1074.41C566.158 1098.62 672.681 1054.37 756.252 1030.81C864.627 998.886 978.444 952.238 1092.94 975.088C1142.22 990.104 1189.08 1013.86 1240.57 1021.79C1346.08 1044.3 1453.21 1014.7 1559.42 1024.68C1594.69 1025.96 1627.26 1038.82 1659.24 1052.84C1699.39 1069.67 1738.9 1088.06 1778.16 1106.92C1896.17 1163.24 2011.52 1226.09 2134.29 1271.72" stroke="white" stroke-width="3.75983" stroke-miterlimit="10"/>
<path d="M-371.124 629.7C-253.199 659.087 -130.748 648.117 -10.5092 653.128C51.1347 658.141 129.723 657.074 182.426 692.082C258.583 747.756 295.378 839.079 346.124 915.688C426.3 1042.79 491.423 1073.89 637.467 1031.66C783.723 995.826 945.729 907.794 1097.92 933.531C1157.52 950.744 1213.72 979.745 1275.24 991.327C1383.98 1016.98 1497.12 1009.75 1606.35 1032.58C1791.35 1093.13 1969.22 1175.18 2153.5 1238.39" stroke="white" stroke-width="3.75983" stroke-miterlimit="10"/>
<path d="M-376.517 609.506C-265.232 637.956 -149.481 633.861 -35.6455 639.959C34.2809 646.282 132.131 646.199 189.707 688.935C264.975 747.279 303.852 837.91 360.593 912.147C440.366 1021.51 512.137 1035.15 637.752 996.649C786.218 957.487 950.884 865.518 1106.45 890.49C1134.89 895.867 1160.61 910.144 1187.51 920.332C1223.58 934.84 1260.11 948.148 1297.14 959.92C1398.18 992.608 1503.05 1010.31 1606.28 1034.45C1795.06 1091.15 1985.2 1144.22 2173.39 1203.13" stroke="white" stroke-width="3.75983" stroke-miterlimit="10"/>
<path d="M-382.008 588.969C-271.002 618.162 -155.496 618.367 -41.7763 627.368C5.18787 631.075 52.0968 636.287 98.2949 645.651C143.203 652.451 185.439 670.891 217.614 703.511C288.358 771.314 329.849 864.025 401.955 930.585C492.579 1019.28 599.178 974.622 702.942 939.762C834.416 896.514 970.646 826.168 1112.45 845.55C1137.89 849.368 1160.93 861.164 1184.23 871.509C1218.6 886.818 1252.95 902.101 1287.43 917.123C1390.96 962.603 1496.26 1004.35 1605.06 1035.58C1797.58 1095.16 2000.32 1111.03 2193.81 1166.55" stroke="white" stroke-width="3.75983" stroke-miterlimit="10"/>
<path d="M-387.577 568.095C-262.589 601.892 -132.235 603.241 -4.45939 619.506C111.421 636.313 182.837 641.377 260.724 737.905C322.958 808.318 371.949 899.9 462.238 937.906C551.842 973.063 653.238 918.369 738.456 889.751C837.69 852.537 937.191 809.579 1043.54 798.528C1124.42 788.599 1173 815.426 1241.89 851.427C1319.7 891.121 1394.67 936.029 1472.25 976.166C1549.46 1015.48 1629.95 1051.42 1716.03 1065.58C1881.02 1095.5 2051.57 1087.51 2214.63 1129.19" stroke="white" stroke-width="3.75983" stroke-miterlimit="10"/>
<path d="M-393.248 546.882C-268.772 581.444 -139.115 588.014 -11.86 607.07C44.8671 616.277 102.476 625.331 156.73 644.784C192.951 659.876 223.377 685.714 250.645 713.463C316.379 779.318 367.85 866.668 456.747 903.969C537.416 937.772 621.933 897.145 698.02 869.181C780.354 836.958 861.539 801.04 946.577 776.304C1013.39 757.464 1085.38 743.047 1153.91 760.965C1190.73 773.866 1224.61 795.467 1258.64 814.468C1394.74 893.833 1513.51 1005.4 1664.49 1057.17C1852.09 1099.53 2047.95 1049.57 2235.63 1091.68" stroke="white" stroke-width="3.75983" stroke-miterlimit="10"/>
<path d="M-399.016 525.324C-241.113 570.175 -75.5664 576.576 83.7606 614.731C150.721 627.702 204.136 652.634 252.317 701.577C331.858 776.829 406.517 889.28 528.709 884.965C598.15 881.559 661.477 847.882 725.205 823.108C835.85 777.492 946.809 724.275 1067.13 711.416C1104.68 708.706 1144.54 708.27 1179.7 723.291C1237.78 751.839 1291.38 788.62 1342.32 828.374C1453.58 912.057 1553.74 1023.5 1690.28 1064.58C1878.64 1095.38 2068.7 1018.54 2256.69 1054.62" stroke="white" stroke-width="3.75983" stroke-miterlimit="10"/>
<path d="M-404.882 503.389C-244.05 549.883 -76.0322 563.233 85.9612 604.654C161.05 620.045 213.124 648.201 267.963 701.563C367.253 797.858 458.334 894.383 608.139 837.999C778.138 776.78 943.848 666.02 1129.81 669.552C1233.99 670.196 1373.22 816.774 1448.44 886.252C1523.22 955.555 1599.17 1033.93 1697.91 1066.67C1893.05 1095.05 2082.67 986.426 2277.71 1018.56" stroke="white" stroke-width="3.75983" stroke-miterlimit="10"/>
<path d="M-410.839 481.095C-241.863 530.451 -65.9999 550.529 103.52 597.696C181.778 612.194 244.056 662.401 301.099 714.949C414.298 821.211 511.253 860.37 657.599 788.04C813.52 722.189 990.316 615.326 1164.26 633.888C1301.2 660.344 1452.29 873.543 1557.69 966.73C1602.02 1006.92 1650.1 1046.75 1707.08 1066.95C1909.02 1093.92 2096.51 955.044 2298.49 984.074" stroke="white" stroke-width="3.75983" stroke-miterlimit="10"/>
<path d="M-416.886 458.429C-258.954 504.669 -96.2027 531.431 62.8007 573.48C92.9604 582.083 123.658 589.142 153.38 599.055C184.312 610.513 212.545 628.099 239 647.599C392.499 771.477 475.367 854.426 675.276 751.324C830.19 681.59 1009.94 576.833 1184.74 601.139C1333.85 639.713 1474.01 873.104 1589.76 977.251C1618.18 1004.08 1648.7 1029.06 1682.85 1048.25C1705.84 1063.14 1731.97 1069.36 1759.23 1068.37C1950.82 1067.91 2126.11 927.107 2318.89 951.808" stroke="white" stroke-width="3.75983" stroke-miterlimit="10"/>
<path d="M-423.048 435.364C-262.125 482.093 -97.575 514.777 64.0812 558.706C132.813 575.826 190.194 592.854 246.75 637.733C402.017 761.601 491.558 823.198 684.197 720.223C841.256 646.704 1020.44 546.018 1199.07 572.115C1353.6 610.673 1489.57 863.997 1607.4 973.621C1689.36 1051.77 1735.64 1080.57 1851.14 1053.45C2009.22 1020.76 2176.22 899.123 2338.79 922.303" stroke="white" stroke-width="3.75983" stroke-miterlimit="10"/>
<path d="M-429.312 411.915C-265.241 458.637 -98.9182 496.833 65.5727 541.995C95.4938 550.951 126.379 557.154 155.482 568.588C188.535 581.952 218.722 601.293 247.606 621.98C411.888 751.086 503.493 795.613 698.804 688.284C856.616 613.142 1027.18 523.509 1207.22 547.573C1368.49 575.945 1505.15 856.238 1625.23 968.608C1707.35 1050.98 1764.45 1072.63 1878.92 1039.85C2030.35 1001.08 2201.04 869.893 2358.04 896.16" stroke="white" stroke-width="3.75983" stroke-miterlimit="10"/>
<path d="M-435.69 388.055C-268.306 434.117 -100.181 477.415 67.3183 523.001C130.195 537.01 190.015 560.979 241.368 600.484C417.633 737.706 506.467 772.49 711.456 659.629C867.792 585.139 1038.8 505.206 1216.25 529.645C1384.53 548.645 1514.94 837.911 1635.86 954.187C1725.82 1050.54 1804.82 1060.53 1926.41 1015.83C2064.22 970.429 2229.61 843.486 2376.43 873.972" stroke="white" stroke-width="3.75983" stroke-miterlimit="10"/>
<path d="M-441.968 363.037C-265.227 407.949 -90.5958 460.692 85.957 506.338C154.647 519.619 214.215 557.13 269.278 598.672C372.515 678.844 474.033 735.186 606.467 687.524C662.037 667.538 714.016 638.925 768.555 616.448C913.94 555.014 1072.41 491.836 1232.87 519.178C1331.81 532.945 1398.64 615.149 1456.31 689.49C1521.85 774.479 1578.36 867.21 1653.97 943.979C1747.99 1043.9 1844.83 1037.63 1964.6 989.206C2095.46 941.556 2251.75 825.636 2393.83 856.489" stroke="white" stroke-width="3.75983" stroke-miterlimit="10"/>
<path d="M-447.132 332.874C-263.703 375.748 -86.8132 442.302 96.2934 486.326C173.02 501.234 236.297 549.501 298.474 593.966C502.863 746.42 594.085 672.619 802.503 592.315C943.499 538.737 1095.4 478.486 1248.5 507.903C1342.05 522.393 1408.08 595.602 1463.42 666.737C1531.02 752.446 1588.16 846.996 1665.07 925.039C1749.83 1015.32 1840.36 1020.47 1952.95 981.042C2095.6 936.754 2258.02 814.743 2409.96 844.604" stroke="white" stroke-width="3.75983" stroke-miterlimit="10"/>
<path d="M-451.186 297.627C-260.77 340.015 -82.2224 423.39 108.189 465.795C187.107 484.166 251.07 536.715 316.425 581.687C519.957 727.417 615.284 647.271 824.18 576.223C962.808 526.227 1110.69 464.971 1260.49 493.918C1353.03 508.351 1420.04 577.832 1475 648.687C1544.53 735.757 1602.54 832.7 1682.06 911.442C1892.54 1132.81 2181.72 787.48 2425.01 837.786" stroke="white" stroke-width="3.75983" stroke-miterlimit="10"/>
<path d="M-454.32 257.898C-257.586 301.5 -78.8113 402.624 118.405 444.632C196.591 466.484 260.095 519.482 325.989 564.465C429.751 640.275 541.665 672.711 664.666 621.982C724.697 604.716 783.9 585.609 842.259 563.156C980.023 514.245 1126.1 449.582 1275.06 478.623C1367.2 493.592 1433.46 561.255 1488.5 631.94C1557.59 718.1 1615.26 814.004 1693.84 892.238C1903.61 1112.71 2194.94 783.936 2439.2 835.229" stroke="white" stroke-width="3.75983" stroke-miterlimit="10"/>
<path d="M-456.686 214.333C-253.779 261.031 -75.7345 380.264 128.389 423.563C200.572 447.191 260.484 495.615 321.882 538.62C420.218 612.157 532.571 658.101 654.536 616.169C724.095 597.522 793.347 578.16 860.317 550.993C996.838 501.839 1140.85 433.328 1289.16 461.489C1380.84 476.432 1446.94 543.65 1501.86 613.932C1570.65 699.519 1628.12 794.704 1705.93 872.756C1914.8 1092.89 2207.8 782.704 2452.72 836.139" stroke="white" stroke-width="3.75983" stroke-miterlimit="10"/>
<path d="M-458.478 167.607C-251.854 217.375 -78.3511 355.098 130.226 399.839C189.085 420.13 240.229 456.832 290.194 493.064C405.571 581.413 525.026 653.921 674.111 602.281C723.847 594.428 771.791 579.013 819.012 561.752C973.174 508.461 1135 413.405 1302.88 442.636C1393.97 457.118 1460.52 525.091 1515.09 594.751C1581.59 677.546 1637.71 768.944 1711.33 845.909C1920.55 1078.79 2216.34 783.16 2465.76 839.798" stroke="white" stroke-width="3.75983" stroke-miterlimit="10"/>
<path d="M-459.871 118.339C-326.516 150.779 -211.109 228.372 -90.398 290.362C-20.2253 328.752 55.1039 354.993 132.021 375.825C188.328 396.432 237.648 431.539 285.561 466.863C470.692 608.67 548.741 641.598 777.511 572.091C947.361 519.934 1134.52 392.197 1316.19 422.186C1407.32 436.244 1473.56 505.16 1528.22 574.442C1592.53 654.631 1647.32 742.546 1717.06 818.334C1920.07 1061.85 2227.78 785.881 2478.52 845.443" stroke="white" stroke-width="3.75983" stroke-miterlimit="10"/>
<path d="M-461.035 67.1759C-314.686 105.185 -194.759 202.29 -63.7212 273.068C-24.4391 294.436 16.0976 313.762 58.4556 328.217C110.566 343.102 162.685 358.706 208.037 389.519C420.772 532.222 493.073 654.758 773.929 569.337C948.078 517.059 1139.27 375.214 1324.48 399.417C1418.96 411.828 1487.1 484.354 1543.25 555.594C1605.11 633.206 1658.46 717.605 1724.67 791.721C1923.01 1043.2 2238.57 788.507 2491.25 852.28" stroke="white" stroke-width="3.75983" stroke-miterlimit="10"/>
<path d="M-462.152 14.7868C-311.325 56.6389 -193.395 165.783 -60.8267 243.561C-22.152 266.471 18.028 287.131 60.3986 302.288C109.798 317.181 159.249 332.578 202.488 361.767C405.498 496.778 501.642 648.688 773.799 565.369C951.128 512.096 1141.62 360.164 1329.32 375.175C1427.53 384.141 1498.48 460.127 1556.25 533.292C1616.05 608.473 1668.06 689.788 1730.95 762.536C1931.09 1024.99 2243.86 790.516 2504.2 859.603" stroke="white" stroke-width="3.75983" stroke-miterlimit="10"/>
<path d="M-463.383 -38.231C-311.362 6.71703 -197.429 124.002 -67.0305 208.143C-26.6546 234.519 15.6487 258.448 60.8892 275.459C110.267 290.993 159.533 307.421 202.633 337.043C392.246 463.996 513.5 639.763 770.143 561.912C952.833 508.588 1153.95 336.29 1344.98 351.222C1443.37 360.85 1513.12 439.733 1571.14 512.566C1626.45 582.573 1675.39 657.505 1732.26 726.308C1770.9 772.259 1813.16 817.88 1867.65 844.844C2076.5 930.412 2304.44 805.956 2517.45 866.57" stroke="white" stroke-width="3.75983" stroke-miterlimit="10"/>
<path d="M-464.929 -91.1933C-308.474 -42.1176 -197.143 86.6174 -65.4438 177.52C-28.1475 203.661 11.0561 227.488 53.1926 244.974C101.919 262.702 152.103 277.168 195.356 306.991C377.322 425.577 521.005 630.46 766.565 557.415C955.268 503.838 1156.95 317.824 1352.54 325.386C1514.46 336.623 1625.57 557.129 1720.66 672.046C1766.64 730.225 1815.58 790.232 1882.49 824.911C2089.14 912.536 2319.95 808.774 2531.29 872.447" stroke="white" stroke-width="3.75983" stroke-miterlimit="10"/>
<path d="M-466.967 -143.474C-278.657 -80.6889 -162.778 97.2917 5.86857 193.407C45.6716 218.399 91.4354 229.248 134.25 247.309C182.853 269.336 226.53 300.64 268.291 333.538C407.996 446.539 566.3 609.216 763.144 551.475C958.238 497.979 1159.48 298.823 1359.95 298.858C1506.63 306.291 1602.44 475.459 1683.74 580.564C1745.51 662.644 1805.49 753.552 1897.51 804.275C2102.67 893.372 2335.59 810.209 2545.91 876.498" stroke="white" stroke-width="3.75983" stroke-miterlimit="10"/>
<path d="M-469.643 -194.413C-282.49 -129.559 -172.213 51.8826 -9.2504 155.175C34.4074 185.985 85.7309 199.565 134.32 219.84C185.821 243.746 231.856 277.669 275.944 313.108C413.736 423.091 565.417 591.685 759.999 543.498C961.53 490.166 1153.26 286.61 1359.29 271.814C1502.16 268.793 1595.37 421.855 1673.06 522.574C1740.19 612.152 1802.28 711.428 1897.44 774.006C1960.88 811.277 2036.67 821.115 2108.56 830.418C2259.51 845.918 2415.12 831.075 2561.56 877.901" stroke="white" stroke-width="3.75983" stroke-miterlimit="10"/>
<path d="M-473.147 -243.384C-284.1 -176.251 -178.218 12.2586 -16.5968 121.081C28.6787 155.28 82.9412 170.158 134.376 191.686C188.817 217.325 237.274 253.763 283.713 291.661C419.577 399.233 573.607 577.452 765.379 531.062C899.727 492.517 1011.52 403.273 1131.68 335.267C1204.55 293.907 1281.39 250.864 1366.54 244.489C1506.27 237.321 1599.14 383.662 1675.18 481.594C1745.26 574.743 1808.73 677.921 1905.13 746.474C1971.66 790.01 2053.91 800.368 2130.86 813.24C2280.09 833.255 2433.72 829.236 2578.37 875.924" stroke="white" stroke-width="3.75983" stroke-miterlimit="10"/>
<path d="M-477.672 -289.721C-397.534 -264.175 -332.244 -207.828 -272.624 -150.451C-185.815 -66.8501 -109.178 29.1517 -8.77109 97.3628C36.609 131.19 92.1079 142.657 142.299 166.562C202.151 196.394 254.983 238.165 306.061 280.896C429.841 381.022 588.354 555.413 762.951 517.852C898.825 482.217 1010.29 390.192 1129.28 319.654C1205.05 274.425 1284.39 226.121 1373.85 216.764C1509.96 205.855 1602.89 345.118 1677.33 440.118C1750.5 536.527 1815.43 643.401 1912.99 717.523C1982.47 767.671 2071.47 778.055 2153.51 794.486C2301.38 818.417 2453.03 823.959 2596.61 869.826" stroke="white" stroke-width="3.75983" stroke-miterlimit="10"/>
<path d="M-483.389 -332.812C-402.915 -307.905 -338.031 -250.606 -279.193 -192.435C-195.001 -108.974 -121.287 -13.7052 -25.3419 57.0809C1.27 76.3966 29.8028 93.3506 60.4434 105.409C87.3756 115.238 115.212 122.717 140.808 135.999C200.829 165.353 254.024 206.581 305.264 249.042C426.566 345.607 596.949 534.304 765.783 500.158C898.939 467.482 1007.68 376.84 1122.28 306.019C1201.19 256.809 1282.79 203.218 1376.45 189.236C1513.04 172.046 1606.32 306.323 1681.36 400.83C1759.3 502.021 1826.81 615.61 1929.84 693.853C1962.26 718.785 2000.83 732.821 2040.14 742.682C2085.43 755.27 2131.37 765.381 2177.55 773.99C2324.08 800.969 2473.55 814.724 2616.45 858.843" stroke="white" stroke-width="3.75983" stroke-miterlimit="10"/>
<path d="M-490.462 -372.002C-303.564 -311.535 -194.052 -98.4683 -40.8957 17.1012C-12.2621 39.2387 18.6451 58.8161 52.2466 72.4042C78.9205 82.8425 107.132 88.9239 132.984 101.543C193.634 129.152 247.574 169.156 299.188 210.848C421.196 304.833 606.58 511.439 772.477 478.043C906.495 446.343 1015.13 354.012 1129.43 281.985C1208.42 231.647 1289.83 176.569 1383.9 160.938C1523.48 141.477 1619.55 279.263 1696.27 375.549C1778.13 480.828 1848.42 601.298 1960.13 678.201C1991.2 699.609 2027.56 710.161 2063.74 719.23C2111.77 731.973 2160.29 742.791 2209 752.529C2352.32 780.899 2497.51 801.316 2638.08 842.107" stroke="white" stroke-width="3.75983" stroke-miterlimit="10"/>
<path d="M-499.061 -406.621C-311.99 -348.202 -200.91 -133.874 -48.9573 -17.7514C-20.3732 4.68664 10.4665 24.6296 44.0541 38.7031C73.2157 50.8006 104.612 56.5527 133.188 70.3031C193.972 97.3732 248.338 136.605 300.277 177.759C422.394 269.555 616.741 483.64 779.657 450.84C917.476 418.983 1028.6 323.192 1146.13 249.625C1224.62 199.95 1305.88 145.353 1399.64 131.82C1534.27 116.998 1629.55 248.376 1704.81 341.616C1793.21 452.733 1867.38 583.744 1990.75 660.128C2022.76 679.508 2059.68 687.125 2095.51 696.184C2141.02 707.504 2186.79 717.655 2232.7 727.182C2375.95 756.685 2520.43 780.907 2661.73 819.229" stroke="white" stroke-width="3.75983" stroke-miterlimit="10"/>
<path d="M-509.253 -436.501C-428.881 -412.288 -363.241 -356.437 -303.92 -299.056C-218.54 -216.153 -143.943 -121.475 -49.2432 -48.5571C-20.3911 -26.638 10.5389 -7.14159 43.9924 6.9117C73.3069 19.0871 104.741 25.3914 133.439 39.2638C193.859 66.3887 248.158 105.112 300.026 145.897C421.72 236.893 615.619 447.095 776.912 418.959C910.427 391.54 1020.28 302.73 1134.18 232.917C1219.22 180.29 1306.24 121.388 1406.84 105.458C1541.85 87.0007 1643.01 223.524 1719.42 316.196C1808.29 425.853 1884.12 553.87 2006.23 630.128C2038.1 649.888 2074.81 658.372 2110.81 667.147C2159.06 679.149 2207.61 689.976 2256.28 700.138C2399.96 729.971 2544.71 755.091 2686.54 793.211" stroke="white" stroke-width="3.75983" stroke-miterlimit="10"/>
<path d="M-520.907 -462.227C-437.786 -436.228 -369.288 -379.103 -306.704 -320.457C-218.888 -237.954 -140.729 -144.077 -42.184 -73.7145C-12.8988 -53.0893 18.3644 -34.9673 51.8308 -22.0812C78.9898 -12.1883 107.224 -5.19173 133.408 7.36361C196.017 35.5922 252.218 75.8806 305.977 118.21C427.103 209.238 618.721 413.12 779.994 383.249C912.966 356.027 1024.27 270.945 1139.21 203.399C1225.19 152.415 1313.03 95.9611 1413.31 79.8015C1546.99 59.5597 1649.68 191.513 1727.29 282.371C1821.26 394.178 1901 526.524 2029.46 602.396C2061.75 621.193 2098.53 628.805 2134.37 637.779C2182.78 649.753 2231.42 660.624 2280.2 670.923C2424.44 701.262 2569.68 727.408 2712.18 765.491" stroke="white" stroke-width="3.75983" stroke-miterlimit="10"/>
<path d="M-533.847 -484.485C-332.767 -414.586 -215.707 -218.642 -42.9638 -104.618C-15.6961 -86.3943 13.064 -70.2502 43.5114 -58.0016C73.1237 -46.3893 104.363 -39.266 133.126 -25.3754C194.913 2.48263 250.634 41.8674 303.876 83.4225C425.911 174.636 611.136 369.664 773.021 346.641C909.123 323.023 1024.51 239.07 1143.06 173.215C1232.42 123.096 1323.89 67.1702 1427.21 53.6655C1558.55 38.0594 1663.08 167.384 1741.4 256.31C1836.03 365.609 1917.78 493.959 2045.04 568.413C2077.38 587.255 2114.04 595.428 2149.99 604.294C2198.57 616.388 2247.39 627.484 2296.33 638.037C2443.97 669.768 2592.57 697.329 2738.58 736.255" stroke="white" stroke-width="3.75983" stroke-miterlimit="10"/>
<path d="M-547.913 -503.986C-339.909 -433.228 -213.595 -234.827 -28.3121 -126.319C21.2296 -94.1207 79.1184 -82.1403 132.639 -59.0135C196.132 -30.4493 253.328 10.0309 308.024 52.6931C430.484 144.637 609.256 329.467 772.572 306.827C908.504 284.559 1025.88 205.044 1145.95 142.274C1236.64 94.4297 1329.37 41.6022 1432.63 28.7449C1566.82 13.0283 1673.37 139.932 1755.44 229.685C1850.82 336.065 1934.62 460.167 2060.78 532.671C2095.71 552.8 2135.33 561.208 2174.01 570.892C2222.83 583.054 2271.86 594.295 2320.99 605.094C2469.47 637.583 2618.81 666.419 2765.74 705.571" stroke="white" stroke-width="3.75983" stroke-miterlimit="10"/>
<path d="M-562.935 -521.393C-350.917 -451.798 -214.773 -256.859 -21.3681 -154.251C26.6834 -126.333 81.5927 -115.94 131.929 -93.5491C194.287 -65.6706 250.664 -26.3814 304.558 15.2169C428.573 107.842 597.861 281.011 762.647 266.211C883.971 251.535 992.328 188.413 1100.16 135.054C1208 81.6956 1316.36 18.558 1437.68 3.8983C1575.54 -10.9089 1682.78 111.61 1769.48 202.503C1867.68 307.544 1955.07 430.679 2084.52 499.508C2117.55 516.954 2154.27 524.638 2190.14 533.829C2241.95 546.864 2293.96 558.979 2346.1 570.656C2495.5 604.016 2645.68 634.17 2793.66 673.634" stroke="white" stroke-width="3.75983" stroke-miterlimit="10"/>
<path d="M-578.748 -537.399C-365.907 -470.614 -220.267 -285.348 -23.5986 -187.958C24.8791 -161.807 79.3964 -151.699 129.489 -129.622C190.577 -102.763 246.057 -64.9488 298.972 -24.6564C425.702 69.1328 581.261 227.894 748.365 223.949C850.941 217.171 945.974 172.138 1038.43 130.541C1167.94 72.7443 1294.9 -2.47587 1437.65 -20.6989C1575.17 -36.9814 1682.82 73.5429 1772.32 162.863C1874.3 266.133 1964.64 387.561 2094.46 457.736C2129.84 476.943 2169.27 485.787 2207.98 495.618C2259.96 508.826 2312.15 521.214 2364.42 533.209C2517.25 568.179 2670.82 600.054 2822.33 640.558" stroke="white" stroke-width="3.75983" stroke-miterlimit="10"/>
<path d="M-595.206 -552.729C-353.035 -481.051 -184.874 -264.319 56.6483 -191.198C147.292 -167.16 227.372 -115.75 301.228 -59.4103C430.173 36.0139 574.523 181.284 744.945 179.529C844.263 174.336 937.733 134.997 1028.67 97.6562C1163.49 42.8525 1295.72 -29.8735 1442.29 -46.2033C1578.25 -60.9299 1688.36 40.9159 1779.81 128.16C1885.41 229.424 1979.25 349.196 2110.94 418.077C2146.6 436.84 2186.01 445.87 2224.75 455.817C2277.04 469.266 2329.52 481.965 2382.08 494.304C2538.76 531.016 2696.16 564.769 2851.62 606.488" stroke="white" stroke-width="3.75983" stroke-miterlimit="10"/>
<path d="M-612.109 -568.027C-360.377 -496.601 -174.476 -284.24 80.6828 -220.731C159.9 -195.269 230.67 -149.791 296.778 -100.152C428.347 -3.43234 560.398 128.251 732.991 134.2C828.535 132.806 920.025 99.5876 1008.77 66.9969C1149.84 15.5726 1287.66 -54.589 1438.49 -71.63C1572.75 -88.3731 1687.08 2.13045 1780.75 87.0623C1890.64 185.808 1987.71 303.671 2120.05 373.608C2158.19 394.062 2200.38 404.328 2242 414.977C2294.61 428.656 2347.4 441.686 2400.25 454.368C2560.85 492.882 2722.16 528.588 2881.67 571.566" stroke="white" stroke-width="3.75983" stroke-miterlimit="10"/>
<path d="M-629.34 -584.032C-376.111 -515.7 -177.58 -320.573 78.4389 -259.006C153.516 -235.23 221.39 -193.693 284.576 -147.408C414.456 -52.7001 542.285 70.1792 709.457 87.1022C806.96 92.3039 902.065 62.1445 993.758 32.3734C1140.34 -15.215 1283.48 -82.2239 1438.18 -98.3171C1570.76 -114.377 1687.97 -34.0959 1783.92 48.1905C1897.66 143.911 1998.02 259.378 2131.12 329.284C2171.78 351.092 2216.69 362.244 2261.09 373.671C2313.92 387.535 2366.88 400.824 2419.94 413.842C2584.2 454.082 2749.12 491.728 2912.41 535.904" stroke="white" stroke-width="3.75983" stroke-miterlimit="10"/>
<path d="M-646.698 -601.396C-389.227 -534.355 -176.219 -355.82 83.9741 -295.617C154.523 -272.395 218.806 -233.875 278.827 -190.698C404.494 -99.2861 527.472 13.0401 686.48 37.9474C785.593 49.8046 884.284 22.8709 978.919 -3.99513C1128.15 -46.8211 1273.83 -108.557 1429.22 -125.365C1560.27 -143.077 1681.64 -75.4343 1780.53 4.00928C1900.97 97.6063 2006.09 213.484 2142.7 284.531C2185.92 307.616 2233.55 319.585 2280.68 331.796C2333.73 345.842 2386.89 359.398 2440.13 372.711C2608.1 414.674 2776.67 454.286 2943.77 499.657" stroke="white" stroke-width="3.75983" stroke-miterlimit="10"/>
<path d="M-661.753 -618.116C-495.599 -577.695 -345.034 -493.993 -189.688 -425.272C-101.946 -384.539 -9.89483 -354.741 83.3995 -329.873C152.685 -307.128 216.126 -269.91 275.343 -227.849C399.139 -138.239 520.738 -31.2102 676.202 -4.44874C778.25 10.3991 880.857 -14.9816 979.267 -40.2291C1126.99 -78.8117 1271.74 -134.185 1424.41 -150.148C1557.79 -168.154 1683.93 -105.951 1787.22 -26.8467C1911.08 64.3375 2019.67 178.412 2158.32 248.039C2199.27 269.125 2243.81 281.046 2288.19 292.484C2344.22 307.473 2400.36 322.004 2456.57 336.276C2628.27 379.86 2800.52 421.292 2971.46 467.826" stroke="white" stroke-width="3.75983" stroke-miterlimit="10"/>
<path d="M-676.68 -636.844C-499.299 -594.898 -336.196 -511.033 -167.369 -444.768C-115.211 -424.26 -62.3743 -405.362 -8.47896 -389.924C53.8315 -373.959 116.462 -357.642 173.208 -326.393C339.352 -237.551 471.296 -83.5644 663.567 -47.7853C767.812 -29.1229 873.909 -52.4931 975.578 -75.7777C1121.58 -110.143 1264.93 -159.6 1414.66 -175.587C1550.25 -194.786 1681.58 -139.865 1789.66 -61.4605C1917.02 26.7374 2028.71 138.676 2168.32 208.363C2211.75 230.703 2258.92 243.504 2305.99 255.628C2362.11 270.73 2418.35 285.426 2474.64 299.929C2649.71 345.001 2825.3 388.174 2999.72 435.755" stroke="white" stroke-width="3.75983" stroke-miterlimit="10"/>
<path d="M-691.378 -658.025C-511.227 -616.176 -342.475 -538.555 -169.015 -476.284C-116.31 -457.353 -63.0953 -439.799 -9.04403 -425.104C53.1023 -410.111 115.163 -393.256 171.757 -362.713C262.998 -316.139 340.806 -248.538 425.815 -192.215C493.377 -146.763 567.821 -111.264 647.257 -92.4339C753.115 -68.6183 862.668 -89.6728 967.278 -110.734C1114.87 -141.597 1259.93 -187.375 1410.38 -202.704C1546.31 -221.179 1678.78 -173.504 1790.19 -97.732C1923.8 -11.029 2040.61 101.856 2184.88 171.681C2228.57 193.481 2275.72 206.256 2322.78 218.433C2381.96 234.427 2441.24 250.047 2500.56 265.506C2676.54 311.323 2852.91 355.625 3028.34 403.525" stroke="white" stroke-width="3.75983" stroke-miterlimit="10"/>
<path d="M-705.73 -682.112C-526.023 -640.544 -354.767 -570.731 -180.126 -512.603C-124.252 -494.006 -67.9686 -476.552 -11.0089 -461.634C48.5399 -447.598 107.94 -431.664 162.633 -403.559C255.068 -358.503 333.732 -291.273 419.176 -235.003C485.876 -190.527 559.021 -155.445 637.01 -136.129C741.449 -109.688 850.774 -127.312 955.157 -145.571C1104.01 -172.899 1250.4 -215.178 1401.27 -230.613C1542.27 -249.486 1675.12 -208.552 1793.52 -132.845C1930.49 -48.941 2050.5 61.9409 2195.9 132.063C2242.07 155.086 2291.8 168.973 2341.59 181.754C2400.85 197.807 2460.19 213.584 2519.57 229.216C2698.9 276.411 2878.57 322.354 3057.46 371.206" stroke="white" stroke-width="3.75983" stroke-miterlimit="10"/>
<path d="M-719.624 -709.566C-460.576 -648.706 -213.749 -545.104 45.4172 -484.665C133.325 -461.587 213.716 -417.202 287.706 -365.264C430.242 -260.608 585.576 -155.227 770.451 -163.586C937.43 -168.457 1099.62 -213.921 1263.57 -241.641C1394.88 -264.474 1533.82 -281.912 1661.43 -233.049C1865.63 -159.13 2019.81 5.23726 2215.22 96.2105C2261.59 118.659 2311.21 132.567 2360.92 145.379C2420.26 161.471 2479.64 177.347 2539.06 193.131C2721.72 241.626 2904.65 289.148 3086.97 338.894" stroke="white" stroke-width="3.75983" stroke-miterlimit="10"/>
<path d="M-732.977 -740.821C-474.265 -678.517 -223.445 -587.461 35.2626 -525.14C125.519 -502.399 208.592 -458.292 284.74 -405.574C425.884 -303.493 580.325 -199.849 761.798 -203.745C935.241 -205.246 1104.35 -250.08 1274.99 -275.992C1406.59 -296.49 1545.29 -312.265 1672.78 -264.03C1878.69 -190.486 2037.56 -29.5572 2235.14 60.5392C2340.88 107.197 2457.06 127.111 2567.71 159.751C2750.79 208.661 2934.02 256.968 3116.88 306.725" stroke="white" stroke-width="3.75983" stroke-miterlimit="10"/>
<path d="M-745.67 -776.362C-487.515 -711.261 -233.249 -631.802 24.8119 -566.43C115.694 -544.3 200.105 -501.723 277.293 -449.534C341.377 -406.823 402.994 -360.052 471.022 -323.61C560.912 -275.336 661.135 -242.651 763.968 -243.678C937.17 -244.006 1106.73 -285.533 1277.45 -309.712C1409.76 -328.295 1549.08 -345.628 1677.65 -299.273C1888.72 -226.659 2053.68 -65.8535 2255.76 25.086C2364.77 72.7841 2483.25 93.2906 2596.97 126.88C2780.4 176.115 2963.91 225.058 3147.21 274.73" stroke="white" stroke-width="3.75983" stroke-miterlimit="10"/>
<path d="M-757.586 -816.596C-500.233 -747.456 -242.998 -677.894 14.3512 -608.737C106.056 -586.237 192.175 -545.452 270.668 -493.368C416.963 -392.394 573.953 -282.512 759.187 -283.186C938.501 -281.257 1114.48 -322.693 1291.47 -345.865C1423.51 -362.549 1562.66 -380.156 1690.71 -333.914C1903.52 -259.834 2072.82 -101.603 2277.1 -9.97603C2385.98 38.2081 2504.42 58.8281 2618.19 92.3617C2804.78 142.589 2991.36 192.812 3177.94 243.072" stroke="white" stroke-width="3.75983" stroke-miterlimit="10"/>
</g>
</g>
</mask>
<g mask="url(#mask0_57_8355)">
<g filter="url(#filter0_f_57_8355)">
<mask id="mask2_57_8355" style="mask-type:alpha" maskUnits="userSpaceOnUse" x="-216" y="3" width="2458" height="1653">
<path d="M-215.5 1398.91C375.5 1162.91 937.5 596.905 937.5 3.90527H985.5C985.5 596.299 1642 1189.91 2241.5 1398.91V1655.41H-205.5L-215.5 1398.91Z" fill="#9E3EFF"/>
</mask>
<g mask="url(#mask2_57_8355)">
<g filter="url(#filter1_f_57_8355)">
<ellipse cx="1100.7" cy="857.831" rx="1100.7" ry="857.831" transform="matrix(1 0 0 -1 -175.502 992.595)" fill="#E7FF54"/>
<g filter="url(#filter2_f_57_8355)">
<ellipse cx="836.699" cy="439.762" rx="836.699" ry="439.762" transform="matrix(1 0 0 -1 -188.997 1138.53)" fill="#FEE355"/>
</g>
<g filter="url(#filter3_f_57_8355)">
<ellipse cx="967.433" cy="508.783" rx="967.433" ry="508.783" transform="matrix(1 0 0 -1 200.676 318.162)" fill="#705DFC"/>
</g>
<g filter="url(#filter4_f_57_8355)">
<ellipse cx="438.146" cy="230.394" rx="438.146" ry="230.394" transform="matrix(1 0 0 -1 153.443 -134.088)" fill="#48D2E6"/>
</g>
<g filter="url(#filter5_f_57_8355)">
<ellipse cx="548.24" cy="287.916" rx="548.24" ry="287.916" transform="matrix(1 0 0 -1 -65.8525 491.701)" fill="#BF4FC1"/>
</g>
<g filter="url(#filter6_f_57_8355)">
<ellipse cx="516.189" cy="271.482" rx="516.189" ry="271.482" transform="matrix(1 0 0 -1 642.642 617.911)" fill="#EB3E90"/>
</g>
</g>
</g>
</g>
</g>
<defs>
<filter id="filter0_f_57_8355" x="-453.115" y="-260.213" width="2852.77" height="1662.86" filterUnits="userSpaceOnUse" color-interpolation-filters="sRGB">
<feFlood flood-opacity="0" result="BackgroundImageFix"/>
<feBlend mode="normal" in="SourceGraphic" in2="BackgroundImageFix" result="shape"/>
<feGaussianBlur stdDeviation="132.059" result="effect1_foregroundBlur_57_8355"/>
</filter>
<filter id="filter1_f_57_8355" x="-695.065" y="-1850.57" width="3336.67" height="3495.16" filterUnits="userSpaceOnUse" color-interpolation-filters="sRGB">
<feFlood flood-opacity="0" result="BackgroundImageFix"/>
<feBlend mode="normal" in="SourceGraphic" in2="BackgroundImageFix" result="shape"/>
<feGaussianBlur stdDeviation="253.034" result="effect1_foregroundBlur_57_8355"/>
</filter>
<filter id="filter2_f_57_8355" x="-422.675" y="25.3242" width="2140.75" height="1346.88" filterUnits="userSpaceOnUse" color-interpolation-filters="sRGB">
<feFlood flood-opacity="0" result="BackgroundImageFix"/>
<feBlend mode="normal" in="SourceGraphic" in2="BackgroundImageFix" result="shape"/>
<feGaussianBlur stdDeviation="116.839" result="effect1_foregroundBlur_57_8355"/>
</filter>
<filter id="filter3_f_57_8355" x="-33.0019" y="-933.081" width="2402.22" height="1484.92" filterUnits="userSpaceOnUse" color-interpolation-filters="sRGB">
<feFlood flood-opacity="0" result="BackgroundImageFix"/>
<feBlend mode="normal" in="SourceGraphic" in2="BackgroundImageFix" result="shape"/>
<feGaussianBlur stdDeviation="116.839" result="effect1_foregroundBlur_57_8355"/>
</filter>
<filter id="filter4_f_57_8355" x="-80.2344" y="-828.554" width="1343.65" height="928.144" filterUnits="userSpaceOnUse" color-interpolation-filters="sRGB">
<feFlood flood-opacity="0" result="BackgroundImageFix"/>
<feBlend mode="normal" in="SourceGraphic" in2="BackgroundImageFix" result="shape"/>
<feGaussianBlur stdDeviation="116.839" result="effect1_foregroundBlur_57_8355"/>
</filter>
<filter id="filter5_f_57_8355" x="-299.53" y="-317.809" width="1563.83" height="1043.19" filterUnits="userSpaceOnUse" color-interpolation-filters="sRGB">
<feFlood flood-opacity="0" result="BackgroundImageFix"/>
<feBlend mode="normal" in="SourceGraphic" in2="BackgroundImageFix" result="shape"/>
<feGaussianBlur stdDeviation="116.839" result="effect1_foregroundBlur_57_8355"/>
</filter>
<filter id="filter6_f_57_8355" x="408.964" y="-158.731" width="1499.73" height="1010.32" filterUnits="userSpaceOnUse" color-interpolation-filters="sRGB">
<feFlood flood-opacity="0" result="BackgroundImageFix"/>
<feBlend mode="normal" in="SourceGraphic" in2="BackgroundImageFix" result="shape"/>
<feGaussianBlur stdDeviation="116.839" result="effect1_foregroundBlur_57_8355"/>
</filter>
</defs>
</svg>
