<svg width="249" height="177" viewBox="0 0 249 177" fill="none" xmlns="http://www.w3.org/2000/svg">
<rect width="249" height="177" rx="15" fill="url(#paint0_linear_807_3030)" fill-opacity="0.15"/>
<rect width="249" height="177" rx="15" fill="black" fill-opacity="0.16"/>
<path d="M26.4091 35V23.3636H27.8182V28.5455H34.0227V23.3636H35.4318V35H34.0227V29.7955H27.8182V35H26.4091ZM38.391 35V26.2727H39.7319V35H38.391ZM39.0728 24.8182C38.8115 24.8182 38.5861 24.7292 38.3967 24.5511C38.2111 24.3731 38.1183 24.1591 38.1183 23.9091C38.1183 23.6591 38.2111 23.4451 38.3967 23.267C38.5861 23.089 38.8115 23 39.0728 23C39.3342 23 39.5577 23.089 39.7433 23.267C39.9327 23.4451 40.0274 23.6591 40.0274 23.9091C40.0274 24.1591 39.9327 24.3731 39.7433 24.5511C39.5577 24.7292 39.3342 24.8182 39.0728 24.8182ZM48.6897 28.2273L47.4852 28.5682C47.4094 28.3674 47.2977 28.1723 47.1499 27.983C47.006 27.7898 46.809 27.6307 46.559 27.5057C46.309 27.3807 45.989 27.3182 45.5988 27.3182C45.0647 27.3182 44.6196 27.4413 44.2636 27.6875C43.9113 27.9299 43.7352 28.2386 43.7352 28.6136C43.7352 28.947 43.8564 29.2102 44.0988 29.4034C44.3412 29.5966 44.72 29.7576 45.2352 29.8864L46.5306 30.2045C47.3109 30.3939 47.8924 30.6837 48.2749 31.0739C48.6575 31.4602 48.8488 31.9583 48.8488 32.5682C48.8488 33.0682 48.7049 33.5152 48.417 33.9091C48.1329 34.303 47.7352 34.6136 47.2238 34.8409C46.7124 35.0682 46.1177 35.1818 45.4397 35.1818C44.5496 35.1818 43.8128 34.9886 43.2295 34.6023C42.6462 34.2159 42.2768 33.6515 42.1215 32.9091L43.3943 32.5909C43.5155 33.0606 43.7446 33.4129 44.0818 33.6477C44.4227 33.8826 44.8677 34 45.417 34C46.042 34 46.5382 33.8674 46.9056 33.6023C47.2768 33.3333 47.4624 33.0114 47.4624 32.6364C47.4624 32.3333 47.3564 32.0795 47.1443 31.875C46.9321 31.6667 46.6064 31.5114 46.167 31.4091L44.7124 31.0682C43.9132 30.8788 43.3261 30.5852 42.9511 30.1875C42.5799 29.786 42.3943 29.2841 42.3943 28.6818C42.3943 28.1894 42.5325 27.7538 42.809 27.375C43.0893 26.9962 43.47 26.6989 43.9511 26.483C44.4359 26.267 44.9852 26.1591 45.5988 26.1591C46.4624 26.1591 47.1405 26.3485 47.6329 26.7273C48.1291 27.1061 48.4814 27.6061 48.6897 28.2273ZM54.9827 26.2727V27.4091H50.46V26.2727H54.9827ZM51.7782 24.1818H53.1191V32.5C53.1191 32.8788 53.174 33.1629 53.2839 33.3523C53.3975 33.5379 53.5414 33.6629 53.7157 33.7273C53.8937 33.7879 54.0812 33.8182 54.2782 33.8182C54.4259 33.8182 54.5471 33.8106 54.6418 33.7955C54.7365 33.7765 54.8123 33.7614 54.8691 33.75L55.1418 34.9545C55.0509 34.9886 54.924 35.0227 54.7611 35.0568C54.5983 35.0947 54.3918 35.1136 54.1418 35.1136C53.763 35.1136 53.3918 35.0322 53.0282 34.8693C52.6683 34.7064 52.3691 34.4583 52.1305 34.125C51.8956 33.7917 51.7782 33.3712 51.7782 32.8636V24.1818ZM60.7715 35.1818C59.9836 35.1818 59.2923 34.9943 58.6976 34.6193C58.1067 34.2443 57.6446 33.7197 57.3113 33.0455C56.9817 32.3712 56.8169 31.5833 56.8169 30.6818C56.8169 29.7727 56.9817 28.9792 57.3113 28.3011C57.6446 27.6231 58.1067 27.0966 58.6976 26.7216C59.2923 26.3466 59.9836 26.1591 60.7715 26.1591C61.5594 26.1591 62.2488 26.3466 62.8397 26.7216C63.4344 27.0966 63.8965 27.6231 64.226 28.3011C64.5594 28.9792 64.726 29.7727 64.726 30.6818C64.726 31.5833 64.5594 32.3712 64.226 33.0455C63.8965 33.7197 63.4344 34.2443 62.8397 34.6193C62.2488 34.9943 61.5594 35.1818 60.7715 35.1818ZM60.7715 33.9773C61.37 33.9773 61.8624 33.8239 62.2488 33.517C62.6351 33.2102 62.9211 32.8068 63.1067 32.3068C63.2923 31.8068 63.3851 31.2652 63.3851 30.6818C63.3851 30.0985 63.2923 29.5549 63.1067 29.0511C62.9211 28.5473 62.6351 28.1402 62.2488 27.8295C61.8624 27.5189 61.37 27.3636 60.7715 27.3636C60.173 27.3636 59.6806 27.5189 59.2942 27.8295C58.9078 28.1402 58.6219 28.5473 58.4363 29.0511C58.2506 29.5549 58.1578 30.0985 58.1578 30.6818C58.1578 31.2652 58.2506 31.8068 58.4363 32.3068C58.6219 32.8068 58.9078 33.2102 59.2942 33.517C59.6806 33.8239 60.173 33.9773 60.7715 33.9773ZM67.0929 35V26.2727H68.3884V27.5909H68.4793C68.6384 27.1591 68.9262 26.8087 69.3429 26.5398C69.7596 26.2708 70.2293 26.1364 70.752 26.1364C70.8505 26.1364 70.9736 26.1383 71.1213 26.142C71.269 26.1458 71.3808 26.1515 71.4565 26.1591V27.5227C71.4111 27.5114 71.3069 27.4943 71.144 27.4716C70.9849 27.4451 70.8164 27.4318 70.6384 27.4318C70.2141 27.4318 69.8353 27.5208 69.502 27.6989C69.1724 27.8731 68.9111 28.1155 68.7179 28.4261C68.5285 28.733 68.4338 29.0833 68.4338 29.4773V35H67.0929ZM73.366 35V26.2727H74.7069V35H73.366ZM74.0478 24.8182C73.7865 24.8182 73.5611 24.7292 73.3717 24.5511C73.1861 24.3731 73.0933 24.1591 73.0933 23.9091C73.0933 23.6591 73.1861 23.4451 73.3717 23.267C73.5611 23.089 73.7865 23 74.0478 23C74.3092 23 74.5327 23.089 74.7183 23.267C74.9077 23.4451 75.0024 23.6591 75.0024 23.9091C75.0024 24.1591 74.9077 24.3731 74.7183 24.5511C74.5327 24.7292 74.3092 24.8182 74.0478 24.8182ZM81.0284 35.1818C80.2102 35.1818 79.5056 34.9886 78.9147 34.6023C78.3238 34.2159 77.8693 33.6837 77.5511 33.0057C77.2329 32.3277 77.0738 31.553 77.0738 30.6818C77.0738 29.7955 77.2367 29.0133 77.5624 28.3352C77.892 27.6534 78.3503 27.1212 78.9374 26.7386C79.5284 26.3523 80.2177 26.1591 81.0056 26.1591C81.6193 26.1591 82.1723 26.2727 82.6647 26.5C83.1571 26.7273 83.5606 27.0455 83.8749 27.4545C84.1893 27.8636 84.3844 28.3409 84.4602 28.8864H83.1193C83.017 28.4886 82.7897 28.1364 82.4374 27.8295C82.089 27.5189 81.6193 27.3636 81.0284 27.3636C80.5056 27.3636 80.0473 27.5 79.6534 27.7727C79.2632 28.0417 78.9583 28.4223 78.7386 28.9148C78.5227 29.4034 78.4147 29.9773 78.4147 30.6364C78.4147 31.3106 78.5208 31.8977 78.7329 32.3977C78.9488 32.8977 79.2518 33.286 79.642 33.5625C80.0359 33.839 80.4981 33.9773 81.0284 33.9773C81.3768 33.9773 81.6931 33.9167 81.9772 33.7955C82.2613 33.6742 82.5018 33.5 82.6988 33.2727C82.8958 33.0455 83.0359 32.7727 83.1193 32.4545H84.4602C84.3844 32.9697 84.1969 33.4337 83.8977 33.8466C83.6022 34.2557 83.2102 34.5814 82.7215 34.8239C82.2367 35.0625 81.6723 35.1818 81.0284 35.1818ZM89.3086 35.2045C88.7556 35.2045 88.2537 35.1004 87.8029 34.892C87.3521 34.6799 86.9942 34.375 86.729 33.9773C86.4639 33.5758 86.3313 33.0909 86.3313 32.5227C86.3313 32.0227 86.4298 31.6174 86.6268 31.3068C86.8237 30.9924 87.087 30.7462 87.4165 30.5682C87.7461 30.3902 88.1097 30.2576 88.5074 30.1705C88.909 30.0795 89.3124 30.0076 89.7177 29.9545C90.248 29.8864 90.6779 29.8352 91.0074 29.8011C91.3408 29.7633 91.5832 29.7008 91.7347 29.6136C91.89 29.5265 91.9677 29.375 91.9677 29.1591V29.1136C91.9677 28.553 91.8143 28.1174 91.5074 27.8068C91.2044 27.4962 90.7442 27.3409 90.1268 27.3409C89.4866 27.3409 88.9847 27.4811 88.6211 27.7614C88.2574 28.0417 88.0018 28.3409 87.854 28.6591L86.5813 28.2045C86.8086 27.6742 87.1116 27.2614 87.4904 26.9659C87.873 26.6667 88.2896 26.4583 88.7404 26.3409C89.1949 26.2197 89.6419 26.1591 90.0813 26.1591C90.3616 26.1591 90.6836 26.1932 91.0472 26.2614C91.4146 26.3258 91.7688 26.4602 92.1097 26.6648C92.4544 26.8693 92.7404 27.178 92.9677 27.5909C93.1949 28.0038 93.3086 28.5568 93.3086 29.25V35H91.9677V33.8182H91.8995C91.8086 34.0076 91.6571 34.2102 91.4449 34.4261C91.2328 34.642 90.9506 34.8258 90.5984 34.9773C90.2461 35.1288 89.8162 35.2045 89.3086 35.2045ZM89.5131 34C90.0434 34 90.4904 33.8958 90.854 33.6875C91.2215 33.4792 91.498 33.2102 91.6836 32.8807C91.873 32.5511 91.9677 32.2045 91.9677 31.8409V30.6136C91.9109 30.6818 91.7859 30.7443 91.5927 30.8011C91.4033 30.8542 91.1836 30.9015 90.9336 30.9432C90.6874 30.9811 90.4468 31.0152 90.212 31.0455C89.9809 31.072 89.7934 31.0947 89.6495 31.1136C89.301 31.1591 88.9752 31.233 88.6722 31.3352C88.373 31.4337 88.1306 31.5833 87.9449 31.7841C87.7631 31.9811 87.6722 32.25 87.6722 32.5909C87.6722 33.0568 87.8446 33.4091 88.1893 33.6477C88.5377 33.8826 88.979 34 89.5131 34ZM97.4169 23.3636V35H96.076V23.3636H97.4169ZM111.558 26.2727C111.49 25.697 111.214 25.25 110.729 24.9318C110.244 24.6136 109.649 24.4545 108.945 24.4545C108.43 24.4545 107.979 24.5379 107.592 24.7045C107.21 24.8712 106.911 25.1004 106.695 25.392C106.483 25.6837 106.377 26.0152 106.377 26.3864C106.377 26.697 106.45 26.964 106.598 27.1875C106.75 27.4072 106.943 27.5909 107.178 27.7386C107.413 27.8826 107.659 28.0019 107.916 28.0966C108.174 28.1875 108.411 28.2614 108.627 28.3182L109.808 28.6364C110.111 28.7159 110.449 28.8258 110.82 28.9659C111.195 29.1061 111.553 29.2973 111.894 29.5398C112.238 29.7784 112.522 30.0852 112.746 30.4602C112.969 30.8352 113.081 31.2955 113.081 31.8409C113.081 32.4697 112.916 33.0379 112.587 33.5455C112.261 34.053 111.784 34.4564 111.155 34.7557C110.53 35.0549 109.77 35.2045 108.877 35.2045C108.043 35.2045 107.322 35.0701 106.712 34.8011C106.106 34.5322 105.628 34.1572 105.28 33.6761C104.935 33.1951 104.74 32.6364 104.695 32H106.149C106.187 32.4394 106.335 32.803 106.592 33.0909C106.854 33.375 107.183 33.5871 107.581 33.7273C107.983 33.8636 108.414 33.9318 108.877 33.9318C109.414 33.9318 109.897 33.8447 110.325 33.6705C110.753 33.4924 111.092 33.2462 111.342 32.9318C111.592 32.6136 111.717 32.2424 111.717 31.8182C111.717 31.4318 111.609 31.1174 111.394 30.875C111.178 30.6326 110.894 30.4356 110.541 30.2841C110.189 30.1326 109.808 30 109.399 29.8864L107.967 29.4773C107.058 29.2159 106.339 28.8428 105.808 28.358C105.278 27.8731 105.013 27.2386 105.013 26.4545C105.013 25.803 105.189 25.2348 105.541 24.75C105.897 24.2614 106.375 23.8826 106.973 23.6136C107.575 23.3409 108.248 23.2045 108.99 23.2045C109.74 23.2045 110.407 23.339 110.99 23.608C111.574 23.8731 112.036 24.2367 112.377 24.6989C112.721 25.161 112.903 25.6856 112.922 26.2727H111.558ZM118.104 35.2045C117.551 35.2045 117.049 35.1004 116.599 34.892C116.148 34.6799 115.79 34.375 115.525 33.9773C115.26 33.5758 115.127 33.0909 115.127 32.5227C115.127 32.0227 115.225 31.6174 115.422 31.3068C115.619 30.9924 115.883 30.7462 116.212 30.5682C116.542 30.3902 116.905 30.2576 117.303 30.1705C117.705 30.0795 118.108 30.0076 118.513 29.9545C119.044 29.8864 119.474 29.8352 119.803 29.8011C120.136 29.7633 120.379 29.7008 120.53 29.6136C120.686 29.5265 120.763 29.375 120.763 29.1591V29.1136C120.763 28.553 120.61 28.1174 120.303 27.8068C120 27.4962 119.54 27.3409 118.922 27.3409C118.282 27.3409 117.78 27.4811 117.417 27.7614C117.053 28.0417 116.797 28.3409 116.65 28.6591L115.377 28.2045C115.604 27.6742 115.907 27.2614 116.286 26.9659C116.669 26.6667 117.085 26.4583 117.536 26.3409C117.991 26.2197 118.438 26.1591 118.877 26.1591C119.157 26.1591 119.479 26.1932 119.843 26.2614C120.21 26.3258 120.564 26.4602 120.905 26.6648C121.25 26.8693 121.536 27.178 121.763 27.5909C121.991 28.0038 122.104 28.5568 122.104 29.25V35H120.763V33.8182H120.695C120.604 34.0076 120.453 34.2102 120.241 34.4261C120.028 34.642 119.746 34.8258 119.394 34.9773C119.042 35.1288 118.612 35.2045 118.104 35.2045ZM118.309 34C118.839 34 119.286 33.8958 119.65 33.6875C120.017 33.4792 120.294 33.2102 120.479 32.8807C120.669 32.5511 120.763 32.2045 120.763 31.8409V30.6136C120.706 30.6818 120.581 30.7443 120.388 30.8011C120.199 30.8542 119.979 30.9015 119.729 30.9432C119.483 30.9811 119.242 31.0152 119.008 31.0455C118.777 31.072 118.589 31.0947 118.445 31.1136C118.097 31.1591 117.771 31.233 117.468 31.3352C117.169 31.4337 116.926 31.5833 116.741 31.7841C116.559 31.9811 116.468 32.25 116.468 32.5909C116.468 33.0568 116.64 33.4091 116.985 33.6477C117.333 33.8826 117.775 34 118.309 34ZM126.213 23.3636V35H124.872V23.3636H126.213ZM132.648 35.1818C131.807 35.1818 131.081 34.9962 130.471 34.625C129.865 34.25 129.398 33.7273 129.068 33.0568C128.742 32.3826 128.579 31.5985 128.579 30.7045C128.579 29.8106 128.742 29.0227 129.068 28.3409C129.398 27.6553 129.856 27.1212 130.443 26.7386C131.034 26.3523 131.723 26.1591 132.511 26.1591C132.966 26.1591 133.415 26.2348 133.858 26.3864C134.301 26.5379 134.704 26.7841 135.068 27.125C135.432 27.4621 135.721 27.9091 135.937 28.4659C136.153 29.0227 136.261 29.7083 136.261 30.5227V31.0909H129.534V29.9318H134.898C134.898 29.4394 134.799 29 134.602 28.6136C134.409 28.2273 134.132 27.9223 133.773 27.6989C133.417 27.4754 132.996 27.3636 132.511 27.3636C131.977 27.3636 131.515 27.4962 131.125 27.7614C130.739 28.0227 130.441 28.3636 130.233 28.7841C130.025 29.2045 129.92 29.6553 129.92 30.1364V30.9091C129.92 31.5682 130.034 32.1269 130.261 32.5852C130.492 33.0398 130.812 33.3864 131.221 33.625C131.631 33.8598 132.106 33.9773 132.648 33.9773C133 33.9773 133.318 33.928 133.602 33.8295C133.89 33.7273 134.138 33.5758 134.346 33.375C134.555 33.1705 134.716 32.9167 134.829 32.6136L136.125 32.9773C135.989 33.4167 135.759 33.803 135.437 34.1364C135.115 34.4659 134.718 34.7235 134.244 34.9091C133.771 35.0909 133.239 35.1818 132.648 35.1818ZM144.803 28.2273L143.598 28.5682C143.523 28.3674 143.411 28.1723 143.263 27.983C143.119 27.7898 142.922 27.6307 142.672 27.5057C142.422 27.3807 142.102 27.3182 141.712 27.3182C141.178 27.3182 140.733 27.4413 140.377 27.6875C140.024 27.9299 139.848 28.2386 139.848 28.6136C139.848 28.947 139.97 29.2102 140.212 29.4034C140.454 29.5966 140.833 29.7576 141.348 29.8864L142.644 30.2045C143.424 30.3939 144.005 30.6837 144.388 31.0739C144.771 31.4602 144.962 31.9583 144.962 32.5682C144.962 33.0682 144.818 33.5152 144.53 33.9091C144.246 34.303 143.848 34.6136 143.337 34.8409C142.826 35.0682 142.231 35.1818 141.553 35.1818C140.663 35.1818 139.926 34.9886 139.343 34.6023C138.759 34.2159 138.39 33.6515 138.235 32.9091L139.507 32.5909C139.629 33.0606 139.858 33.4129 140.195 33.6477C140.536 33.8826 140.981 34 141.53 34C142.155 34 142.651 33.8674 143.019 33.6023C143.39 33.3333 143.576 33.0114 143.576 32.6364C143.576 32.3333 143.47 32.0795 143.257 31.875C143.045 31.6667 142.72 31.5114 142.28 31.4091L140.826 31.0682C140.026 30.8788 139.439 30.5852 139.064 30.1875C138.693 29.786 138.507 29.2841 138.507 28.6818C138.507 28.1894 138.646 27.7538 138.922 27.375C139.202 26.9962 139.583 26.6989 140.064 26.483C140.549 26.267 141.098 26.1591 141.712 26.1591C142.576 26.1591 143.254 26.3485 143.746 26.7273C144.242 27.1061 144.595 27.6061 144.803 28.2273Z" fill="#D3ADE6" fill-opacity="0.5"/>
<rect x="22" y="133" width="103" height="19" rx="7.6333" fill="#C6A3F2" fill-opacity="0.1"/>
<rect x="182" y="133" width="40" height="19" rx="7.6333" fill="#C6A3F2" fill-opacity="0.2"/>
<rect opacity="0.2" x="25" y="70" width="29" height="41" rx="4" fill="#B69FF4" fill-opacity="0.5"/>
<rect opacity="0.4" x="59" y="85" width="29" height="26" rx="4" fill="#B69FF4" fill-opacity="0.5"/>
<rect opacity="0.6" x="93" y="77" width="29" height="34" rx="4" fill="#B69FF4" fill-opacity="0.5"/>
<rect opacity="0.8" x="127" y="57" width="29" height="54" rx="4" fill="#B69FF4" fill-opacity="0.5"/>
<rect x="161" y="93" width="29" height="18" rx="4" fill="#B69FF4" fill-opacity="0.5"/>
<path d="M195 50C195 47.7909 196.791 46 199 46H220C222.209 46 224 47.7909 224 50V107C224 109.209 222.209 111 220 111H199C196.791 111 195 109.209 195 107V50Z" fill="#B69FF4" fill-opacity="0.5"/>
<defs>
<linearGradient id="paint0_linear_807_3030" x1="-84.0001" y1="-126.5" x2="-14.8486" y2="303.295" gradientUnits="userSpaceOnUse">
<stop stop-color="#3532E6"/>
<stop offset="1" stop-color="#221A78" stop-opacity="0"/>
</linearGradient>
</defs>
</svg>
