<svg width="260" height="332" viewBox="0 0 260 332" fill="none" xmlns="http://www.w3.org/2000/svg">
<rect width="260" height="332" rx="16" fill="url(#paint0_linear_807_3224)" fill-opacity="0.4"/>
<rect x="14.8225" y="14.8223" width="230.356" height="92.1423" rx="8" fill="url(#paint1_linear_807_3224)" fill-opacity="0.3"/>
<rect x="32.4666" y="30.5059" width="139.194" height="10.7826" rx="5.3913" fill="#A9B8EE" fill-opacity="0.1"/>
<rect x="32.4666" y="50.1113" width="59.7945" height="10.7826" rx="5.3913" fill="#A9B8EE" fill-opacity="0.1"/>
<rect x="158.917" y="72.6562" width="74.498" height="22.5455" rx="5.88142" fill="#A0B5FF" fill-opacity="0.3"/>
<path d="M41.2002 108.801V120.801" stroke="#A9B8EE" stroke-opacity="0.15" stroke-width="1.85263" stroke-linecap="square" stroke-dasharray="5.56 9.26"/>
<g opacity="0.5">
<path d="M50.3424 133.98C50.3332 136.32 49.4453 138.657 47.6603 140.442C44.0718 144.03 38.2526 144.03 34.6641 140.442C34.0254 139.803 33.5062 139.092 33.095 138.339" stroke="#A9B8EE" stroke-width="1.72302" stroke-linecap="round" stroke-linejoin="round"/>
<path d="M31.9778 133.794C32.0145 131.492 32.9082 129.202 34.6645 127.445C38.253 123.857 44.0723 123.857 47.6607 127.445C48.2994 128.084 48.8186 128.795 49.2298 129.549" stroke="#A9B8EE" stroke-width="1.72302" stroke-linecap="round" stroke-linejoin="round"/>
<path d="M45.7036 129.55H49.7642V125.488" stroke="#A9B8EE" stroke-width="1.72302" stroke-linecap="round" stroke-linejoin="round"/>
<path d="M36.6216 138.338H32.561V142.4" stroke="#A9B8EE" stroke-width="1.72302" stroke-linecap="round" stroke-linejoin="round"/>
</g>
<path opacity="0.75" d="M70.9604 131.862C70.9012 131.362 70.6611 130.974 70.2401 130.698C69.819 130.422 69.3026 130.284 68.6907 130.284C68.2433 130.284 67.8519 130.356 67.5164 130.501C67.1841 130.645 66.9243 130.844 66.7368 131.098C66.5526 131.351 66.4604 131.639 66.4604 131.961C66.4604 132.231 66.5246 132.463 66.6529 132.657C66.7845 132.848 66.9522 133.007 67.1562 133.135C67.3601 133.26 67.5739 133.364 67.7976 133.446C68.0213 133.525 68.2269 133.589 68.4144 133.639L69.4407 133.915C69.7039 133.984 69.9966 134.08 70.319 134.201C70.6447 134.323 70.9555 134.489 71.2516 134.7C71.5509 134.907 71.7976 135.173 71.9917 135.499C72.1858 135.825 72.2828 136.224 72.2828 136.698C72.2828 137.244 72.1397 137.737 71.8535 138.178C71.5706 138.619 71.1562 138.969 70.6101 139.229C70.0674 139.489 69.4078 139.619 68.6315 139.619C67.9078 139.619 67.2812 139.502 66.7516 139.269C66.2253 139.035 65.8108 138.709 65.5081 138.292C65.2088 137.874 65.0394 137.389 64.9999 136.836H66.2631C66.296 137.218 66.4243 137.534 66.6479 137.784C66.8749 138.03 67.1611 138.214 67.5065 138.336C67.8552 138.455 68.2302 138.514 68.6315 138.514C69.0986 138.514 69.518 138.438 69.8897 138.287C70.2614 138.132 70.5558 137.918 70.7729 137.645C70.9901 137.369 71.0986 137.047 71.0986 136.678C71.0986 136.343 71.0049 136.07 70.8174 135.859C70.6299 135.649 70.3831 135.478 70.0772 135.346C69.7713 135.214 69.4407 135.099 69.0854 135.001L67.842 134.645C67.0526 134.418 66.4276 134.094 65.967 133.673C65.5065 133.252 65.2762 132.701 65.2762 132.02C65.2762 131.455 65.4292 130.961 65.7351 130.54C66.0443 130.116 66.4588 129.787 66.9785 129.553C67.5016 129.316 68.0854 129.198 68.7302 129.198C69.3815 129.198 69.9604 129.315 70.467 129.548C70.9736 129.779 71.3749 130.094 71.671 130.496C71.9703 130.897 72.1282 131.353 72.1447 131.862H70.9604ZM77.7108 131.862V132.849H73.7832V131.862H77.7108ZM74.9279 130.047H76.0924V137.27C76.0924 137.599 76.1401 137.846 76.2355 138.01C76.3342 138.172 76.4592 138.28 76.6105 138.336C76.7651 138.389 76.9279 138.415 77.099 138.415C77.2272 138.415 77.3325 138.409 77.4147 138.395C77.497 138.379 77.5628 138.366 77.6121 138.356L77.849 139.402C77.77 139.432 77.6598 139.461 77.5184 139.491C77.3769 139.524 77.1976 139.54 76.9805 139.54C76.6516 139.54 76.3292 139.469 76.0134 139.328C75.7009 139.186 75.4411 138.971 75.2338 138.682C75.0299 138.392 74.9279 138.027 74.9279 137.586V130.047ZM81.9706 139.619C81.4903 139.619 81.0545 139.529 80.663 139.348C80.2716 139.163 79.9607 138.899 79.7305 138.553C79.5002 138.205 79.3851 137.784 79.3851 137.29C79.3851 136.856 79.4706 136.504 79.6417 136.234C79.8127 135.961 80.0413 135.747 80.3275 135.593C80.6137 135.438 80.9295 135.323 81.2749 135.247C81.6236 135.168 81.9739 135.106 82.3259 135.06C82.7864 135.001 83.1597 134.956 83.4459 134.927C83.7354 134.894 83.9459 134.839 84.0775 134.764C84.2124 134.688 84.2798 134.557 84.2798 134.369V134.33C84.2798 133.843 84.1466 133.464 83.8801 133.195C83.617 132.925 83.2173 132.79 82.6811 132.79C82.1252 132.79 81.6893 132.912 81.3736 133.155C81.0578 133.399 80.8357 133.659 80.7074 133.935L79.6022 133.54C79.7995 133.08 80.0627 132.721 80.3917 132.464C80.7239 132.205 81.0857 132.024 81.4772 131.922C81.8719 131.816 82.2601 131.764 82.6417 131.764C82.8851 131.764 83.1647 131.793 83.4805 131.853C83.7995 131.909 84.1071 132.025 84.4032 132.203C84.7025 132.381 84.9509 132.649 85.1482 133.007C85.3456 133.366 85.4443 133.846 85.4443 134.448V139.441H84.2798V138.415H84.2206C84.1417 138.58 84.0101 138.756 83.8259 138.943C83.6417 139.131 83.3966 139.29 83.0907 139.422C82.7847 139.553 82.4114 139.619 81.9706 139.619ZM82.1482 138.573C82.6088 138.573 82.9969 138.483 83.3127 138.302C83.6318 138.121 83.8719 137.887 84.0331 137.601C84.1976 137.315 84.2798 137.014 84.2798 136.698V135.632C84.2305 135.691 84.1219 135.746 83.9542 135.795C83.7897 135.841 83.5989 135.882 83.3818 135.918C83.168 135.951 82.9591 135.981 82.7551 136.007C82.5545 136.03 82.3917 136.05 82.2667 136.066C81.964 136.106 81.6811 136.17 81.418 136.259C81.1581 136.344 80.9476 136.474 80.7864 136.649C80.6285 136.82 80.5495 137.053 80.5495 137.349C80.5495 137.754 80.6992 138.06 80.9986 138.267C81.3012 138.471 81.6844 138.573 82.1482 138.573ZM91.1436 131.862V132.849H87.216V131.862H91.1436ZM88.3607 130.047H89.5252V137.27C89.5252 137.599 89.5729 137.846 89.6683 138.01C89.767 138.172 89.892 138.28 90.0433 138.336C90.1979 138.389 90.3607 138.415 90.5318 138.415C90.6601 138.415 90.7654 138.409 90.8476 138.395C90.9298 138.379 90.9956 138.366 91.045 138.356L91.2818 139.402C91.2029 139.432 91.0927 139.461 90.9512 139.491C90.8098 139.524 90.6305 139.54 90.4134 139.54C90.0844 139.54 89.7621 139.469 89.4463 139.328C89.1338 139.186 88.8739 138.971 88.6667 138.682C88.4627 138.392 88.3607 138.027 88.3607 137.586V130.047ZM97.9495 136.343V131.862H99.114V139.441H97.9495V138.159H97.8705C97.6929 138.543 97.4166 138.871 97.0416 139.14C96.6666 139.407 96.1929 139.54 95.6205 139.54C95.1469 139.54 94.7258 139.436 94.3574 139.229C93.989 139.019 93.6995 138.703 93.489 138.282C93.2784 137.858 93.1732 137.323 93.1732 136.678V131.862H94.3377V136.599C94.3377 137.152 94.4923 137.593 94.8015 137.922C95.114 138.251 95.512 138.415 95.9955 138.415C96.285 138.415 96.5794 138.341 96.8788 138.193C97.1814 138.045 97.4347 137.818 97.6386 137.512C97.8459 137.206 97.9495 136.816 97.9495 136.343ZM106.893 133.56L105.847 133.856C105.781 133.682 105.684 133.512 105.556 133.348C105.431 133.18 105.26 133.042 105.043 132.933C104.826 132.825 104.548 132.77 104.209 132.77C103.745 132.77 103.359 132.877 103.049 133.091C102.743 133.302 102.59 133.57 102.59 133.895C102.59 134.185 102.696 134.413 102.906 134.581C103.117 134.749 103.446 134.889 103.893 135.001L105.018 135.277C105.696 135.441 106.201 135.693 106.533 136.032C106.865 136.367 107.031 136.8 107.031 137.33C107.031 137.764 106.906 138.152 106.656 138.494C106.41 138.836 106.064 139.106 105.62 139.303C105.176 139.501 104.66 139.599 104.071 139.599C103.298 139.599 102.658 139.432 102.151 139.096C101.645 138.76 101.324 138.27 101.189 137.626L102.294 137.349C102.4 137.757 102.599 138.063 102.891 138.267C103.188 138.471 103.574 138.573 104.051 138.573C104.594 138.573 105.025 138.458 105.344 138.228C105.666 137.994 105.827 137.714 105.827 137.389C105.827 137.126 105.735 136.905 105.551 136.728C105.367 136.547 105.084 136.412 104.702 136.323L103.439 136.027C102.745 135.862 102.235 135.608 101.91 135.262C101.587 134.913 101.426 134.478 101.426 133.955C101.426 133.527 101.546 133.149 101.786 132.82C102.03 132.491 102.36 132.233 102.778 132.045C103.199 131.858 103.676 131.764 104.209 131.764C104.959 131.764 105.548 131.928 105.975 132.257C106.406 132.586 106.712 133.02 106.893 133.56ZM116.327 139.599C115.616 139.599 115.004 139.432 114.491 139.096C113.978 138.76 113.583 138.298 113.307 137.709C113.031 137.121 112.893 136.448 112.893 135.691C112.893 134.922 113.034 134.242 113.317 133.654C113.603 133.061 114.001 132.599 114.511 132.267C115.024 131.932 115.623 131.764 116.307 131.764C116.84 131.764 117.32 131.862 117.748 132.06C118.175 132.257 118.526 132.534 118.799 132.889C119.072 133.244 119.241 133.659 119.307 134.132H118.143C118.054 133.787 117.856 133.481 117.55 133.214C117.248 132.945 116.84 132.81 116.327 132.81C115.873 132.81 115.475 132.928 115.133 133.165C114.794 133.399 114.529 133.729 114.338 134.157C114.151 134.581 114.057 135.08 114.057 135.652C114.057 136.237 114.149 136.747 114.333 137.182C114.521 137.616 114.784 137.953 115.123 138.193C115.465 138.433 115.866 138.553 116.327 138.553C116.629 138.553 116.904 138.501 117.151 138.395C117.397 138.29 117.606 138.139 117.777 137.941C117.948 137.744 118.07 137.507 118.143 137.231H119.307C119.241 137.678 119.078 138.081 118.819 138.44C118.562 138.795 118.222 139.078 117.797 139.288C117.376 139.496 116.886 139.599 116.327 139.599ZM122.452 134.882V139.441H121.287V129.336H122.452V133.047H122.55C122.728 132.655 122.994 132.344 123.35 132.114C123.708 131.881 124.185 131.764 124.781 131.764C125.297 131.764 125.749 131.867 126.138 132.075C126.526 132.279 126.827 132.593 127.041 133.017C127.258 133.438 127.366 133.974 127.366 134.626V139.441H126.202V134.705C126.202 134.103 126.045 133.637 125.733 133.308C125.424 132.976 124.994 132.81 124.445 132.81C124.064 132.81 123.721 132.89 123.419 133.052C123.119 133.213 122.883 133.448 122.708 133.757C122.537 134.066 122.452 134.441 122.452 134.882ZM132.005 139.619C131.524 139.619 131.089 139.529 130.697 139.348C130.306 139.163 129.995 138.899 129.765 138.553C129.534 138.205 129.419 137.784 129.419 137.29C129.419 136.856 129.505 136.504 129.676 136.234C129.847 135.961 130.075 135.747 130.362 135.593C130.648 135.438 130.964 135.323 131.309 135.247C131.658 135.168 132.008 135.106 132.36 135.06C132.82 135.001 133.194 134.956 133.48 134.927C133.769 134.894 133.98 134.839 134.112 134.764C134.246 134.688 134.314 134.557 134.314 134.369V134.33C134.314 133.843 134.181 133.464 133.914 133.195C133.651 132.925 133.251 132.79 132.715 132.79C132.159 132.79 131.723 132.912 131.408 133.155C131.092 133.399 130.87 133.659 130.742 133.935L129.636 133.54C129.834 133.08 130.097 132.721 130.426 132.464C130.758 132.205 131.12 132.024 131.511 131.922C131.906 131.816 132.294 131.764 132.676 131.764C132.919 131.764 133.199 131.793 133.515 131.853C133.834 131.909 134.141 132.025 134.437 132.203C134.737 132.381 134.985 132.649 135.182 133.007C135.38 133.366 135.478 133.846 135.478 134.448V139.441H134.314V138.415H134.255C134.176 138.58 134.044 138.756 133.86 138.943C133.676 139.131 133.431 139.29 133.125 139.422C132.819 139.553 132.445 139.619 132.005 139.619ZM132.182 138.573C132.643 138.573 133.031 138.483 133.347 138.302C133.666 138.121 133.906 137.887 134.067 137.601C134.232 137.315 134.314 137.014 134.314 136.698V135.632C134.265 135.691 134.156 135.746 133.988 135.795C133.824 135.841 133.633 135.882 133.416 135.918C133.202 135.951 132.993 135.981 132.789 136.007C132.589 136.03 132.426 136.05 132.301 136.066C131.998 136.106 131.715 136.17 131.452 136.259C131.192 136.344 130.982 136.474 130.82 136.649C130.663 136.82 130.584 137.053 130.584 137.349C130.584 137.754 130.733 138.06 131.033 138.267C131.335 138.471 131.718 138.573 132.182 138.573ZM139.046 134.882V139.441H137.882V131.862H139.007V133.047H139.105C139.283 132.662 139.553 132.353 139.915 132.119C140.276 131.882 140.744 131.764 141.316 131.764C141.829 131.764 142.278 131.869 142.663 132.08C143.048 132.287 143.347 132.603 143.561 133.027C143.775 133.448 143.882 133.981 143.882 134.626V139.441H142.717V134.705C142.717 134.109 142.563 133.645 142.253 133.313C141.944 132.978 141.52 132.81 140.98 132.81C140.609 132.81 140.276 132.89 139.984 133.052C139.694 133.213 139.466 133.448 139.298 133.757C139.13 134.066 139.046 134.441 139.046 134.882ZM149.347 142.441C148.784 142.441 148.301 142.369 147.896 142.224C147.491 142.083 147.154 141.895 146.884 141.662C146.618 141.432 146.406 141.185 146.248 140.922L147.176 140.27C147.281 140.409 147.414 140.566 147.575 140.744C147.736 140.925 147.957 141.081 148.236 141.213C148.519 141.348 148.889 141.415 149.347 141.415C149.958 141.415 150.463 141.267 150.861 140.971C151.259 140.675 151.458 140.211 151.458 139.58V138.04H151.36C151.274 138.178 151.153 138.349 150.995 138.553C150.84 138.754 150.616 138.933 150.324 139.091C150.034 139.246 149.643 139.323 149.149 139.323C148.537 139.323 147.988 139.178 147.501 138.889C147.018 138.599 146.634 138.178 146.352 137.626C146.072 137.073 145.932 136.402 145.932 135.612C145.932 134.836 146.069 134.16 146.342 133.584C146.615 133.006 146.995 132.558 147.482 132.242C147.968 131.923 148.531 131.764 149.169 131.764C149.662 131.764 150.054 131.846 150.343 132.01C150.636 132.172 150.86 132.356 151.014 132.563C151.172 132.767 151.294 132.935 151.38 133.066H151.498V131.862H152.623V139.659C152.623 140.31 152.475 140.839 152.179 141.247C151.886 141.659 151.491 141.959 150.995 142.15C150.501 142.344 149.952 142.441 149.347 142.441ZM149.307 138.277C149.774 138.277 150.169 138.17 150.491 137.956C150.814 137.742 151.059 137.435 151.227 137.034C151.394 136.632 151.478 136.152 151.478 135.593C151.478 135.047 151.396 134.565 151.232 134.147C151.067 133.729 150.824 133.402 150.501 133.165C150.179 132.928 149.781 132.81 149.307 132.81C148.814 132.81 148.403 132.935 148.074 133.185C147.748 133.435 147.503 133.77 147.338 134.191C147.177 134.612 147.097 135.08 147.097 135.593C147.097 136.119 147.179 136.584 147.343 136.989C147.511 137.39 147.758 137.706 148.083 137.936C148.412 138.163 148.82 138.277 149.307 138.277ZM158.21 139.599C157.48 139.599 156.85 139.438 156.32 139.116C155.794 138.79 155.388 138.336 155.102 137.754C154.819 137.168 154.677 136.487 154.677 135.711C154.677 134.935 154.819 134.251 155.102 133.659C155.388 133.063 155.786 132.599 156.296 132.267C156.809 131.932 157.407 131.764 158.092 131.764C158.486 131.764 158.876 131.83 159.261 131.961C159.646 132.093 159.996 132.307 160.312 132.603C160.628 132.895 160.879 133.284 161.067 133.767C161.254 134.251 161.348 134.846 161.348 135.553V136.047H155.506V135.04H160.164C160.164 134.612 160.078 134.231 159.907 133.895C159.74 133.56 159.5 133.295 159.187 133.101C158.878 132.907 158.513 132.81 158.092 132.81C157.628 132.81 157.227 132.925 156.888 133.155C156.552 133.382 156.294 133.678 156.113 134.043C155.932 134.409 155.842 134.8 155.842 135.218V135.889C155.842 136.461 155.94 136.946 156.138 137.344C156.338 137.739 156.616 138.04 156.972 138.247C157.327 138.451 157.74 138.553 158.21 138.553C158.516 138.553 158.792 138.51 159.039 138.425C159.289 138.336 159.504 138.205 159.685 138.03C159.866 137.853 160.006 137.632 160.105 137.369L161.23 137.685C161.111 138.066 160.912 138.402 160.633 138.691C160.353 138.978 160.008 139.201 159.597 139.362C159.185 139.52 158.723 139.599 158.21 139.599ZM166.259 139.599C165.628 139.599 165.07 139.44 164.587 139.121C164.103 138.798 163.725 138.344 163.452 137.759C163.179 137.17 163.042 136.474 163.042 135.672C163.042 134.876 163.179 134.185 163.452 133.599C163.725 133.014 164.105 132.561 164.592 132.242C165.078 131.923 165.641 131.764 166.279 131.764C166.773 131.764 167.162 131.846 167.448 132.01C167.738 132.172 167.958 132.356 168.11 132.563C168.264 132.767 168.384 132.935 168.47 133.066H168.569V129.336H169.733V139.441H168.608V138.277H168.47C168.384 138.415 168.263 138.589 168.105 138.8C167.947 139.007 167.722 139.193 167.429 139.358C167.136 139.519 166.746 139.599 166.259 139.599ZM166.417 138.553C166.884 138.553 167.279 138.432 167.601 138.188C167.924 137.941 168.169 137.601 168.337 137.167C168.504 136.729 168.588 136.224 168.588 135.652C168.588 135.086 168.506 134.591 168.342 134.167C168.177 133.739 167.934 133.407 167.611 133.17C167.289 132.93 166.891 132.81 166.417 132.81C165.924 132.81 165.513 132.936 165.184 133.19C164.858 133.44 164.613 133.78 164.448 134.211C164.287 134.639 164.207 135.119 164.207 135.652C164.207 136.191 164.289 136.682 164.453 137.122C164.621 137.56 164.868 137.909 165.194 138.168C165.523 138.425 165.93 138.553 166.417 138.553Z" fill="#A9B8EE"/>
<path d="M42.2002 149.58V171.812" stroke="#A9B8EE" stroke-opacity="0.15" stroke-width="1.85263" stroke-linecap="square" stroke-dasharray="5.56 9.26"/>
<g opacity="0.5">
<path d="M30.9685 199.986V183.236C30.9685 182.575 31.5042 182.039 32.165 182.039H34.558C35.2188 182.039 35.7545 182.575 35.7545 183.236V199.986" stroke="#E1DAB4" stroke-width="1.79474" stroke-linecap="round" stroke-linejoin="round"/>
<path d="M53.7018 199.987H29.772" stroke="#E1DAB4" stroke-width="1.79474" stroke-linecap="round" stroke-linejoin="round"/>
<path d="M33.3616 178.45C33.3616 177.128 34.4329 176.057 35.7546 176.057H39.344" stroke="#E1DAB4" stroke-width="1.79474" stroke-linecap="round" stroke-linejoin="round"/>
<path d="M35.7542 185.629H51.3085C51.9693 185.629 52.505 186.165 52.505 186.825V199.987" stroke="#E1DAB4" stroke-width="1.79474" stroke-linecap="round" stroke-linejoin="round"/>
<path fill-rule="evenodd" clip-rule="evenodd" d="M42.9333 194.004H45.3263C45.9871 194.004 46.5228 194.54 46.5228 195.2V199.986H41.7368V195.2C41.7368 194.54 42.2725 194.004 42.9333 194.004Z" stroke="#E1DAB4" stroke-width="1.79474" stroke-linecap="round" stroke-linejoin="round"/>
<path d="M39.3438 189.817H48.9157" stroke="#E1DAB4" stroke-width="1.79474" stroke-linecap="round" stroke-linejoin="round"/>
</g>
<path opacity="0.75" d="M69.9763 189.87H67.8053V193.521H66.5816V183.416H69.9566C72.325 183.416 73.3513 184.798 73.3513 186.614C73.3513 188.429 72.325 189.87 69.9763 189.87ZM67.8053 184.502V188.785H69.9763C71.5948 188.785 72.1474 187.857 72.1474 186.614C72.1474 185.37 71.5948 184.502 69.9566 184.502H67.8053ZM79.6921 186.1L79.2974 187.186C79.179 187.127 78.9816 187.028 78.6461 187.028C77.4027 187.028 76.6921 188.212 76.6724 189.239V193.521H75.5079V185.943H76.6724V187.245H76.7513C76.9685 186.515 77.7974 185.824 78.6856 185.824C79.0803 185.824 79.4553 185.962 79.6921 186.1ZM83.926 193.679C81.8734 193.679 80.4918 192.12 80.4918 189.771C80.4918 187.403 81.8734 185.844 83.926 185.844C85.9787 185.844 87.3602 187.403 87.3602 189.771C87.3602 192.12 85.9787 193.679 83.926 193.679ZM83.926 192.633C85.4852 192.633 86.1958 191.291 86.1958 189.771C86.1958 188.252 85.4852 186.89 83.926 186.89C82.3668 186.89 81.6563 188.252 81.6563 189.771C81.6563 191.291 82.3668 192.633 83.926 192.633ZM95.7512 193.521H94.6262V192.357H94.5078C94.2512 192.771 93.7381 193.679 92.2775 193.679C90.3828 193.679 89.0604 192.16 89.0604 189.752C89.0604 187.364 90.3828 185.844 92.2973 185.844C93.7775 185.844 94.2512 186.752 94.5078 187.146H94.5867V183.416H95.7512V193.521ZM90.2249 189.732C90.2249 191.35 90.9749 192.633 92.4354 192.633C93.8367 192.633 94.6065 191.449 94.6065 189.732C94.6065 188.035 93.8565 186.89 92.4354 186.89C90.9552 186.89 90.2249 188.133 90.2249 189.732ZM102.937 190.521V185.943H104.101V193.521H102.937V192.456H102.858C102.483 193.028 101.753 193.62 100.608 193.62C99.5028 193.62 98.1607 192.752 98.1607 190.758V185.943H99.3252V190.758C99.3252 191.864 100.016 192.495 100.983 192.495C101.851 192.495 102.937 191.943 102.937 190.521ZM112.571 188.212H111.407C111.229 187.521 110.617 186.89 109.591 186.89C108.229 186.89 107.321 188.015 107.321 189.732C107.321 191.489 108.21 192.633 109.591 192.633C110.499 192.633 111.19 192.14 111.407 191.311H112.571C112.374 192.653 111.269 193.679 109.591 193.679C107.479 193.679 106.157 192.061 106.157 189.732C106.157 187.462 107.519 185.844 109.571 185.844C111.17 185.844 112.374 186.791 112.571 188.212ZM117.838 185.943V187.028H116.219V191.35C116.219 192.337 116.713 192.495 117.226 192.495C117.483 192.495 117.64 192.456 117.739 192.436L117.976 193.482C117.818 193.541 117.542 193.62 117.108 193.62C116.121 193.62 115.055 192.989 115.055 191.666V187.028H113.91V185.943H115.055V184.324H116.219V185.943H117.838ZM120.45 184.857C119.936 184.857 119.621 184.502 119.621 184.068C119.621 183.673 119.936 183.278 120.45 183.278C120.963 183.278 121.279 183.673 121.279 184.068C121.279 184.502 120.963 184.857 120.45 184.857ZM121.042 185.943V193.521H119.877V185.943H121.042ZM126.531 193.679C124.479 193.679 123.097 192.12 123.097 189.771C123.097 187.403 124.479 185.844 126.531 185.844C128.584 185.844 129.966 187.403 129.966 189.771C129.966 192.12 128.584 193.679 126.531 193.679ZM126.531 192.633C128.091 192.633 128.801 191.291 128.801 189.771C128.801 188.252 128.091 186.89 126.531 186.89C124.972 186.89 124.262 188.252 124.262 189.771C124.262 191.291 124.972 192.633 126.531 192.633ZM133.185 189.041V193.521H132.021V185.943H133.185V187.225H133.264C133.62 186.456 134.37 185.844 135.514 185.844C136.935 185.844 137.962 186.771 137.962 188.706V193.521H136.797V188.785C136.797 187.679 136.107 186.969 135.139 186.969C134.271 186.969 133.185 187.62 133.185 189.041ZM149.789 187.64L148.742 187.936C148.604 187.6 148.308 186.831 147.144 186.831C146.216 186.831 145.525 187.324 145.525 187.975C145.525 188.489 145.94 188.943 146.808 189.16L147.933 189.436C149.315 189.771 149.887 190.561 149.887 191.429C149.887 192.594 148.881 193.679 147.006 193.679C145.19 193.679 144.361 192.712 143.986 191.765L145.052 191.37C145.328 192.061 145.861 192.673 146.986 192.673C148.071 192.673 148.703 192.1 148.703 191.469C148.703 190.975 148.367 190.64 147.617 190.462L146.354 190.146C144.973 189.791 144.361 188.962 144.361 188.035C144.361 186.752 145.545 185.844 147.144 185.844C148.545 185.844 149.394 186.535 149.789 187.64ZM155.151 185.943V187.028H153.533V191.35C153.533 192.337 154.026 192.495 154.539 192.495C154.796 192.495 154.954 192.456 155.052 192.436L155.289 193.482C155.131 193.541 154.855 193.62 154.421 193.62C153.434 193.62 152.368 192.989 152.368 191.666V187.028H151.223V185.943H152.368V184.324H153.533V185.943H155.151ZM161.73 193.521V192.495H161.671C161.434 192.989 160.743 193.699 159.421 193.699C157.98 193.699 156.835 192.85 156.835 191.37C156.835 189.653 158.355 189.318 159.776 189.14C160.822 189.002 161.73 189.041 161.73 188.548V188.528C161.73 187.265 161.059 186.87 160.151 186.87C159.026 186.87 158.414 187.462 158.158 188.015L157.052 187.62C157.644 186.239 158.947 185.844 160.092 185.844C161.059 185.844 162.894 186.12 162.894 188.528V193.521H161.73ZM161.73 190.778V189.712C161.533 189.949 160.21 190.087 159.717 190.146C158.809 190.265 158 190.541 158 191.429C158 192.239 158.671 192.653 159.598 192.653C160.98 192.653 161.73 191.725 161.73 190.778ZM169.482 186.1L169.087 187.186C168.969 187.127 168.771 187.028 168.436 187.028C167.193 187.028 166.482 188.212 166.462 189.239V193.521H165.298V185.943H166.462V187.245H166.541C166.758 186.515 167.587 185.824 168.475 185.824C168.87 185.824 169.245 185.962 169.482 186.1ZM174.602 185.943V187.028H172.983V191.35C172.983 192.337 173.477 192.495 173.99 192.495C174.246 192.495 174.404 192.456 174.503 192.436L174.74 193.482C174.582 193.541 174.306 193.62 173.871 193.62C172.884 193.62 171.819 192.989 171.819 191.666V187.028H170.674V185.943H171.819V184.324H172.983V185.943H174.602ZM179.724 193.679C177.533 193.679 176.191 192.12 176.191 189.791C176.191 187.462 177.553 185.844 179.605 185.844C181.184 185.844 182.862 186.811 182.862 189.633V190.127H177.37C177.488 191.765 178.352 192.633 179.724 192.633C180.651 192.633 181.322 192.239 181.618 191.449L182.743 191.765C182.388 192.91 181.263 193.679 179.724 193.679ZM179.605 186.89C178.441 186.89 177.582 187.699 177.395 189.12H181.678C181.678 187.837 180.868 186.89 179.605 186.89ZM191.274 193.521H190.149V192.357H190.03C189.774 192.771 189.261 193.679 187.8 193.679C185.905 193.679 184.583 192.16 184.583 189.752C184.583 187.364 185.905 185.844 187.82 185.844C189.3 185.844 189.774 186.752 190.03 187.146H190.109V183.416H191.274V193.521ZM185.747 189.732C185.747 191.35 186.497 192.633 187.958 192.633C189.359 192.633 190.129 191.449 190.129 189.732C190.129 188.035 189.379 186.89 187.958 186.89C186.478 186.89 185.747 188.133 185.747 189.732Z" fill="#E1DAB4"/>
<path d="M42.2002 204.232V226.464" stroke="#A9B8EE" stroke-opacity="0.15" stroke-width="1.85263" stroke-linecap="square" stroke-dasharray="5.56 9.26"/>
<g opacity="0.5">
<circle cx="41.7373" cy="242.675" r="10.7729" stroke="#66CAA0" stroke-width="1.79474" stroke-linecap="round" stroke-linejoin="round"/>
<path d="M37.4805 243.08L40.0743 245.674L40.0576 245.657L45.9097 239.805" stroke="#66CAA0" stroke-width="1.79474" stroke-linecap="round" stroke-linejoin="round"/>
</g>
<path opacity="0.75" d="M66.5816 248.174V238.069H69.9961C70.7888 238.069 71.4369 238.212 71.9401 238.498C72.4467 238.781 72.8217 239.164 73.0651 239.648C73.3086 240.131 73.4303 240.671 73.4303 241.266C73.4303 241.861 73.3086 242.402 73.0651 242.889C72.825 243.376 72.4533 243.764 71.95 244.054C71.4467 244.34 70.802 244.483 70.0158 244.483H67.5684V243.398H69.9763C70.5191 243.398 70.9549 243.304 71.2839 243.116C71.6128 242.929 71.8513 242.675 71.9994 242.356C72.1507 242.034 72.2263 241.671 72.2263 241.266C72.2263 240.861 72.1507 240.499 71.9994 240.18C71.8513 239.861 71.6112 239.611 71.279 239.43C70.9467 239.246 70.5059 239.154 69.9566 239.154H67.8053V248.174H66.5816ZM84.2057 243.121C84.2057 244.187 84.0133 245.108 83.6284 245.884C83.2435 246.661 82.7156 247.259 82.0445 247.68C81.3735 248.101 80.607 248.312 79.7452 248.312C78.8833 248.312 78.1169 248.101 77.4458 247.68C76.7748 247.259 76.2468 246.661 75.862 245.884C75.4771 245.108 75.2847 244.187 75.2847 243.121C75.2847 242.055 75.4771 241.134 75.862 240.358C76.2468 239.582 76.7748 238.983 77.4458 238.562C78.1169 238.141 78.8833 237.93 79.7452 237.93C80.607 237.93 81.3735 238.141 82.0445 238.562C82.7156 238.983 83.2435 239.582 83.6284 240.358C84.0133 241.134 84.2057 242.055 84.2057 243.121ZM83.0215 243.121C83.0215 242.246 82.8751 241.508 82.5824 240.906C82.2929 240.304 81.8998 239.848 81.4031 239.539C80.9097 239.23 80.357 239.075 79.7452 239.075C79.1333 239.075 78.5791 239.23 78.0824 239.539C77.5889 239.848 77.1958 240.304 76.9031 240.906C76.6136 241.508 76.4689 242.246 76.4689 243.121C76.4689 243.996 76.6136 244.735 76.9031 245.337C77.1958 245.939 77.5889 246.394 78.0824 246.703C78.5791 247.013 79.1333 247.167 79.7452 247.167C80.357 247.167 80.9097 247.013 81.4031 246.703C81.8998 246.394 82.2929 245.939 82.5824 245.337C82.8751 244.735 83.0215 243.996 83.0215 243.121ZM93.9638 248.312C93.3125 248.312 92.7319 248.2 92.222 247.976C91.7154 247.753 91.3125 247.442 91.0131 247.044C90.7171 246.643 90.5559 246.177 90.5296 245.648H91.773C91.7993 245.973 91.9112 246.254 92.1085 246.491C92.3059 246.725 92.5641 246.906 92.8832 247.034C93.2023 247.162 93.5559 247.226 93.9441 247.226C94.3783 247.226 94.7631 247.151 95.0987 246.999C95.4342 246.848 95.6974 246.638 95.8881 246.368C96.0789 246.098 96.1743 245.786 96.1743 245.43C96.1743 245.059 96.0822 244.731 95.898 244.448C95.7138 244.162 95.4441 243.939 95.0888 243.777C94.7335 243.616 94.2993 243.536 93.7862 243.536H92.977V242.45H93.7862C94.1875 242.45 94.5395 242.378 94.8421 242.233C95.148 242.088 95.3865 241.884 95.5575 241.621C95.7319 241.358 95.8191 241.049 95.8191 240.694C95.8191 240.351 95.7434 240.054 95.5921 239.8C95.4408 239.547 95.227 239.35 94.9506 239.208C94.6776 239.067 94.3552 238.996 93.9835 238.996C93.6349 238.996 93.3059 239.06 92.9967 239.189C92.6908 239.314 92.4408 239.496 92.2467 239.736C92.0526 239.973 91.9474 240.259 91.9309 240.595H90.7467C90.7664 240.065 90.926 239.601 91.2253 239.203C91.5247 238.802 91.9161 238.49 92.3997 238.266C92.8865 238.042 93.421 237.93 94.0033 237.93C94.6283 237.93 95.1645 238.057 95.6118 238.31C96.0592 238.56 96.4029 238.891 96.6431 239.302C96.8832 239.713 97.0033 240.157 97.0033 240.634C97.0033 241.203 96.8536 241.689 96.5543 242.09C96.2582 242.491 95.8552 242.769 95.3454 242.924V243.003C95.9835 243.108 96.4819 243.379 96.8404 243.817C97.199 244.251 97.3783 244.789 97.3783 245.43C97.3783 245.98 97.2286 246.473 96.9293 246.911C96.6332 247.345 96.2286 247.687 95.7154 247.937C95.2023 248.187 94.6184 248.312 93.9638 248.312ZM103.227 238.069V248.174H102.003V239.351H101.944L99.4769 240.99V239.746L102.003 238.069H103.227ZM109.826 248.312C109.174 248.312 108.594 248.2 108.084 247.976C107.577 247.753 107.174 247.442 106.875 247.044C106.579 246.643 106.418 246.177 106.391 245.648H107.635C107.661 245.973 107.773 246.254 107.97 246.491C108.168 246.725 108.426 246.906 108.745 247.034C109.064 247.162 109.418 247.226 109.806 247.226C110.24 247.226 110.625 247.151 110.96 246.999C111.296 246.848 111.559 246.638 111.75 246.368C111.941 246.098 112.036 245.786 112.036 245.43C112.036 245.059 111.944 244.731 111.76 244.448C111.576 244.162 111.306 243.939 110.951 243.777C110.595 243.616 110.161 243.536 109.648 243.536H108.839V242.45H109.648C110.049 242.45 110.401 242.378 110.704 242.233C111.01 242.088 111.248 241.884 111.419 241.621C111.594 241.358 111.681 241.049 111.681 240.694C111.681 240.351 111.605 240.054 111.454 239.8C111.302 239.547 111.089 239.35 110.812 239.208C110.539 239.067 110.217 238.996 109.845 238.996C109.497 238.996 109.168 239.06 108.858 239.189C108.552 239.314 108.302 239.496 108.108 239.736C107.914 239.973 107.809 240.259 107.793 240.595H106.608C106.628 240.065 106.788 239.601 107.087 239.203C107.386 238.802 107.778 238.49 108.261 238.266C108.748 238.042 109.283 237.93 109.865 237.93C110.49 237.93 111.026 238.057 111.474 238.31C111.921 238.56 112.265 238.891 112.505 239.302C112.745 239.713 112.865 240.157 112.865 240.634C112.865 241.203 112.715 241.689 112.416 242.09C112.12 242.491 111.717 242.769 111.207 242.924V243.003C111.845 243.108 112.344 243.379 112.702 243.817C113.061 244.251 113.24 244.789 113.24 245.43C113.24 245.98 113.09 246.473 112.791 246.911C112.495 247.345 112.09 247.687 111.577 247.937C111.064 248.187 110.48 248.312 109.826 248.312ZM121.972 248.351C121.491 248.351 121.056 248.261 120.664 248.08C120.273 247.896 119.962 247.631 119.732 247.286C119.501 246.937 119.386 246.516 119.386 246.023C119.386 245.588 119.472 245.236 119.643 244.967C119.814 244.694 120.042 244.48 120.329 244.325C120.615 244.171 120.931 244.055 121.276 243.98C121.625 243.901 121.975 243.838 122.327 243.792C122.788 243.733 123.161 243.689 123.447 243.659C123.737 243.626 123.947 243.572 124.079 243.496C124.214 243.421 124.281 243.289 124.281 243.101V243.062C124.281 242.575 124.148 242.197 123.881 241.927C123.618 241.657 123.218 241.523 122.682 241.523C122.126 241.523 121.691 241.644 121.375 241.888C121.059 242.131 120.837 242.391 120.709 242.667L119.603 242.273C119.801 241.812 120.064 241.453 120.393 241.197C120.725 240.937 121.087 240.756 121.478 240.654C121.873 240.549 122.261 240.496 122.643 240.496C122.886 240.496 123.166 240.526 123.482 240.585C123.801 240.641 124.108 240.758 124.404 240.935C124.704 241.113 124.952 241.381 125.149 241.74C125.347 242.098 125.445 242.578 125.445 243.18V248.174H124.281V247.148H124.222C124.143 247.312 124.011 247.488 123.827 247.675C123.643 247.863 123.398 248.023 123.092 248.154C122.786 248.286 122.413 248.351 121.972 248.351ZM122.149 247.305C122.61 247.305 122.998 247.215 123.314 247.034C123.633 246.853 123.873 246.62 124.034 246.333C124.199 246.047 124.281 245.746 124.281 245.43V244.365C124.232 244.424 124.123 244.478 123.955 244.527C123.791 244.573 123.6 244.615 123.383 244.651C123.169 244.684 122.96 244.713 122.756 244.74C122.556 244.763 122.393 244.782 122.268 244.799C121.965 244.838 121.682 244.902 121.419 244.991C121.159 245.077 120.949 245.207 120.788 245.381C120.63 245.552 120.551 245.786 120.551 246.082C120.551 246.486 120.7 246.792 121 246.999C121.302 247.203 121.686 247.305 122.149 247.305ZM130.928 248.332C130.217 248.332 129.605 248.164 129.092 247.828C128.579 247.493 128.184 247.031 127.908 246.442C127.632 245.853 127.493 245.18 127.493 244.424C127.493 243.654 127.635 242.975 127.918 242.386C128.204 241.794 128.602 241.332 129.112 240.999C129.625 240.664 130.224 240.496 130.908 240.496C131.441 240.496 131.921 240.595 132.349 240.792C132.776 240.99 133.127 241.266 133.4 241.621C133.673 241.976 133.842 242.391 133.908 242.865H132.743C132.655 242.519 132.457 242.213 132.151 241.947C131.849 241.677 131.441 241.542 130.928 241.542C130.474 241.542 130.076 241.661 129.734 241.898C129.395 242.131 129.13 242.462 128.939 242.889C128.752 243.314 128.658 243.812 128.658 244.384C128.658 244.97 128.75 245.48 128.934 245.914C129.122 246.348 129.385 246.685 129.724 246.925C130.066 247.166 130.467 247.286 130.928 247.286C131.23 247.286 131.505 247.233 131.752 247.128C131.998 247.023 132.207 246.871 132.378 246.674C132.549 246.476 132.671 246.24 132.743 245.963H133.908C133.842 246.411 133.679 246.814 133.419 247.172C133.163 247.527 132.822 247.81 132.398 248.021C131.977 248.228 131.487 248.332 130.928 248.332ZM138.967 248.332C138.257 248.332 137.645 248.164 137.132 247.828C136.618 247.493 136.224 247.031 135.947 246.442C135.671 245.853 135.533 245.18 135.533 244.424C135.533 243.654 135.674 242.975 135.957 242.386C136.243 241.794 136.641 241.332 137.151 240.999C137.664 240.664 138.263 240.496 138.947 240.496C139.48 240.496 139.961 240.595 140.388 240.792C140.816 240.99 141.166 241.266 141.439 241.621C141.712 241.976 141.882 242.391 141.947 242.865H140.783C140.694 242.519 140.497 242.213 140.191 241.947C139.888 241.677 139.48 241.542 138.967 241.542C138.513 241.542 138.115 241.661 137.773 241.898C137.434 242.131 137.169 242.462 136.979 242.889C136.791 243.314 136.697 243.812 136.697 244.384C136.697 244.97 136.789 245.48 136.974 245.914C137.161 246.348 137.424 246.685 137.763 246.925C138.105 247.166 138.507 247.286 138.967 247.286C139.27 247.286 139.544 247.233 139.791 247.128C140.038 247.023 140.247 246.871 140.418 246.674C140.589 246.476 140.711 246.24 140.783 245.963H141.947C141.882 246.411 141.719 246.814 141.459 247.172C141.202 247.527 140.862 247.81 140.438 248.021C140.016 248.228 139.526 248.332 138.967 248.332ZM147.105 248.332C146.375 248.332 145.745 248.171 145.215 247.848C144.689 247.523 144.283 247.069 143.997 246.486C143.714 245.901 143.572 245.22 143.572 244.444C143.572 243.667 143.714 242.983 143.997 242.391C144.283 241.796 144.681 241.332 145.191 240.999C145.704 240.664 146.303 240.496 146.987 240.496C147.382 240.496 147.771 240.562 148.156 240.694C148.541 240.825 148.891 241.039 149.207 241.335C149.523 241.628 149.775 242.016 149.962 242.499C150.15 242.983 150.243 243.578 150.243 244.286V244.779H144.401V243.773H149.059C149.059 243.345 148.974 242.963 148.803 242.628C148.635 242.292 148.395 242.027 148.082 241.833C147.773 241.639 147.408 241.542 146.987 241.542C146.523 241.542 146.122 241.657 145.783 241.888C145.447 242.115 145.189 242.411 145.008 242.776C144.827 243.141 144.737 243.532 144.737 243.95V244.621C144.737 245.194 144.835 245.679 145.033 246.077C145.233 246.472 145.511 246.773 145.867 246.98C146.222 247.184 146.635 247.286 147.105 247.286C147.411 247.286 147.687 247.243 147.934 247.157C148.184 247.069 148.4 246.937 148.581 246.763C148.761 246.585 148.901 246.365 149 246.101L150.125 246.417C150.007 246.799 149.808 247.134 149.528 247.424C149.248 247.71 148.903 247.934 148.492 248.095C148.081 248.253 147.618 248.332 147.105 248.332ZM152.293 251.016V240.595H153.418V241.799H153.556C153.641 241.667 153.76 241.499 153.911 241.296C154.066 241.088 154.286 240.904 154.572 240.743C154.862 240.578 155.253 240.496 155.747 240.496C156.385 240.496 156.947 240.656 157.434 240.975C157.921 241.294 158.301 241.746 158.574 242.332C158.847 242.917 158.983 243.608 158.983 244.404C158.983 245.207 158.847 245.902 158.574 246.491C158.301 247.077 157.923 247.531 157.439 247.853C156.955 248.172 156.398 248.332 155.766 248.332C155.279 248.332 154.89 248.251 154.597 248.09C154.304 247.925 154.079 247.74 153.921 247.532C153.763 247.322 153.641 247.148 153.556 247.009H153.457V251.016H152.293ZM153.437 244.384C153.437 244.957 153.521 245.462 153.689 245.899C153.857 246.333 154.102 246.674 154.424 246.921C154.747 247.164 155.141 247.286 155.608 247.286C156.095 247.286 156.502 247.157 156.827 246.901C157.156 246.641 157.403 246.292 157.567 245.855C157.735 245.414 157.819 244.924 157.819 244.384C157.819 243.851 157.737 243.371 157.572 242.944C157.411 242.513 157.166 242.172 156.837 241.922C156.511 241.669 156.102 241.542 155.608 241.542C155.135 241.542 154.737 241.662 154.414 241.902C154.092 242.139 153.849 242.472 153.684 242.899C153.52 243.323 153.437 243.819 153.437 244.384ZM164.334 240.595V241.582H160.406V240.595H164.334ZM161.551 238.779H162.715V246.003C162.715 246.332 162.763 246.578 162.858 246.743C162.957 246.904 163.082 247.013 163.233 247.069C163.388 247.121 163.551 247.148 163.722 247.148C163.85 247.148 163.955 247.141 164.038 247.128C164.12 247.111 164.186 247.098 164.235 247.088L164.472 248.134C164.393 248.164 164.283 248.194 164.141 248.223C164 248.256 163.821 248.273 163.603 248.273C163.274 248.273 162.952 248.202 162.636 248.06C162.324 247.919 162.064 247.703 161.857 247.414C161.653 247.124 161.551 246.759 161.551 246.319V238.779ZM169.459 248.332C168.729 248.332 168.099 248.171 167.57 247.848C167.043 247.523 166.637 247.069 166.351 246.486C166.068 245.901 165.927 245.22 165.927 244.444C165.927 243.667 166.068 242.983 166.351 242.391C166.637 241.796 167.035 241.332 167.545 240.999C168.058 240.664 168.657 240.496 169.341 240.496C169.736 240.496 170.126 240.562 170.51 240.694C170.895 240.825 171.246 241.039 171.561 241.335C171.877 241.628 172.129 242.016 172.316 242.499C172.504 242.983 172.598 243.578 172.598 244.286V244.779H166.756V243.773H171.413C171.413 243.345 171.328 242.963 171.157 242.628C170.989 242.292 170.749 242.027 170.436 241.833C170.127 241.639 169.762 241.542 169.341 241.542C168.877 241.542 168.476 241.657 168.137 241.888C167.802 242.115 167.543 242.411 167.362 242.776C167.181 243.141 167.091 243.532 167.091 243.95V244.621C167.091 245.194 167.19 245.679 167.387 246.077C167.588 246.472 167.866 246.773 168.221 246.98C168.576 247.184 168.989 247.286 169.459 247.286C169.765 247.286 170.042 247.243 170.288 247.157C170.538 247.069 170.754 246.937 170.935 246.763C171.116 246.585 171.256 246.365 171.354 246.101L172.479 246.417C172.361 246.799 172.162 247.134 171.882 247.424C171.603 247.71 171.257 247.934 170.846 248.095C170.435 248.253 169.973 248.332 169.459 248.332ZM177.509 248.332C176.877 248.332 176.32 248.172 175.836 247.853C175.352 247.531 174.974 247.077 174.701 246.491C174.428 245.902 174.292 245.207 174.292 244.404C174.292 243.608 174.428 242.917 174.701 242.332C174.974 241.746 175.354 241.294 175.841 240.975C176.328 240.656 176.89 240.496 177.528 240.496C178.022 240.496 178.412 240.578 178.698 240.743C178.987 240.904 179.208 241.088 179.359 241.296C179.514 241.499 179.634 241.667 179.719 241.799H179.818V238.069H180.982V248.174H179.857V247.009H179.719C179.634 247.148 179.512 247.322 179.354 247.532C179.196 247.74 178.971 247.925 178.678 248.09C178.385 248.251 177.996 248.332 177.509 248.332ZM177.667 247.286C178.134 247.286 178.528 247.164 178.851 246.921C179.173 246.674 179.418 246.333 179.586 245.899C179.754 245.462 179.838 244.957 179.838 244.384C179.838 243.819 179.755 243.323 179.591 242.899C179.426 242.472 179.183 242.139 178.861 241.902C178.538 241.662 178.14 241.542 177.667 241.542C177.173 241.542 176.762 241.669 176.433 241.922C176.107 242.172 175.862 242.513 175.698 242.944C175.537 243.371 175.456 243.851 175.456 244.384C175.456 244.924 175.538 245.414 175.703 245.855C175.871 246.292 176.117 246.641 176.443 246.901C176.772 247.157 177.18 247.286 177.667 247.286Z" fill="#66CAA0"/>
<path d="M42.2002 258.885V281.116" stroke="#A9B8EE" stroke-opacity="0.15" stroke-width="1.85263" stroke-linecap="square" stroke-dasharray="5.56 9.26"/>
<g opacity="0.5">
<path d="M36.642 303.232L33.1683 287.021H30.8525" stroke="#A0A8F3" stroke-width="1.73684" stroke-linecap="round" stroke-linejoin="round"/>
<path d="M36.9316 303.231H48.5106" stroke="#A0A8F3" stroke-width="1.73684" stroke-linecap="round" stroke-linejoin="round"/>
<circle cx="48.5107" cy="305.259" r="2.02632" stroke="#A0A8F3" stroke-width="1.73684" stroke-linecap="round" stroke-linejoin="round"/>
<circle cx="36.9316" cy="305.259" r="2.02632" stroke="#A0A8F3" stroke-width="1.73684" stroke-linecap="round" stroke-linejoin="round"/>
<path d="M33.9128 290.496H50.5362C50.896 290.496 51.2353 290.663 51.4544 290.949C51.6736 291.234 51.7477 291.605 51.6551 291.952L49.8031 298.9C49.6679 299.407 49.2089 299.759 48.6843 299.759H35.8978" stroke="#A0A8F3" stroke-width="1.73684" stroke-linecap="round" stroke-linejoin="round"/>
</g>
<path opacity="0.75" d="M65.6553 302.363V292.258H69.0698C69.8626 292.258 70.5106 292.401 71.0139 292.687C71.5205 292.97 71.8955 293.353 72.1389 293.837C72.3823 294.321 72.504 294.86 72.504 295.455C72.504 296.051 72.3823 296.592 72.1389 297.079C71.8987 297.566 71.527 297.954 71.0237 298.243C70.5205 298.529 69.8757 298.672 69.0895 298.672H66.6422V297.587H69.0501C69.5928 297.587 70.0287 297.493 70.3576 297.306C70.6866 297.118 70.9251 296.865 71.0731 296.546C71.2244 296.223 71.3001 295.86 71.3001 295.455C71.3001 295.051 71.2244 294.689 71.0731 294.37C70.9251 294.051 70.6849 293.801 70.3527 293.62C70.0205 293.436 69.5797 293.344 69.0303 293.344H66.879V302.363H65.6553ZM83.2794 297.311C83.2794 298.376 83.087 299.297 82.7021 300.074C82.3173 300.85 81.7893 301.449 81.1183 301.87C80.4472 302.291 79.6808 302.501 78.8189 302.501C77.9571 302.501 77.1906 302.291 76.5196 301.87C75.8485 301.449 75.3206 300.85 74.9357 300.074C74.5508 299.297 74.3584 298.376 74.3584 297.311C74.3584 296.245 74.5508 295.324 74.9357 294.547C75.3206 293.771 75.8485 293.172 76.5196 292.751C77.1906 292.33 77.9571 292.12 78.8189 292.12C79.6808 292.12 80.4472 292.33 81.1183 292.751C81.7893 293.172 82.3173 293.771 82.7021 294.547C83.087 295.324 83.2794 296.245 83.2794 297.311ZM82.0952 297.311C82.0952 296.436 81.9488 295.697 81.6561 295.095C81.3666 294.493 80.9735 294.038 80.4768 293.728C79.9834 293.419 79.4308 293.265 78.8189 293.265C78.2071 293.265 77.6528 293.419 77.1561 293.728C76.6627 294.038 76.2696 294.493 75.9768 295.095C75.6873 295.697 75.5426 296.436 75.5426 297.311C75.5426 298.186 75.6873 298.924 75.9768 299.526C76.2696 300.128 76.6627 300.584 77.1561 300.893C77.6528 301.202 78.2071 301.357 78.8189 301.357C79.4308 301.357 79.9834 301.202 80.4768 300.893C80.9735 300.584 81.3666 300.128 81.6561 299.526C81.9488 298.924 82.0952 298.186 82.0952 297.311ZM93.0375 302.501C92.3862 302.501 91.8056 302.39 91.2958 302.166C90.7892 301.942 90.3862 301.631 90.0869 301.233C89.7908 300.832 89.6296 300.367 89.6033 299.837H90.8467C90.8731 300.163 90.9849 300.444 91.1823 300.681C91.3796 300.914 91.6379 301.095 91.9569 301.223C92.276 301.352 92.6296 301.416 93.0178 301.416C93.452 301.416 93.8369 301.34 94.1724 301.189C94.5079 301.038 94.7711 300.827 94.9619 300.557C95.1527 300.288 95.2481 299.975 95.2481 299.62C95.2481 299.248 95.156 298.921 94.9717 298.638C94.7875 298.352 94.5178 298.128 94.1625 297.967C93.8073 297.806 93.3731 297.725 92.8599 297.725H92.0507V296.64H92.8599C93.2612 296.64 93.6132 296.567 93.9158 296.422C94.2217 296.278 94.4602 296.074 94.6313 295.811C94.8056 295.547 94.8928 295.238 94.8928 294.883C94.8928 294.541 94.8171 294.243 94.6658 293.99C94.5145 293.737 94.3007 293.539 94.0244 293.398C93.7513 293.256 93.429 293.186 93.0573 293.186C92.7086 293.186 92.3796 293.25 92.0704 293.378C91.7645 293.503 91.5145 293.686 91.3204 293.926C91.1263 294.163 91.0211 294.449 91.0046 294.784H89.8204C89.8402 294.255 89.9997 293.791 90.299 293.393C90.5984 292.992 90.9898 292.679 91.4734 292.455C91.9602 292.232 92.4948 292.12 93.077 292.12C93.702 292.12 94.2382 292.247 94.6856 292.5C95.1329 292.75 95.4767 293.08 95.7168 293.492C95.9569 293.903 96.077 294.347 96.077 294.824C96.077 295.393 95.9273 295.878 95.628 296.279C95.3319 296.681 94.929 296.959 94.4191 297.113V297.192C95.0573 297.297 95.5556 297.569 95.9142 298.006C96.2727 298.441 96.452 298.978 96.452 299.62C96.452 300.169 96.3023 300.663 96.003 301.1C95.7069 301.534 95.3023 301.876 94.7892 302.126C94.276 302.376 93.6921 302.501 93.0375 302.501ZM102.301 292.258V302.363H101.077V293.541H101.018L98.5506 295.179V293.936L101.077 292.258H102.301ZM108.899 302.501C108.248 302.501 107.667 302.39 107.157 302.166C106.651 301.942 106.248 301.631 105.949 301.233C105.653 300.832 105.491 300.367 105.465 299.837H106.708C106.735 300.163 106.847 300.444 107.044 300.681C107.241 300.914 107.5 301.095 107.819 301.223C108.138 301.352 108.491 301.416 108.88 301.416C109.314 301.416 109.699 301.34 110.034 301.189C110.37 301.038 110.633 300.827 110.824 300.557C111.014 300.288 111.11 299.975 111.11 299.62C111.11 299.248 111.018 298.921 110.833 298.638C110.649 298.352 110.38 298.128 110.024 297.967C109.669 297.806 109.235 297.725 108.722 297.725H107.912V296.64H108.722C109.123 296.64 109.475 296.567 109.778 296.422C110.083 296.278 110.322 296.074 110.493 295.811C110.667 295.547 110.755 295.238 110.755 294.883C110.755 294.541 110.679 294.243 110.528 293.99C110.376 293.737 110.162 293.539 109.886 293.398C109.613 293.256 109.291 293.186 108.919 293.186C108.57 293.186 108.241 293.25 107.932 293.378C107.626 293.503 107.376 293.686 107.182 293.926C106.988 294.163 106.883 294.449 106.866 294.784H105.682C105.702 294.255 105.861 293.791 106.161 293.393C106.46 292.992 106.852 292.679 107.335 292.455C107.822 292.232 108.356 292.12 108.939 292.12C109.564 292.12 110.1 292.247 110.547 292.5C110.995 292.75 111.338 293.08 111.579 293.492C111.819 293.903 111.939 294.347 111.939 294.824C111.939 295.393 111.789 295.878 111.49 296.279C111.194 296.681 110.791 296.959 110.281 297.113V297.192C110.919 297.297 111.417 297.569 111.776 298.006C112.134 298.441 112.314 298.978 112.314 299.62C112.314 300.169 112.164 300.663 111.865 301.1C111.569 301.534 111.164 301.876 110.651 302.126C110.138 302.376 109.554 302.501 108.899 302.501ZM121.894 302.521C121.184 302.521 120.572 302.353 120.059 302.018C119.545 301.682 119.151 301.22 118.874 300.631C118.598 300.043 118.46 299.37 118.46 298.613C118.46 297.844 118.601 297.164 118.884 296.575C119.17 295.983 119.569 295.521 120.078 295.189C120.592 294.853 121.19 294.686 121.874 294.686C122.407 294.686 122.888 294.784 123.315 294.982C123.743 295.179 124.093 295.455 124.366 295.811C124.639 296.166 124.809 296.58 124.874 297.054H123.71C123.621 296.709 123.424 296.403 123.118 296.136C122.815 295.867 122.407 295.732 121.894 295.732C121.44 295.732 121.042 295.85 120.7 296.087C120.361 296.321 120.096 296.651 119.906 297.079C119.718 297.503 119.624 298.001 119.624 298.574C119.624 299.159 119.717 299.669 119.901 300.103C120.088 300.538 120.351 300.875 120.69 301.115C121.032 301.355 121.434 301.475 121.894 301.475C122.197 301.475 122.471 301.422 122.718 301.317C122.965 301.212 123.174 301.061 123.345 300.863C123.516 300.666 123.638 300.429 123.71 300.153H124.874C124.809 300.6 124.646 301.003 124.386 301.362C124.129 301.717 123.789 302 123.365 302.21C122.944 302.418 122.453 302.521 121.894 302.521ZM126.855 302.363V294.784H127.98V295.929H128.059C128.197 295.554 128.447 295.25 128.809 295.016C129.17 294.783 129.578 294.666 130.032 294.666C130.118 294.666 130.225 294.668 130.353 294.671C130.481 294.674 130.578 294.679 130.644 294.686V295.87C130.605 295.86 130.514 295.845 130.373 295.825C130.235 295.802 130.088 295.791 129.934 295.791C129.565 295.791 129.236 295.868 128.947 296.023C128.661 296.174 128.434 296.385 128.266 296.654C128.101 296.921 128.019 297.225 128.019 297.567V302.363H126.855ZM135.249 302.521C134.519 302.521 133.889 302.36 133.36 302.038C132.833 301.712 132.427 301.258 132.141 300.676C131.858 300.09 131.716 299.409 131.716 298.633C131.716 297.857 131.858 297.172 132.141 296.58C132.427 295.985 132.825 295.521 133.335 295.189C133.848 294.853 134.447 294.686 135.131 294.686C135.526 294.686 135.915 294.751 136.3 294.883C136.685 295.015 137.035 295.228 137.351 295.524C137.667 295.817 137.919 296.205 138.106 296.689C138.294 297.172 138.387 297.768 138.387 298.475V298.969H132.545V297.962H137.203C137.203 297.534 137.118 297.153 136.947 296.817C136.779 296.482 136.539 296.217 136.226 296.023C135.917 295.829 135.552 295.732 135.131 295.732C134.667 295.732 134.266 295.847 133.927 296.077C133.591 296.304 133.333 296.6 133.152 296.965C132.971 297.33 132.881 297.722 132.881 298.14V298.811C132.881 299.383 132.98 299.868 133.177 300.266C133.378 300.661 133.656 300.962 134.011 301.169C134.366 301.373 134.779 301.475 135.249 301.475C135.555 301.475 135.832 301.432 136.078 301.347C136.328 301.258 136.544 301.126 136.725 300.952C136.906 300.774 137.045 300.554 137.144 300.291L138.269 300.607C138.151 300.988 137.952 301.324 137.672 301.613C137.392 301.899 137.047 302.123 136.636 302.284C136.225 302.442 135.762 302.521 135.249 302.521ZM142.667 302.541C142.187 302.541 141.751 302.45 141.359 302.27C140.968 302.085 140.657 301.821 140.427 301.475C140.197 301.126 140.081 300.705 140.081 300.212C140.081 299.778 140.167 299.426 140.338 299.156C140.509 298.883 140.738 298.669 141.024 298.515C141.31 298.36 141.626 298.245 141.971 298.169C142.32 298.09 142.67 298.028 143.022 297.982C143.483 297.922 143.856 297.878 144.142 297.848C144.432 297.816 144.642 297.761 144.774 297.686C144.909 297.61 144.976 297.478 144.976 297.291V297.251C144.976 296.765 144.843 296.386 144.577 296.117C144.313 295.847 143.914 295.712 143.378 295.712C142.822 295.712 142.386 295.834 142.07 296.077C141.754 296.321 141.532 296.58 141.404 296.857L140.299 296.462C140.496 296.001 140.759 295.643 141.088 295.386C141.42 295.126 141.782 294.946 142.174 294.844C142.568 294.738 142.956 294.686 143.338 294.686C143.581 294.686 143.861 294.715 144.177 294.774C144.496 294.83 144.804 294.947 145.1 295.125C145.399 295.302 145.647 295.571 145.845 295.929C146.042 296.288 146.141 296.768 146.141 297.37V302.363H144.976V301.337H144.917C144.838 301.501 144.706 301.677 144.522 301.865C144.338 302.052 144.093 302.212 143.787 302.344C143.481 302.475 143.108 302.541 142.667 302.541ZM142.845 301.495C143.305 301.495 143.693 301.404 144.009 301.223C144.328 301.043 144.568 300.809 144.73 300.523C144.894 300.237 144.976 299.936 144.976 299.62V298.554C144.927 298.613 144.818 298.668 144.651 298.717C144.486 298.763 144.295 298.804 144.078 298.84C143.864 298.873 143.655 298.903 143.452 298.929C143.251 298.952 143.088 298.972 142.963 298.988C142.66 299.028 142.378 299.092 142.114 299.181C141.855 299.266 141.644 299.396 141.483 299.571C141.325 299.742 141.246 299.975 141.246 300.271C141.246 300.676 141.396 300.982 141.695 301.189C141.998 301.393 142.381 301.495 142.845 301.495ZM151.84 294.784V295.771H147.912V294.784H151.84ZM149.057 292.969H150.222V300.192C150.222 300.521 150.269 300.768 150.365 300.932C150.463 301.094 150.588 301.202 150.74 301.258C150.894 301.311 151.057 301.337 151.228 301.337C151.357 301.337 151.462 301.33 151.544 301.317C151.626 301.301 151.692 301.288 151.741 301.278L151.978 302.324C151.899 302.353 151.789 302.383 151.648 302.413C151.506 302.446 151.327 302.462 151.11 302.462C150.781 302.462 150.458 302.391 150.143 302.25C149.83 302.108 149.57 301.893 149.363 301.603C149.159 301.314 149.057 300.949 149.057 300.508V292.969ZM156.966 302.521C156.236 302.521 155.606 302.36 155.076 302.038C154.55 301.712 154.143 301.258 153.857 300.676C153.574 300.09 153.433 299.409 153.433 298.633C153.433 297.857 153.574 297.172 153.857 296.58C154.143 295.985 154.541 295.521 155.051 295.189C155.564 294.853 156.163 294.686 156.847 294.686C157.242 294.686 157.632 294.751 158.017 294.883C158.402 295.015 158.752 295.228 159.068 295.524C159.384 295.817 159.635 296.205 159.823 296.689C160.01 297.172 160.104 297.768 160.104 298.475V298.969H154.262V297.962H158.92C158.92 297.534 158.834 297.153 158.663 296.817C158.495 296.482 158.255 296.217 157.943 296.023C157.634 295.829 157.268 295.732 156.847 295.732C156.384 295.732 155.982 295.847 155.643 296.077C155.308 296.304 155.05 296.6 154.869 296.965C154.688 297.33 154.597 297.722 154.597 298.14V298.811C154.597 299.383 154.696 299.868 154.893 300.266C155.094 300.661 155.372 300.962 155.727 301.169C156.083 301.373 156.495 301.475 156.966 301.475C157.272 301.475 157.548 301.432 157.795 301.347C158.045 301.258 158.26 301.126 158.441 300.952C158.622 300.774 158.762 300.554 158.861 300.291L159.986 300.607C159.867 300.988 159.668 301.324 159.389 301.613C159.109 301.899 158.764 302.123 158.352 302.284C157.941 302.442 157.479 302.521 156.966 302.521ZM165.015 302.521C164.384 302.521 163.826 302.362 163.342 302.043C162.859 301.72 162.481 301.266 162.208 300.681C161.934 300.092 161.798 299.396 161.798 298.594C161.798 297.797 161.934 297.107 162.208 296.521C162.481 295.936 162.86 295.483 163.347 295.164C163.834 294.845 164.397 294.686 165.035 294.686C165.528 294.686 165.918 294.768 166.204 294.932C166.494 295.094 166.714 295.278 166.865 295.485C167.02 295.689 167.14 295.857 167.226 295.988H167.324V292.258H168.489V302.363H167.364V301.199H167.226C167.14 301.337 167.018 301.511 166.86 301.722C166.703 301.929 166.477 302.115 166.184 302.279C165.892 302.441 165.502 302.521 165.015 302.521ZM165.173 301.475C165.64 301.475 166.035 301.353 166.357 301.11C166.68 300.863 166.925 300.523 167.092 300.089C167.26 299.651 167.344 299.146 167.344 298.574C167.344 298.008 167.262 297.513 167.097 297.089C166.933 296.661 166.689 296.329 166.367 296.092C166.045 295.852 165.647 295.732 165.173 295.732C164.68 295.732 164.268 295.858 163.939 296.112C163.614 296.362 163.369 296.702 163.204 297.133C163.043 297.561 162.962 298.041 162.962 298.574C162.962 299.113 163.045 299.603 163.209 300.044C163.377 300.482 163.624 300.83 163.949 301.09C164.278 301.347 164.686 301.475 165.173 301.475Z" fill="#A0A8F3"/>
<defs>
<linearGradient id="paint0_linear_807_3224" x1="292.992" y1="131.38" x2="-45.1909" y2="223.129" gradientUnits="userSpaceOnUse">
<stop stop-color="#383A69"/>
<stop offset="0.749096" stop-color="#68559E" stop-opacity="0.38"/>
<stop offset="1" stop-color="#FFE662" stop-opacity="0"/>
</linearGradient>
<linearGradient id="paint1_linear_807_3224" x1="43.4998" y1="-22.4999" x2="355" y2="164.5" gradientUnits="userSpaceOnUse">
<stop stop-color="#0E0B16"/>
<stop offset="1" stop-color="#191C35" stop-opacity="0.15"/>
</linearGradient>
</defs>
</svg>
