<svg width="40" height="40" viewBox="0 0 40 40" fill="none" xmlns="http://www.w3.org/2000/svg">
<g id="Group">
<path id="Path" d="M5 25.8333L8.33333 25.8335" stroke="white" stroke-width="2.5" stroke-linecap="round" stroke-linejoin="round"/>
<path id="Path_2" d="M5.00024 19.9993L8.33328 19.9998" stroke="white" stroke-width="2.5" stroke-linecap="round" stroke-linejoin="round"/>
<path id="Path_3" d="M5.00073 14.1667L8.33347 14.1667" stroke="white" stroke-width="2.5" stroke-linecap="round" stroke-linejoin="round"/>
<path id="Path_4" d="M35.0001 14.1667L31.6667 14.1667" stroke="white" stroke-width="2.5" stroke-linecap="round" stroke-linejoin="round"/>
<path id="Path_5" d="M34.9998 20.0007L31.6667 20.0002" stroke="white" stroke-width="2.5" stroke-linecap="round" stroke-linejoin="round"/>
<path id="Path_6" d="M34.9995 25.8334L31.6667 25.8333" stroke="white" stroke-width="2.5" stroke-linecap="round" stroke-linejoin="round"/>
<path id="Path_7" d="M14.1666 5L14.1665 8.33333" stroke="white" stroke-width="2.5" stroke-linecap="round" stroke-linejoin="round"/>
<path id="Path_8" d="M20.0009 5.00034L20.0003 8.33337" stroke="white" stroke-width="2.5" stroke-linecap="round" stroke-linejoin="round"/>
<path id="Path_9" d="M25.8334 5.00061L25.8333 8.33334" stroke="white" stroke-width="2.5" stroke-linecap="round" stroke-linejoin="round"/>
<path id="Path_10" d="M25.8332 35L25.8334 31.6667" stroke="white" stroke-width="2.5" stroke-linecap="round" stroke-linejoin="round"/>
<path id="Path_11" d="M19.9993 34.9997L19.9999 31.6667" stroke="white" stroke-width="2.5" stroke-linecap="round" stroke-linejoin="round"/>
<path id="Path_12" d="M14.1665 34.9994L14.1666 31.6667" stroke="white" stroke-width="2.5" stroke-linecap="round" stroke-linejoin="round"/>
<path id="Path_13" fill-rule="evenodd" clip-rule="evenodd" d="M24.9999 31.6667H14.9999C11.318 31.6667 8.33325 28.6819 8.33325 25V15C8.33325 11.3181 11.318 8.33334 14.9999 8.33334H24.9999C28.6818 8.33334 31.6666 11.3181 31.6666 15V25C31.6666 28.6819 28.6818 31.6667 24.9999 31.6667Z" stroke="white" stroke-width="2.5" stroke-linecap="round" stroke-linejoin="round"/>
<path id="Path_14" d="M14.5535 22.3H20.4606" stroke="white" stroke-width="2.5" stroke-linecap="round" stroke-linejoin="round"/>
<path id="Path_15" d="M20.9667 23.8333L18.4833 16.1667H16.55L14.0667 23.8333" stroke="white" stroke-width="2.5" stroke-linecap="round" stroke-linejoin="round"/>
<path id="Path_16" d="M25.1832 23.8333V16.1667" stroke="white" stroke-width="2.5" stroke-linecap="round" stroke-linejoin="round"/>
</g>
</svg>
