<svg width="143" height="307" viewBox="0 0 143 307" fill="none" xmlns="http://www.w3.org/2000/svg">
<path d="M0 15C0 6.71573 6.71573 0 15 0H143V307H15C6.71573 307 0 300.284 0 292V15Z" fill="url(#paint0_linear_807_2907)" fill-opacity="0.3"/>
<path d="M61.6508 69.4966C63.4607 69.7205 64.8415 70.3363 65.7931 71.3439C66.7447 72.3515 67.2205 73.611 67.2205 75.1224C67.2205 76.2606 66.9313 77.2962 66.3529 78.2291C65.7744 79.1621 64.8975 79.9084 63.7219 80.4682C62.5651 81.0093 61.147 81.2799 59.4676 81.2799C58.0682 81.2799 56.7154 81.084 55.4093 80.6921C54.1218 80.2816 53.0209 79.7218 52.1066 79.0128L53.674 76.1859C54.383 76.783 55.2413 77.2588 56.2489 77.6134C57.2752 77.9492 58.3294 78.1172 59.4117 78.1172C60.6991 78.1172 61.7067 77.8559 62.4344 77.3335C63.1808 76.7924 63.554 76.0647 63.554 75.1504C63.554 74.2361 63.1995 73.527 62.4904 73.0232C61.8 72.5007 60.7365 72.2395 59.2997 72.2395H57.5084V69.7485L61.9586 64.4587H53.0582V61.4079H66.4089V63.8429L61.6508 69.4966ZM85.5046 61.4079V63.8429L77.8917 81H74.0012L81.3623 64.4866H73.6654V67.8173H70.2787V61.4079H85.5046ZM91.7394 74.8361C90.7853 74.8361 90.0156 74.499 89.4304 73.8247C88.8452 73.1504 88.5525 72.2662 88.5525 71.1721C88.5525 70.078 88.8452 69.1938 89.4304 68.5196C90.0156 67.8453 90.7853 67.5082 91.7394 67.5082C92.6936 67.5082 93.4633 67.8453 94.0485 68.5196C94.6465 69.1811 94.9454 70.0653 94.9454 71.1721C94.9454 72.279 94.6465 73.1695 94.0485 73.8438C93.4633 74.5053 92.6936 74.8361 91.7394 74.8361ZM99.7544 67.6417H101.625L92.5028 81H90.6326L99.7544 67.6417ZM91.7394 73.5003C92.2611 73.5003 92.6618 73.2967 92.9417 72.8896C93.2343 72.4825 93.3806 71.91 93.3806 71.1721C93.3806 70.4342 93.2343 69.8618 92.9417 69.4546C92.6618 69.0475 92.2611 68.844 91.7394 68.844C91.2433 68.844 90.8425 69.0539 90.5372 69.4737C90.2446 69.8808 90.0983 70.447 90.0983 71.1721C90.0983 71.8973 90.2446 72.4698 90.5372 72.8896C90.8425 73.2967 91.2433 73.5003 91.7394 73.5003ZM100.499 81.1336C99.5445 81.1336 98.7748 80.7964 98.1896 80.1222C97.6044 79.4479 97.3117 78.5637 97.3117 77.4696C97.3117 76.3755 97.6044 75.4913 98.1896 74.817C98.7748 74.1428 99.5445 73.8056 100.499 73.8056C101.453 73.8056 102.223 74.1428 102.808 74.817C103.406 75.4913 103.705 76.3755 103.705 77.4696C103.705 78.5637 103.406 79.4479 102.808 80.1222C102.223 80.7964 101.453 81.1336 100.499 81.1336ZM100.499 79.7978C101.008 79.7978 101.408 79.5942 101.701 79.1871C101.994 78.7673 102.14 78.1948 102.14 77.4696C102.14 76.7444 101.994 76.1783 101.701 75.7712C101.408 75.3514 101.008 75.1414 100.499 75.1414C99.9898 75.1414 99.589 75.345 99.2964 75.7521C99.0038 76.1592 98.8575 76.7317 98.8575 77.4696C98.8575 78.2075 99.0038 78.78 99.2964 79.1871C99.589 79.5942 99.9898 79.7978 100.499 79.7978Z" fill="#CDCCF0" fill-opacity="0.85"/>
<path d="M34.267 62.4512V80.2622" stroke="#91CF7B" stroke-width="1.90832" stroke-linecap="round" stroke-linejoin="round"/>
<path d="M27.9045 68.8116L34.2669 62.4492L40.6292 68.8116" stroke="#91CF7B" stroke-width="1.90832" stroke-linecap="round" stroke-linejoin="round"/>
<rect x="22" y="103" width="104" height="19" rx="7.6333" fill="#AAA9EE" fill-opacity="0.1"/>
<rect x="22" y="134" width="84" height="19" rx="7.6333" fill="#AAA9EE" fill-opacity="0.05"/>
<path d="M66.9996 193.909C68.2871 193.909 69.444 194.161 70.4702 194.665C71.4965 195.15 72.2988 195.849 72.8772 196.764C73.4557 197.678 73.7449 198.732 73.7449 199.926C73.7449 201.195 73.4277 202.315 72.7933 203.285C72.1589 204.237 71.3005 204.974 70.2183 205.496C69.1361 206.019 67.9232 206.28 66.5798 206.28C63.8929 206.28 61.803 205.44 60.3103 203.761C58.8362 202.082 58.0992 199.675 58.0992 196.54C58.0992 194.338 58.5004 192.463 59.3027 190.914C60.105 189.347 61.2246 188.162 62.6613 187.359C64.1168 186.538 65.7961 186.128 67.6993 186.128C68.7069 186.128 69.6492 186.24 70.5262 186.464C71.4218 186.669 72.1962 186.977 72.8493 187.387L71.5058 190.13C70.5355 189.496 69.2947 189.179 67.7833 189.179C65.8987 189.179 64.4246 189.757 63.3611 190.914C62.2975 192.071 61.7657 193.741 61.7657 195.924V195.952C62.3441 195.28 63.0812 194.777 63.9768 194.441C64.8725 194.086 65.8801 193.909 66.9996 193.909ZM66.3838 203.425C67.5221 203.425 68.4457 203.126 69.1547 202.529C69.8638 201.914 70.2183 201.102 70.2183 200.094C70.2183 199.068 69.8638 198.256 69.1547 197.659C68.4457 197.062 67.4941 196.764 66.2999 196.764C65.1244 196.764 64.1634 197.081 63.417 197.715C62.6893 198.35 62.3255 199.152 62.3255 200.122C62.3255 201.074 62.68 201.867 63.3891 202.501C64.1168 203.117 65.115 203.425 66.3838 203.425ZM79.6314 199.836C78.6772 199.836 77.9075 199.499 77.3223 198.825C76.7371 198.15 76.4445 197.266 76.4445 196.172C76.4445 195.078 76.7371 194.194 77.3223 193.52C77.9075 192.845 78.6772 192.508 79.6314 192.508C80.5856 192.508 81.3552 192.845 81.9405 193.52C82.5384 194.181 82.8374 195.065 82.8374 196.172C82.8374 197.279 82.5384 198.17 81.9405 198.844C81.3552 199.505 80.5856 199.836 79.6314 199.836ZM87.6464 192.642H89.5165L80.3947 206H78.5246L87.6464 192.642ZM79.6314 198.5C80.153 198.5 80.5537 198.297 80.8336 197.89C81.1262 197.483 81.2726 196.91 81.2726 196.172C81.2726 195.434 81.1262 194.862 80.8336 194.455C80.5537 194.048 80.153 193.844 79.6314 193.844C79.1352 193.844 78.7345 194.054 78.4291 194.474C78.1365 194.881 77.9902 195.447 77.9902 196.172C77.9902 196.897 78.1365 197.47 78.4291 197.89C78.7345 198.297 79.1352 198.5 79.6314 198.5ZM88.3906 206.134C87.4364 206.134 86.6667 205.796 86.0815 205.122C85.4963 204.448 85.2037 203.564 85.2037 202.47C85.2037 201.375 85.4963 200.491 86.0815 199.817C86.6667 199.143 87.4364 198.806 88.3906 198.806C89.3448 198.806 90.1145 199.143 90.6997 199.817C91.2976 200.491 91.5966 201.375 91.5966 202.47C91.5966 203.564 91.2976 204.448 90.6997 205.122C90.1145 205.796 89.3448 206.134 88.3906 206.134ZM88.3906 204.798C88.8995 204.798 89.3002 204.594 89.5928 204.187C89.8855 203.767 90.0318 203.195 90.0318 202.47C90.0318 201.744 89.8855 201.178 89.5928 200.771C89.3002 200.351 88.8995 200.141 88.3906 200.141C87.8817 200.141 87.481 200.345 87.1884 200.752C86.8957 201.159 86.7494 201.732 86.7494 202.47C86.7494 203.207 86.8957 203.78 87.1884 204.187C87.481 204.594 87.8817 204.798 88.3906 204.798Z" fill="#CDCCF0" fill-opacity="0.85"/>
<g opacity="0.6">
<path d="M37.535 207.043V185.419" stroke="#CD7293" stroke-width="2.31681" stroke-linecap="round" stroke-linejoin="round"/>
<path d="M29.8105 199.321L37.5348 207.045L45.2591 199.321" stroke="#CD7293" stroke-width="2.31681" stroke-linecap="round" stroke-linejoin="round"/>
</g>
<rect x="22" y="228" width="77" height="19" rx="7.6333" fill="#AAA9EE" fill-opacity="0.1"/>
<rect x="22" y="259" width="60" height="19" rx="7.6333" fill="#AAA9EE" fill-opacity="0.05"/>
<path opacity="0.75" d="M26.4091 38V26.3636H30.4773C31.2879 26.3636 31.9564 26.5038 32.483 26.7841C33.0095 27.0606 33.4015 27.4337 33.6591 27.9034C33.9167 28.3693 34.0455 28.8864 34.0455 29.4545C34.0455 29.9545 33.9564 30.3674 33.7784 30.6932C33.6042 31.0189 33.3731 31.2765 33.0852 31.4659C32.8011 31.6553 32.4924 31.7955 32.1591 31.8864V32C32.5152 32.0227 32.8731 32.1477 33.233 32.375C33.5928 32.6023 33.8939 32.928 34.1364 33.3523C34.3788 33.7765 34.5 34.2955 34.5 34.9091C34.5 35.4924 34.3674 36.017 34.1023 36.483C33.8371 36.9489 33.4186 37.3182 32.8466 37.5909C32.2746 37.8636 31.5303 38 30.6136 38H26.4091ZM27.8182 36.75H30.6136C31.5341 36.75 32.1875 36.572 32.5739 36.2159C32.964 35.8561 33.1591 35.4205 33.1591 34.9091C33.1591 34.5152 33.0587 34.1515 32.858 33.8182C32.6572 33.4811 32.3712 33.2121 32 33.0114C31.6288 32.8068 31.1894 32.7045 30.6818 32.7045H27.8182V36.75ZM27.8182 31.4773H30.4318C30.8561 31.4773 31.2386 31.3939 31.5795 31.2273C31.9242 31.0606 32.197 30.8258 32.3977 30.5227C32.6023 30.2197 32.7045 29.8636 32.7045 29.4545C32.7045 28.9432 32.5265 28.5095 32.1705 28.1534C31.8144 27.7936 31.25 27.6136 30.4773 27.6136H27.8182V31.4773ZM40.6126 38.1818C39.7717 38.1818 39.0463 37.9962 38.4365 37.625C37.8304 37.25 37.3626 36.7273 37.0331 36.0568C36.7073 35.3826 36.5444 34.5985 36.5444 33.7045C36.5444 32.8106 36.7073 32.0227 37.0331 31.3409C37.3626 30.6553 37.8209 30.1212 38.4081 29.7386C38.999 29.3523 39.6884 29.1591 40.4762 29.1591C40.9308 29.1591 41.3797 29.2348 41.8228 29.3864C42.266 29.5379 42.6694 29.7841 43.0331 30.125C43.3967 30.4621 43.6865 30.9091 43.9024 31.4659C44.1183 32.0227 44.2262 32.7083 44.2262 33.5227V34.0909H37.499V32.9318H42.8626C42.8626 32.4394 42.7641 32 42.5672 31.6136C42.374 31.2273 42.0975 30.9223 41.7376 30.6989C41.3816 30.4754 40.9611 30.3636 40.4762 30.3636C39.9422 30.3636 39.48 30.4962 39.0899 30.7614C38.7035 31.0227 38.4062 31.3636 38.1978 31.7841C37.9895 32.2045 37.8853 32.6553 37.8853 33.1364V33.9091C37.8853 34.5682 37.999 35.1269 38.2262 35.5852C38.4573 36.0398 38.7774 36.3864 39.1865 36.625C39.5956 36.8598 40.0709 36.9773 40.6126 36.9773C40.9649 36.9773 41.2831 36.928 41.5672 36.8295C41.855 36.7273 42.1031 36.5758 42.3115 36.375C42.5198 36.1705 42.6808 35.9167 42.7944 35.6136L44.0899 35.9773C43.9535 36.4167 43.7244 36.803 43.4024 37.1364C43.0804 37.4659 42.6827 37.7235 42.2092 37.9091C41.7357 38.0909 41.2035 38.1818 40.6126 38.1818ZM52.7678 31.2273L51.5633 31.5682C51.4875 31.3674 51.3758 31.1723 51.2281 30.983C51.0841 30.7898 50.8872 30.6307 50.6372 30.5057C50.3872 30.3807 50.0671 30.3182 49.6769 30.3182C49.1428 30.3182 48.6978 30.4413 48.3417 30.6875C47.9894 30.9299 47.8133 31.2386 47.8133 31.6136C47.8133 31.947 47.9345 32.2102 48.1769 32.4034C48.4194 32.5966 48.7981 32.7576 49.3133 32.8864L50.6087 33.2045C51.3891 33.3939 51.9705 33.6837 52.3531 34.0739C52.7356 34.4602 52.9269 34.9583 52.9269 35.5682C52.9269 36.0682 52.783 36.5152 52.4951 36.9091C52.211 37.303 51.8133 37.6136 51.3019 37.8409C50.7906 38.0682 50.1959 38.1818 49.5178 38.1818C48.6277 38.1818 47.8909 37.9886 47.3076 37.6023C46.7243 37.2159 46.355 36.6515 46.1997 35.9091L47.4724 35.5909C47.5936 36.0606 47.8228 36.4129 48.1599 36.6477C48.5008 36.8826 48.9459 37 49.4951 37C50.1201 37 50.6163 36.8674 50.9837 36.6023C51.355 36.3333 51.5406 36.0114 51.5406 35.6364C51.5406 35.3333 51.4345 35.0795 51.2224 34.875C51.0103 34.6667 50.6845 34.5114 50.2451 34.4091L48.7906 34.0682C47.9913 33.8788 47.4042 33.5852 47.0292 33.1875C46.658 32.786 46.4724 32.2841 46.4724 31.6818C46.4724 31.1894 46.6106 30.7538 46.8872 30.375C47.1675 29.9962 47.5481 29.6989 48.0292 29.483C48.5141 29.267 49.0633 29.1591 49.6769 29.1591C50.5406 29.1591 51.2186 29.3485 51.711 29.7273C52.2072 30.1061 52.5595 30.6061 52.7678 31.2273ZM59.0609 29.2727V30.4091H54.5381V29.2727H59.0609ZM55.8563 27.1818H57.1972V35.5C57.1972 35.8788 57.2521 36.1629 57.362 36.3523C57.4756 36.5379 57.6196 36.6629 57.7938 36.7273C57.9718 36.7879 58.1593 36.8182 58.3563 36.8182C58.504 36.8182 58.6252 36.8106 58.7199 36.7955C58.8146 36.7765 58.8904 36.7614 58.9472 36.75L59.2199 37.9545C59.129 37.9886 59.0021 38.0227 58.8393 38.0568C58.6764 38.0947 58.4699 38.1136 58.2199 38.1136C57.8412 38.1136 57.4699 38.0322 57.1063 37.8693C56.7465 37.7064 56.4472 37.4583 56.2086 37.125C55.9737 36.7917 55.8563 36.3712 55.8563 35.8636V27.1818ZM67.4235 31.2273L66.2189 31.5682C66.1432 31.3674 66.0314 31.1723 65.8837 30.983C65.7398 30.7898 65.5428 30.6307 65.2928 30.5057C65.0428 30.3807 64.7227 30.3182 64.3326 30.3182C63.7985 30.3182 63.3534 30.4413 62.9973 30.6875C62.6451 30.9299 62.4689 31.2386 62.4689 31.6136C62.4689 31.947 62.5901 32.2102 62.8326 32.4034C63.075 32.5966 63.4538 32.7576 63.9689 32.8864L65.2644 33.2045C66.0447 33.3939 66.6261 33.6837 67.0087 34.0739C67.3913 34.4602 67.5826 34.9583 67.5826 35.5682C67.5826 36.0682 67.4386 36.5152 67.1507 36.9091C66.8666 37.303 66.4689 37.6136 65.9576 37.8409C65.4462 38.0682 64.8515 38.1818 64.1735 38.1818C63.2833 38.1818 62.5466 37.9886 61.9632 37.6023C61.3799 37.2159 61.0106 36.6515 60.8553 35.9091L62.128 35.5909C62.2492 36.0606 62.4784 36.4129 62.8155 36.6477C63.1564 36.8826 63.6015 37 64.1507 37C64.7757 37 65.2719 36.8674 65.6394 36.6023C66.0106 36.3333 66.1962 36.0114 66.1962 35.6364C66.1962 35.3333 66.0901 35.0795 65.878 34.875C65.6659 34.6667 65.3401 34.5114 64.9007 34.4091L63.4462 34.0682C62.6469 33.8788 62.0598 33.5852 61.6848 33.1875C61.3136 32.786 61.128 32.2841 61.128 31.6818C61.128 31.1894 61.2663 30.7538 61.5428 30.375C61.8231 29.9962 62.2038 29.6989 62.6848 29.483C63.1697 29.267 63.7189 29.1591 64.3326 29.1591C65.1962 29.1591 65.8742 29.3485 66.3666 29.7273C66.8629 30.1061 67.2151 30.6061 67.4235 31.2273ZM73.5801 38.1818C72.7392 38.1818 72.0138 37.9962 71.404 37.625C70.7979 37.25 70.3301 36.7273 70.0006 36.0568C69.6748 35.3826 69.5119 34.5985 69.5119 33.7045C69.5119 32.8106 69.6748 32.0227 70.0006 31.3409C70.3301 30.6553 70.7884 30.1212 71.3756 29.7386C71.9665 29.3523 72.6559 29.1591 73.4437 29.1591C73.8983 29.1591 74.3472 29.2348 74.7903 29.3864C75.2335 29.5379 75.6369 29.7841 76.0006 30.125C76.3642 30.4621 76.654 30.9091 76.8699 31.4659C77.0858 32.0227 77.1937 32.7083 77.1937 33.5227V34.0909H70.4665V32.9318H75.8301C75.8301 32.4394 75.7316 32 75.5347 31.6136C75.3415 31.2273 75.065 30.9223 74.7051 30.6989C74.3491 30.4754 73.9286 30.3636 73.4437 30.3636C72.9097 30.3636 72.4475 30.4962 72.0574 30.7614C71.671 31.0227 71.3737 31.3636 71.1653 31.7841C70.957 32.2045 70.8528 32.6553 70.8528 33.1364V33.9091C70.8528 34.5682 70.9665 35.1269 71.1937 35.5852C71.4248 36.0398 71.7449 36.3864 72.154 36.625C72.5631 36.8598 73.0384 36.9773 73.5801 36.9773C73.9324 36.9773 74.2506 36.928 74.5347 36.8295C74.8225 36.7273 75.0706 36.5758 75.279 36.375C75.4873 36.1705 75.6483 35.9167 75.7619 35.6136L77.0574 35.9773C76.921 36.4167 76.6919 36.803 76.3699 37.1364C76.0479 37.4659 75.6502 37.7235 75.1767 37.9091C74.7032 38.0909 74.171 38.1818 73.5801 38.1818ZM80.8944 26.3636V38H79.5535V26.3636H80.8944ZM85.0113 26.3636V38H83.6704V26.3636H85.0113ZM91.4464 38.1818C90.6055 38.1818 89.8801 37.9962 89.2702 37.625C88.6642 37.25 88.1964 36.7273 87.8668 36.0568C87.5411 35.3826 87.3782 34.5985 87.3782 33.7045C87.3782 32.8106 87.5411 32.0227 87.8668 31.3409C88.1964 30.6553 88.6547 30.1212 89.2418 29.7386C89.8327 29.3523 90.5221 29.1591 91.31 29.1591C91.7645 29.1591 92.2134 29.2348 92.6566 29.3864C93.0998 29.5379 93.5032 29.7841 93.8668 30.125C94.2305 30.4621 94.5202 30.9091 94.7361 31.4659C94.952 32.0227 95.06 32.7083 95.06 33.5227V34.0909H88.3327V32.9318H93.6964C93.6964 32.4394 93.5979 32 93.4009 31.6136C93.2077 31.2273 92.9312 30.9223 92.5714 30.6989C92.2153 30.4754 91.7949 30.3636 91.31 30.3636C90.7759 30.3636 90.3138 30.4962 89.9236 30.7614C89.5373 31.0227 89.2399 31.3636 89.0316 31.7841C88.8233 32.2045 88.7191 32.6553 88.7191 33.1364V33.9091C88.7191 34.5682 88.8327 35.1269 89.06 35.5852C89.2911 36.0398 89.6111 36.3864 90.0202 36.625C90.4293 36.8598 90.9047 36.9773 91.4464 36.9773C91.7986 36.9773 92.1168 36.928 92.4009 36.8295C92.6888 36.7273 92.9369 36.5758 93.1452 36.375C93.3536 36.1705 93.5145 35.9167 93.6282 35.6136L94.9236 35.9773C94.7873 36.4167 94.5581 36.803 94.2361 37.1364C93.9142 37.4659 93.5164 37.7235 93.043 37.9091C92.5695 38.0909 92.0373 38.1818 91.4464 38.1818ZM97.4198 38V29.2727H98.7152V30.5909H98.8061C98.9652 30.1591 99.2531 29.8087 99.6698 29.5398C100.086 29.2708 100.556 29.1364 101.079 29.1364C101.177 29.1364 101.3 29.1383 101.448 29.142C101.596 29.1458 101.708 29.1515 101.783 29.1591V30.5227C101.738 30.5114 101.634 30.4943 101.471 30.4716C101.312 30.4451 101.143 30.4318 100.965 30.4318C100.541 30.4318 100.162 30.5208 99.8289 30.6989C99.4993 30.8731 99.238 31.1155 99.0448 31.4261C98.8554 31.733 98.7607 32.0833 98.7607 32.4773V38H97.4198ZM109.875 31.2273L108.67 31.5682C108.594 31.3674 108.483 31.1723 108.335 30.983C108.191 30.7898 107.994 30.6307 107.744 30.5057C107.494 30.3807 107.174 30.3182 106.784 30.3182C106.25 30.3182 105.805 30.4413 105.449 30.6875C105.096 30.9299 104.92 31.2386 104.92 31.6136C104.92 31.947 105.041 32.2102 105.284 32.4034C105.526 32.5966 105.905 32.7576 106.42 32.8864L107.716 33.2045C108.496 33.3939 109.077 33.6837 109.46 34.0739C109.843 34.4602 110.034 34.9583 110.034 35.5682C110.034 36.0682 109.89 36.5152 109.602 36.9091C109.318 37.303 108.92 37.6136 108.409 37.8409C107.897 38.0682 107.303 38.1818 106.625 38.1818C105.735 38.1818 104.998 37.9886 104.414 37.6023C103.831 37.2159 103.462 36.6515 103.307 35.9091L104.579 35.5909C104.7 36.0606 104.93 36.4129 105.267 36.6477C105.608 36.8826 106.053 37 106.602 37C107.227 37 107.723 36.8674 108.091 36.6023C108.462 36.3333 108.647 36.0114 108.647 35.6364C108.647 35.3333 108.541 35.0795 108.329 34.875C108.117 34.6667 107.791 34.5114 107.352 34.4091L105.897 34.0682C105.098 33.8788 104.511 33.5852 104.136 33.1875C103.765 32.786 103.579 32.2841 103.579 31.6818C103.579 31.1894 103.718 30.7538 103.994 30.375C104.274 29.9962 104.655 29.6989 105.136 29.483C105.621 29.267 106.17 29.1591 106.784 29.1591C107.647 29.1591 108.325 29.3485 108.818 29.7273C109.314 30.1061 109.666 30.6061 109.875 31.2273Z" fill="#C8C7F7" fill-opacity="0.5"/>
<defs>
<linearGradient id="paint0_linear_807_2907" x1="-50.3148" y1="-150.234" x2="348.503" y2="253.646" gradientUnits="userSpaceOnUse">
<stop stop-color="#7E677D"/>
<stop offset="1" stop-color="#0C0C32"/>
</linearGradient>
</defs>
</svg>
