<svg width="351" height="76" viewBox="0 0 351 76" fill="none" xmlns="http://www.w3.org/2000/svg">
<g opacity="0.5">
<mask id="mask0_807_3262" style="mask-type:alpha" maskUnits="userSpaceOnUse" x="0" y="0" width="351" height="76">
<rect x="0.5" width="350" height="76" rx="16" fill="url(#paint0_linear_807_3262)"/>
</mask>
<g mask="url(#mask0_807_3262)">
<g filter="url(#filter0_f_807_3262)">
<ellipse cx="511.063" cy="416.882" rx="511.063" ry="416.882" transform="matrix(0.988674 0.150077 -0.375857 0.926678 -220.392 -392.328)" fill="#B764D5"/>
<g filter="url(#filter1_f_807_3262)">
<ellipse cx="589.441" cy="483.626" rx="589.441" ry="483.626" transform="matrix(0.945054 0.305293 -0.555101 0.848667 -419.909 -509.887)" fill="#0038FF"/>
</g>
<g filter="url(#filter2_f_807_3262)">
<path d="M-756.991 -278.637C-884.246 -180.565 -964.313 -100.369 -959.94 31.6413C-951.414 289.014 -427.399 456.283 -140.676 296.298C85.9442 169.849 -0.849311 -18.6589 -21.2727 -221.228C-30.2844 -310.611 -5.81848 -374.767 -77.3606 -446.194C-237.452 -606.028 -563.369 -427.857 -756.991 -278.637Z" fill="#FF4880"/>
</g>
<g filter="url(#filter3_f_807_3262)">
<path d="M831.176 -37.9353C901.91 1.63386 946.378 -55.8634 1015.63 -43.3512C1261.64 1.098 1019.3 411.503 745.84 396.841C487.127 382.969 475.84 -21.4452 475.84 -21.4452C475.84 -21.4452 489.172 -123.317 556.364 -144.555C617.003 -163.721 667.776 -145.442 717.208 -115.856C756.262 -92.4812 791.072 -60.3701 831.176 -37.9353Z" fill="#00FFFF"/>
</g>
</g>
</g>
</g>
<path fill-rule="evenodd" clip-rule="evenodd" d="M39.2041 41.5434L36.8828 30.5859H55.9759C56.9604 30.5859 57.6817 31.5099 57.4428 32.4656L55.4043 40.6194C55.0943 41.8579 54.0418 42.7683 52.7716 42.8953L42.4644 43.9266C40.928 44.0794 39.5231 43.0526 39.2041 41.5434Z" stroke="white" stroke-width="2.26831" stroke-linecap="round" stroke-linejoin="round"/>
<path d="M36.8827 30.5854L35.8998 26.0488H33.2927" stroke="white" stroke-width="2.26831" stroke-linecap="round" stroke-linejoin="round"/>
<path d="M53.8725 49.1362C53.567 49.1362 53.319 49.3842 53.322 49.6897C53.322 49.9952 53.57 50.2432 53.8755 50.2432C54.181 50.2432 54.429 49.9952 54.429 49.6897C54.4275 49.3842 54.1795 49.1362 53.8725 49.1362" stroke="white" stroke-width="2.26831" stroke-linecap="round" stroke-linejoin="round"/>
<path d="M41.1516 49.1355C40.8461 49.1355 40.5981 49.3835 40.6011 49.6889C40.5981 49.9959 40.8476 50.2439 41.1531 50.2439C41.4585 50.2439 41.7065 49.9959 41.7065 49.6905C41.7065 49.3835 41.4585 49.1355 41.1516 49.1355" stroke="white" stroke-width="2.26831" stroke-linecap="round" stroke-linejoin="round"/>
<path d="M78.713 45.3065C77.633 45.3065 76.6396 45.1332 75.733 44.7865C74.8263 44.4265 74.0396 43.9265 73.373 43.2865C72.7063 42.6332 72.1863 41.8732 71.813 41.0065C71.4396 40.1398 71.253 39.1865 71.253 38.1465C71.253 37.1065 71.4396 36.1532 71.813 35.2865C72.1863 34.4198 72.7063 33.6665 73.373 33.0265C74.053 32.3732 74.8463 31.8732 75.753 31.5265C76.6596 31.1665 77.6596 30.9865 78.753 30.9865C79.8596 30.9865 80.873 31.1665 81.793 31.5265C82.713 31.8865 83.493 32.4265 84.133 33.1465L82.893 34.3865C82.3196 33.8265 81.693 33.4198 81.013 33.1665C80.3463 32.8998 79.6196 32.7665 78.833 32.7665C78.033 32.7665 77.2863 32.8998 76.593 33.1665C75.913 33.4332 75.3196 33.8065 74.813 34.2865C74.3196 34.7665 73.933 35.3398 73.653 36.0065C73.3863 36.6598 73.253 37.3732 73.253 38.1465C73.253 38.9065 73.3863 39.6198 73.653 40.2865C73.933 40.9398 74.3196 41.5132 74.813 42.0065C75.3196 42.4865 75.913 42.8598 76.593 43.1265C77.273 43.3932 78.013 43.5265 78.813 43.5265C79.5596 43.5265 80.273 43.4132 80.953 43.1865C81.6463 42.9465 82.2863 42.5532 82.873 42.0065L84.013 43.5265C83.3196 44.1132 82.5063 44.5598 81.573 44.8665C80.653 45.1598 79.6996 45.3065 78.713 45.3065ZM82.093 43.2665V38.0665H84.013V43.5265L82.093 43.2665ZM92.2822 45.2665C91.1489 45.2665 90.1489 45.0332 89.2822 44.5665C88.4289 44.0998 87.7622 43.4598 87.2822 42.6465C86.8155 41.8332 86.5822 40.8998 86.5822 39.8465C86.5822 38.7932 86.8089 37.8598 87.2622 37.0465C87.7289 36.2332 88.3622 35.5998 89.1622 35.1465C89.9755 34.6798 90.8889 34.4465 91.9022 34.4465C92.9289 34.4465 93.8355 34.6732 94.6222 35.1265C95.4089 35.5798 96.0222 36.2198 96.4622 37.0465C96.9155 37.8598 97.1422 38.8132 97.1422 39.9065C97.1422 39.9865 97.1355 40.0798 97.1222 40.1865C97.1222 40.2932 97.1155 40.3932 97.1022 40.4865H88.0822V39.1065H96.1022L95.3222 39.5865C95.3355 38.9065 95.1955 38.2998 94.9022 37.7665C94.6089 37.2332 94.2022 36.8198 93.6822 36.5265C93.1755 36.2198 92.5822 36.0665 91.9022 36.0665C91.2355 36.0665 90.6422 36.2198 90.1222 36.5265C89.6022 36.8198 89.1955 37.2398 88.9022 37.7865C88.6089 38.3198 88.4622 38.9332 88.4622 39.6265V39.9465C88.4622 40.6532 88.6222 41.2865 88.9422 41.8465C89.2755 42.3932 89.7355 42.8198 90.3222 43.1265C90.9089 43.4332 91.5822 43.5865 92.3422 43.5865C92.9689 43.5865 93.5355 43.4798 94.0422 43.2665C94.5622 43.0532 95.0155 42.7332 95.4022 42.3065L96.4622 43.5465C95.9822 44.1065 95.3822 44.5332 94.6622 44.8265C93.9555 45.1198 93.1622 45.2665 92.2822 45.2665ZM105.468 34.4465C106.335 34.4465 107.095 34.6132 107.748 34.9465C108.415 35.2798 108.935 35.7865 109.308 36.4665C109.682 37.1465 109.868 38.0065 109.868 39.0465V45.1465H107.948V39.2665C107.948 38.2398 107.695 37.4665 107.188 36.9465C106.695 36.4265 105.995 36.1665 105.088 36.1665C104.408 36.1665 103.815 36.2998 103.308 36.5665C102.802 36.8332 102.408 37.2265 102.128 37.7465C101.862 38.2665 101.728 38.9132 101.728 39.6865V45.1465H99.8083V34.5465H101.648V37.4065L101.348 36.6465C101.695 35.9532 102.228 35.4132 102.948 35.0265C103.668 34.6398 104.508 34.4465 105.468 34.4465ZM118.142 45.2665C117.008 45.2665 116.008 45.0332 115.142 44.5665C114.288 44.0998 113.622 43.4598 113.142 42.6465C112.675 41.8332 112.442 40.8998 112.442 39.8465C112.442 38.7932 112.668 37.8598 113.122 37.0465C113.588 36.2332 114.222 35.5998 115.022 35.1465C115.835 34.6798 116.748 34.4465 117.762 34.4465C118.788 34.4465 119.695 34.6732 120.482 35.1265C121.268 35.5798 121.882 36.2198 122.322 37.0465C122.775 37.8598 123.002 38.8132 123.002 39.9065C123.002 39.9865 122.995 40.0798 122.982 40.1865C122.982 40.2932 122.975 40.3932 122.962 40.4865H113.942V39.1065H121.962L121.182 39.5865C121.195 38.9065 121.055 38.2998 120.762 37.7665C120.468 37.2332 120.062 36.8198 119.542 36.5265C119.035 36.2198 118.442 36.0665 117.762 36.0665C117.095 36.0665 116.502 36.2198 115.982 36.5265C115.462 36.8198 115.055 37.2398 114.762 37.7865C114.468 38.3198 114.322 38.9332 114.322 39.6265V39.9465C114.322 40.6532 114.482 41.2865 114.802 41.8465C115.135 42.3932 115.595 42.8198 116.182 43.1265C116.768 43.4332 117.442 43.5865 118.202 43.5865C118.828 43.5865 119.395 43.4798 119.902 43.2665C120.422 43.0532 120.875 42.7332 121.262 42.3065L122.322 43.5465C121.842 44.1065 121.242 44.5332 120.522 44.8265C119.815 45.1198 119.022 45.2665 118.142 45.2665ZM125.668 45.1465V34.5465H127.508V37.4265L127.328 36.7065C127.621 35.9732 128.114 35.4132 128.808 35.0265C129.501 34.6398 130.354 34.4465 131.368 34.4465V36.3065C131.288 36.2932 131.208 36.2865 131.128 36.2865C131.061 36.2865 130.994 36.2865 130.928 36.2865C129.901 36.2865 129.088 36.5932 128.488 37.2065C127.888 37.8198 127.588 38.7065 127.588 39.8665V45.1465H125.668ZM139.533 45.1465V42.9065L139.433 42.4865V38.6665C139.433 37.8532 139.193 37.2265 138.713 36.7865C138.246 36.3332 137.539 36.1065 136.593 36.1065C135.966 36.1065 135.353 36.2132 134.753 36.4265C134.153 36.6265 133.646 36.8998 133.233 37.2465L132.433 35.8065C132.979 35.3665 133.633 35.0332 134.393 34.8065C135.166 34.5665 135.973 34.4465 136.813 34.4465C138.266 34.4465 139.386 34.7998 140.173 35.5065C140.959 36.2132 141.353 37.2932 141.353 38.7465V45.1465H139.533ZM136.053 45.2665C135.266 45.2665 134.573 45.1332 133.973 44.8665C133.386 44.5998 132.933 44.2332 132.613 43.7665C132.293 43.2865 132.133 42.7465 132.133 42.1465C132.133 41.5732 132.266 41.0532 132.533 40.5865C132.813 40.1198 133.259 39.7465 133.873 39.4665C134.499 39.1865 135.339 39.0465 136.393 39.0465H139.753V40.4265H136.473C135.513 40.4265 134.866 40.5865 134.533 40.9065C134.199 41.2265 134.033 41.6132 134.033 42.0665C134.033 42.5865 134.239 43.0065 134.653 43.3265C135.066 43.6332 135.639 43.7865 136.373 43.7865C137.093 43.7865 137.719 43.6265 138.253 43.3065C138.799 42.9865 139.193 42.5198 139.433 41.9065L139.813 43.2265C139.559 43.8532 139.113 44.3532 138.473 44.7265C137.833 45.0865 137.026 45.2665 136.053 45.2665ZM148.546 45.2665C147.479 45.2665 146.653 44.9798 146.066 44.4065C145.479 43.8332 145.186 43.0132 145.186 41.9465V32.2265H147.106V41.8665C147.106 42.4398 147.246 42.8798 147.526 43.1865C147.819 43.4932 148.233 43.6465 148.766 43.6465C149.366 43.6465 149.866 43.4798 150.266 43.1465L150.866 44.5265C150.573 44.7798 150.219 44.9665 149.806 45.0865C149.406 45.2065 148.986 45.2665 148.546 45.2665ZM143.386 36.1265V34.5465H150.146V36.1265H143.386ZM157.556 45.2665C156.422 45.2665 155.422 45.0332 154.556 44.5665C153.702 44.0998 153.036 43.4598 152.556 42.6465C152.089 41.8332 151.856 40.8998 151.856 39.8465C151.856 38.7932 152.082 37.8598 152.536 37.0465C153.002 36.2332 153.636 35.5998 154.436 35.1465C155.249 34.6798 156.162 34.4465 157.176 34.4465C158.202 34.4465 159.109 34.6732 159.896 35.1265C160.682 35.5798 161.296 36.2198 161.736 37.0465C162.189 37.8598 162.416 38.8132 162.416 39.9065C162.416 39.9865 162.409 40.0798 162.396 40.1865C162.396 40.2932 162.389 40.3932 162.376 40.4865H153.356V39.1065H161.376L160.596 39.5865C160.609 38.9065 160.469 38.2998 160.176 37.7665C159.882 37.2332 159.476 36.8198 158.956 36.5265C158.449 36.2198 157.856 36.0665 157.176 36.0665C156.509 36.0665 155.916 36.2198 155.396 36.5265C154.876 36.8198 154.469 37.2398 154.176 37.7865C153.882 38.3198 153.736 38.9332 153.736 39.6265V39.9465C153.736 40.6532 153.896 41.2865 154.216 41.8465C154.549 42.3932 155.009 42.8198 155.596 43.1265C156.182 43.4332 156.856 43.5865 157.616 43.5865C158.242 43.5865 158.809 43.4798 159.316 43.2665C159.836 43.0532 160.289 42.7332 160.676 42.3065L161.736 43.5465C161.256 44.1065 160.656 44.5332 159.936 44.8265C159.229 45.1198 158.436 45.2665 157.556 45.2665ZM176.073 45.2665C175.193 45.2665 174.386 45.0665 173.653 44.6665C172.933 44.2532 172.353 43.6465 171.913 42.8465C171.486 42.0465 171.273 41.0465 171.273 39.8465C171.273 38.6465 171.479 37.6465 171.893 36.8465C172.319 36.0465 172.893 35.4465 173.613 35.0465C174.346 34.6465 175.166 34.4465 176.073 34.4465C177.113 34.4465 178.033 34.6732 178.833 35.1265C179.633 35.5798 180.266 36.2132 180.733 37.0265C181.199 37.8265 181.433 38.7665 181.433 39.8465C181.433 40.9265 181.199 41.8732 180.733 42.6865C180.266 43.4998 179.633 44.1332 178.833 44.5865C178.033 45.0398 177.113 45.2665 176.073 45.2665ZM170.453 49.0265V34.5465H172.293V37.4065L172.173 39.8665L172.373 42.3265V49.0265H170.453ZM175.913 43.5865C176.593 43.5865 177.199 43.4332 177.733 43.1265C178.279 42.8198 178.706 42.3865 179.013 41.8265C179.333 41.2532 179.493 40.5932 179.493 39.8465C179.493 39.0865 179.333 38.4332 179.013 37.8865C178.706 37.3265 178.279 36.8932 177.733 36.5865C177.199 36.2798 176.593 36.1265 175.913 36.1265C175.246 36.1265 174.639 36.2798 174.093 36.5865C173.559 36.8932 173.133 37.3265 172.813 37.8865C172.506 38.4332 172.353 39.0865 172.353 39.8465C172.353 40.5932 172.506 41.2532 172.813 41.8265C173.133 42.3865 173.559 42.8198 174.093 43.1265C174.639 43.4332 175.246 43.5865 175.913 43.5865ZM188.546 45.2665C187.639 45.2665 186.839 45.0998 186.146 44.7665C185.466 44.4332 184.932 43.9265 184.546 43.2465C184.172 42.5532 183.986 41.6865 183.986 40.6465V34.5465H185.906V40.4265C185.906 41.4665 186.152 42.2465 186.646 42.7665C187.152 43.2865 187.859 43.5465 188.766 43.5465C189.432 43.5465 190.012 43.4132 190.506 43.1465C190.999 42.8665 191.379 42.4665 191.646 41.9465C191.912 41.4132 192.046 40.7732 192.046 40.0265V34.5465H193.966V45.1465H192.146V42.2865L192.446 43.0465C192.099 43.7532 191.579 44.2998 190.886 44.6865C190.192 45.0732 189.412 45.2665 188.546 45.2665ZM197.621 45.1465V34.5465H199.461V37.4265L199.281 36.7065C199.574 35.9732 200.067 35.4132 200.761 35.0265C201.454 34.6398 202.307 34.4465 203.321 34.4465V36.3065C203.241 36.2932 203.161 36.2865 203.081 36.2865C203.014 36.2865 202.947 36.2865 202.881 36.2865C201.854 36.2865 201.041 36.5932 200.441 37.2065C199.841 37.8198 199.541 38.7065 199.541 39.8665V45.1465H197.621ZM210.21 45.2665C209.13 45.2665 208.163 45.0332 207.31 44.5665C206.47 44.0998 205.81 43.4598 205.33 42.6465C204.85 41.8332 204.61 40.8998 204.61 39.8465C204.61 38.7932 204.85 37.8598 205.33 37.0465C205.81 36.2332 206.47 35.5998 207.31 35.1465C208.163 34.6798 209.13 34.4465 210.21 34.4465C211.17 34.4465 212.023 34.6398 212.77 35.0265C213.53 35.3998 214.116 35.9598 214.53 36.7065L213.07 37.6465C212.723 37.1265 212.296 36.7465 211.79 36.5065C211.296 36.2532 210.763 36.1265 210.19 36.1265C209.496 36.1265 208.876 36.2798 208.33 36.5865C207.783 36.8932 207.35 37.3265 207.03 37.8865C206.71 38.4332 206.55 39.0865 206.55 39.8465C206.55 40.6065 206.71 41.2665 207.03 41.8265C207.35 42.3865 207.783 42.8198 208.33 43.1265C208.876 43.4332 209.496 43.5865 210.19 43.5865C210.763 43.5865 211.296 43.4665 211.79 43.2265C212.296 42.9732 212.723 42.5865 213.07 42.0665L214.53 42.9865C214.116 43.7198 213.53 44.2865 212.77 44.6865C212.023 45.0732 211.17 45.2665 210.21 45.2665ZM222.539 34.4465C223.405 34.4465 224.165 34.6132 224.819 34.9465C225.485 35.2798 226.005 35.7865 226.379 36.4665C226.752 37.1465 226.939 38.0065 226.939 39.0465V45.1465H225.019V39.2665C225.019 38.2398 224.765 37.4665 224.259 36.9465C223.765 36.4265 223.065 36.1665 222.159 36.1665C221.479 36.1665 220.885 36.2998 220.379 36.5665C219.872 36.8332 219.479 37.2265 219.199 37.7465C218.932 38.2665 218.799 38.9132 218.799 39.6865V45.1465H216.879V30.3065H218.799V37.4065L218.419 36.6465C218.765 35.9532 219.299 35.4132 220.019 35.0265C220.739 34.6398 221.579 34.4465 222.539 34.4465ZM237.072 45.1465V42.9065L236.972 42.4865V38.6665C236.972 37.8532 236.732 37.2265 236.252 36.7865C235.785 36.3332 235.079 36.1065 234.132 36.1065C233.505 36.1065 232.892 36.2132 232.292 36.4265C231.692 36.6265 231.185 36.8998 230.772 37.2465L229.972 35.8065C230.519 35.3665 231.172 35.0332 231.932 34.8065C232.705 34.5665 233.512 34.4465 234.352 34.4465C235.805 34.4465 236.925 34.7998 237.712 35.5065C238.499 36.2132 238.892 37.2932 238.892 38.7465V45.1465H237.072ZM233.592 45.2665C232.805 45.2665 232.112 45.1332 231.512 44.8665C230.925 44.5998 230.472 44.2332 230.152 43.7665C229.832 43.2865 229.672 42.7465 229.672 42.1465C229.672 41.5732 229.805 41.0532 230.072 40.5865C230.352 40.1198 230.799 39.7465 231.412 39.4665C232.039 39.1865 232.879 39.0465 233.932 39.0465H237.292V40.4265H234.012C233.052 40.4265 232.405 40.5865 232.072 40.9065C231.739 41.2265 231.572 41.6132 231.572 42.0665C231.572 42.5865 231.779 43.0065 232.192 43.3265C232.605 43.6332 233.179 43.7865 233.912 43.7865C234.632 43.7865 235.259 43.6265 235.792 43.3065C236.339 42.9865 236.732 42.5198 236.972 41.9065L237.352 43.2265C237.099 43.8532 236.652 44.3532 236.012 44.7265C235.372 45.0865 234.565 45.2665 233.592 45.2665ZM245.485 45.2665C244.605 45.2665 243.765 45.1465 242.965 44.9065C242.178 44.6665 241.558 44.3732 241.105 44.0265L241.905 42.5065C242.358 42.8132 242.918 43.0732 243.585 43.2865C244.252 43.4998 244.932 43.6065 245.625 43.6065C246.518 43.6065 247.158 43.4798 247.545 43.2265C247.945 42.9732 248.145 42.6198 248.145 42.1665C248.145 41.8332 248.025 41.5732 247.785 41.3865C247.545 41.1998 247.225 41.0598 246.825 40.9665C246.438 40.8732 246.005 40.7932 245.525 40.7265C245.045 40.6465 244.565 40.5532 244.085 40.4465C243.605 40.3265 243.165 40.1665 242.765 39.9665C242.365 39.7532 242.045 39.4665 241.805 39.1065C241.565 38.7332 241.445 38.2398 241.445 37.6265C241.445 36.9865 241.625 36.4265 241.985 35.9465C242.345 35.4665 242.852 35.0998 243.505 34.8465C244.172 34.5798 244.958 34.4465 245.865 34.4465C246.558 34.4465 247.258 34.5332 247.965 34.7065C248.685 34.8665 249.272 35.0998 249.725 35.4065L248.905 36.9265C248.425 36.6065 247.925 36.3865 247.405 36.2665C246.885 36.1465 246.365 36.0865 245.845 36.0865C245.005 36.0865 244.378 36.2265 243.965 36.5065C243.552 36.7732 243.345 37.1198 243.345 37.5465C243.345 37.9065 243.465 38.1865 243.705 38.3865C243.958 38.5732 244.278 38.7198 244.665 38.8265C245.065 38.9332 245.505 39.0265 245.985 39.1065C246.465 39.1732 246.945 39.2665 247.425 39.3865C247.905 39.4932 248.338 39.6465 248.725 39.8465C249.125 40.0465 249.445 40.3265 249.685 40.6865C249.938 41.0465 250.065 41.5265 250.065 42.1265C250.065 42.7665 249.878 43.3198 249.505 43.7865C249.132 44.2532 248.605 44.6198 247.925 44.8865C247.245 45.1398 246.432 45.2665 245.485 45.2665ZM257.185 45.2665C256.051 45.2665 255.051 45.0332 254.185 44.5665C253.331 44.0998 252.665 43.4598 252.185 42.6465C251.718 41.8332 251.485 40.8998 251.485 39.8465C251.485 38.7932 251.711 37.8598 252.165 37.0465C252.631 36.2332 253.265 35.5998 254.065 35.1465C254.878 34.6798 255.791 34.4465 256.805 34.4465C257.831 34.4465 258.738 34.6732 259.525 35.1265C260.311 35.5798 260.925 36.2198 261.365 37.0465C261.818 37.8598 262.045 38.8132 262.045 39.9065C262.045 39.9865 262.038 40.0798 262.025 40.1865C262.025 40.2932 262.018 40.3932 262.005 40.4865H252.985V39.1065H261.005L260.225 39.5865C260.238 38.9065 260.098 38.2998 259.805 37.7665C259.511 37.2332 259.105 36.8198 258.585 36.5265C258.078 36.2198 257.485 36.0665 256.805 36.0665C256.138 36.0665 255.545 36.2198 255.025 36.5265C254.505 36.8198 254.098 37.2398 253.805 37.7865C253.511 38.3198 253.365 38.9332 253.365 39.6265V39.9465C253.365 40.6532 253.525 41.2865 253.845 41.8465C254.178 42.3932 254.638 42.8198 255.225 43.1265C255.811 43.4332 256.485 43.5865 257.245 43.5865C257.871 43.5865 258.438 43.4798 258.945 43.2665C259.465 43.0532 259.918 42.7332 260.305 42.3065L261.365 43.5465C260.885 44.1065 260.285 44.5332 259.565 44.8265C258.858 45.1198 258.065 45.2665 257.185 45.2665ZM274.622 45.2665C273.555 45.2665 272.608 45.0332 271.782 44.5665C270.955 44.0998 270.302 43.4598 269.822 42.6465C269.342 41.8198 269.102 40.8865 269.102 39.8465C269.102 38.7932 269.342 37.8598 269.822 37.0465C270.302 36.2332 270.955 35.5998 271.782 35.1465C272.608 34.6798 273.555 34.4465 274.622 34.4465C275.675 34.4465 276.615 34.6798 277.442 35.1465C278.282 35.5998 278.935 36.2332 279.402 37.0465C279.882 37.8465 280.122 38.7798 280.122 39.8465C280.122 40.8998 279.882 41.8332 279.402 42.6465C278.935 43.4598 278.282 44.0998 277.442 44.5665C276.615 45.0332 275.675 45.2665 274.622 45.2665ZM274.622 43.5865C275.302 43.5865 275.908 43.4332 276.442 43.1265C276.988 42.8198 277.415 42.3865 277.722 41.8265C278.028 41.2532 278.182 40.5932 278.182 39.8465C278.182 39.0865 278.028 38.4332 277.722 37.8865C277.415 37.3265 276.988 36.8932 276.442 36.5865C275.908 36.2798 275.302 36.1265 274.622 36.1265C273.942 36.1265 273.335 36.2798 272.802 36.5865C272.268 36.8932 271.842 37.3265 271.522 37.8865C271.202 38.4332 271.042 39.0865 271.042 39.8465C271.042 40.5932 271.202 41.2532 271.522 41.8265C271.842 42.3865 272.268 42.8198 272.802 43.1265C273.335 43.4332 273.942 43.5865 274.622 43.5865ZM282.777 45.1465V34.5465H284.617V37.4265L284.437 36.7065C284.73 35.9732 285.224 35.4132 285.917 35.0265C286.61 34.6398 287.464 34.4465 288.477 34.4465V36.3065C288.397 36.2932 288.317 36.2865 288.237 36.2865C288.17 36.2865 288.104 36.2865 288.037 36.2865C287.01 36.2865 286.197 36.5932 285.597 37.2065C284.997 37.8198 284.697 38.7065 284.697 39.8665V45.1465H282.777ZM295.126 45.2665C294.099 45.2665 293.179 45.0398 292.366 44.5865C291.566 44.1332 290.932 43.4998 290.466 42.6865C289.999 41.8732 289.766 40.9265 289.766 39.8465C289.766 38.7665 289.999 37.8265 290.466 37.0265C290.932 36.2132 291.566 35.5798 292.366 35.1265C293.179 34.6732 294.099 34.4465 295.126 34.4465C296.019 34.4465 296.826 34.6465 297.546 35.0465C298.266 35.4465 298.839 36.0465 299.266 36.8465C299.706 37.6465 299.926 38.6465 299.926 39.8465C299.926 41.0465 299.712 42.0465 299.286 42.8465C298.872 43.6465 298.306 44.2532 297.586 44.6665C296.866 45.0665 296.046 45.2665 295.126 45.2665ZM295.286 43.5865C295.952 43.5865 296.552 43.4332 297.086 43.1265C297.632 42.8198 298.059 42.3865 298.366 41.8265C298.686 41.2532 298.846 40.5932 298.846 39.8465C298.846 39.0865 298.686 38.4332 298.366 37.8865C298.059 37.3265 297.632 36.8932 297.086 36.5865C296.552 36.2798 295.952 36.1265 295.286 36.1265C294.606 36.1265 293.999 36.2798 293.466 36.5865C292.932 36.8932 292.506 37.3265 292.186 37.8865C291.866 38.4332 291.706 39.0865 291.706 39.8465C291.706 40.5932 291.866 41.2532 292.186 41.8265C292.506 42.3865 292.932 42.8198 293.466 43.1265C293.999 43.4332 294.606 43.5865 295.286 43.5865ZM298.906 45.1465V42.2865L299.026 39.8265L298.826 37.3665V30.3065H300.746V45.1465H298.906ZM309.099 45.2665C307.965 45.2665 306.965 45.0332 306.099 44.5665C305.245 44.0998 304.579 43.4598 304.099 42.6465C303.632 41.8332 303.399 40.8998 303.399 39.8465C303.399 38.7932 303.625 37.8598 304.079 37.0465C304.545 36.2332 305.179 35.5998 305.979 35.1465C306.792 34.6798 307.705 34.4465 308.719 34.4465C309.745 34.4465 310.652 34.6732 311.439 35.1265C312.225 35.5798 312.839 36.2198 313.279 37.0465C313.732 37.8598 313.959 38.8132 313.959 39.9065C313.959 39.9865 313.952 40.0798 313.939 40.1865C313.939 40.2932 313.932 40.3932 313.919 40.4865H304.899V39.1065H312.919L312.139 39.5865C312.152 38.9065 312.012 38.2998 311.719 37.7665C311.425 37.2332 311.019 36.8198 310.499 36.5265C309.992 36.2198 309.399 36.0665 308.719 36.0665C308.052 36.0665 307.459 36.2198 306.939 36.5265C306.419 36.8198 306.012 37.2398 305.719 37.7865C305.425 38.3198 305.279 38.9332 305.279 39.6265V39.9465C305.279 40.6532 305.439 41.2865 305.759 41.8465C306.092 42.3932 306.552 42.8198 307.139 43.1265C307.725 43.4332 308.399 43.5865 309.159 43.5865C309.785 43.5865 310.352 43.4798 310.859 43.2665C311.379 43.0532 311.832 42.7332 312.219 42.3065L313.279 43.5465C312.799 44.1065 312.199 44.5332 311.479 44.8265C310.772 45.1198 309.979 45.2665 309.099 45.2665ZM316.625 45.1465V34.5465H318.465V37.4265L318.285 36.7065C318.578 35.9732 319.071 35.4132 319.765 35.0265C320.458 34.6398 321.311 34.4465 322.325 34.4465V36.3065C322.245 36.2932 322.165 36.2865 322.085 36.2865C322.018 36.2865 321.951 36.2865 321.885 36.2865C320.858 36.2865 320.045 36.5932 319.445 37.2065C318.845 37.8198 318.545 38.7065 318.545 39.8665V45.1465H316.625Z" fill="white"/>
<defs>
<filter id="filter0_f_807_3262" x="-1365.24" y="-914.142" width="2887.97" height="1848.04" filterUnits="userSpaceOnUse" color-interpolation-filters="sRGB">
<feFlood flood-opacity="0" result="BackgroundImageFix"/>
<feBlend mode="normal" in="SourceGraphic" in2="BackgroundImageFix" result="shape"/>
<feGaussianBlur stdDeviation="202.565" result="effect1_foregroundBlur_807_3262"/>
</filter>
<filter id="filter1_f_807_3262" x="-1251.13" y="-869.063" width="2239.62" height="1899.13" filterUnits="userSpaceOnUse" color-interpolation-filters="sRGB">
<feFlood flood-opacity="0" result="BackgroundImageFix"/>
<feBlend mode="normal" in="SourceGraphic" in2="BackgroundImageFix" result="shape"/>
<feGaussianBlur stdDeviation="250.65" result="effect1_foregroundBlur_807_3262"/>
</filter>
<filter id="filter2_f_807_3262" x="-1307.25" y="-856.152" width="1666.48" height="1562.28" filterUnits="userSpaceOnUse" color-interpolation-filters="sRGB">
<feFlood flood-opacity="0" result="BackgroundImageFix"/>
<feBlend mode="normal" in="SourceGraphic" in2="BackgroundImageFix" result="shape"/>
<feGaussianBlur stdDeviation="173.57" result="effect1_foregroundBlur_807_3262"/>
</filter>
<filter id="filter3_f_807_3262" x="233.491" y="-394.771" width="1126.46" height="1034.34" filterUnits="userSpaceOnUse" color-interpolation-filters="sRGB">
<feFlood flood-opacity="0" result="BackgroundImageFix"/>
<feBlend mode="normal" in="SourceGraphic" in2="BackgroundImageFix" result="shape"/>
<feGaussianBlur stdDeviation="121.174" result="effect1_foregroundBlur_807_3262"/>
</filter>
<linearGradient id="paint0_linear_807_3262" x1="-141.073" y1="-207.257" x2="357.324" y2="79.9659" gradientUnits="userSpaceOnUse">
<stop stop-color="#7ABCEC"/>
<stop offset="1" stop-color="#693EA0"/>
</linearGradient>
</defs>
</svg>
