<svg width="184" height="188" viewBox="0 0 184 188" fill="none" xmlns="http://www.w3.org/2000/svg">
<g opacity="0.75" filter="url(#filter0_f_514_7408)">
<path d="M84.0555 33.7901L36.8507 62.8565C34.007 64.6074 32.3967 67.8148 32.6911 71.1413L37.6334 126.985C37.9256 130.287 40.0456 133.146 43.1205 134.385L94.7373 155.184C97.4017 156.257 100.422 155.965 102.832 154.402L147.92 125.142C150.659 123.365 152.191 120.22 151.903 116.969L146.944 60.9331C146.654 57.6567 144.565 54.8142 141.524 53.5599L92.0404 33.1473C89.4294 32.0702 86.4605 32.3092 84.0555 33.7901Z" stroke="url(#paint0_linear_514_7408)" stroke-width="4"/>
</g>
<path opacity="0.5" d="M84.0535 33.7901L36.8487 62.8565C34.0051 64.6074 32.3948 67.8148 32.6892 71.1413L37.6314 126.985C37.9237 130.287 40.0436 133.146 43.1186 134.385L94.7353 155.184C97.3998 156.257 100.42 155.965 102.83 154.402L147.919 125.142C150.657 123.365 152.189 120.22 151.901 116.969L146.942 60.9331C146.652 57.6567 144.563 54.8142 141.522 53.5599L92.0384 33.1473C89.4275 32.0702 86.4586 32.3092 84.0535 33.7901Z" stroke="url(#paint1_linear_514_7408)" stroke-width="4"/>
<path fill-rule="evenodd" clip-rule="evenodd" d="M78.6684 85.8255C78.6684 82.4249 81.4256 79.6677 84.8262 79.6677H103.167C106.568 79.6677 109.325 82.4249 109.325 85.8255V104.166C109.325 107.567 106.568 110.324 103.167 110.324H84.8262C81.4256 110.324 78.6684 107.567 78.6684 104.166V85.8255ZM84.8262 77.3105C80.1238 77.3105 76.3113 81.1231 76.3113 85.8255V104.166C76.3113 108.869 80.1238 112.681 84.8262 112.681H103.167C107.87 112.681 111.682 108.869 111.682 104.166V85.8255C111.682 81.1231 107.87 77.3105 103.167 77.3105H84.8262ZM94.0001 85.1702C91.8823 85.1702 90.1349 86.9344 90.1349 89.0555C90.1349 91.1644 91.87 92.9006 94.0001 92.9006C96.118 92.9006 97.8653 91.1363 97.8653 89.0152C97.8653 86.9063 96.1302 85.1702 94.0001 85.1702ZM87.7778 89.0555C87.7778 85.6487 90.5644 82.813 94.0001 82.813C97.4237 82.813 100.222 85.5961 100.222 89.0152C100.222 92.422 97.4359 95.2577 94.0001 95.2577C90.5766 95.2577 87.7778 92.4746 87.7778 89.0555ZM89.946 99.8423C87.7795 99.8423 86.0038 101.618 86.0038 103.783V104.777C86.0038 104.783 86.0049 104.787 86.0065 104.791C86.0085 104.796 86.0122 104.802 86.0179 104.807C86.0236 104.813 86.0294 104.817 86.0341 104.819C86.038 104.82 86.0422 104.822 86.0486 104.822H101.943C101.949 104.822 101.953 104.82 101.957 104.819C101.962 104.817 101.968 104.813 101.974 104.807C101.98 104.802 101.983 104.796 101.985 104.791C101.987 104.788 101.988 104.784 101.988 104.779V103.784C101.988 101.618 100.211 99.8423 98.0472 99.8423H89.946ZM83.6467 103.783C83.6467 100.316 86.4782 97.4851 89.946 97.4851H98.0472C101.514 97.4851 104.345 100.317 104.345 103.784V104.779C104.345 106.102 103.266 107.179 101.943 107.179H86.0486C84.7246 107.179 83.6467 106.101 83.6467 104.777V103.783Z" fill="url(#paint2_linear_514_7408)"/>
<defs>
<filter id="filter0_f_514_7408" x="0.656738" y="0.481018" width="183.281" height="187.341" filterUnits="userSpaceOnUse" color-interpolation-filters="sRGB">
<feFlood flood-opacity="0" result="BackgroundImageFix"/>
<feBlend mode="normal" in="SourceGraphic" in2="BackgroundImageFix" result="shape"/>
<feGaussianBlur stdDeviation="15" result="effect1_foregroundBlur_514_7408"/>
</filter>
<linearGradient id="paint0_linear_514_7408" x1="111.498" y1="162" x2="65.9983" y2="71.4999" gradientUnits="userSpaceOnUse">
<stop stop-color="#E9A867"/>
<stop offset="1" stop-color="#E77565" stop-opacity="0"/>
</linearGradient>
<linearGradient id="paint1_linear_514_7408" x1="117.496" y1="182.5" x2="34.4963" y2="53.9999" gradientUnits="userSpaceOnUse">
<stop stop-color="#A2817B"/>
<stop offset="1" stop-color="#B45F54" stop-opacity="0"/>
</linearGradient>
<linearGradient id="paint2_linear_514_7408" x1="116.952" y1="123.841" x2="65.7476" y2="52.2461" gradientUnits="userSpaceOnUse">
<stop stop-color="#836771"/>
<stop offset="1" stop-color="#D89A75" stop-opacity="0"/>
</linearGradient>
</defs>
</svg>
