<svg width="40" height="40" viewBox="0 0 40 40" fill="none" xmlns="http://www.w3.org/2000/svg">
<path fill-rule="evenodd" clip-rule="evenodd" d="M30.0002 28.3333H33.3335C34.2535 28.3333 35.0002 29.08 35.0002 30V33.3333C35.0002 34.2533 34.2535 35 33.3335 35H30.0002C29.0802 35 28.3335 34.2533 28.3335 33.3333V30C28.3335 29.08 29.0802 28.3333 30.0002 28.3333Z" stroke="white" stroke-width="2.53125" stroke-linecap="round" stroke-linejoin="round"/>
<path fill-rule="evenodd" clip-rule="evenodd" d="M6.66667 5H10C10.92 5 11.6667 5.74667 11.6667 6.66667V10C11.6667 10.92 10.92 11.6667 10 11.6667H6.66667C5.74667 11.6667 5 10.92 5 10V6.66667C5 5.74667 5.74667 5 6.66667 5Z" stroke="white" stroke-width="2.53125" stroke-linecap="round" stroke-linejoin="round"/>
<path fill-rule="evenodd" clip-rule="evenodd" d="M18.3332 16.6667H21.6665C22.5865 16.6667 23.3332 17.4133 23.3332 18.3333V21.6667C23.3332 22.5867 22.5865 23.3333 21.6665 23.3333H18.3332C17.4132 23.3333 16.6665 22.5867 16.6665 21.6667V18.3333C16.6665 17.4133 17.4132 16.6667 18.3332 16.6667Z" stroke="white" stroke-width="2.53125" stroke-linecap="round" stroke-linejoin="round"/>
<path d="M18.3335 8.33334H31.6668C33.5085 8.33334 35.0002 9.82501 35.0002 11.6667V16.6667C35.0002 18.5083 33.5085 20 31.6668 20H28.3335" stroke="white" stroke-width="2.5" stroke-linecap="round" stroke-linejoin="round"/>
<path d="M21.6667 31.6667H8.33333C6.49167 31.6667 5 30.175 5 28.3333V23.3333C5 21.4917 6.49167 20 8.33333 20H11.6667" stroke="white" stroke-width="2.5" stroke-linecap="round" stroke-linejoin="round"/>
</svg>
