<svg width="793" height="500" viewBox="0 0 793 500" fill="none" xmlns="http://www.w3.org/2000/svg">
<g opacity="0.8" filter="url(#filter0_b_299_19238)">
<rect x="86" y="43.636" width="528" height="284" rx="15" fill="#16183A" fill-opacity="0.7"/>
<rect x="86" y="43.636" width="528" height="284" rx="15" fill="url(#paint0_linear_299_19238)" fill-opacity="0.05"/>
<rect x="87" y="44.636" width="526" height="282" rx="14" stroke="url(#paint1_linear_299_19238)" stroke-opacity="0.15" stroke-width="2"/>
</g>
<rect x="631" y="127" width="162" height="282" rx="15" fill="url(#paint2_linear_299_19238)" fill-opacity="0.15"/>
<path d="M689.083 158.408V178H685.445V161.459H681.303V158.408H689.083ZM707.076 167.7C708.102 168.167 708.886 168.801 709.427 169.603C709.987 170.387 710.267 171.311 710.267 172.374C710.267 173.568 709.931 174.613 709.259 175.509C708.606 176.405 707.673 177.095 706.46 177.58C705.248 178.047 703.839 178.28 702.234 178.28C700.629 178.28 699.221 178.047 698.008 177.58C696.814 177.095 695.89 176.405 695.237 175.509C694.584 174.613 694.257 173.568 694.257 172.374C694.257 171.311 694.528 170.387 695.069 169.603C695.61 168.801 696.385 168.167 697.392 167.7C696.608 167.271 696.002 166.711 695.573 166.021C695.162 165.312 694.957 164.5 694.957 163.586C694.957 162.485 695.256 161.524 695.853 160.703C696.468 159.882 697.327 159.248 698.428 158.8C699.529 158.352 700.797 158.128 702.234 158.128C703.69 158.128 704.968 158.352 706.069 158.8C707.17 159.248 708.028 159.882 708.644 160.703C709.259 161.524 709.567 162.485 709.567 163.586C709.567 164.5 709.353 165.302 708.923 165.993C708.494 166.683 707.879 167.252 707.076 167.7ZM702.234 160.983C701.096 160.983 700.191 161.225 699.519 161.711C698.866 162.196 698.54 162.877 698.54 163.754C698.54 164.593 698.866 165.265 699.519 165.769C700.191 166.254 701.096 166.497 702.234 166.497C703.391 166.497 704.305 166.254 704.977 165.769C705.649 165.265 705.985 164.593 705.985 163.754C705.985 162.877 705.639 162.196 704.949 161.711C704.277 161.225 703.372 160.983 702.234 160.983ZM702.234 175.425C703.578 175.425 704.641 175.145 705.425 174.585C706.209 174.026 706.6 173.251 706.6 172.262C706.6 171.292 706.209 170.527 705.425 169.967C704.641 169.407 703.578 169.128 702.234 169.128C700.891 169.128 699.836 169.407 699.071 169.967C698.306 170.527 697.924 171.292 697.924 172.262C697.924 173.251 698.306 174.026 699.071 174.585C699.836 175.145 700.891 175.425 702.234 175.425ZM716.612 171.836C715.658 171.836 714.888 171.499 714.303 170.825C713.718 170.15 713.425 169.266 713.425 168.172C713.425 167.078 713.718 166.194 714.303 165.52C714.888 164.845 715.658 164.508 716.612 164.508C717.566 164.508 718.336 164.845 718.921 165.52C719.519 166.181 719.818 167.065 719.818 168.172C719.818 169.279 719.519 170.17 718.921 170.844C718.336 171.505 717.566 171.836 716.612 171.836ZM724.627 164.642H726.497L717.376 178H715.505L724.627 164.642ZM716.612 170.5C717.134 170.5 717.535 170.297 717.814 169.89C718.107 169.483 718.253 168.91 718.253 168.172C718.253 167.434 718.107 166.862 717.814 166.455C717.535 166.048 717.134 165.844 716.612 165.844C716.116 165.844 715.715 166.054 715.41 166.474C715.117 166.881 714.971 167.447 714.971 168.172C714.971 168.897 715.117 169.47 715.41 169.89C715.715 170.297 716.116 170.5 716.612 170.5ZM725.371 178.134C724.417 178.134 723.648 177.796 723.062 177.122C722.477 176.448 722.185 175.564 722.185 174.47C722.185 173.375 722.477 172.491 723.062 171.817C723.648 171.143 724.417 170.806 725.371 170.806C726.326 170.806 727.095 171.143 727.68 171.817C728.278 172.491 728.577 173.375 728.577 174.47C728.577 175.564 728.278 176.448 727.68 177.122C727.095 177.796 726.326 178.134 725.371 178.134ZM725.371 176.798C725.88 176.798 726.281 176.594 726.574 176.187C726.866 175.767 727.013 175.195 727.013 174.47C727.013 173.744 726.866 173.178 726.574 172.771C726.281 172.351 725.88 172.141 725.371 172.141C724.863 172.141 724.462 172.345 724.169 172.752C723.877 173.159 723.73 173.732 723.73 174.47C723.73 175.207 723.877 175.78 724.169 176.187C724.462 176.594 724.863 176.798 725.371 176.798Z" fill="#9CC3D9" fill-opacity="0.7"/>
<path d="M663.266 159.45V177.261" stroke="#91CF7B" stroke-width="1.90832" stroke-linecap="round" stroke-linejoin="round"/>
<path d="M656.904 165.811L663.267 159.449L669.629 165.811" stroke="#91CF7B" stroke-width="1.90832" stroke-linecap="round" stroke-linejoin="round"/>
<rect x="651" y="200" width="121" height="19" rx="7.6333" fill="#A3D6F2" fill-opacity="0.1"/>
<rect x="651" y="231" width="97" height="19" rx="7.6333" fill="#A3D6F2" fill-opacity="0.05"/>
<path d="M701.289 299.921V303H686.847V300.565L694.628 293.176C695.505 292.336 696.093 291.609 696.391 290.993C696.709 290.358 696.867 289.733 696.867 289.118C696.867 288.203 696.559 287.504 695.944 287.018C695.328 286.533 694.423 286.291 693.229 286.291C691.232 286.291 689.702 286.972 688.639 288.334L686.092 286.375C686.857 285.348 687.883 284.555 689.17 283.996C690.476 283.417 691.932 283.128 693.537 283.128C695.664 283.128 697.362 283.632 698.631 284.639C699.899 285.647 700.534 287.018 700.534 288.754C700.534 289.817 700.31 290.816 699.862 291.749C699.414 292.681 698.556 293.745 697.287 294.939L692.053 299.921H701.289ZM707.374 296.836C706.42 296.836 705.65 296.499 705.065 295.825C704.48 295.15 704.187 294.266 704.187 293.172C704.187 292.078 704.48 291.194 705.065 290.52C705.65 289.845 706.42 289.508 707.374 289.508C708.328 289.508 709.098 289.845 709.683 290.52C710.281 291.181 710.58 292.065 710.58 293.172C710.58 294.279 710.281 295.17 709.683 295.844C709.098 296.505 708.328 296.836 707.374 296.836ZM715.389 289.642H717.259L708.137 303H706.267L715.389 289.642ZM707.374 295.5C707.896 295.5 708.296 295.297 708.576 294.89C708.869 294.483 709.015 293.91 709.015 293.172C709.015 292.434 708.869 291.862 708.576 291.455C708.296 291.048 707.896 290.844 707.374 290.844C706.878 290.844 706.477 291.054 706.172 291.474C705.879 291.881 705.733 292.447 705.733 293.172C705.733 293.897 705.879 294.47 706.172 294.89C706.477 295.297 706.878 295.5 707.374 295.5ZM716.133 303.134C715.179 303.134 714.409 302.796 713.824 302.122C713.239 301.448 712.946 300.564 712.946 299.47C712.946 298.375 713.239 297.491 713.824 296.817C714.409 296.143 715.179 295.806 716.133 295.806C717.087 295.806 717.857 296.143 718.442 296.817C719.04 297.491 719.339 298.375 719.339 299.47C719.339 300.564 719.04 301.448 718.442 302.122C717.857 302.796 717.087 303.134 716.133 303.134ZM716.133 301.798C716.642 301.798 717.043 301.594 717.336 301.187C717.628 300.767 717.774 300.195 717.774 299.47C717.774 298.744 717.628 298.178 717.336 297.771C717.043 297.351 716.642 297.141 716.133 297.141C715.624 297.141 715.224 297.345 714.931 297.752C714.638 298.159 714.492 298.732 714.492 299.47C714.492 300.207 714.638 300.78 714.931 301.187C715.224 301.594 715.624 301.798 716.133 301.798Z" fill="#9CC3D9" fill-opacity="0.7"/>
<g opacity="0.6">
<path d="M666.534 304.043V282.42" stroke="#C16161" stroke-width="2.31681" stroke-linecap="round" stroke-linejoin="round"/>
<path d="M658.81 296.321L666.534 304.045L674.259 296.321" stroke="#C16161" stroke-width="2.31681" stroke-linecap="round" stroke-linejoin="round"/>
</g>
<rect x="650.898" y="324.593" width="121" height="19" rx="7.6333" fill="#A3D6F2" fill-opacity="0.1"/>
<rect x="650.898" y="355.593" width="76" height="19" rx="7.6333" fill="#A3D6F2" fill-opacity="0.05"/>
<path d="M115.562 85.2381C114.602 85.2381 113.684 85.0941 112.808 84.8061C111.932 84.5061 111.242 84.1221 110.738 83.6541L111.404 82.2501C111.884 82.6701 112.496 83.0181 113.24 83.2941C113.984 83.5701 114.758 83.7081 115.562 83.7081C116.294 83.7081 116.888 83.6241 117.344 83.4561C117.8 83.2881 118.136 83.0601 118.352 82.7721C118.568 82.4721 118.676 82.1361 118.676 81.7641C118.676 81.3321 118.532 80.9841 118.244 80.7201C117.968 80.4561 117.602 80.2461 117.146 80.0901C116.702 79.9221 116.21 79.7781 115.67 79.6581C115.13 79.5381 114.584 79.4001 114.032 79.2441C113.492 79.0761 112.994 78.8661 112.538 78.6141C112.094 78.3621 111.734 78.0261 111.458 77.6061C111.182 77.1741 111.044 76.6221 111.044 75.9501C111.044 75.3021 111.212 74.7081 111.548 74.1681C111.896 73.6161 112.424 73.1781 113.132 72.8541C113.852 72.5181 114.764 72.3501 115.868 72.3501C116.6 72.3501 117.326 72.4461 118.046 72.6381C118.766 72.8301 119.39 73.1061 119.918 73.4661L119.324 74.9061C118.784 74.5461 118.214 74.2881 117.614 74.1321C117.014 73.9641 116.432 73.8801 115.868 73.8801C115.16 73.8801 114.578 73.9701 114.122 74.1501C113.666 74.3301 113.33 74.5701 113.114 74.8701C112.91 75.1701 112.808 75.5061 112.808 75.8781C112.808 76.3221 112.946 76.6761 113.222 76.9401C113.51 77.2041 113.876 77.4141 114.32 77.5701C114.776 77.7261 115.274 77.8701 115.814 78.0021C116.354 78.1221 116.894 78.2601 117.434 78.4161C117.986 78.5721 118.484 78.7761 118.928 79.0281C119.384 79.2801 119.75 79.6161 120.026 80.0361C120.302 80.4561 120.44 80.9961 120.44 81.6561C120.44 82.2921 120.266 82.8861 119.918 83.4381C119.57 83.9781 119.03 84.4161 118.298 84.7521C117.578 85.0761 116.666 85.2381 115.562 85.2381ZM129.658 85.2381C128.698 85.2381 127.804 85.0761 126.976 84.7521C126.16 84.4281 125.452 83.9781 124.852 83.4021C124.252 82.8141 123.784 82.1301 123.448 81.3501C123.112 80.5701 122.944 79.7181 122.944 78.7941C122.944 77.8701 123.112 77.0181 123.448 76.2381C123.784 75.4581 124.252 74.7801 124.852 74.2041C125.452 73.6161 126.16 73.1601 126.976 72.8361C127.792 72.5121 128.686 72.3501 129.658 72.3501C130.618 72.3501 131.5 72.5121 132.304 72.8361C133.12 73.1481 133.828 73.5981 134.428 74.1861C135.04 74.7621 135.508 75.4401 135.832 76.2201C136.168 77.0001 136.336 77.8581 136.336 78.7941C136.336 79.7301 136.168 80.5881 135.832 81.3681C135.508 82.1481 135.04 82.8321 134.428 83.4201C133.828 83.9961 133.12 84.4461 132.304 84.7701C131.5 85.0821 130.618 85.2381 129.658 85.2381ZM129.658 83.6361C130.354 83.6361 130.996 83.5161 131.584 83.2761C132.184 83.0361 132.7 82.7001 133.132 82.2681C133.576 81.8241 133.918 81.3081 134.158 80.7201C134.41 80.1321 134.536 79.4901 134.536 78.7941C134.536 78.0981 134.41 77.4561 134.158 76.8681C133.918 76.2801 133.576 75.7701 133.132 75.3381C132.7 74.8941 132.184 74.5521 131.584 74.3121C130.996 74.0721 130.354 73.9521 129.658 73.9521C128.95 73.9521 128.296 74.0721 127.696 74.3121C127.108 74.5521 126.592 74.8941 126.148 75.3381C125.704 75.7701 125.356 76.2801 125.104 76.8681C124.864 77.4561 124.744 78.0981 124.744 78.7941C124.744 79.4901 124.864 80.1321 125.104 80.7201C125.356 81.3081 125.704 81.8241 126.148 82.2681C126.592 82.7001 127.108 83.0361 127.696 83.2761C128.296 83.5161 128.95 83.6361 129.658 83.6361ZM139.246 80.9001V79.4061H144.088V80.9001H139.246ZM148.682 85.0941V73.2141L149.456 74.0601H145.838V72.4941H150.464V85.0941H148.682ZM153.922 85.0941V83.8701L159.052 78.9201C159.508 78.4881 159.844 78.1101 160.06 77.7861C160.288 77.4501 160.438 77.1441 160.51 76.8681C160.594 76.5801 160.636 76.3041 160.636 76.0401C160.636 75.3921 160.408 74.8821 159.952 74.5101C159.496 74.1381 158.83 73.9521 157.954 73.9521C157.282 73.9521 156.676 74.0661 156.136 74.2941C155.596 74.5101 155.128 74.8521 154.732 75.3201L153.508 74.2581C153.988 73.6461 154.63 73.1781 155.434 72.8541C156.25 72.5181 157.144 72.3501 158.116 72.3501C158.992 72.3501 159.754 72.4941 160.402 72.7821C161.05 73.0581 161.548 73.4601 161.896 73.9881C162.256 74.5161 162.436 75.1401 162.436 75.8601C162.436 76.2681 162.382 76.6701 162.274 77.0661C162.166 77.4621 161.962 77.8821 161.662 78.3261C161.362 78.7701 160.93 79.2681 160.366 79.8201L155.794 84.2301L155.362 83.5281H162.976V85.0941H153.922ZM169.208 85.2381C168.32 85.2381 167.456 85.1001 166.616 84.8241C165.788 84.5481 165.11 84.1761 164.582 83.7081L165.41 82.2861C165.83 82.6821 166.376 83.0061 167.048 83.2581C167.72 83.5101 168.44 83.6361 169.208 83.6361C170.144 83.6361 170.87 83.4381 171.386 83.0421C171.914 82.6341 172.178 82.0881 172.178 81.4041C172.178 80.7441 171.926 80.2161 171.422 79.8201C170.93 79.4121 170.144 79.2081 169.064 79.2081H168.056V77.9481L171.8 73.3401L172.052 74.0601H165.158V72.4941H173.474V73.7181L169.748 78.3081L168.812 77.7501H169.406C170.93 77.7501 172.07 78.0921 172.826 78.7761C173.594 79.4601 173.978 80.3301 173.978 81.3861C173.978 82.0941 173.804 82.7421 173.456 83.3301C173.108 83.9181 172.58 84.3861 171.872 84.7341C171.176 85.0701 170.288 85.2381 169.208 85.2381ZM176.377 81.9981V80.7381L182.821 72.4941H184.765L178.375 80.7381L177.457 80.4501H187.519V81.9981H176.377ZM183.379 85.0941V81.9981L183.433 80.4501V77.7141H185.125V85.0941H183.379Z" fill="#9D98BB" fill-opacity="0.63"/>
<rect x="211.054" y="69.5525" width="112.919" height="19.0832" rx="7.6333" fill="#CCDDFF" fill-opacity="0.1"/>
<rect x="347.027" y="69.663" width="112.919" height="18.8623" rx="7.6333" fill="white" fill-opacity="0.05"/>
<rect x="483" y="64.5941" width="107" height="29" rx="8" fill="#91CF7B" fill-opacity="0.07"/>
<path opacity="0.75" d="M515.268 83.5941H513.884L517.889 72.685H519.253L523.259 83.5941H521.874L520.846 80.6751H516.297L515.268 83.5941ZM518.507 74.4109L516.712 79.5032H520.43L518.635 74.4109H518.507ZM531.189 77.8626H529.932C529.74 77.1168 529.08 76.435 527.972 76.435C526.502 76.435 525.521 77.6495 525.521 79.5032C525.521 81.3995 526.48 82.6353 527.972 82.6353C528.952 82.6353 529.698 82.1026 529.932 81.2078H531.189C530.976 82.6566 529.783 83.7646 527.972 83.7646C525.692 83.7646 524.264 82.0174 524.264 79.5032C524.264 77.0529 525.734 75.3058 527.95 75.3058C529.676 75.3058 530.976 76.3285 531.189 77.8626ZM536.874 75.4123V76.5842H535.127V81.2504C535.127 82.3157 535.66 82.4862 536.214 82.4862C536.491 82.4862 536.661 82.4435 536.768 82.4222L537.023 83.5515C536.853 83.6154 536.555 83.7007 536.086 83.7007C535.021 83.7007 533.87 83.0188 533.87 81.5913V76.5842H532.634V75.4123H533.87V73.6651H535.127V75.4123H536.874ZM539.694 74.2404C539.14 74.2404 538.799 73.8569 538.799 73.3881C538.799 72.962 539.14 72.5359 539.694 72.5359C540.248 72.5359 540.589 72.962 540.589 73.3881C540.589 73.8569 540.248 74.2404 539.694 74.2404ZM540.333 75.4123V83.5941H539.076V75.4123H540.333ZM549.626 75.4123L546.6 83.5941H545.322L542.296 75.4123H543.66L545.918 81.9322H546.004L548.262 75.4123H549.626ZM554.737 83.7646C552.372 83.7646 550.923 82.0813 550.923 79.5671C550.923 77.0529 552.393 75.3058 554.609 75.3058C556.314 75.3058 558.125 76.3498 558.125 79.3967V79.9293H552.196C552.324 81.6978 553.256 82.6353 554.737 82.6353C555.739 82.6353 556.463 82.2092 556.783 81.3569L557.997 81.6978C557.614 82.9336 556.399 83.7646 554.737 83.7646ZM554.609 76.435C553.352 76.435 552.425 77.3086 552.223 78.8427H556.847C556.847 77.4578 555.973 76.435 554.609 76.435Z" fill="#91CF7B"/>
<rect width="528" height="70.9162" transform="translate(86 114.552)" fill="white" fill-opacity="0.02"/>
<path d="M115.562 156.154C114.602 156.154 113.684 156.01 112.808 155.722C111.932 155.422 111.242 155.038 110.738 154.57L111.404 153.166C111.884 153.586 112.496 153.934 113.24 154.21C113.984 154.486 114.758 154.624 115.562 154.624C116.294 154.624 116.888 154.54 117.344 154.372C117.8 154.204 118.136 153.976 118.352 153.688C118.568 153.388 118.676 153.052 118.676 152.68C118.676 152.248 118.532 151.9 118.244 151.636C117.968 151.372 117.602 151.162 117.146 151.006C116.702 150.838 116.21 150.694 115.67 150.574C115.13 150.454 114.584 150.316 114.032 150.16C113.492 149.992 112.994 149.782 112.538 149.53C112.094 149.278 111.734 148.942 111.458 148.522C111.182 148.09 111.044 147.538 111.044 146.866C111.044 146.218 111.212 145.624 111.548 145.084C111.896 144.532 112.424 144.094 113.132 143.77C113.852 143.434 114.764 143.266 115.868 143.266C116.6 143.266 117.326 143.362 118.046 143.554C118.766 143.746 119.39 144.022 119.918 144.382L119.324 145.822C118.784 145.462 118.214 145.204 117.614 145.048C117.014 144.88 116.432 144.796 115.868 144.796C115.16 144.796 114.578 144.886 114.122 145.066C113.666 145.246 113.33 145.486 113.114 145.786C112.91 146.086 112.808 146.422 112.808 146.794C112.808 147.238 112.946 147.592 113.222 147.856C113.51 148.12 113.876 148.33 114.32 148.486C114.776 148.642 115.274 148.786 115.814 148.918C116.354 149.038 116.894 149.176 117.434 149.332C117.986 149.488 118.484 149.692 118.928 149.944C119.384 150.196 119.75 150.532 120.026 150.952C120.302 151.372 120.44 151.912 120.44 152.572C120.44 153.208 120.266 153.802 119.918 154.354C119.57 154.894 119.03 155.332 118.298 155.668C117.578 155.992 116.666 156.154 115.562 156.154ZM129.658 156.154C128.698 156.154 127.804 155.992 126.976 155.668C126.16 155.344 125.452 154.894 124.852 154.318C124.252 153.73 123.784 153.046 123.448 152.266C123.112 151.486 122.944 150.634 122.944 149.71C122.944 148.786 123.112 147.934 123.448 147.154C123.784 146.374 124.252 145.696 124.852 145.12C125.452 144.532 126.16 144.076 126.976 143.752C127.792 143.428 128.686 143.266 129.658 143.266C130.618 143.266 131.5 143.428 132.304 143.752C133.12 144.064 133.828 144.514 134.428 145.102C135.04 145.678 135.508 146.356 135.832 147.136C136.168 147.916 136.336 148.774 136.336 149.71C136.336 150.646 136.168 151.504 135.832 152.284C135.508 153.064 135.04 153.748 134.428 154.336C133.828 154.912 133.12 155.362 132.304 155.686C131.5 155.998 130.618 156.154 129.658 156.154ZM129.658 154.552C130.354 154.552 130.996 154.432 131.584 154.192C132.184 153.952 132.7 153.616 133.132 153.184C133.576 152.74 133.918 152.224 134.158 151.636C134.41 151.048 134.536 150.406 134.536 149.71C134.536 149.014 134.41 148.372 134.158 147.784C133.918 147.196 133.576 146.686 133.132 146.254C132.7 145.81 132.184 145.468 131.584 145.228C130.996 144.988 130.354 144.868 129.658 144.868C128.95 144.868 128.296 144.988 127.696 145.228C127.108 145.468 126.592 145.81 126.148 146.254C125.704 146.686 125.356 147.196 125.104 147.784C124.864 148.372 124.744 149.014 124.744 149.71C124.744 150.406 124.864 151.048 125.104 151.636C125.356 152.224 125.704 152.74 126.148 153.184C126.592 153.616 127.108 153.952 127.696 154.192C128.296 154.432 128.95 154.552 129.658 154.552ZM139.246 151.816V150.322H144.088V151.816H139.246ZM148.877 156.01L154.223 144.166L154.691 144.976H147.203L148.103 144.094V147.226H146.375V143.41H155.879V144.634L150.785 156.01H148.877ZM162.068 156.154C161.18 156.154 160.316 156.016 159.476 155.74C158.648 155.464 157.97 155.092 157.442 154.624L158.27 153.202C158.69 153.598 159.236 153.922 159.908 154.174C160.58 154.426 161.3 154.552 162.068 154.552C163.004 154.552 163.73 154.354 164.246 153.958C164.774 153.55 165.038 153.004 165.038 152.32C165.038 151.66 164.786 151.132 164.282 150.736C163.79 150.328 163.004 150.124 161.924 150.124H160.916V148.864L164.66 144.256L164.912 144.976H158.018V143.41H166.334V144.634L162.608 149.224L161.672 148.666H162.266C163.79 148.666 164.93 149.008 165.686 149.692C166.454 150.376 166.838 151.246 166.838 152.302C166.838 153.01 166.664 153.658 166.316 154.246C165.968 154.834 165.44 155.302 164.732 155.65C164.036 155.986 163.148 156.154 162.068 156.154ZM169.131 156.01V154.786L174.261 149.836C174.717 149.404 175.053 149.026 175.269 148.702C175.497 148.366 175.647 148.06 175.719 147.784C175.803 147.496 175.845 147.22 175.845 146.956C175.845 146.308 175.617 145.798 175.161 145.426C174.705 145.054 174.039 144.868 173.163 144.868C172.491 144.868 171.885 144.982 171.345 145.21C170.805 145.426 170.337 145.768 169.941 146.236L168.717 145.174C169.197 144.562 169.839 144.094 170.643 143.77C171.459 143.434 172.353 143.266 173.325 143.266C174.201 143.266 174.963 143.41 175.611 143.698C176.259 143.974 176.757 144.376 177.105 144.904C177.465 145.432 177.645 146.056 177.645 146.776C177.645 147.184 177.591 147.586 177.483 147.982C177.375 148.378 177.171 148.798 176.871 149.242C176.571 149.686 176.139 150.184 175.575 150.736L171.003 155.146L170.571 154.444H178.185V156.01H169.131ZM184.417 156.154C183.529 156.154 182.665 156.016 181.825 155.74C180.997 155.464 180.319 155.092 179.791 154.624L180.619 153.202C181.039 153.598 181.585 153.922 182.257 154.174C182.929 154.426 183.649 154.552 184.417 154.552C185.353 154.552 186.079 154.354 186.595 153.958C187.123 153.55 187.387 153.004 187.387 152.32C187.387 151.66 187.135 151.132 186.631 150.736C186.139 150.328 185.353 150.124 184.273 150.124H183.265V148.864L187.009 144.256L187.261 144.976H180.367V143.41H188.683V144.634L184.957 149.224L184.021 148.666H184.615C186.139 148.666 187.279 149.008 188.035 149.692C188.803 150.376 189.187 151.246 189.187 152.302C189.187 153.01 189.013 153.658 188.665 154.246C188.317 154.834 187.789 155.302 187.081 155.65C186.385 155.986 185.497 156.154 184.417 156.154Z" fill="#9D98BB" fill-opacity="0.63"/>
<rect x="214.054" y="140.51" width="151" height="19" rx="7.6333" fill="#CCDDFF" fill-opacity="0.1"/>
<rect x="388.108" y="140.579" width="71.8383" height="18.8623" rx="7.6333" fill="white" fill-opacity="0.05"/>
<rect x="483" y="135.51" width="107" height="29" rx="8" fill="#D35858" fill-opacity="0.07"/>
<path opacity="0.75" d="M511.688 154.51H508.321V143.601H511.837C515.011 143.601 516.886 145.647 516.886 149.034C516.886 152.443 515.011 154.51 511.688 154.51ZM511.751 144.773H509.642V153.338H511.602C514.308 153.338 515.608 151.698 515.608 149.034C515.608 146.392 514.308 144.773 511.751 144.773ZM522.662 154.681C520.297 154.681 518.848 152.997 518.848 150.483C518.848 147.969 520.318 146.222 522.534 146.222C524.239 146.222 526.05 147.266 526.05 150.313V150.845H520.121C520.249 152.614 521.181 153.551 522.662 153.551C523.664 153.551 524.388 153.125 524.708 152.273L525.922 152.614C525.539 153.85 524.324 154.681 522.662 154.681ZM522.534 147.351C521.277 147.351 520.35 148.225 520.148 149.759H524.772C524.772 148.374 523.898 147.351 522.534 147.351ZM529.549 143.601V154.51H528.292V143.601H529.549ZM537.052 154.51V153.402H536.988C536.732 153.935 535.986 154.702 534.559 154.702C533.003 154.702 531.768 153.786 531.768 152.188C531.768 150.334 533.408 149.972 534.942 149.78C536.072 149.631 537.052 149.674 537.052 149.141V149.12C537.052 147.756 536.327 147.33 535.347 147.33C534.133 147.33 533.472 147.969 533.195 148.566L532.002 148.14C532.641 146.648 534.047 146.222 535.283 146.222C536.327 146.222 538.309 146.52 538.309 149.12V154.51H537.052ZM537.052 151.549V150.398C536.839 150.654 535.411 150.803 534.878 150.867C533.898 150.995 533.025 151.293 533.025 152.252C533.025 153.125 533.749 153.573 534.751 153.573C536.242 153.573 537.052 152.571 537.052 151.549ZM542.559 155.32L542.846 154.564L539.81 146.328H541.174L543.427 152.848H543.517L545.776 146.328H547.14L543.624 155.831C543.155 157.088 542.346 157.685 541.216 157.685C540.79 157.685 540.428 157.6 540.3 157.536L540.62 156.428C541.515 156.641 542.09 156.534 542.559 155.32ZM552.251 154.681C549.886 154.681 548.437 152.997 548.437 150.483C548.437 147.969 549.907 146.222 552.123 146.222C553.828 146.222 555.639 147.266 555.639 150.313V150.845H549.71C549.838 152.614 550.77 153.551 552.251 153.551C553.252 153.551 553.977 153.125 554.296 152.273L555.511 152.614C555.127 153.85 553.913 154.681 552.251 154.681ZM552.123 147.351C550.866 147.351 549.939 148.225 549.737 149.759H554.36C554.36 148.374 553.487 147.351 552.123 147.351ZM564.72 154.51H563.505V153.253H563.377C563.1 153.701 562.546 154.681 560.97 154.681C558.924 154.681 557.497 153.04 557.497 150.441C557.497 147.863 558.924 146.222 560.991 146.222C562.589 146.222 563.1 147.202 563.377 147.628H563.463V143.601H564.72V154.51ZM558.754 150.419C558.754 152.167 559.563 153.551 561.14 153.551C562.653 153.551 563.484 152.273 563.484 150.419C563.484 148.587 562.674 147.351 561.14 147.351C559.542 147.351 558.754 148.693 558.754 150.419Z" fill="#D35858"/>
<path d="M115.562 227.07C114.614 227.07 113.696 226.926 112.808 226.638C111.932 226.338 111.242 225.954 110.738 225.486L111.404 224.082C111.884 224.514 112.496 224.868 113.24 225.144C113.996 225.408 114.77 225.54 115.562 225.54C116.606 225.54 117.386 225.366 117.902 225.018C118.418 224.658 118.676 224.184 118.676 223.596C118.676 223.164 118.532 222.816 118.244 222.552C117.968 222.276 117.62 222.066 117.2 221.922C116.792 221.778 116.21 221.616 115.454 221.436C114.506 221.208 113.738 220.98 113.15 220.752C112.574 220.524 112.076 220.176 111.656 219.708C111.248 219.228 111.044 218.586 111.044 217.782C111.044 217.11 111.218 216.504 111.566 215.964C111.926 215.424 112.466 214.992 113.186 214.668C113.906 214.344 114.8 214.182 115.868 214.182C116.612 214.182 117.344 214.278 118.064 214.47C118.784 214.662 119.402 214.938 119.918 215.298L119.324 216.738C118.796 216.402 118.232 216.15 117.632 215.982C117.032 215.802 116.444 215.712 115.868 215.712C114.848 215.712 114.08 215.898 113.564 216.27C113.06 216.642 112.808 217.122 112.808 217.71C112.808 218.142 112.952 218.496 113.24 218.772C113.528 219.036 113.882 219.246 114.302 219.402C114.734 219.546 115.316 219.702 116.048 219.87C116.996 220.098 117.758 220.326 118.334 220.554C118.91 220.782 119.402 221.13 119.81 221.598C120.23 222.066 120.44 222.696 120.44 223.488C120.44 224.148 120.26 224.754 119.9 225.306C119.54 225.846 118.994 226.278 118.262 226.602C117.53 226.914 116.63 227.07 115.562 227.07ZM129.658 227.07C128.386 227.07 127.24 226.794 126.22 226.242C125.2 225.678 124.396 224.904 123.808 223.92C123.232 222.936 122.944 221.838 122.944 220.626C122.944 219.414 123.232 218.316 123.808 217.332C124.396 216.348 125.2 215.58 126.22 215.028C127.24 214.464 128.386 214.182 129.658 214.182C130.918 214.182 132.058 214.464 133.078 215.028C134.098 215.58 134.896 216.348 135.472 217.332C136.048 218.304 136.336 219.402 136.336 220.626C136.336 221.85 136.048 222.954 135.472 223.938C134.896 224.91 134.098 225.678 133.078 226.242C132.058 226.794 130.918 227.07 129.658 227.07ZM129.658 225.468C130.582 225.468 131.41 225.258 132.142 224.838C132.886 224.418 133.468 223.842 133.888 223.11C134.32 222.366 134.536 221.538 134.536 220.626C134.536 219.714 134.32 218.892 133.888 218.16C133.468 217.416 132.886 216.834 132.142 216.414C131.41 215.994 130.582 215.784 129.658 215.784C128.734 215.784 127.894 215.994 127.138 216.414C126.394 216.834 125.806 217.416 125.374 218.16C124.954 218.892 124.744 219.714 124.744 220.626C124.744 221.538 124.954 222.366 125.374 223.11C125.806 223.842 126.394 224.418 127.138 224.838C127.894 225.258 128.734 225.468 129.658 225.468ZM149.923 223.83H147.529V226.926H145.783V223.83H138.781V222.57L145.225 214.326H147.169L140.995 222.282H145.837V219.546H147.529V222.282H149.923V223.83ZM156.515 219.618C157.751 219.738 158.693 220.122 159.341 220.77C159.989 221.406 160.313 222.222 160.313 223.218C160.313 223.938 160.133 224.592 159.773 225.18C159.413 225.756 158.873 226.218 158.153 226.566C157.445 226.902 156.575 227.07 155.543 227.07C154.643 227.07 153.779 226.938 152.951 226.674C152.123 226.398 151.445 226.02 150.917 225.54L151.745 224.118C152.177 224.526 152.729 224.856 153.401 225.108C154.073 225.348 154.787 225.468 155.543 225.468C156.479 225.468 157.205 225.27 157.721 224.874C158.249 224.478 158.513 223.932 158.513 223.236C158.513 222.54 158.255 222 157.739 221.616C157.223 221.232 156.443 221.04 155.399 221.04H154.391V219.78L157.559 215.892H151.493V214.326H159.809V215.55L156.515 219.618ZM171.66 225.36V226.926H162.606V225.702L167.736 220.752C168.36 220.152 168.78 219.636 168.996 219.204C169.212 218.76 169.32 218.316 169.32 217.872C169.32 217.212 169.086 216.702 168.618 216.342C168.162 215.97 167.502 215.784 166.638 215.784C165.246 215.784 164.172 216.24 163.416 217.152L162.192 216.09C162.684 215.49 163.326 215.022 164.118 214.686C164.922 214.35 165.816 214.182 166.8 214.182C168.12 214.182 169.17 214.5 169.95 215.136C170.73 215.76 171.12 216.612 171.12 217.692C171.12 218.364 170.976 219 170.688 219.6C170.4 220.2 169.854 220.884 169.05 221.652L165.198 225.36H171.66ZM178.864 219.618C180.1 219.738 181.042 220.122 181.69 220.77C182.338 221.406 182.662 222.222 182.662 223.218C182.662 223.938 182.482 224.592 182.122 225.18C181.762 225.756 181.222 226.218 180.502 226.566C179.794 226.902 178.924 227.07 177.892 227.07C176.992 227.07 176.128 226.938 175.3 226.674C174.472 226.398 173.794 226.02 173.266 225.54L174.094 224.118C174.526 224.526 175.078 224.856 175.75 225.108C176.422 225.348 177.136 225.468 177.892 225.468C178.828 225.468 179.554 225.27 180.07 224.874C180.598 224.478 180.862 223.932 180.862 223.236C180.862 222.54 180.604 222 180.088 221.616C179.572 221.232 178.792 221.04 177.748 221.04H176.74V219.78L179.908 215.892H173.842V214.326H182.158V215.55L178.864 219.618Z" fill="#9D98BB" fill-opacity="0.63"/>
<rect x="207.054" y="211.426" width="87" height="19" rx="7.6333" fill="#CCDDFF" fill-opacity="0.1"/>
<rect x="317.108" y="211.495" width="59.8922" height="18.8623" rx="7.6333" fill="white" fill-opacity="0.05"/>
<rect x="400.054" y="211.495" width="59.8922" height="18.8623" rx="7.6333" fill="white" fill-opacity="0.05"/>
<rect x="483" y="206.426" width="107" height="29" rx="8" fill="#CFC77B" fill-opacity="0.07"/>
<path opacity="0.75" d="M497.642 214.517V225.426H496.321V214.517H497.642ZM501.677 220.505V225.426H500.42V217.245H501.635V218.523H501.741C501.933 218.107 502.224 217.774 502.615 217.522C503.006 217.266 503.51 217.138 504.128 217.138C504.682 217.138 505.166 217.252 505.582 217.479C505.997 217.703 506.321 218.044 506.551 218.502C506.782 218.956 506.898 219.532 506.898 220.228V225.426H505.64V220.313C505.64 219.67 505.474 219.169 505.14 218.811C504.806 218.448 504.348 218.267 503.765 218.267C503.364 218.267 503.006 218.354 502.689 218.528C502.377 218.702 502.13 218.956 501.949 219.29C501.768 219.624 501.677 220.029 501.677 220.505ZM514.184 225.426V214.517H517.87C518.726 214.517 519.425 214.672 519.969 214.981C520.516 215.286 520.92 215.7 521.183 216.222C521.446 216.744 521.577 217.326 521.577 217.969C521.577 218.612 521.446 219.196 521.183 219.721C520.924 220.247 520.523 220.666 519.979 220.979C519.436 221.288 518.74 221.442 517.891 221.442H515.249V220.27H517.849C518.435 220.27 518.905 220.169 519.26 219.967C519.615 219.764 519.873 219.491 520.033 219.146C520.196 218.798 520.278 218.406 520.278 217.969C520.278 217.532 520.196 217.142 520.033 216.797C519.873 216.453 519.614 216.183 519.255 215.987C518.896 215.789 518.42 215.689 517.827 215.689H515.505V225.426H514.184ZM523.835 225.426V217.245H525.049V218.48H525.135C525.284 218.076 525.554 217.747 525.944 217.495C526.335 217.243 526.775 217.117 527.265 217.117C527.358 217.117 527.473 217.119 527.612 217.122C527.75 217.126 527.855 217.131 527.926 217.138V218.416C527.883 218.406 527.786 218.39 527.633 218.369C527.484 218.344 527.326 218.331 527.159 218.331C526.761 218.331 526.406 218.415 526.093 218.582C525.785 218.745 525.539 218.972 525.358 219.263C525.181 219.551 525.092 219.88 525.092 220.249V225.426H523.835ZM532.791 225.597C532.052 225.597 531.404 225.421 530.847 225.07C530.293 224.718 529.859 224.226 529.547 223.594C529.238 222.962 529.083 222.223 529.083 221.378C529.083 220.526 529.238 219.782 529.547 219.146C529.859 218.511 530.293 218.017 530.847 217.665C531.404 217.314 532.052 217.138 532.791 217.138C533.529 217.138 534.176 217.314 534.73 217.665C535.287 218.017 535.721 218.511 536.029 219.146C536.342 219.782 536.498 220.526 536.498 221.378C536.498 222.223 536.342 222.962 536.029 223.594C535.721 224.226 535.287 224.718 534.73 225.07C534.176 225.421 533.529 225.597 532.791 225.597ZM532.791 224.468C533.352 224.468 533.814 224.324 534.176 224.036C534.538 223.748 534.806 223.37 534.98 222.902C535.154 222.433 535.241 221.925 535.241 221.378C535.241 220.831 535.154 220.322 534.98 219.849C534.806 219.377 534.538 218.995 534.176 218.704C533.814 218.413 533.352 218.267 532.791 218.267C532.23 218.267 531.768 218.413 531.406 218.704C531.044 218.995 530.776 219.377 530.602 219.849C530.428 220.322 530.341 220.831 530.341 221.378C530.341 221.925 530.428 222.433 530.602 222.902C530.776 223.37 531.044 223.748 531.406 224.036C531.768 224.324 532.23 224.468 532.791 224.468ZM542.02 228.665C541.412 228.665 540.89 228.587 540.454 228.431C540.017 228.278 539.653 228.076 539.362 227.823C539.074 227.575 538.845 227.308 538.675 227.024L539.676 226.321C539.79 226.47 539.933 226.641 540.107 226.833C540.281 227.028 540.519 227.197 540.821 227.339C541.127 227.484 541.526 227.557 542.02 227.557C542.68 227.557 543.225 227.397 543.655 227.078C544.085 226.758 544.3 226.257 544.3 225.576V223.914H544.193C544.101 224.063 543.969 224.247 543.799 224.468C543.632 224.684 543.39 224.878 543.074 225.048C542.762 225.215 542.339 225.299 541.807 225.299C541.146 225.299 540.553 225.142 540.028 224.83C539.506 224.517 539.092 224.063 538.786 223.466C538.485 222.87 538.334 222.145 538.334 221.293C538.334 220.455 538.481 219.725 538.776 219.104C539.071 218.479 539.481 217.996 540.006 217.655C540.532 217.31 541.139 217.138 541.828 217.138C542.361 217.138 542.783 217.227 543.096 217.404C543.412 217.578 543.653 217.777 543.82 218.001C543.991 218.221 544.122 218.402 544.214 218.544H544.342V217.245H545.557V225.661C545.557 226.364 545.397 226.936 545.077 227.376C544.761 227.82 544.335 228.145 543.799 228.351C543.266 228.56 542.673 228.665 542.02 228.665ZM541.977 224.169C542.481 224.169 542.908 224.054 543.256 223.823C543.604 223.592 543.868 223.26 544.049 222.827C544.23 222.394 544.321 221.875 544.321 221.272C544.321 220.682 544.232 220.162 544.055 219.711C543.877 219.26 543.614 218.907 543.266 218.651C542.918 218.395 542.488 218.267 541.977 218.267C541.444 218.267 541.001 218.402 540.645 218.672C540.294 218.942 540.029 219.304 539.852 219.759C539.678 220.213 539.591 220.718 539.591 221.272C539.591 221.84 539.68 222.342 539.857 222.779C540.038 223.212 540.305 223.553 540.656 223.802C541.011 224.047 541.452 224.169 541.977 224.169ZM548.158 225.426V217.245H549.372V218.48H549.458C549.607 218.076 549.877 217.747 550.267 217.495C550.658 217.243 551.098 217.117 551.588 217.117C551.681 217.117 551.796 217.119 551.934 217.122C552.073 217.126 552.178 217.131 552.249 217.138V218.416C552.206 218.406 552.108 218.39 551.956 218.369C551.807 218.344 551.649 218.331 551.482 218.331C551.084 218.331 550.729 218.415 550.416 218.582C550.107 218.745 549.862 218.972 549.681 219.263C549.504 219.551 549.415 219.88 549.415 220.249V225.426H548.158ZM557.22 225.597C556.432 225.597 555.752 225.423 555.18 225.075C554.612 224.723 554.173 224.233 553.864 223.605C553.559 222.973 553.406 222.237 553.406 221.399C553.406 220.561 553.559 219.823 553.864 219.183C554.173 218.541 554.603 218.04 555.153 217.681C555.707 217.319 556.354 217.138 557.092 217.138C557.519 217.138 557.939 217.209 558.355 217.351C558.77 217.493 559.148 217.724 559.489 218.044C559.83 218.36 560.102 218.779 560.304 219.301C560.507 219.823 560.608 220.465 560.608 221.229V221.762H554.301V220.675H559.33C559.33 220.213 559.237 219.801 559.053 219.439C558.872 219.077 558.612 218.791 558.275 218.582C557.941 218.372 557.547 218.267 557.092 218.267C556.592 218.267 556.158 218.392 555.793 218.64C555.43 218.885 555.152 219.205 554.956 219.599C554.761 219.993 554.663 220.416 554.663 220.867V221.591C554.663 222.209 554.77 222.733 554.983 223.163C555.2 223.589 555.5 223.914 555.883 224.137C556.267 224.357 556.712 224.468 557.22 224.468C557.55 224.468 557.849 224.421 558.115 224.329C558.385 224.233 558.618 224.091 558.813 223.903C559.008 223.711 559.159 223.473 559.266 223.189L560.48 223.53C560.352 223.942 560.137 224.304 559.836 224.617C559.534 224.926 559.161 225.167 558.717 225.341C558.273 225.512 557.774 225.597 557.22 225.597ZM568.616 219.077L567.486 219.397C567.415 219.208 567.311 219.025 567.172 218.848C567.037 218.667 566.853 218.518 566.618 218.4C566.384 218.283 566.084 218.225 565.718 218.225C565.217 218.225 564.8 218.34 564.466 218.571C564.136 218.798 563.971 219.088 563.971 219.439C563.971 219.752 564.084 219.998 564.312 220.18C564.539 220.361 564.894 220.512 565.377 220.632L566.592 220.931C567.323 221.108 567.868 221.38 568.227 221.746C568.586 222.108 568.765 222.575 568.765 223.147C568.765 223.615 568.63 224.034 568.36 224.404C568.094 224.773 567.721 225.064 567.241 225.277C566.762 225.49 566.205 225.597 565.569 225.597C564.734 225.597 564.044 225.416 563.497 225.054C562.95 224.691 562.604 224.162 562.458 223.466L563.651 223.168C563.765 223.608 563.98 223.938 564.296 224.159C564.615 224.379 565.033 224.489 565.548 224.489C566.134 224.489 566.599 224.365 566.943 224.116C567.291 223.864 567.465 223.562 567.465 223.21C567.465 222.926 567.366 222.688 567.167 222.497C566.968 222.301 566.663 222.156 566.251 222.06L564.887 221.74C564.138 221.563 563.587 221.288 563.236 220.915C562.888 220.538 562.714 220.068 562.714 219.503C562.714 219.041 562.843 218.633 563.103 218.278C563.365 217.923 563.722 217.644 564.173 217.442C564.628 217.239 565.143 217.138 565.718 217.138C566.528 217.138 567.163 217.316 567.625 217.671C568.09 218.026 568.42 218.495 568.616 219.077ZM576.753 219.077L575.623 219.397C575.552 219.208 575.448 219.025 575.309 218.848C575.174 218.667 574.99 218.518 574.755 218.4C574.521 218.283 574.221 218.225 573.855 218.225C573.354 218.225 572.937 218.34 572.603 218.571C572.273 218.798 572.108 219.088 572.108 219.439C572.108 219.752 572.221 219.998 572.449 220.18C572.676 220.361 573.031 220.512 573.514 220.632L574.729 220.931C575.46 221.108 576.005 221.38 576.364 221.746C576.722 222.108 576.902 222.575 576.902 223.147C576.902 223.615 576.767 224.034 576.497 224.404C576.231 224.773 575.858 225.064 575.378 225.277C574.899 225.49 574.341 225.597 573.706 225.597C572.871 225.597 572.181 225.416 571.634 225.054C571.087 224.691 570.741 224.162 570.595 223.466L571.788 223.168C571.902 223.608 572.117 223.938 572.433 224.159C572.752 224.379 573.17 224.489 573.684 224.489C574.27 224.489 574.736 224.365 575.08 224.116C575.428 223.864 575.602 223.562 575.602 223.21C575.602 222.926 575.503 222.688 575.304 222.497C575.105 222.301 574.8 222.156 574.388 222.06L573.024 221.74C572.275 221.563 571.724 221.288 571.373 220.915C571.025 220.538 570.851 220.068 570.851 219.503C570.851 219.041 570.98 218.633 571.24 218.278C571.502 217.923 571.859 217.644 572.31 217.442C572.765 217.239 573.28 217.138 573.855 217.138C574.665 217.138 575.3 217.316 575.762 217.671C576.227 218.026 576.557 218.495 576.753 219.077Z" fill="#CFC77B"/>
<path d="M86 256.385H614V312.301C614 320.585 607.284 327.301 599 327.301H101C92.7157 327.301 86 320.585 86 312.301V256.385Z" fill="white" fill-opacity="0.02"/>
<path d="M115.562 297.987C114.614 297.987 113.696 297.843 112.808 297.555C111.932 297.255 111.242 296.871 110.738 296.403L111.404 294.999C111.884 295.431 112.496 295.785 113.24 296.061C113.996 296.325 114.77 296.457 115.562 296.457C116.606 296.457 117.386 296.283 117.902 295.935C118.418 295.575 118.676 295.101 118.676 294.513C118.676 294.081 118.532 293.733 118.244 293.469C117.968 293.193 117.62 292.983 117.2 292.839C116.792 292.695 116.21 292.533 115.454 292.353C114.506 292.125 113.738 291.897 113.15 291.669C112.574 291.441 112.076 291.093 111.656 290.625C111.248 290.145 111.044 289.503 111.044 288.699C111.044 288.027 111.218 287.421 111.566 286.881C111.926 286.341 112.466 285.909 113.186 285.585C113.906 285.261 114.8 285.099 115.868 285.099C116.612 285.099 117.344 285.195 118.064 285.387C118.784 285.579 119.402 285.855 119.918 286.215L119.324 287.655C118.796 287.319 118.232 287.067 117.632 286.899C117.032 286.719 116.444 286.629 115.868 286.629C114.848 286.629 114.08 286.815 113.564 287.187C113.06 287.559 112.808 288.039 112.808 288.627C112.808 289.059 112.952 289.413 113.24 289.689C113.528 289.953 113.882 290.163 114.302 290.319C114.734 290.463 115.316 290.619 116.048 290.787C116.996 291.015 117.758 291.243 118.334 291.471C118.91 291.699 119.402 292.047 119.81 292.515C120.23 292.983 120.44 293.613 120.44 294.405C120.44 295.065 120.26 295.671 119.9 296.223C119.54 296.763 118.994 297.195 118.262 297.519C117.53 297.831 116.63 297.987 115.562 297.987ZM129.658 297.987C128.386 297.987 127.24 297.711 126.22 297.159C125.2 296.595 124.396 295.821 123.808 294.837C123.232 293.853 122.944 292.755 122.944 291.543C122.944 290.331 123.232 289.233 123.808 288.249C124.396 287.265 125.2 286.497 126.22 285.945C127.24 285.381 128.386 285.099 129.658 285.099C130.918 285.099 132.058 285.381 133.078 285.945C134.098 286.497 134.896 287.265 135.472 288.249C136.048 289.221 136.336 290.319 136.336 291.543C136.336 292.767 136.048 293.871 135.472 294.855C134.896 295.827 134.098 296.595 133.078 297.159C132.058 297.711 130.918 297.987 129.658 297.987ZM129.658 296.385C130.582 296.385 131.41 296.175 132.142 295.755C132.886 295.335 133.468 294.759 133.888 294.027C134.32 293.283 134.536 292.455 134.536 291.543C134.536 290.631 134.32 289.809 133.888 289.077C133.468 288.333 132.886 287.751 132.142 287.331C131.41 286.911 130.582 286.701 129.658 286.701C128.734 286.701 127.894 286.911 127.138 287.331C126.394 287.751 125.806 288.333 125.374 289.077C124.954 289.809 124.744 290.631 124.744 291.543C124.744 292.455 124.954 293.283 125.374 294.027C125.806 294.759 126.394 295.335 127.138 295.755C127.894 296.175 128.734 296.385 129.658 296.385ZM149.923 294.747H147.529V297.843H145.783V294.747H138.781V293.487L145.225 285.243H147.169L140.995 293.199H145.837V290.463H147.529V293.199H149.923V294.747ZM156.515 290.535C157.751 290.655 158.693 291.039 159.341 291.687C159.989 292.323 160.313 293.139 160.313 294.135C160.313 294.855 160.133 295.509 159.773 296.097C159.413 296.673 158.873 297.135 158.153 297.483C157.445 297.819 156.575 297.987 155.543 297.987C154.643 297.987 153.779 297.855 152.951 297.591C152.123 297.315 151.445 296.937 150.917 296.457L151.745 295.035C152.177 295.443 152.729 295.773 153.401 296.025C154.073 296.265 154.787 296.385 155.543 296.385C156.479 296.385 157.205 296.187 157.721 295.791C158.249 295.395 158.513 294.849 158.513 294.153C158.513 293.457 158.255 292.917 157.739 292.533C157.223 292.149 156.443 291.957 155.399 291.957H154.391V290.697L157.559 286.809H151.493V285.243H159.809V286.467L156.515 290.535ZM171.66 296.277V297.843H162.606V296.619L167.736 291.669C168.36 291.069 168.78 290.553 168.996 290.121C169.212 289.677 169.32 289.233 169.32 288.789C169.32 288.129 169.086 287.619 168.618 287.259C168.162 286.887 167.502 286.701 166.638 286.701C165.246 286.701 164.172 287.157 163.416 288.069L162.192 287.007C162.684 286.407 163.326 285.939 164.118 285.603C164.922 285.267 165.816 285.099 166.8 285.099C168.12 285.099 169.17 285.417 169.95 286.053C170.73 286.677 171.12 287.529 171.12 288.609C171.12 289.281 170.976 289.917 170.688 290.517C170.4 291.117 169.854 291.801 169.05 292.569L165.198 296.277H171.66ZM178.864 290.535C180.1 290.655 181.042 291.039 181.69 291.687C182.338 292.323 182.662 293.139 182.662 294.135C182.662 294.855 182.482 295.509 182.122 296.097C181.762 296.673 181.222 297.135 180.502 297.483C179.794 297.819 178.924 297.987 177.892 297.987C176.992 297.987 176.128 297.855 175.3 297.591C174.472 297.315 173.794 296.937 173.266 296.457L174.094 295.035C174.526 295.443 175.078 295.773 175.75 296.025C176.422 296.265 177.136 296.385 177.892 296.385C178.828 296.385 179.554 296.187 180.07 295.791C180.598 295.395 180.862 294.849 180.862 294.153C180.862 293.457 180.604 292.917 180.088 292.533C179.572 292.149 178.792 291.957 177.748 291.957H176.74V290.697L179.908 286.809H173.842V285.243H182.158V286.467L178.864 290.535Z" fill="#9D98BB" fill-opacity="0.63"/>
<rect x="207.054" y="282.343" width="128" height="19" rx="7.6333" fill="#CCDDFF" fill-opacity="0.1"/>
<rect x="358.108" y="282.411" width="101.838" height="18.8623" rx="7.6333" fill="white" fill-opacity="0.05"/>
<rect x="483" y="277.343" width="107" height="29" rx="8" fill="#CF997B" fill-opacity="0.07"/>
<path opacity="0.75" d="M513.744 288.246C513.553 287.074 512.615 286.456 511.294 286.456C509.845 286.456 508.886 287.223 508.886 288.289C508.886 289.162 509.547 289.695 510.996 290.078L512.104 290.377C514.17 290.931 515.172 291.847 515.172 293.36C515.172 295.149 513.744 296.534 511.23 296.534C508.886 296.534 507.438 295.32 507.31 293.53H508.673C508.78 294.766 509.93 295.341 511.23 295.341C512.743 295.341 513.893 294.553 513.893 293.36C513.893 292.38 513.19 291.975 511.72 291.549L510.378 291.165C508.673 290.675 507.608 289.801 507.608 288.331C507.608 286.499 509.249 285.284 511.337 285.284C513.446 285.284 514.916 286.52 515.023 288.246H513.744ZM518.729 291.399V296.343H517.472V285.434H518.729V289.311H518.814C519.219 288.694 520.008 288.054 521.243 288.054C522.777 288.054 523.885 289.12 523.885 291.144V296.343H522.628V291.144C522.628 289.951 521.925 289.269 520.839 289.269C519.837 289.269 518.729 289.865 518.729 291.399ZM527.106 286.989C526.552 286.989 526.211 286.605 526.211 286.137C526.211 285.711 526.552 285.284 527.106 285.284C527.66 285.284 528.001 285.711 528.001 286.137C528.001 286.605 527.66 286.989 527.106 286.989ZM527.745 288.161V296.343H526.488V288.161H527.745ZM530.347 299.411V288.161H531.562V289.461H531.711C531.988 289.034 532.478 288.054 534.076 288.054C536.143 288.054 537.57 289.695 537.57 292.273C537.57 294.872 536.143 296.513 534.097 296.513C532.521 296.513 531.988 295.533 531.711 295.086H531.605V299.411H530.347ZM536.313 292.252C536.313 290.526 535.525 289.184 533.927 289.184C532.393 289.184 531.583 290.419 531.583 292.252C531.583 294.105 532.414 295.384 533.927 295.384C535.504 295.384 536.313 293.999 536.313 292.252ZM539.788 299.411V288.161H541.003V289.461H541.152C541.429 289.034 541.919 288.054 543.517 288.054C545.584 288.054 547.011 289.695 547.011 292.273C547.011 294.872 545.584 296.513 543.538 296.513C541.961 296.513 541.429 295.533 541.152 295.086H541.045V299.411H539.788ZM545.754 292.252C545.754 290.526 544.966 289.184 543.368 289.184C541.834 289.184 541.024 290.419 541.024 292.252C541.024 294.105 541.855 295.384 543.368 295.384C544.944 295.384 545.754 293.999 545.754 292.252ZM552.659 296.513C550.294 296.513 548.845 294.83 548.845 292.316C548.845 289.801 550.315 288.054 552.531 288.054C554.236 288.054 556.047 289.098 556.047 292.145V292.678H550.118C550.246 294.446 551.178 295.384 552.659 295.384C553.661 295.384 554.385 294.958 554.705 294.105L555.919 294.446C555.536 295.682 554.321 296.513 552.659 296.513ZM552.531 289.184C551.274 289.184 550.347 290.057 550.145 291.591H554.768C554.768 290.206 553.895 289.184 552.531 289.184ZM565.128 296.343H563.913V295.086H563.786C563.509 295.533 562.955 296.513 561.378 296.513C559.332 296.513 557.905 294.872 557.905 292.273C557.905 289.695 559.332 288.054 561.399 288.054C562.997 288.054 563.509 289.034 563.786 289.461H563.871V285.434H565.128V296.343ZM559.162 292.252C559.162 293.999 559.972 295.384 561.548 295.384C563.061 295.384 563.892 294.105 563.892 292.252C563.892 290.419 563.082 289.184 561.548 289.184C559.95 289.184 559.162 290.526 559.162 292.252Z" fill="#CF997B"/>
<g filter="url(#filter1_b_299_19238)">
<rect x="86" y="346.636" width="528" height="153" rx="24" fill="#16183A" fill-opacity="0.4"/>
<rect x="86" y="346.636" width="528" height="153" rx="24" fill="url(#paint3_linear_299_19238)" fill-opacity="0.05"/>
<rect x="87" y="347.636" width="526" height="151" rx="23" stroke="url(#paint4_linear_299_19238)" stroke-opacity="0.07" stroke-width="2"/>
</g>
<rect opacity="0.4" x="120" y="432.636" width="284.234" height="12" rx="6" fill="#A9B8EE" fill-opacity="0.2"/>
<rect opacity="0.85" x="191" y="370.636" width="183" height="12" rx="6" fill="#A9B8EE" fill-opacity="0.2"/>
<rect opacity="0.2" x="120" y="458.636" width="245.364" height="12" rx="6" fill="#A9B8EE" fill-opacity="0.2"/>
<rect opacity="0.7" x="191" y="396.636" width="158" height="12" rx="6" fill="#A9B8EE" fill-opacity="0.2"/>
<rect x="120" y="364.636" width="51" height="51" rx="16" fill="#A9B8EE" fill-opacity="0.1"/>
<rect x="110" y="0.635986" width="76" height="23" rx="11.5" fill="#A9B8EE" fill-opacity="0.1"/>
<rect x="198" y="0.635986" width="76" height="23" rx="11.5" fill="#D0A9EE" fill-opacity="0.3"/>
<rect x="286" y="0.635986" width="76" height="23" rx="11.5" fill="#A9B8EE" fill-opacity="0.1"/>
<rect x="374" y="0.635986" width="76" height="23" rx="11.5" fill="#A9B8EE" fill-opacity="0.1"/>
<g filter="url(#filter2_bd_299_19238)">
<rect x="30" y="196.636" width="264" height="187" rx="20" fill="url(#paint5_linear_299_19238)" fill-opacity="0.4" shape-rendering="crispEdges"/>
</g>
<rect x="43" y="209.636" width="236" height="46" rx="10" fill="#909ED2" fill-opacity="0.15"/>
<g opacity="0.5">
<path fill-rule="evenodd" clip-rule="evenodd" d="M79.25 224.886L75.125 229.011L77.375 240.136C77.5 240.511 77.375 241.011 77 241.261L76.125 242.136C75.5 242.761 74.375 242.511 74.125 241.761L70.875 233.386L66.625 237.636L66.875 240.386C66.875 240.761 66.75 241.136 66.5 241.386L65.125 242.761L62.5 238.386L58.125 235.761L59.375 234.136C59.625 233.886 60 233.761 60.375 233.761L63.125 234.011L67.375 229.761L58.875 226.511C58.125 226.136 57.875 225.136 58.5 224.511L59.375 223.636C59.625 223.386 60.125 223.261 60.5 223.261L71.625 225.511L75.75 221.386C76.75 220.386 78.25 220.386 79.25 221.386V221.386C80.25 222.386 80.25 223.886 79.25 224.886V224.886Z" stroke="#A9B8EE" stroke-width="1.875" stroke-linecap="round" stroke-linejoin="round"/>
</g>
<rect x="92" y="226.636" width="168" height="12" rx="6" fill="#A5B1DE" fill-opacity="0.2"/>
<rect x="92" y="226.636" width="50" height="12" rx="6" fill="#F4FF73" fill-opacity="0.2"/>
<rect x="43" y="267.636" width="236" height="46" rx="10" fill="#909ED2" fill-opacity="0.15"/>
<g opacity="0.5">
<path fill-rule="evenodd" clip-rule="evenodd" d="M79.1573 295.635V285.637C79.1573 284.743 78.681 283.918 77.9073 283.472L69.2498 278.473C68.476 278.027 67.5235 278.027 66.7498 278.473L58.0923 283.472C57.3185 283.918 56.8423 284.745 56.8423 285.637V295.633C56.8423 296.527 57.3185 297.352 58.0923 297.798L66.7498 302.798C67.5235 303.245 68.476 303.245 69.2498 302.798L77.9073 297.8C78.681 297.353 79.1573 296.527 79.1573 295.635Z" stroke="#A9B8EE" stroke-width="1.875" stroke-linecap="round" stroke-linejoin="round"/>
<path d="M60.7124 291.423L64.4624 293.598" stroke="#A9B8EE" stroke-width="1.875" stroke-linecap="round" stroke-linejoin="round"/>
<path d="M57.1772 284.387L67.9997 290.636L78.8222 284.387" stroke="#A9B8EE" stroke-width="1.875" stroke-linecap="round" stroke-linejoin="round"/>
<path d="M68 303.136V290.636" stroke="#A9B8EE" stroke-width="1.875" stroke-linecap="round" stroke-linejoin="round"/>
<path d="M73.4123 287.511L62.4248 280.974" stroke="#A9B8EE" stroke-width="1.875" stroke-linecap="round" stroke-linejoin="round"/>
</g>
<rect x="92" y="284.636" width="74" height="12" rx="6" fill="#A5B1DE" fill-opacity="0.2"/>
<rect x="174" y="284.636" width="33" height="12" rx="6" fill="#A5B1DE" fill-opacity="0.2"/>
<rect x="215" y="284.636" width="43" height="12" rx="6" fill="#A5B1DE" fill-opacity="0.2"/>
<rect x="43" y="325.636" width="236" height="46" rx="10" fill="#909ED2" fill-opacity="0.15"/>
<rect x="92" y="342.636" width="168" height="12" rx="6" fill="#A5B1DE" fill-opacity="0.2"/>
<rect x="92" y="342.636" width="123" height="12" rx="6" fill="#6AF478" fill-opacity="0.2"/>
<g opacity="0.5">
<path d="M62.7202 356.764H73.3768" stroke="#A9B8EE" stroke-width="1.875" stroke-linecap="round" stroke-linejoin="round"/>
<circle cx="75.2527" cy="356.764" r="1.87578" stroke="#A9B8EE" stroke-width="1.875" stroke-linecap="round" stroke-linejoin="round"/>
<circle cx="60.8445" cy="356.764" r="1.87578" stroke="#A9B8EE" stroke-width="1.875" stroke-linecap="round" stroke-linejoin="round"/>
<path d="M56.4946 350.963H72.1261C72.4715 350.963 72.7514 350.683 72.7514 350.338V342.384C72.7514 341.002 71.6316 339.883 70.2504 339.883H58.9957C57.6144 339.883 56.4946 341.002 56.4946 342.384V355.514C56.4946 356.205 57.0545 356.765 57.7451 356.765H58.9685" stroke="#A9B8EE" stroke-width="1.875" stroke-linecap="round" stroke-linejoin="round"/>
<path d="M72.7515 342.383H76.8114C78.1275 342.383 79.3026 343.208 79.7508 344.445L81.3556 348.876C81.4545 349.149 81.5051 349.437 81.5051 349.727V354.889C81.5051 355.924 80.6653 356.764 79.6293 356.764H77.1283" stroke="#A9B8EE" stroke-width="1.875" stroke-linecap="round" stroke-linejoin="round"/>
<path d="M81.5051 349.886H77.7535L76.8693 349.002C76.6348 348.767 76.3167 348.636 75.985 348.636H72.7515" stroke="#A9B8EE" stroke-width="1.875" stroke-linecap="round" stroke-linejoin="round"/>
</g>
<path fill-rule="evenodd" clip-rule="evenodd" d="M525.002 476.841C495.732 476.841 472.003 453.113 472.003 423.843C472.003 394.572 495.732 370.844 525.002 370.844C554.272 370.844 578 394.572 578 423.843C578 453.113 554.272 476.841 525.002 476.841ZM525 448.851C511.188 448.851 499.992 437.655 499.992 423.843C499.992 410.03 511.188 398.834 525 398.834C538.812 398.834 550.009 410.03 550.009 423.843C550.009 437.655 538.812 448.851 525 448.851Z" fill="#417178" fill-opacity="0.18"/>
<path fill-rule="evenodd" clip-rule="evenodd" d="M478.273 448.876C474.27 441.421 472 432.897 472 423.843C472 394.572 495.728 370.844 524.998 370.844C546.107 370.844 564.333 383.185 572.856 401.044L547.581 413.086C543.559 404.658 534.958 398.834 524.997 398.834C511.185 398.834 499.988 410.031 499.988 423.843C499.988 428.116 501.06 432.139 502.949 435.657L478.273 448.876Z" fill="#62B3BE" fill-opacity="0.33"/>
<path fill-rule="evenodd" clip-rule="evenodd" d="M478.275 448.876C474.272 441.42 472.002 432.897 472.002 423.843C472.002 394.572 495.73 370.844 525 370.844C529.435 370.844 533.743 371.389 537.86 372.415L531.07 399.576C529.126 399.091 527.093 398.834 524.999 398.834C511.187 398.834 499.99 410.031 499.99 423.843C499.99 428.116 501.062 432.138 502.951 435.656L478.275 448.876Z" fill="#3E3D67" fill-opacity="0.52"/>
<defs>
<filter id="filter0_b_299_19238" x="66" y="23.636" width="568" height="324" filterUnits="userSpaceOnUse" color-interpolation-filters="sRGB">
<feFlood flood-opacity="0" result="BackgroundImageFix"/>
<feGaussianBlur in="BackgroundImageFix" stdDeviation="10"/>
<feComposite in2="SourceAlpha" operator="in" result="effect1_backgroundBlur_299_19238"/>
<feBlend mode="normal" in="SourceGraphic" in2="effect1_backgroundBlur_299_19238" result="shape"/>
</filter>
<filter id="filter1_b_299_19238" x="66" y="326.636" width="568" height="193" filterUnits="userSpaceOnUse" color-interpolation-filters="sRGB">
<feFlood flood-opacity="0" result="BackgroundImageFix"/>
<feGaussianBlur in="BackgroundImageFix" stdDeviation="10"/>
<feComposite in2="SourceAlpha" operator="in" result="effect1_backgroundBlur_299_19238"/>
<feBlend mode="normal" in="SourceGraphic" in2="effect1_backgroundBlur_299_19238" result="shape"/>
</filter>
<filter id="filter2_bd_299_19238" x="-20" y="146.636" width="384" height="327" filterUnits="userSpaceOnUse" color-interpolation-filters="sRGB">
<feFlood flood-opacity="0" result="BackgroundImageFix"/>
<feGaussianBlur in="BackgroundImageFix" stdDeviation="25"/>
<feComposite in2="SourceAlpha" operator="in" result="effect1_backgroundBlur_299_19238"/>
<feColorMatrix in="SourceAlpha" type="matrix" values="0 0 0 0 0 0 0 0 0 0 0 0 0 0 0 0 0 0 127 0" result="hardAlpha"/>
<feOffset dx="20" dy="40"/>
<feGaussianBlur stdDeviation="25"/>
<feComposite in2="hardAlpha" operator="out"/>
<feColorMatrix type="matrix" values="0 0 0 0 0.173275 0 0 0 0 0.12875 0 0 0 0 0.3 0 0 0 0.35 0"/>
<feBlend mode="normal" in2="effect1_backgroundBlur_299_19238" result="effect2_dropShadow_299_19238"/>
<feBlend mode="normal" in="SourceGraphic" in2="effect2_dropShadow_299_19238" result="shape"/>
</filter>
<linearGradient id="paint0_linear_299_19238" x1="115.261" y1="43.636" x2="212.634" y2="245.702" gradientUnits="userSpaceOnUse">
<stop stop-color="#C78FF2"/>
<stop offset="1" stop-color="#646FCC" stop-opacity="0"/>
</linearGradient>
<linearGradient id="paint1_linear_299_19238" x1="110.059" y1="46.9232" x2="270.888" y2="514.696" gradientUnits="userSpaceOnUse">
<stop stop-color="#FF76FA"/>
<stop offset="0.585513" stop-color="#7491F7" stop-opacity="0.65"/>
<stop offset="1" stop-color="#5174F0" stop-opacity="0"/>
</linearGradient>
<linearGradient id="paint2_linear_299_19238" x1="644" y1="137.5" x2="879.5" y2="508.5" gradientUnits="userSpaceOnUse">
<stop stop-color="#6471A0"/>
<stop offset="1" stop-color="#A9B8EE" stop-opacity="0"/>
</linearGradient>
<linearGradient id="paint3_linear_299_19238" x1="115.261" y1="346.636" x2="147.886" y2="472.305" gradientUnits="userSpaceOnUse">
<stop stop-color="#8FCFF2"/>
<stop offset="1" stop-color="#646FCC" stop-opacity="0"/>
</linearGradient>
<linearGradient id="paint4_linear_299_19238" x1="110.059" y1="348.407" x2="160.524" y2="620.854" gradientUnits="userSpaceOnUse">
<stop stop-color="#FF76FA"/>
<stop offset="0.585513" stop-color="#7491F7" stop-opacity="0.65"/>
<stop offset="1" stop-color="#5174F0" stop-opacity="0"/>
</linearGradient>
<linearGradient id="paint5_linear_299_19238" x1="327.5" y1="270.636" x2="30" y2="416.136" gradientUnits="userSpaceOnUse">
<stop stop-color="#453869"/>
<stop offset="0.749096" stop-color="#716790" stop-opacity="0.38"/>
<stop offset="1" stop-color="#FFE662" stop-opacity="0"/>
</linearGradient>
</defs>
</svg>
