<svg width="24" height="25" viewBox="0 0 24 25" fill="none" xmlns="http://www.w3.org/2000/svg">
<g opacity="0.7" clip-path="url(#clip0_673_8277)">
<path d="M19 0.0678711H5C2.239 0.0678711 0 2.30687 0 5.06787V19.0679C0 21.8289 2.239 24.0679 5 24.0679H19C21.762 24.0679 24 21.8289 24 19.0679V5.06787C24 2.30687 21.762 0.0678711 19 0.0678711ZM8 19.0679H5V8.06787H8V19.0679ZM6.5 6.79987C5.534 6.79987 4.75 6.00987 4.75 5.03587C4.75 4.06187 5.534 3.27187 6.5 3.27187C7.466 3.27187 8.25 4.06187 8.25 5.03587C8.25 6.00987 7.467 6.79987 6.5 6.79987ZM20 19.0679H17V13.4639C17 10.0959 13 10.3509 13 13.4639V19.0679H10V8.06787H13V9.83287C14.396 7.24687 20 7.05587 20 12.3089V19.0679Z" fill="white"/>
</g>
<defs>
<clipPath id="clip0_673_8277">
<rect width="24" height="24" fill="white" transform="translate(0 0.0678711)"/>
</clipPath>
</defs>
</svg>
