<svg width="443" height="355" viewBox="0 0 443 355" fill="none" xmlns="http://www.w3.org/2000/svg">
<rect width="443" height="354.581" rx="20" fill="#0D0F2B" fill-opacity="0.4"/>
<rect width="443" height="354.581" rx="20" fill="url(#paint0_linear_807_3161)" fill-opacity="0.05"/>
<path fill-rule="evenodd" clip-rule="evenodd" d="M33.569 24.6934H43.1379C46.4409 24.6934 49.1185 27.371 49.1185 30.674V40.2429C49.1185 43.5459 46.4409 46.2235 43.1379 46.2235H33.569C30.266 46.2235 27.5884 43.5459 27.5884 40.2429V30.674C27.5884 27.371 30.266 24.6934 33.569 24.6934Z" fill="url(#paint1_linear_807_3161)"/>
<path d="M37.4564 38.1503L34.7651 35.459" stroke="white" stroke-width="1.79418" stroke-linecap="round" stroke-linejoin="round"/>
<path d="M41.9418 33.6641L37.4563 38.1495" stroke="white" stroke-width="1.79418" stroke-linecap="round" stroke-linejoin="round"/>
<path d="M73.3418 40.579C72.5518 40.579 71.7868 40.459 71.0468 40.219C70.3168 39.969 69.7418 39.649 69.3218 39.259L69.8768 38.089C70.2768 38.449 70.7868 38.744 71.4068 38.974C72.0368 39.194 72.6818 39.304 73.3418 39.304C74.2118 39.304 74.8618 39.159 75.2918 38.869C75.7218 38.569 75.9368 38.174 75.9368 37.684C75.9368 37.324 75.8168 37.034 75.5768 36.814C75.3468 36.584 75.0568 36.409 74.7068 36.289C74.3668 36.169 73.8818 36.034 73.2518 35.884C72.4618 35.694 71.8218 35.504 71.3318 35.314C70.8518 35.124 70.4368 34.834 70.0868 34.444C69.7468 34.044 69.5768 33.509 69.5768 32.839C69.5768 32.279 69.7218 31.774 70.0118 31.324C70.3118 30.874 70.7618 30.514 71.3618 30.244C71.9618 29.974 72.7068 29.839 73.5968 29.839C74.2168 29.839 74.8268 29.919 75.4268 30.079C76.0268 30.239 76.5418 30.469 76.9718 30.769L76.4768 31.969C76.0368 31.689 75.5668 31.479 75.0668 31.339C74.5668 31.189 74.0768 31.114 73.5968 31.114C72.7468 31.114 72.1068 31.269 71.6768 31.579C71.2568 31.889 71.0468 32.289 71.0468 32.779C71.0468 33.139 71.1668 33.434 71.4068 33.664C71.6468 33.884 71.9418 34.059 72.2918 34.189C72.6518 34.309 73.1368 34.439 73.7468 34.579C74.5368 34.769 75.1718 34.959 75.6518 35.149C76.1318 35.339 76.5418 35.629 76.8818 36.019C77.2318 36.409 77.4068 36.934 77.4068 37.594C77.4068 38.144 77.2568 38.649 76.9568 39.109C76.6568 39.559 76.2018 39.919 75.5918 40.189C74.9818 40.449 74.2318 40.579 73.3418 40.579ZM85.0882 40.579C84.0282 40.579 83.0732 40.349 82.2232 39.889C81.3732 39.419 80.7032 38.774 80.2132 37.954C79.7332 37.134 79.4932 36.219 79.4932 35.209C79.4932 34.199 79.7332 33.284 80.2132 32.464C80.7032 31.644 81.3732 31.004 82.2232 30.544C83.0732 30.074 84.0282 29.839 85.0882 29.839C86.1382 29.839 87.0882 30.074 87.9382 30.544C88.7882 31.004 89.4532 31.644 89.9332 32.464C90.4132 33.274 90.6532 34.189 90.6532 35.209C90.6532 36.229 90.4132 37.149 89.9332 37.969C89.4532 38.779 88.7882 39.419 87.9382 39.889C87.0882 40.349 86.1382 40.579 85.0882 40.579ZM85.0882 39.244C85.8582 39.244 86.5482 39.069 87.1582 38.719C87.7782 38.369 88.2632 37.889 88.6132 37.279C88.9732 36.659 89.1532 35.969 89.1532 35.209C89.1532 34.449 88.9732 33.764 88.6132 33.154C88.2632 32.534 87.7782 32.049 87.1582 31.699C86.5482 31.349 85.8582 31.174 85.0882 31.174C84.3182 31.174 83.6182 31.349 82.9882 31.699C82.3682 32.049 81.8782 32.534 81.5182 33.154C81.1682 33.764 80.9932 34.449 80.9932 35.209C80.9932 35.969 81.1682 36.659 81.5182 37.279C81.8782 37.889 82.3682 38.369 82.9882 38.719C83.6182 39.069 84.3182 39.244 85.0882 39.244ZM93.0784 35.719H97.1134V36.964H93.0784V35.719ZM102.427 29.959V40.459H100.942V31.264H98.5719V29.959H102.427ZM112.854 39.154V40.459H105.309V39.439L109.584 35.314C110.104 34.814 110.454 34.384 110.634 34.024C110.814 33.654 110.904 33.284 110.904 32.914C110.904 32.364 110.709 31.939 110.319 31.639C109.939 31.329 109.389 31.174 108.669 31.174C107.509 31.174 106.614 31.554 105.984 32.314L104.964 31.429C105.374 30.929 105.909 30.539 106.569 30.259C107.239 29.979 107.984 29.839 108.804 29.839C109.904 29.839 110.779 30.104 111.429 30.634C112.079 31.154 112.404 31.864 112.404 32.764C112.404 33.324 112.284 33.854 112.044 34.354C111.804 34.854 111.349 35.424 110.679 36.064L107.469 39.154H112.854ZM118.857 34.369C119.887 34.469 120.672 34.789 121.212 35.329C121.752 35.859 122.022 36.539 122.022 37.369C122.022 37.969 121.872 38.514 121.572 39.004C121.272 39.484 120.822 39.869 120.222 40.159C119.632 40.439 118.907 40.579 118.047 40.579C117.297 40.579 116.577 40.469 115.887 40.249C115.197 40.019 114.632 39.704 114.192 39.304L114.882 38.119C115.242 38.459 115.702 38.734 116.262 38.944C116.822 39.144 117.417 39.244 118.047 39.244C118.827 39.244 119.432 39.079 119.862 38.749C120.302 38.419 120.522 37.964 120.522 37.384C120.522 36.804 120.307 36.354 119.877 36.034C119.447 35.714 118.797 35.554 117.927 35.554H117.087V34.504L119.727 31.264H114.672V29.959H121.602V30.979L118.857 34.369ZM133.306 37.879H131.311V40.459H129.856V37.879H124.021V36.829L129.391 29.959H131.011L125.866 36.589H129.901V34.309H131.311V36.589H133.306V37.879Z" fill="#9D98BB" fill-opacity="0.63"/>
<rect x="149.707" y="25.957" width="81" height="19" rx="7.6333" fill="#CCDDFF" fill-opacity="0.1"/>
<rect x="242.707" y="25.916" width="53.2931" height="19.0832" rx="7.6333" fill="#CCDDFF" fill-opacity="0.1"/>
<rect x="312" y="20.959" width="107" height="29" rx="12" fill="#91CF7B" fill-opacity="0.07"/>
<path opacity="0.75" d="M344.268 39.959H342.884L346.889 29.0499H348.253L352.259 39.959H350.874L349.846 37.04H345.297L344.268 39.959ZM347.507 30.7757L345.712 35.8681H349.43L347.635 30.7757H347.507ZM360.189 34.2275H358.932C358.74 33.4817 358.08 32.7999 356.972 32.7999C355.502 32.7999 354.521 34.0144 354.521 35.8681C354.521 37.7644 355.48 39.0002 356.972 39.0002C357.952 39.0002 358.698 38.4675 358.932 37.5726H360.189C359.976 39.0215 358.783 40.1294 356.972 40.1294C354.692 40.1294 353.264 38.3823 353.264 35.8681C353.264 33.4178 354.734 31.6706 356.95 31.6706C358.676 31.6706 359.976 32.6934 360.189 34.2275ZM365.874 31.7772V32.949H364.127V37.6152C364.127 38.6806 364.66 38.851 365.214 38.851C365.491 38.851 365.661 38.8084 365.768 38.7871L366.023 39.9164C365.853 39.9803 365.555 40.0655 365.086 40.0655C364.021 40.0655 362.87 39.3837 362.87 37.9561V32.949H361.634V31.7772H362.87V30.03H364.127V31.7772H365.874ZM368.694 30.6053C368.14 30.6053 367.799 30.2218 367.799 29.753C367.799 29.3269 368.14 28.9007 368.694 28.9007C369.248 28.9007 369.589 29.3269 369.589 29.753C369.589 30.2218 369.248 30.6053 368.694 30.6053ZM369.333 31.7772V39.959H368.076V31.7772H369.333ZM378.626 31.7772L375.6 39.959H374.322L371.296 31.7772H372.66L374.918 38.2971H375.004L377.262 31.7772H378.626ZM383.737 40.1294C381.372 40.1294 379.923 38.4462 379.923 35.932C379.923 33.4178 381.393 31.6706 383.609 31.6706C385.314 31.6706 387.125 32.7147 387.125 35.7615V36.2942H381.196C381.324 38.0627 382.256 39.0002 383.737 39.0002C384.739 39.0002 385.463 38.574 385.783 37.7218L386.997 38.0627C386.614 39.2985 385.399 40.1294 383.737 40.1294ZM383.609 32.7999C382.352 32.7999 381.425 33.6735 381.223 35.2076H385.847C385.847 33.8226 384.973 32.7999 383.609 32.7999Z" fill="#91CF7B"/>
<rect width="443" height="70.9162" transform="translate(0 70.916)" fill="white" fill-opacity="0.02"/>
<path fill-rule="evenodd" clip-rule="evenodd" d="M33.569 95.6094H43.1379C46.4409 95.6094 49.1185 98.287 49.1185 101.59V111.159C49.1185 114.462 46.4409 117.14 43.1379 117.14H33.569C30.266 117.14 27.5884 114.462 27.5884 111.159V101.59C27.5884 98.287 30.266 95.6094 33.569 95.6094Z" fill="white" fill-opacity="0.15"/>
<path d="M73.3418 111.495C72.5518 111.495 71.7868 111.375 71.0468 111.135C70.3168 110.885 69.7418 110.565 69.3218 110.175L69.8768 109.005C70.2768 109.365 70.7868 109.66 71.4068 109.89C72.0368 110.11 72.6818 110.22 73.3418 110.22C74.2118 110.22 74.8618 110.075 75.2918 109.785C75.7218 109.485 75.9368 109.09 75.9368 108.6C75.9368 108.24 75.8168 107.95 75.5768 107.73C75.3468 107.5 75.0568 107.325 74.7068 107.205C74.3668 107.085 73.8818 106.95 73.2518 106.8C72.4618 106.61 71.8218 106.42 71.3318 106.23C70.8518 106.04 70.4368 105.75 70.0868 105.36C69.7468 104.96 69.5768 104.425 69.5768 103.755C69.5768 103.195 69.7218 102.69 70.0118 102.24C70.3118 101.79 70.7618 101.43 71.3618 101.16C71.9618 100.89 72.7068 100.755 73.5968 100.755C74.2168 100.755 74.8268 100.835 75.4268 100.995C76.0268 101.155 76.5418 101.385 76.9718 101.685L76.4768 102.885C76.0368 102.605 75.5668 102.395 75.0668 102.255C74.5668 102.105 74.0768 102.03 73.5968 102.03C72.7468 102.03 72.1068 102.185 71.6768 102.495C71.2568 102.805 71.0468 103.205 71.0468 103.695C71.0468 104.055 71.1668 104.35 71.4068 104.58C71.6468 104.8 71.9418 104.975 72.2918 105.105C72.6518 105.225 73.1368 105.355 73.7468 105.495C74.5368 105.685 75.1718 105.875 75.6518 106.065C76.1318 106.255 76.5418 106.545 76.8818 106.935C77.2318 107.325 77.4068 107.85 77.4068 108.51C77.4068 109.06 77.2568 109.565 76.9568 110.025C76.6568 110.475 76.2018 110.835 75.5918 111.105C74.9818 111.365 74.2318 111.495 73.3418 111.495ZM85.0882 111.495C84.0282 111.495 83.0732 111.265 82.2232 110.805C81.3732 110.335 80.7032 109.69 80.2132 108.87C79.7332 108.05 79.4932 107.135 79.4932 106.125C79.4932 105.115 79.7332 104.2 80.2132 103.38C80.7032 102.56 81.3732 101.92 82.2232 101.46C83.0732 100.99 84.0282 100.755 85.0882 100.755C86.1382 100.755 87.0882 100.99 87.9382 101.46C88.7882 101.92 89.4532 102.56 89.9332 103.38C90.4132 104.19 90.6532 105.105 90.6532 106.125C90.6532 107.145 90.4132 108.065 89.9332 108.885C89.4532 109.695 88.7882 110.335 87.9382 110.805C87.0882 111.265 86.1382 111.495 85.0882 111.495ZM85.0882 110.16C85.8582 110.16 86.5482 109.985 87.1582 109.635C87.7782 109.285 88.2632 108.805 88.6132 108.195C88.9732 107.575 89.1532 106.885 89.1532 106.125C89.1532 105.365 88.9732 104.68 88.6132 104.07C88.2632 103.45 87.7782 102.965 87.1582 102.615C86.5482 102.265 85.8582 102.09 85.0882 102.09C84.3182 102.09 83.6182 102.265 82.9882 102.615C82.3682 102.965 81.8782 103.45 81.5182 104.07C81.1682 104.68 80.9932 105.365 80.9932 106.125C80.9932 106.885 81.1682 107.575 81.5182 108.195C81.8782 108.805 82.3682 109.285 82.9882 109.635C83.6182 109.985 84.3182 110.16 85.0882 110.16ZM93.0784 106.635H97.1134V107.88H93.0784V106.635ZM106.939 100.875V101.895L102.694 111.375H101.104L105.259 102.18H100.459V104.055H99.0191V100.875H106.939ZM112.907 105.285C113.937 105.385 114.722 105.705 115.262 106.245C115.802 106.775 116.072 107.455 116.072 108.285C116.072 108.885 115.922 109.43 115.622 109.92C115.322 110.4 114.872 110.785 114.272 111.075C113.682 111.355 112.957 111.495 112.097 111.495C111.347 111.495 110.627 111.385 109.937 111.165C109.247 110.935 108.682 110.62 108.242 110.22L108.932 109.035C109.292 109.375 109.752 109.65 110.312 109.86C110.872 110.06 111.467 110.16 112.097 110.16C112.877 110.16 113.482 109.995 113.912 109.665C114.352 109.335 114.572 108.88 114.572 108.3C114.572 107.72 114.357 107.27 113.927 106.95C113.497 106.63 112.847 106.47 111.977 106.47H111.137V105.42L113.777 102.18H108.722V100.875H115.652V101.895L112.907 105.285ZM125.527 110.07V111.375H117.982V110.355L122.257 106.23C122.777 105.73 123.127 105.3 123.307 104.94C123.487 104.57 123.577 104.2 123.577 103.83C123.577 103.28 123.382 102.855 122.992 102.555C122.612 102.245 122.062 102.09 121.342 102.09C120.182 102.09 119.287 102.47 118.657 103.23L117.637 102.345C118.047 101.845 118.582 101.455 119.242 101.175C119.912 100.895 120.657 100.755 121.477 100.755C122.577 100.755 123.452 101.02 124.102 101.55C124.752 102.07 125.077 102.78 125.077 103.68C125.077 104.24 124.957 104.77 124.717 105.27C124.477 105.77 124.022 106.34 123.352 106.98L120.142 110.07H125.527ZM131.531 105.285C132.561 105.385 133.346 105.705 133.886 106.245C134.426 106.775 134.696 107.455 134.696 108.285C134.696 108.885 134.546 109.43 134.246 109.92C133.946 110.4 133.496 110.785 132.896 111.075C132.306 111.355 131.581 111.495 130.721 111.495C129.971 111.495 129.251 111.385 128.561 111.165C127.871 110.935 127.306 110.62 126.866 110.22L127.556 109.035C127.916 109.375 128.376 109.65 128.936 109.86C129.496 110.06 130.091 110.16 130.721 110.16C131.501 110.16 132.106 109.995 132.536 109.665C132.976 109.335 133.196 108.88 133.196 108.3C133.196 107.72 132.981 107.27 132.551 106.95C132.121 106.63 131.471 106.47 130.601 106.47H129.761V105.42L132.401 102.18H127.346V100.875H134.276V101.895L131.531 105.285Z" fill="#9D98BB" fill-opacity="0.63"/>
<rect x="151.707" y="96.875" width="57.2931" height="19" rx="7.6333" fill="#CCDDFF" fill-opacity="0.1"/>
<rect x="221" y="96.875" width="75" height="19" rx="7.6333" fill="#CCDDFF" fill-opacity="0.1"/>
<rect x="312" y="91.875" width="107" height="29" rx="12" fill="#CFC77B" fill-opacity="0.07"/>
<path opacity="0.75" d="M326.642 99.9659V110.875H325.321V99.9659H326.642ZM330.677 105.953V110.875H329.42V102.693H330.635V103.972H330.741C330.933 103.556 331.224 103.222 331.615 102.97C332.006 102.714 332.51 102.587 333.128 102.587C333.682 102.587 334.166 102.7 334.582 102.928C334.997 103.151 335.321 103.492 335.551 103.95C335.782 104.405 335.898 104.98 335.898 105.676V110.875H334.64V105.761C334.64 105.119 334.474 104.618 334.14 104.259C333.806 103.897 333.348 103.716 332.765 103.716C332.364 103.716 332.006 103.803 331.689 103.977C331.377 104.151 331.13 104.405 330.949 104.739C330.768 105.072 330.677 105.477 330.677 105.953ZM343.184 110.875V99.9659H346.87C347.726 99.9659 348.425 100.12 348.969 100.429C349.516 100.735 349.92 101.148 350.183 101.67C350.446 102.192 350.577 102.775 350.577 103.418C350.577 104.06 350.446 104.645 350.183 105.17C349.924 105.696 349.523 106.115 348.979 106.427C348.436 106.736 347.74 106.891 346.891 106.891H344.249V105.719H346.849C347.435 105.719 347.905 105.618 348.26 105.415C348.615 105.213 348.873 104.939 349.033 104.595C349.196 104.247 349.278 103.854 349.278 103.418C349.278 102.981 349.196 102.59 349.033 102.246C348.873 101.901 348.614 101.631 348.255 101.436C347.896 101.237 347.42 101.138 346.827 101.138H344.505V110.875H343.184ZM352.835 110.875V102.693H354.049V103.929H354.135C354.284 103.524 354.554 103.196 354.944 102.944C355.335 102.691 355.775 102.565 356.265 102.565C356.358 102.565 356.473 102.567 356.612 102.571C356.75 102.574 356.855 102.58 356.926 102.587V103.865C356.883 103.854 356.786 103.838 356.633 103.817C356.484 103.792 356.326 103.78 356.159 103.78C355.761 103.78 355.406 103.863 355.093 104.03C354.785 104.194 354.539 104.421 354.358 104.712C354.181 105 354.092 105.328 354.092 105.697V110.875H352.835ZM361.791 111.045C361.052 111.045 360.404 110.87 359.847 110.518C359.293 110.167 358.859 109.675 358.547 109.043C358.238 108.411 358.083 107.672 358.083 106.827C358.083 105.974 358.238 105.23 358.547 104.595C358.859 103.959 359.293 103.466 359.847 103.114C360.404 102.762 361.052 102.587 361.791 102.587C362.529 102.587 363.176 102.762 363.73 103.114C364.287 103.466 364.721 103.959 365.029 104.595C365.342 105.23 365.498 105.974 365.498 106.827C365.498 107.672 365.342 108.411 365.029 109.043C364.721 109.675 364.287 110.167 363.73 110.518C363.176 110.87 362.529 111.045 361.791 111.045ZM361.791 109.916C362.352 109.916 362.814 109.772 363.176 109.485C363.538 109.197 363.806 108.819 363.98 108.35C364.154 107.881 364.241 107.374 364.241 106.827C364.241 106.28 364.154 105.77 363.98 105.298C363.806 104.826 363.538 104.444 363.176 104.153C362.814 103.862 362.352 103.716 361.791 103.716C361.23 103.716 360.768 103.862 360.406 104.153C360.044 104.444 359.776 104.826 359.602 105.298C359.428 105.77 359.341 106.28 359.341 106.827C359.341 107.374 359.428 107.881 359.602 108.35C359.776 108.819 360.044 109.197 360.406 109.485C360.768 109.772 361.23 109.916 361.791 109.916ZM371.02 114.114C370.412 114.114 369.89 114.036 369.454 113.879C369.017 113.727 368.653 113.524 368.362 113.272C368.074 113.023 367.845 112.757 367.675 112.473L368.676 111.77C368.79 111.919 368.933 112.089 369.107 112.281C369.281 112.477 369.519 112.645 369.821 112.787C370.127 112.933 370.526 113.006 371.02 113.006C371.68 113.006 372.225 112.846 372.655 112.526C373.085 112.207 373.3 111.706 373.3 111.024V109.362H373.193C373.101 109.511 372.969 109.696 372.799 109.916C372.632 110.133 372.39 110.326 372.074 110.497C371.762 110.664 371.339 110.747 370.807 110.747C370.146 110.747 369.553 110.591 369.028 110.278C368.506 109.966 368.092 109.511 367.786 108.915C367.485 108.318 367.334 107.594 367.334 106.741C367.334 105.903 367.481 105.174 367.776 104.552C368.071 103.927 368.481 103.444 369.006 103.103C369.532 102.759 370.139 102.587 370.828 102.587C371.361 102.587 371.783 102.675 372.096 102.853C372.412 103.027 372.653 103.226 372.82 103.45C372.991 103.67 373.122 103.851 373.214 103.993H373.342V102.693H374.557V111.109C374.557 111.812 374.397 112.384 374.077 112.825C373.761 113.268 373.335 113.593 372.799 113.799C372.266 114.009 371.673 114.114 371.02 114.114ZM370.977 109.618C371.481 109.618 371.908 109.502 372.256 109.272C372.604 109.041 372.868 108.709 373.049 108.276C373.23 107.842 373.321 107.324 373.321 106.72C373.321 106.131 373.232 105.61 373.055 105.159C372.877 104.708 372.614 104.355 372.266 104.099C371.918 103.844 371.488 103.716 370.977 103.716C370.444 103.716 370.001 103.851 369.645 104.121C369.294 104.391 369.029 104.753 368.852 105.207C368.678 105.662 368.591 106.166 368.591 106.72C368.591 107.288 368.68 107.791 368.857 108.228C369.038 108.661 369.305 109.002 369.656 109.25C370.011 109.495 370.452 109.618 370.977 109.618ZM377.158 110.875V102.693H378.372V103.929H378.458C378.607 103.524 378.877 103.196 379.267 102.944C379.658 102.691 380.098 102.565 380.588 102.565C380.681 102.565 380.796 102.567 380.934 102.571C381.073 102.574 381.178 102.58 381.249 102.587V103.865C381.206 103.854 381.108 103.838 380.956 103.817C380.807 103.792 380.649 103.78 380.482 103.78C380.084 103.78 379.729 103.863 379.416 104.03C379.107 104.194 378.862 104.421 378.681 104.712C378.504 105 378.415 105.328 378.415 105.697V110.875H377.158ZM386.22 111.045C385.432 111.045 384.752 110.871 384.18 110.523C383.612 110.172 383.173 109.682 382.864 109.053C382.559 108.421 382.406 107.686 382.406 106.848C382.406 106.01 382.559 105.271 382.864 104.632C383.173 103.989 383.603 103.489 384.153 103.13C384.707 102.768 385.354 102.587 386.092 102.587C386.519 102.587 386.939 102.658 387.355 102.8C387.77 102.942 388.148 103.173 388.489 103.492C388.83 103.808 389.102 104.227 389.304 104.749C389.507 105.271 389.608 105.914 389.608 106.678V107.21H383.301V106.124H388.33C388.33 105.662 388.237 105.25 388.053 104.888C387.872 104.526 387.612 104.24 387.275 104.03C386.941 103.821 386.547 103.716 386.092 103.716C385.592 103.716 385.158 103.84 384.793 104.089C384.43 104.334 384.152 104.653 383.956 105.048C383.761 105.442 383.663 105.864 383.663 106.315V107.04C383.663 107.658 383.77 108.181 383.983 108.611C384.2 109.037 384.5 109.362 384.883 109.586C385.267 109.806 385.712 109.916 386.22 109.916C386.55 109.916 386.849 109.87 387.115 109.778C387.385 109.682 387.618 109.54 387.813 109.352C388.008 109.16 388.159 108.922 388.266 108.638L389.48 108.979C389.352 109.391 389.137 109.753 388.836 110.065C388.534 110.374 388.161 110.616 387.717 110.79C387.273 110.96 386.774 111.045 386.22 111.045ZM397.616 104.526L396.486 104.845C396.415 104.657 396.311 104.474 396.172 104.297C396.037 104.115 395.853 103.966 395.618 103.849C395.384 103.732 395.084 103.673 394.718 103.673C394.217 103.673 393.8 103.789 393.466 104.02C393.136 104.247 392.971 104.536 392.971 104.888C392.971 105.2 393.084 105.447 393.312 105.628C393.539 105.809 393.894 105.96 394.377 106.081L395.592 106.379C396.323 106.557 396.868 106.828 397.227 107.194C397.586 107.556 397.765 108.023 397.765 108.595C397.765 109.064 397.63 109.483 397.36 109.852C397.094 110.222 396.721 110.513 396.241 110.726C395.762 110.939 395.205 111.045 394.569 111.045C393.734 111.045 393.044 110.864 392.497 110.502C391.95 110.14 391.604 109.611 391.458 108.915L392.651 108.616C392.765 109.057 392.98 109.387 393.296 109.607C393.615 109.827 394.033 109.938 394.548 109.938C395.134 109.938 395.599 109.813 395.943 109.565C396.291 109.312 396.465 109.011 396.465 108.659C396.465 108.375 396.366 108.137 396.167 107.945C395.968 107.75 395.663 107.604 395.251 107.509L393.887 107.189C393.138 107.011 392.587 106.736 392.236 106.363C391.888 105.987 391.714 105.516 391.714 104.952C391.714 104.49 391.843 104.082 392.103 103.727C392.365 103.371 392.722 103.093 393.173 102.89C393.628 102.688 394.143 102.587 394.718 102.587C395.528 102.587 396.163 102.764 396.625 103.119C397.09 103.474 397.42 103.943 397.616 104.526ZM405.753 104.526L404.623 104.845C404.552 104.657 404.448 104.474 404.309 104.297C404.174 104.115 403.99 103.966 403.755 103.849C403.521 103.732 403.221 103.673 402.855 103.673C402.354 103.673 401.937 103.789 401.603 104.02C401.273 104.247 401.108 104.536 401.108 104.888C401.108 105.2 401.221 105.447 401.449 105.628C401.676 105.809 402.031 105.96 402.514 106.081L403.729 106.379C404.46 106.557 405.005 106.828 405.364 107.194C405.722 107.556 405.902 108.023 405.902 108.595C405.902 109.064 405.767 109.483 405.497 109.852C405.231 110.222 404.858 110.513 404.378 110.726C403.899 110.939 403.341 111.045 402.706 111.045C401.871 111.045 401.181 110.864 400.634 110.502C400.087 110.14 399.741 109.611 399.595 108.915L400.788 108.616C400.902 109.057 401.117 109.387 401.433 109.607C401.752 109.827 402.17 109.938 402.684 109.938C403.27 109.938 403.736 109.813 404.08 109.565C404.428 109.312 404.602 109.011 404.602 108.659C404.602 108.375 404.503 108.137 404.304 107.945C404.105 107.75 403.8 107.604 403.388 107.509L402.024 107.189C401.275 107.011 400.724 106.736 400.373 106.363C400.025 105.987 399.851 105.516 399.851 104.952C399.851 104.49 399.98 104.082 400.24 103.727C400.502 103.371 400.859 103.093 401.31 102.89C401.765 102.688 402.28 102.587 402.855 102.587C403.665 102.587 404.3 102.764 404.762 103.119C405.227 103.474 405.557 103.943 405.753 104.526Z" fill="#CFC77B"/>
<path fill-rule="evenodd" clip-rule="evenodd" d="M33.569 166.525H43.1379C46.4409 166.525 49.1185 169.203 49.1185 172.506V182.075C49.1185 185.378 46.4409 188.056 43.1379 188.056H33.569C30.266 188.056 27.5884 185.378 27.5884 182.075V172.506C27.5884 169.203 30.266 166.525 33.569 166.525Z" fill="url(#paint2_linear_807_3161)"/>
<path d="M37.4564 179.982L34.7651 177.291" stroke="white" stroke-width="1.79418" stroke-linecap="round" stroke-linejoin="round"/>
<path d="M41.9418 175.496L37.4563 179.982" stroke="white" stroke-width="1.79418" stroke-linecap="round" stroke-linejoin="round"/>
<path d="M73.3418 182.411C72.5518 182.411 71.7868 182.291 71.0468 182.051C70.3168 181.801 69.7418 181.481 69.3218 181.091L69.8768 179.921C70.2768 180.281 70.7868 180.576 71.4068 180.806C72.0368 181.026 72.6818 181.136 73.3418 181.136C74.2118 181.136 74.8618 180.991 75.2918 180.701C75.7218 180.401 75.9368 180.006 75.9368 179.516C75.9368 179.156 75.8168 178.866 75.5768 178.646C75.3468 178.416 75.0568 178.241 74.7068 178.121C74.3668 178.001 73.8818 177.866 73.2518 177.716C72.4618 177.526 71.8218 177.336 71.3318 177.146C70.8518 176.956 70.4368 176.666 70.0868 176.276C69.7468 175.876 69.5768 175.341 69.5768 174.671C69.5768 174.111 69.7218 173.606 70.0118 173.156C70.3118 172.706 70.7618 172.346 71.3618 172.076C71.9618 171.806 72.7068 171.671 73.5968 171.671C74.2168 171.671 74.8268 171.751 75.4268 171.911C76.0268 172.071 76.5418 172.301 76.9718 172.601L76.4768 173.801C76.0368 173.521 75.5668 173.311 75.0668 173.171C74.5668 173.021 74.0768 172.946 73.5968 172.946C72.7468 172.946 72.1068 173.101 71.6768 173.411C71.2568 173.721 71.0468 174.121 71.0468 174.611C71.0468 174.971 71.1668 175.266 71.4068 175.496C71.6468 175.716 71.9418 175.891 72.2918 176.021C72.6518 176.141 73.1368 176.271 73.7468 176.411C74.5368 176.601 75.1718 176.791 75.6518 176.981C76.1318 177.171 76.5418 177.461 76.8818 177.851C77.2318 178.241 77.4068 178.766 77.4068 179.426C77.4068 179.976 77.2568 180.481 76.9568 180.941C76.6568 181.391 76.2018 181.751 75.5918 182.021C74.9818 182.281 74.2318 182.411 73.3418 182.411ZM85.0882 182.411C84.0282 182.411 83.0732 182.181 82.2232 181.721C81.3732 181.251 80.7032 180.606 80.2132 179.786C79.7332 178.966 79.4932 178.051 79.4932 177.041C79.4932 176.031 79.7332 175.116 80.2132 174.296C80.7032 173.476 81.3732 172.836 82.2232 172.376C83.0732 171.906 84.0282 171.671 85.0882 171.671C86.1382 171.671 87.0882 171.906 87.9382 172.376C88.7882 172.836 89.4532 173.476 89.9332 174.296C90.4132 175.106 90.6532 176.021 90.6532 177.041C90.6532 178.061 90.4132 178.981 89.9332 179.801C89.4532 180.611 88.7882 181.251 87.9382 181.721C87.0882 182.181 86.1382 182.411 85.0882 182.411ZM85.0882 181.076C85.8582 181.076 86.5482 180.901 87.1582 180.551C87.7782 180.201 88.2632 179.721 88.6132 179.111C88.9732 178.491 89.1532 177.801 89.1532 177.041C89.1532 176.281 88.9732 175.596 88.6132 174.986C88.2632 174.366 87.7782 173.881 87.1582 173.531C86.5482 173.181 85.8582 173.006 85.0882 173.006C84.3182 173.006 83.6182 173.181 82.9882 173.531C82.3682 173.881 81.8782 174.366 81.5182 174.986C81.1682 175.596 80.9932 176.281 80.9932 177.041C80.9932 177.801 81.1682 178.491 81.5182 179.111C81.8782 179.721 82.3682 180.201 82.9882 180.551C83.6182 180.901 84.3182 181.076 85.0882 181.076ZM93.0784 177.551H97.1134V178.796H93.0784V177.551ZM108.673 179.711H106.678V182.291H105.223V179.711H99.3881V178.661L104.758 171.791H106.378L101.233 178.421H105.268V176.141H106.678V178.421H108.673V179.711ZM114.167 176.201C115.197 176.301 115.982 176.621 116.522 177.161C117.062 177.691 117.332 178.371 117.332 179.201C117.332 179.801 117.182 180.346 116.882 180.836C116.582 181.316 116.132 181.701 115.532 181.991C114.942 182.271 114.217 182.411 113.357 182.411C112.607 182.411 111.887 182.301 111.197 182.081C110.507 181.851 109.942 181.536 109.502 181.136L110.192 179.951C110.552 180.291 111.012 180.566 111.572 180.776C112.132 180.976 112.727 181.076 113.357 181.076C114.137 181.076 114.742 180.911 115.172 180.581C115.612 180.251 115.832 179.796 115.832 179.216C115.832 178.636 115.617 178.186 115.187 177.866C114.757 177.546 114.107 177.386 113.237 177.386H112.397V176.336L115.037 173.096H109.982V171.791H116.912V172.811L114.167 176.201ZM126.787 180.986V182.291H119.242V181.271L123.517 177.146C124.037 176.646 124.387 176.216 124.567 175.856C124.747 175.486 124.837 175.116 124.837 174.746C124.837 174.196 124.642 173.771 124.252 173.471C123.872 173.161 123.322 173.006 122.602 173.006C121.442 173.006 120.547 173.386 119.917 174.146L118.897 173.261C119.307 172.761 119.842 172.371 120.502 172.091C121.172 171.811 121.917 171.671 122.737 171.671C123.837 171.671 124.712 171.936 125.362 172.466C126.012 172.986 126.337 173.696 126.337 174.596C126.337 175.156 126.217 175.686 125.977 176.186C125.737 176.686 125.282 177.256 124.612 177.896L121.402 180.986H126.787ZM132.791 176.201C133.821 176.301 134.606 176.621 135.146 177.161C135.686 177.691 135.956 178.371 135.956 179.201C135.956 179.801 135.806 180.346 135.506 180.836C135.206 181.316 134.756 181.701 134.156 181.991C133.566 182.271 132.841 182.411 131.981 182.411C131.231 182.411 130.511 182.301 129.821 182.081C129.131 181.851 128.566 181.536 128.126 181.136L128.816 179.951C129.176 180.291 129.636 180.566 130.196 180.776C130.756 180.976 131.351 181.076 131.981 181.076C132.761 181.076 133.366 180.911 133.796 180.581C134.236 180.251 134.456 179.796 134.456 179.216C134.456 178.636 134.241 178.186 133.811 177.866C133.381 177.546 132.731 177.386 131.861 177.386H131.021V176.336L133.661 173.096H128.606V171.791H135.536V172.811L132.791 176.201Z" fill="#9D98BB" fill-opacity="0.63"/>
<rect x="152.707" y="167.791" width="85.2931" height="19" rx="7.6333" fill="#CCDDFF" fill-opacity="0.1"/>
<rect x="250" y="167.791" width="46" height="19" rx="7.6333" fill="#CCDDFF" fill-opacity="0.1"/>
<rect x="312" y="162.791" width="107" height="29" rx="12" fill="#91CF7B" fill-opacity="0.07"/>
<path opacity="0.75" d="M344.268 181.791H342.884L346.889 170.882H348.253L352.259 181.791H350.874L349.846 178.872H345.297L344.268 181.791ZM347.507 172.608L345.712 177.7H349.43L347.635 172.608H347.507ZM360.189 176.059H358.932C358.74 175.314 358.08 174.632 356.972 174.632C355.502 174.632 354.521 175.846 354.521 177.7C354.521 179.596 355.48 180.832 356.972 180.832C357.952 180.832 358.698 180.3 358.932 179.405H360.189C359.976 180.854 358.783 181.961 356.972 181.961C354.692 181.961 353.264 180.214 353.264 177.7C353.264 175.25 354.734 173.503 356.95 173.503C358.676 173.503 359.976 174.525 360.189 176.059ZM365.874 173.609V174.781H364.127V179.447C364.127 180.513 364.66 180.683 365.214 180.683C365.491 180.683 365.661 180.64 365.768 180.619L366.023 181.748C365.853 181.812 365.555 181.898 365.086 181.898C364.021 181.898 362.87 181.216 362.87 179.788V174.781H361.634V173.609H362.87V171.862H364.127V173.609H365.874ZM368.694 172.437C368.14 172.437 367.799 172.054 367.799 171.585C367.799 171.159 368.14 170.733 368.694 170.733C369.248 170.733 369.589 171.159 369.589 171.585C369.589 172.054 369.248 172.437 368.694 172.437ZM369.333 173.609V181.791H368.076V173.609H369.333ZM378.626 173.609L375.6 181.791H374.322L371.296 173.609H372.66L374.918 180.129H375.004L377.262 173.609H378.626ZM383.737 181.961C381.372 181.961 379.923 180.278 379.923 177.764C379.923 175.25 381.393 173.503 383.609 173.503C385.314 173.503 387.125 174.547 387.125 177.594V178.126H381.196C381.324 179.895 382.256 180.832 383.737 180.832C384.739 180.832 385.463 180.406 385.783 179.554L386.997 179.895C386.614 181.131 385.399 181.961 383.737 181.961ZM383.609 174.632C382.352 174.632 381.425 175.506 381.223 177.04H385.847C385.847 175.655 384.973 174.632 383.609 174.632Z" fill="#91CF7B"/>
<g opacity="0.8">
<rect width="443" height="70.9162" transform="translate(0 212.748)" fill="url(#paint3_linear_807_3161)" fill-opacity="0.2"/>
<path fill-rule="evenodd" clip-rule="evenodd" d="M33.569 237.441H43.1379C46.4409 237.441 49.1185 240.119 49.1185 243.422V252.991C49.1185 256.294 46.4409 258.972 43.1379 258.972H33.569C30.266 258.972 27.5884 256.294 27.5884 252.991V243.422C27.5884 240.119 30.266 237.441 33.569 237.441Z" fill="white" fill-opacity="0.15"/>
<path d="M73.3418 253.327C72.5518 253.327 71.7868 253.207 71.0468 252.967C70.3168 252.717 69.7418 252.397 69.3218 252.007L69.8768 250.837C70.2768 251.197 70.7868 251.492 71.4068 251.722C72.0368 251.942 72.6818 252.052 73.3418 252.052C74.2118 252.052 74.8618 251.907 75.2918 251.617C75.7218 251.317 75.9368 250.922 75.9368 250.432C75.9368 250.072 75.8168 249.782 75.5768 249.562C75.3468 249.332 75.0568 249.157 74.7068 249.037C74.3668 248.917 73.8818 248.782 73.2518 248.632C72.4618 248.442 71.8218 248.252 71.3318 248.062C70.8518 247.872 70.4368 247.582 70.0868 247.192C69.7468 246.792 69.5768 246.257 69.5768 245.587C69.5768 245.027 69.7218 244.522 70.0118 244.072C70.3118 243.622 70.7618 243.262 71.3618 242.992C71.9618 242.722 72.7068 242.587 73.5968 242.587C74.2168 242.587 74.8268 242.667 75.4268 242.827C76.0268 242.987 76.5418 243.217 76.9718 243.517L76.4768 244.717C76.0368 244.437 75.5668 244.227 75.0668 244.087C74.5668 243.937 74.0768 243.862 73.5968 243.862C72.7468 243.862 72.1068 244.017 71.6768 244.327C71.2568 244.637 71.0468 245.037 71.0468 245.527C71.0468 245.887 71.1668 246.182 71.4068 246.412C71.6468 246.632 71.9418 246.807 72.2918 246.937C72.6518 247.057 73.1368 247.187 73.7468 247.327C74.5368 247.517 75.1718 247.707 75.6518 247.897C76.1318 248.087 76.5418 248.377 76.8818 248.767C77.2318 249.157 77.4068 249.682 77.4068 250.342C77.4068 250.892 77.2568 251.397 76.9568 251.857C76.6568 252.307 76.2018 252.667 75.5918 252.937C74.9818 253.197 74.2318 253.327 73.3418 253.327ZM85.0882 253.327C84.0282 253.327 83.0732 253.097 82.2232 252.637C81.3732 252.167 80.7032 251.522 80.2132 250.702C79.7332 249.882 79.4932 248.967 79.4932 247.957C79.4932 246.947 79.7332 246.032 80.2132 245.212C80.7032 244.392 81.3732 243.752 82.2232 243.292C83.0732 242.822 84.0282 242.587 85.0882 242.587C86.1382 242.587 87.0882 242.822 87.9382 243.292C88.7882 243.752 89.4532 244.392 89.9332 245.212C90.4132 246.022 90.6532 246.937 90.6532 247.957C90.6532 248.977 90.4132 249.897 89.9332 250.717C89.4532 251.527 88.7882 252.167 87.9382 252.637C87.0882 253.097 86.1382 253.327 85.0882 253.327ZM85.0882 251.992C85.8582 251.992 86.5482 251.817 87.1582 251.467C87.7782 251.117 88.2632 250.637 88.6132 250.027C88.9732 249.407 89.1532 248.717 89.1532 247.957C89.1532 247.197 88.9732 246.512 88.6132 245.902C88.2632 245.282 87.7782 244.797 87.1582 244.447C86.5482 244.097 85.8582 243.922 85.0882 243.922C84.3182 243.922 83.6182 244.097 82.9882 244.447C82.3682 244.797 81.8782 245.282 81.5182 245.902C81.1682 246.512 80.9932 247.197 80.9932 247.957C80.9932 248.717 81.1682 249.407 81.5182 250.027C81.8782 250.637 82.3682 251.117 82.9882 251.467C83.6182 251.817 84.3182 251.992 85.0882 251.992ZM93.0784 248.467H97.1134V249.712H93.0784V248.467ZM106.939 242.707V243.727L102.694 253.207H101.104L105.259 244.012H100.459V245.887H99.0191V242.707H106.939ZM112.907 247.117C113.937 247.217 114.722 247.537 115.262 248.077C115.802 248.607 116.072 249.287 116.072 250.117C116.072 250.717 115.922 251.262 115.622 251.752C115.322 252.232 114.872 252.617 114.272 252.907C113.682 253.187 112.957 253.327 112.097 253.327C111.347 253.327 110.627 253.217 109.937 252.997C109.247 252.767 108.682 252.452 108.242 252.052L108.932 250.867C109.292 251.207 109.752 251.482 110.312 251.692C110.872 251.892 111.467 251.992 112.097 251.992C112.877 251.992 113.482 251.827 113.912 251.497C114.352 251.167 114.572 250.712 114.572 250.132C114.572 249.552 114.357 249.102 113.927 248.782C113.497 248.462 112.847 248.302 111.977 248.302H111.137V247.252L113.777 244.012H108.722V242.707H115.652V243.727L112.907 247.117ZM125.527 251.902V253.207H117.982V252.187L122.257 248.062C122.777 247.562 123.127 247.132 123.307 246.772C123.487 246.402 123.577 246.032 123.577 245.662C123.577 245.112 123.382 244.687 122.992 244.387C122.612 244.077 122.062 243.922 121.342 243.922C120.182 243.922 119.287 244.302 118.657 245.062L117.637 244.177C118.047 243.677 118.582 243.287 119.242 243.007C119.912 242.727 120.657 242.587 121.477 242.587C122.577 242.587 123.452 242.852 124.102 243.382C124.752 243.902 125.077 244.612 125.077 245.512C125.077 246.072 124.957 246.602 124.717 247.102C124.477 247.602 124.022 248.172 123.352 248.812L120.142 251.902H125.527ZM131.531 247.117C132.561 247.217 133.346 247.537 133.886 248.077C134.426 248.607 134.696 249.287 134.696 250.117C134.696 250.717 134.546 251.262 134.246 251.752C133.946 252.232 133.496 252.617 132.896 252.907C132.306 253.187 131.581 253.327 130.721 253.327C129.971 253.327 129.251 253.217 128.561 252.997C127.871 252.767 127.306 252.452 126.866 252.052L127.556 250.867C127.916 251.207 128.376 251.482 128.936 251.692C129.496 251.892 130.091 251.992 130.721 251.992C131.501 251.992 132.106 251.827 132.536 251.497C132.976 251.167 133.196 250.712 133.196 250.132C133.196 249.552 132.981 249.102 132.551 248.782C132.121 248.462 131.471 248.302 130.601 248.302H129.761V247.252L132.401 244.012H127.346V242.707H134.276V243.727L131.531 247.117Z" fill="#9D98BB" fill-opacity="0.63"/>
<rect x="151.707" y="238.707" width="144.293" height="19" rx="7.6333" fill="#CCDDFF" fill-opacity="0.1"/>
<rect x="312" y="233.707" width="107" height="29" rx="12" fill="#FF7EB4" fill-opacity="0.36"/>
<path d="M340.188 252.707H336.821V241.798H340.337C341.395 241.798 342.3 242.016 343.053 242.453C343.806 242.886 344.383 243.51 344.784 244.323C345.186 245.132 345.386 246.102 345.386 247.231C345.386 248.368 345.184 249.346 344.779 250.166C344.374 250.983 343.785 251.612 343.011 252.052C342.237 252.489 341.295 252.707 340.188 252.707ZM338.142 251.535H340.102C341.004 251.535 341.752 251.361 342.345 251.013C342.938 250.665 343.38 250.17 343.671 249.527C343.962 248.884 344.108 248.119 344.108 247.231C344.108 246.35 343.964 245.592 343.676 244.957C343.389 244.317 342.959 243.827 342.387 243.487C341.816 243.142 341.104 242.97 340.251 242.97H338.142V251.535ZM351.162 252.877C350.374 252.877 349.694 252.703 349.122 252.355C348.554 252.004 348.115 251.514 347.806 250.885C347.501 250.253 347.348 249.518 347.348 248.68C347.348 247.842 347.501 247.103 347.806 246.464C348.115 245.821 348.545 245.321 349.095 244.962C349.649 244.6 350.296 244.419 351.034 244.419C351.461 244.419 351.881 244.49 352.297 244.632C352.712 244.774 353.09 245.005 353.431 245.324C353.772 245.64 354.044 246.059 354.246 246.581C354.449 247.103 354.55 247.746 354.55 248.51V249.042H348.243V247.956H353.272C353.272 247.494 353.179 247.082 352.995 246.72C352.813 246.358 352.554 246.072 352.217 245.862C351.883 245.653 351.489 245.548 351.034 245.548C350.534 245.548 350.1 245.672 349.735 245.921C349.372 246.166 349.094 246.485 348.898 246.88C348.703 247.274 348.605 247.696 348.605 248.147V248.872C348.605 249.49 348.712 250.013 348.925 250.443C349.142 250.869 349.442 251.194 349.825 251.418C350.209 251.638 350.654 251.748 351.162 251.748C351.492 251.748 351.791 251.702 352.057 251.61C352.327 251.514 352.56 251.372 352.755 251.184C352.95 250.992 353.101 250.754 353.208 250.47L354.422 250.811C354.294 251.223 354.079 251.585 353.778 251.897C353.476 252.206 353.103 252.448 352.659 252.622C352.215 252.792 351.716 252.877 351.162 252.877ZM358.019 241.798V252.707H356.762V241.798H358.019ZM363.03 252.899C362.511 252.899 362.041 252.801 361.618 252.606C361.195 252.407 360.86 252.121 360.611 251.748C360.363 251.372 360.238 250.917 360.238 250.385C360.238 249.916 360.331 249.536 360.515 249.245C360.7 248.95 360.947 248.719 361.256 248.552C361.565 248.385 361.906 248.261 362.278 248.179C362.655 248.094 363.033 248.027 363.413 247.977C363.91 247.913 364.313 247.865 364.622 247.833C364.935 247.798 365.162 247.739 365.304 247.657C365.45 247.576 365.522 247.434 365.522 247.231V247.189C365.522 246.663 365.379 246.255 365.091 245.963C364.807 245.672 364.375 245.527 363.797 245.527C363.196 245.527 362.726 245.658 362.385 245.921C362.044 246.184 361.804 246.464 361.666 246.762L360.473 246.336C360.686 245.839 360.97 245.452 361.325 245.175C361.684 244.895 362.074 244.699 362.497 244.589C362.923 244.475 363.342 244.419 363.754 244.419C364.017 244.419 364.319 244.451 364.659 244.515C365.004 244.575 365.336 244.701 365.656 244.893C365.979 245.085 366.247 245.374 366.46 245.761C366.673 246.148 366.78 246.667 366.78 247.316V252.707H365.522V251.599H365.459C365.373 251.777 365.231 251.967 365.032 252.169C364.834 252.371 364.569 252.544 364.239 252.686C363.908 252.828 363.505 252.899 363.03 252.899ZM363.221 251.77C363.718 251.77 364.137 251.672 364.478 251.477C364.823 251.281 365.082 251.029 365.256 250.72C365.434 250.411 365.522 250.086 365.522 249.745V248.595C365.469 248.659 365.352 248.717 365.171 248.771C364.993 248.82 364.787 248.865 364.553 248.904C364.322 248.939 364.097 248.971 363.876 249C363.66 249.025 363.484 249.046 363.349 249.064C363.022 249.106 362.717 249.175 362.433 249.271C362.152 249.364 361.925 249.504 361.751 249.692C361.581 249.877 361.495 250.129 361.495 250.449C361.495 250.885 361.657 251.216 361.98 251.439C362.307 251.659 362.721 251.77 363.221 251.77ZM369.891 255.775C369.678 255.775 369.488 255.757 369.321 255.722C369.154 255.69 369.038 255.658 368.975 255.626L369.294 254.518C369.6 254.596 369.869 254.625 370.104 254.603C370.338 254.582 370.546 254.477 370.727 254.289C370.912 254.104 371.08 253.804 371.233 253.389L371.467 252.75L368.442 244.525H369.805L372.064 251.045H372.149L374.408 244.525H375.771L372.298 253.9C372.142 254.323 371.949 254.673 371.718 254.95C371.487 255.23 371.219 255.438 370.913 255.573C370.612 255.708 370.271 255.775 369.891 255.775ZM380.868 252.877C380.08 252.877 379.4 252.703 378.828 252.355C378.26 252.004 377.821 251.514 377.512 250.885C377.207 250.253 377.054 249.518 377.054 248.68C377.054 247.842 377.207 247.103 377.512 246.464C377.821 245.821 378.251 245.321 378.801 244.962C379.355 244.6 380.002 244.419 380.74 244.419C381.166 244.419 381.587 244.49 382.003 244.632C382.418 244.774 382.796 245.005 383.137 245.324C383.478 245.64 383.75 246.059 383.952 246.581C384.155 247.103 384.256 247.746 384.256 248.51V249.042H377.949V247.956H382.977C382.977 247.494 382.885 247.082 382.7 246.72C382.519 246.358 382.26 246.072 381.923 245.862C381.589 245.653 381.195 245.548 380.74 245.548C380.24 245.548 379.806 245.672 379.441 245.921C379.078 246.166 378.8 246.485 378.604 246.88C378.409 247.274 378.311 247.696 378.311 248.147V248.872C378.311 249.49 378.418 250.013 378.631 250.443C378.847 250.869 379.148 251.194 379.531 251.418C379.915 251.638 380.36 251.748 380.868 251.748C381.198 251.748 381.497 251.702 381.763 251.61C382.033 251.514 382.265 251.372 382.461 251.184C382.656 250.992 382.807 250.754 382.914 250.47L384.128 250.811C384 251.223 383.785 251.585 383.483 251.897C383.182 252.206 382.809 252.448 382.365 252.622C381.921 252.792 381.422 252.877 380.868 252.877ZM389.558 252.877C388.876 252.877 388.274 252.705 387.752 252.361C387.23 252.013 386.821 251.523 386.527 250.891C386.232 250.255 386.085 249.504 386.085 248.637C386.085 247.778 386.232 247.032 386.527 246.4C386.821 245.768 387.232 245.28 387.757 244.935C388.283 244.591 388.89 244.419 389.579 244.419C390.112 244.419 390.532 244.507 390.841 244.685C391.154 244.859 391.392 245.058 391.555 245.282C391.722 245.502 391.852 245.683 391.944 245.825H392.051V241.798H393.308V252.707H392.093V251.45H391.944C391.852 251.599 391.72 251.787 391.55 252.015C391.379 252.238 391.136 252.439 390.82 252.616C390.504 252.79 390.083 252.877 389.558 252.877ZM389.728 251.748C390.232 251.748 390.658 251.617 391.006 251.354C391.355 251.088 391.619 250.72 391.8 250.251C391.981 249.779 392.072 249.234 392.072 248.616C392.072 248.005 391.983 247.471 391.806 247.013C391.628 246.551 391.365 246.192 391.017 245.937C390.669 245.678 390.239 245.548 389.728 245.548C389.195 245.548 388.752 245.685 388.396 245.958C388.045 246.228 387.78 246.596 387.603 247.061C387.429 247.522 387.342 248.041 387.342 248.616C387.342 249.199 387.431 249.728 387.608 250.203C387.789 250.676 388.056 251.052 388.407 251.333C388.762 251.61 389.203 251.748 389.728 251.748Z" fill="#FFADCB"/>
</g>
<g opacity="0.6">
<path d="M0 283.664H443V339.58C443 347.865 436.284 354.58 428 354.58H15C6.71572 354.58 0 347.865 0 339.58V283.664Z" fill="white" fill-opacity="0.02"/>
<path fill-rule="evenodd" clip-rule="evenodd" d="M33.569 308.357H43.1379C46.4409 308.357 49.1185 311.035 49.1185 314.338V323.907C49.1185 327.21 46.4409 329.888 43.1379 329.888H33.569C30.266 329.888 27.5884 327.21 27.5884 323.907V314.338C27.5884 311.035 30.266 308.357 33.569 308.357Z" fill="white" fill-opacity="0.15"/>
<path d="M73.3418 324.243C72.5518 324.243 71.7868 324.123 71.0468 323.883C70.3168 323.633 69.7418 323.313 69.3218 322.923L69.8768 321.753C70.2768 322.113 70.7868 322.408 71.4068 322.638C72.0368 322.858 72.6818 322.968 73.3418 322.968C74.2118 322.968 74.8618 322.823 75.2918 322.533C75.7218 322.233 75.9368 321.838 75.9368 321.348C75.9368 320.988 75.8168 320.698 75.5768 320.478C75.3468 320.248 75.0568 320.073 74.7068 319.953C74.3668 319.833 73.8818 319.698 73.2518 319.548C72.4618 319.358 71.8218 319.168 71.3318 318.978C70.8518 318.788 70.4368 318.498 70.0868 318.108C69.7468 317.708 69.5768 317.173 69.5768 316.503C69.5768 315.943 69.7218 315.438 70.0118 314.988C70.3118 314.538 70.7618 314.178 71.3618 313.908C71.9618 313.638 72.7068 313.503 73.5968 313.503C74.2168 313.503 74.8268 313.583 75.4268 313.743C76.0268 313.903 76.5418 314.133 76.9718 314.433L76.4768 315.633C76.0368 315.353 75.5668 315.143 75.0668 315.003C74.5668 314.853 74.0768 314.778 73.5968 314.778C72.7468 314.778 72.1068 314.933 71.6768 315.243C71.2568 315.553 71.0468 315.953 71.0468 316.443C71.0468 316.803 71.1668 317.098 71.4068 317.328C71.6468 317.548 71.9418 317.723 72.2918 317.853C72.6518 317.973 73.1368 318.103 73.7468 318.243C74.5368 318.433 75.1718 318.623 75.6518 318.813C76.1318 319.003 76.5418 319.293 76.8818 319.683C77.2318 320.073 77.4068 320.598 77.4068 321.258C77.4068 321.808 77.2568 322.313 76.9568 322.773C76.6568 323.223 76.2018 323.583 75.5918 323.853C74.9818 324.113 74.2318 324.243 73.3418 324.243ZM85.0882 324.243C84.0282 324.243 83.0732 324.013 82.2232 323.553C81.3732 323.083 80.7032 322.438 80.2132 321.618C79.7332 320.798 79.4932 319.883 79.4932 318.873C79.4932 317.863 79.7332 316.948 80.2132 316.128C80.7032 315.308 81.3732 314.668 82.2232 314.208C83.0732 313.738 84.0282 313.503 85.0882 313.503C86.1382 313.503 87.0882 313.738 87.9382 314.208C88.7882 314.668 89.4532 315.308 89.9332 316.128C90.4132 316.938 90.6532 317.853 90.6532 318.873C90.6532 319.893 90.4132 320.813 89.9332 321.633C89.4532 322.443 88.7882 323.083 87.9382 323.553C87.0882 324.013 86.1382 324.243 85.0882 324.243ZM85.0882 322.908C85.8582 322.908 86.5482 322.733 87.1582 322.383C87.7782 322.033 88.2632 321.553 88.6132 320.943C88.9732 320.323 89.1532 319.633 89.1532 318.873C89.1532 318.113 88.9732 317.428 88.6132 316.818C88.2632 316.198 87.7782 315.713 87.1582 315.363C86.5482 315.013 85.8582 314.838 85.0882 314.838C84.3182 314.838 83.6182 315.013 82.9882 315.363C82.3682 315.713 81.8782 316.198 81.5182 316.818C81.1682 317.428 80.9932 318.113 80.9932 318.873C80.9932 319.633 81.1682 320.323 81.5182 320.943C81.8782 321.553 82.3682 322.033 82.9882 322.383C83.6182 322.733 84.3182 322.908 85.0882 322.908ZM93.0784 319.383H97.1134V320.628H93.0784V319.383ZM108.673 321.543H106.678V324.123H105.223V321.543H99.3881V320.493L104.758 313.623H106.378L101.233 320.253H105.268V317.973H106.678V320.253H108.673V321.543ZM114.167 318.033C115.197 318.133 115.982 318.453 116.522 318.993C117.062 319.523 117.332 320.203 117.332 321.033C117.332 321.633 117.182 322.178 116.882 322.668C116.582 323.148 116.132 323.533 115.532 323.823C114.942 324.103 114.217 324.243 113.357 324.243C112.607 324.243 111.887 324.133 111.197 323.913C110.507 323.683 109.942 323.368 109.502 322.968L110.192 321.783C110.552 322.123 111.012 322.398 111.572 322.608C112.132 322.808 112.727 322.908 113.357 322.908C114.137 322.908 114.742 322.743 115.172 322.413C115.612 322.083 115.832 321.628 115.832 321.048C115.832 320.468 115.617 320.018 115.187 319.698C114.757 319.378 114.107 319.218 113.237 319.218H112.397V318.168L115.037 314.928H109.982V313.623H116.912V314.643L114.167 318.033ZM126.787 322.818V324.123H119.242V323.103L123.517 318.978C124.037 318.478 124.387 318.048 124.567 317.688C124.747 317.318 124.837 316.948 124.837 316.578C124.837 316.028 124.642 315.603 124.252 315.303C123.872 314.993 123.322 314.838 122.602 314.838C121.442 314.838 120.547 315.218 119.917 315.978L118.897 315.093C119.307 314.593 119.842 314.203 120.502 313.923C121.172 313.643 121.917 313.503 122.737 313.503C123.837 313.503 124.712 313.768 125.362 314.298C126.012 314.818 126.337 315.528 126.337 316.428C126.337 316.988 126.217 317.518 125.977 318.018C125.737 318.518 125.282 319.088 124.612 319.728L121.402 322.818H126.787ZM132.791 318.033C133.821 318.133 134.606 318.453 135.146 318.993C135.686 319.523 135.956 320.203 135.956 321.033C135.956 321.633 135.806 322.178 135.506 322.668C135.206 323.148 134.756 323.533 134.156 323.823C133.566 324.103 132.841 324.243 131.981 324.243C131.231 324.243 130.511 324.133 129.821 323.913C129.131 323.683 128.566 323.368 128.126 322.968L128.816 321.783C129.176 322.123 129.636 322.398 130.196 322.608C130.756 322.808 131.351 322.908 131.981 322.908C132.761 322.908 133.366 322.743 133.796 322.413C134.236 322.083 134.456 321.628 134.456 321.048C134.456 320.468 134.241 320.018 133.811 319.698C133.381 319.378 132.731 319.218 131.861 319.218H131.021V318.168L133.661 314.928H128.606V313.623H135.536V314.643L132.791 318.033Z" fill="#9D98BB" fill-opacity="0.63"/>
<rect x="152.707" y="309.623" width="143.293" height="19" rx="7.6333" fill="#CCDDFF" fill-opacity="0.1"/>
<rect x="312" y="304.623" width="107" height="29" rx="12" fill="#CF997B" fill-opacity="0.07"/>
<path opacity="0.75" d="M342.744 315.526C342.553 314.355 341.615 313.737 340.294 313.737C338.845 313.737 337.886 314.504 337.886 315.569C337.886 316.443 338.547 316.975 339.996 317.359L341.104 317.657C343.17 318.211 344.172 319.127 344.172 320.64C344.172 322.43 342.744 323.815 340.23 323.815C337.886 323.815 336.438 322.6 336.31 320.811H337.673C337.78 322.046 338.93 322.622 340.23 322.622C341.743 322.622 342.893 321.833 342.893 320.64C342.893 319.66 342.19 319.255 340.72 318.829L339.378 318.445C337.673 317.955 336.608 317.082 336.608 315.612C336.608 313.779 338.249 312.565 340.337 312.565C342.446 312.565 343.916 313.801 344.023 315.526H342.744ZM347.729 318.68V323.623H346.472V312.714H347.729V316.592H347.814C348.219 315.974 349.008 315.335 350.243 315.335C351.777 315.335 352.885 316.4 352.885 318.424V323.623H351.628V318.424C351.628 317.231 350.925 316.549 349.839 316.549C348.837 316.549 347.729 317.146 347.729 318.68ZM356.106 314.269C355.552 314.269 355.211 313.886 355.211 313.417C355.211 312.991 355.552 312.565 356.106 312.565C356.66 312.565 357.001 312.991 357.001 313.417C357.001 313.886 356.66 314.269 356.106 314.269ZM356.745 315.441V323.623H355.488V315.441H356.745ZM359.347 326.691V315.441H360.562V316.741H360.711C360.988 316.315 361.478 315.335 363.076 315.335C365.143 315.335 366.57 316.975 366.57 319.553C366.57 322.153 365.143 323.794 363.097 323.794C361.521 323.794 360.988 322.813 360.711 322.366H360.605V326.691H359.347ZM365.313 319.532C365.313 317.806 364.525 316.464 362.927 316.464C361.393 316.464 360.583 317.7 360.583 319.532C360.583 321.386 361.414 322.664 362.927 322.664C364.504 322.664 365.313 321.279 365.313 319.532ZM368.788 326.691V315.441H370.003V316.741H370.152C370.429 316.315 370.919 315.335 372.517 315.335C374.584 315.335 376.011 316.975 376.011 319.553C376.011 322.153 374.584 323.794 372.538 323.794C370.961 323.794 370.429 322.813 370.152 322.366H370.045V326.691H368.788ZM374.754 319.532C374.754 317.806 373.966 316.464 372.368 316.464C370.834 316.464 370.024 317.7 370.024 319.532C370.024 321.386 370.855 322.664 372.368 322.664C373.944 322.664 374.754 321.279 374.754 319.532ZM381.659 323.794C379.294 323.794 377.845 322.11 377.845 319.596C377.845 317.082 379.315 315.335 381.531 315.335C383.236 315.335 385.047 316.379 385.047 319.426V319.958H379.118C379.246 321.727 380.178 322.664 381.659 322.664C382.661 322.664 383.385 322.238 383.705 321.386L384.919 321.727C384.536 322.963 383.321 323.794 381.659 323.794ZM381.531 316.464C380.274 316.464 379.347 317.338 379.145 318.872H383.768C383.768 317.487 382.895 316.464 381.531 316.464ZM394.128 323.623H392.913V322.366H392.786C392.509 322.813 391.955 323.794 390.378 323.794C388.332 323.794 386.905 322.153 386.905 319.553C386.905 316.975 388.332 315.335 390.399 315.335C391.997 315.335 392.509 316.315 392.786 316.741H392.871V312.714H394.128V323.623ZM388.162 319.532C388.162 321.279 388.972 322.664 390.548 322.664C392.061 322.664 392.892 321.386 392.892 319.532C392.892 317.7 392.082 316.464 390.548 316.464C388.95 316.464 388.162 317.806 388.162 319.532Z" fill="#CF997B"/>
</g>
<defs>
<linearGradient id="paint0_linear_807_3161" x1="24.5505" y1="-2.49251e-05" x2="171.769" y2="205.3" gradientUnits="userSpaceOnUse">
<stop stop-color="#C78FF2"/>
<stop offset="1" stop-color="#646FCC" stop-opacity="0"/>
</linearGradient>
<linearGradient id="paint1_linear_807_3161" x1="38.3535" y1="24.6934" x2="38.3535" y2="46.2235" gradientUnits="userSpaceOnUse">
<stop stop-color="#5A57CF"/>
<stop offset="1" stop-color="#4F4CD3"/>
</linearGradient>
<linearGradient id="paint2_linear_807_3161" x1="38.3535" y1="166.525" x2="38.3535" y2="188.056" gradientUnits="userSpaceOnUse">
<stop stop-color="#5A57CF"/>
<stop offset="1" stop-color="#4F4CD3"/>
</linearGradient>
<linearGradient id="paint3_linear_807_3161" x1="443" y1="35.2514" x2="137.5" y2="35.2514" gradientUnits="userSpaceOnUse">
<stop stop-color="#CD7293"/>
<stop offset="1" stop-color="#CD7293" stop-opacity="0"/>
</linearGradient>
</defs>
</svg>
