<svg width="298" height="367" viewBox="0 0 298 367" fill="none" xmlns="http://www.w3.org/2000/svg">
<g clip-path="url(#clip0_807_3060)">
<path d="M0 0.480469H280.775C290.288 0.480469 298 8.19256 298 17.7059V349.295C298 358.809 290.288 366.521 280.775 366.521H0V0.480469Z" fill="#16183A" fill-opacity="0.4"/>
<path d="M0 0.480469H280.775C290.288 0.480469 298 8.19256 298 17.7059V349.295C298 358.809 290.288 366.521 280.775 366.521H0V0.480469Z" fill="url(#paint0_linear_807_3060)" fill-opacity="0.05"/>
<path d="M48.5513 8.49552L50.4546 10.7795L46.7748 11.7946L43.7295 13.1903L36.2433 14.2054L29.5182 15.855L26.4729 19.4078L28.8838 22.8337L30.6602 26.8941L28.1225 30.3201L29.1375 33.4923L27.9956 36.4107L21.3974 36.1569L25.3309 41.4862L21.3974 43.6432L19.621 48.465L21.0169 53.4136L18.7328 55.6975L16.0682 54.9362L10.9927 56.0782L10.7389 58.2352H5.53653L2.61822 62.9301L3.63322 69.782L-4.74129 73.208L-9.68993 72.4466L-10.8319 74.223L-15.146 73.208L-21.8711 74.4768L-34.0522 70.2895L-29.1036 62.9301L-30.4994 57.7277L-35.9555 56.3319L-37.4782 51.1296L-40.9041 44.6583L-38.874 40.2173L-42.0461 38.9484L-41.4117 32.9847L-40.6504 22.8337L-33.164 26.0059L-28.2154 24.8639L-27.7078 21.1842L-22.6323 20.0423L-19.3333 17.5045L-19.587 11.0333L-14.2578 9.3837L-13.8771 6.59221L-10.1975 8.74927L-8.16719 9.00306H-4.36057L1.09548 10.7795L3.37951 11.6677L7.69371 9.12995L10.3583 10.6526L11.5003 6.97286L15.5606 7.09975L16.3219 5.95777L16.0682 2.6587L18.2252 -0.132812L22.4126 1.64362L22.2857 4.18136L24.4427 4.56201L25.5848 11.4139L29.0107 14.0785L30.914 12.3021L33.7056 11.5408L36.8777 7.86108L41.6994 8.49552H48.5513Z" fill="#4A5E97" fill-opacity="0.6" stroke="#0D0A1C" stroke-width="0.253774" stroke-linecap="round" stroke-linejoin="round"/>
<path d="M197.771 133.733L198.532 139.57L195.867 138.301L197.263 144.899L194.599 140.712L193.584 136.525L191.68 132.591L188.127 127.896L181.529 127.516L182.671 130.942L181.149 135.383L177.85 133.733L177.088 135.256L174.931 134.368L172.14 133.606L170.109 126.881L166.81 120.791L167.191 115.842L162.496 113.685L163.638 110.767L167.445 107.721L161.608 103.407L163.131 97.8242L169.348 101.377L172.774 101.758L174.297 107.468L181.149 108.61L187.62 108.483L191.934 109.878L189.904 116.73L186.858 117.238L185.336 121.806L189.904 126.12L190.284 120.791H192.188L197.771 133.733Z" fill="#4A5E97" fill-opacity="0.6" stroke="#0D0A1C" stroke-width="0.253774" stroke-linecap="round" stroke-linejoin="round"/>
<path d="M182.798 87.0388L186.097 89.7035L186.732 94.6521L181.022 94.9058L175.058 94.3983L170.998 95.6671L164.019 92.495L163.511 90.9723L166.81 84.8817L170.109 82.8516L175.566 84.628L179.245 84.8817L182.798 87.0388Z" fill="#4A5E97" fill-opacity="0.6" stroke="#0D0A1C" stroke-width="0.253774" stroke-linecap="round" stroke-linejoin="round"/>
<path d="M356.378 -88.0652L367.798 -82.3553L375.411 -74.9958H385.055L388.354 -78.0411L397.109 -80.452L398.759 -73.2194L398.378 -70.301L401.931 -61.6727L402.692 -53.8057L393.937 -55.2014L390.257 -52.4099L396.221 -45.558L401.17 -36.0415L397.997 -35.9146L400.408 -31.7273L393.43 -36.549V-31.9811L385.309 -28.5551L388.862 -24.2409L383.025 -24.6216L378.457 -27.1593L377.061 -21.3225L372.112 -17.0084L369.448 -11.806L361.454 -9.52204L358.409 -5.71543L352.318 -3.43146L353.968 -7.23807L351.049 -10.4102L353.587 -15.8664L347.877 -20.0537L343.563 -17.2621L338.995 -11.5522L337.345 -6.34987L331.001 -5.9692L329.352 -2.16258L335.442 3.29356L341.533 4.68933L343.309 8.24216L349.78 10.653L354.602 4.81623L362.088 7.9884L366.529 8.24216L369.448 12.4295L360.946 14.7134L359.677 19.1545L354.856 23.2149L353.714 28.9248L362.723 33.3658L368.56 41.3597L375.538 48.8461L382.517 55.0635L384.547 61.1541L380.995 63.4381L384.04 67.7522L388.989 70.29L390.004 76.8881L390.13 83.3594L386.578 84.1207L383.913 92.8759L380.995 103.661L376.68 113.305L368.56 120.791L360.185 127.77L352.445 128.658L348.765 132.211L345.847 129.673L342.675 133.607L333.539 137.794L326.179 138.936L325.291 147.564L321.358 148.072L318.566 142.108L319.708 139.063L309.811 136.398L306.766 137.794L299.279 135.637L295.346 132.338L295.726 127.643L289.001 126.12L285.068 123.075L279.866 127.389L273.14 128.404L267.557 128.277L264.132 130.308L260.705 131.45L263.243 140.839L259.437 140.585L258.422 138.682L257.787 135.256L252.965 137.667L249.666 136.144L243.956 133.099L244.972 126.374L240.277 124.725L237.231 117.238L230.126 118.634L229.238 108.991L234.567 102.139L233.425 95.4137L231.775 89.1962L228.349 87.2929L224.923 82.4711L220.99 83.1056L213.25 81.8367L214.772 78.4108L210.204 73.3353L206.144 76.7612L199.927 74.8579L193.075 79.9334L188.126 86.024L182.797 87.0391L179.244 84.882L175.564 84.6282L170.108 82.8518L166.809 84.882L163.51 90.9726L161.607 84.5013L157.673 86.2778L149.426 85.3896L141.178 83.6131L134.834 79.9334L129.124 78.4108L125.951 74.4773L121.764 73.3353L113.643 68.006L107.553 65.4683L105.142 67.3716L94.2296 61.6617L86.3627 56.5862L82.3022 47.5772L87.5045 48.7191L86.7433 44.5319L82.9366 40.3446L81.9216 33.7465L72.1512 24.1031L60.097 20.9309L56.4172 14.5865L50.4536 10.7799L48.5503 8.49594L46.2662 3.928L45.6318 0.755821L40.937 -1.14748L39.0337 -0.259277L35.1002 -7.87251L36.496 -9.64892L34.9734 -11.5522L40.1757 -15.3588L44.2361 -17.0084L51.5956 -15.8664L52.3569 -21.0688L60.4777 -21.957L61.7465 -25.256L70.5018 -29.5702L70.7555 -31.3466L68.5985 -36.0415L72.2781 -38.0717L61.1121 -52.0292L72.6588 -55.2014L75.1966 -56.9778L73.9277 -71.3161L87.6316 -68.6514L89.6617 -72.3312L86.4895 -80.1982L91.3112 -80.9595L93.722 -86.2888L95.8792 -86.9232L100.066 -81.3402L107.299 -77.1529L117.704 -74.2345L125.063 -67.7632L126.84 -58.5005L130.646 -54.9476L138.894 -53.5519L148.03 -52.5368L158.181 -47.4613L162.495 -46.5731L168.839 -39.2136L174.803 -34.3919L181.909 -34.6457L196.247 -32.7424L204.368 -33.8844L211.473 -32.7424L223.401 -27.7938H231.268L235.455 -25.3829L241.038 -29.6971L250.174 -32.4886L259.817 -32.7424L266.035 -35.5339L268.573 -39.8481L271.618 -42.6396L269.207 -45.3042L265.527 -48.3495L266.162 -53.5519L270.222 -52.7906L277.708 -51.141L281.769 -55.4552L289.89 -58.5005L291.539 -63.8297L294.711 -66.1137L303.34 -67.1288L308.923 -66.2406L307.908 -69.0321L298.772 -74.6151L292.174 -77.1529L289.001 -74.2345L282.023 -75.5034L279.104 -74.4883L275.551 -77.6604L275.171 -85.6543L274.409 -91.618L283.799 -88.5727L289.382 -93.5213L286.971 -97.0742L286.717 -105.322L288.367 -107.86L285.195 -112.174L280.5 -113.95L282.657 -117.884L289.128 -119.279L296.995 -119.533L307.908 -117.122L315.521 -114.331L325.291 -106.464L330.113 -103.038L335.823 -98.2162L343.69 -90.6029L356.378 -88.0652Z" fill="#4A5E97" fill-opacity="0.6" stroke="#0D0A1C" stroke-width="0.253774" stroke-linecap="round" stroke-linejoin="round"/>
<path d="M305.116 360.987L297.249 361.114L291.54 354.389L282.531 347.664L279.612 342.715L274.41 336.117L270.984 330.027L265.655 318.607L259.437 311.755L257.28 304.776L254.489 298.432L247.89 293.356L243.957 286.377L238.374 281.81L230.507 272.801L229.746 268.613L234.314 268.994L245.606 270.517L252.205 278.51L258.041 284.093L262.102 287.393L269.081 296.148L276.44 296.275L282.531 301.858L286.845 308.71L292.301 312.516L289.383 319.114L293.57 321.906L296.107 322.16L297.249 327.87L299.66 332.311L304.863 333.072L308.162 338.274L306.005 348.425L305.116 360.987Z" fill="#4A5E97" fill-opacity="0.6" stroke="#0D0A1C" stroke-width="0.253774" stroke-linecap="round" stroke-linejoin="round"/>
<path d="M105.142 67.3701L101.59 71.1767L100.447 78.7899L107.807 81.8352L115.166 85.7687L125.064 90.3367L134.834 91.4786L139.656 95.539L145.112 96.3003L153.867 98.2036L159.704 98.0768L159.831 94.9046L157.927 89.7022L157.674 86.2763L161.607 84.4998L163.51 90.9711L164.018 92.4937L170.997 95.6659L175.057 94.397L181.021 94.9046L186.731 94.6508L186.096 89.7022L182.797 87.0376L188.126 86.0225L193.075 79.9319L199.927 74.8564L206.144 76.7597L210.205 73.3338L214.773 78.4093L213.25 81.8352L220.99 83.1041L222.259 86.1494L220.102 87.672L221.878 92.6206L216.549 91.2248L208.682 96.8079L209.824 101.503L207.286 108.355L207.667 112.288L205.637 119.013L199.8 117.11L200.942 125.611L199.673 128.403L200.942 131.829L197.77 133.732L192.187 120.79H190.283L189.903 126.119L185.335 121.805L186.858 117.237L189.903 116.729L191.933 109.877L187.619 108.482L181.148 108.608L174.296 107.466L172.773 101.757L169.347 101.376L163.13 97.823L161.607 103.406L167.444 107.72L163.637 110.765L162.495 113.684L167.19 115.841L166.809 120.79L170.109 126.88L172.139 133.605L171.504 136.65L166.683 136.524L158.308 138.173L159.45 144.264L156.405 149.085L146.888 154.668L140.163 164.185L135.341 169.387L128.997 174.717L129.378 178.396L126.079 180.427L119.988 183.345L116.689 183.726L115.166 189.943L117.577 200.602L118.465 207.327L116.055 215.067L116.943 228.897L113.263 229.278L110.345 235.496L112.755 238.287L106.284 240.571L104.127 246.027L101.336 248.438L94.23 240.825L90.2965 229.405L87.1243 221.157L84.3327 217.351L80.0187 209.484L77.4809 199.333L75.7045 194.257L68.2181 183.091L63.7771 167.23L60.478 156.826L59.4629 146.928L57.3059 139.315L47.5354 144.264L42.46 143.249L32.1821 133.351L35.2275 130.433L32.8166 127.261L23.8076 120.282L27.8679 114.826H43.2214L40.9374 107.847L36.4963 103.787L34.7199 97.4423L29.6444 93.8895L35.8619 85.2612L44.1096 85.8956L49.8195 77.3942L52.6109 69.1465L57.5596 60.8988L56.2907 55.062L61.1125 50.3672L54.6413 46.4337L50.9615 40.8507L46.7742 33.745L49.3119 30.1922L60.0973 32.2223L67.33 30.9535L72.1516 24.1016L81.922 33.745L82.937 40.3431L86.7436 44.5304L87.5049 48.7177L82.3026 47.5757L86.363 56.5847L94.23 61.6602L105.142 67.3701Z" fill="#4A5E97" fill-opacity="0.6" stroke="#0D0A1C" stroke-width="0.253774" stroke-linecap="round" stroke-linejoin="round"/>
<path d="M310.953 197.557L313.237 203.013L313.364 212.784L301.944 219.128L305.497 223.95L298.011 224.584L292.174 227.883L286.083 226.741L282.784 222.427L278.343 214.052L275.679 204.155L279.612 197.43L288.621 195.908L295.346 197.05L301.691 200.222L304.228 194.639L310.953 197.557Z" fill="#4A5E97" fill-opacity="0.6" stroke="#0D0A1C" stroke-width="0.253774" stroke-linecap="round" stroke-linejoin="round"/>
<path d="M310.954 197.557L304.229 194.638L301.691 200.221L295.347 197.049L297.25 193.37L296.742 186.518L290.018 179.412L288.368 171.291L282.024 164.693L276.567 164.185L275.552 166.977L271.492 167.231L269.081 165.835L262.356 170.657L261.087 163.297L261.595 154.796L256.773 154.415L255.631 149.467L252.205 146.929L253.22 144.01L258.423 138.681L259.438 140.585L263.244 140.838L260.706 131.449L264.133 130.307L269.208 136.778L273.649 144.137H282.277L286.084 151.243L281.897 153.4L280.374 156.319L289.637 161.267L296.869 170.911L302.452 178.016L308.67 183.726L311.208 189.436L310.954 197.557Z" fill="#4A5E97" fill-opacity="0.6" stroke="#0D0A1C" stroke-width="0.253774" stroke-linecap="round" stroke-linejoin="round"/>
<path d="M128.363 262.778L122.273 264.681L118.593 258.21L116.817 246.536L119.354 233.34L124.557 237.781L128.109 243.491L132.043 251.992L131.282 260.494L128.363 262.778Z" fill="#4A5E97" fill-opacity="0.6" stroke="#0D0A1C" stroke-width="0.253774" stroke-linecap="round" stroke-linejoin="round"/>
<path d="M258.423 138.682L253.22 144.011L252.205 146.929L248.398 148.833L244.846 152.386L239.897 152.766L237.994 161.521L235.202 163.044L239.643 170.15L244.846 176.113L248.525 181.57L246.749 188.548L244.465 190.071L246.749 194.131L252.205 200.603L253.474 205.171L253.728 208.977L257.154 216.464L253.855 224.077L251.063 232.451L249.921 226.361L251.571 220.143L248.779 215.322L248.525 206.439L245.226 202.125L241.8 192.482L239.263 182.204L235.329 175.352L231.269 179.539L223.909 185.249L219.722 184.615L215.154 182.712L216.296 172.561L213.758 164.947L207.033 155.558L207.414 152.639L203.1 151.497L197.263 144.899L195.867 138.301L198.532 139.57L197.77 133.733L200.943 131.83L199.674 128.404L200.943 125.612L199.801 117.111L205.638 119.014L207.668 112.289L207.287 108.356L209.825 101.504L208.683 96.809L216.55 91.2259L221.879 92.6217L220.103 87.6731L222.26 86.1504L220.991 83.1051L224.924 82.4707L228.35 87.2924L231.776 89.1957L233.426 95.4132L234.568 102.138L229.239 108.99L230.127 118.634L237.232 117.238L240.278 124.724L244.973 126.374L243.957 133.099L249.667 136.144L252.966 137.667L257.788 135.256L258.423 138.682Z" fill="#4A5E97" fill-opacity="0.6" stroke="#0D0A1C" stroke-width="0.253774" stroke-linecap="round" stroke-linejoin="round"/>
<path d="M278.597 262.651L280.374 263.412L284.815 268.36L287.987 273.817L288.748 279.273L288.114 282.952L288.875 285.744L289.51 290.566L292.174 292.85L295.093 300.082V302.747L290.017 303.381L283.038 297.291L274.41 290.819L273.395 286.632L269.081 281.176L267.812 274.451L265.02 270.01L265.528 264.046L263.751 260.62L264.893 259.225L270.984 262.777L271.745 266.965L276.44 265.95L278.597 262.651Z" fill="#4A5E97" fill-opacity="0.6" stroke="#0D0A1C" stroke-width="0.253774" stroke-linecap="round" stroke-linejoin="round"/>
<path d="M157.674 86.2763L157.928 89.7022L159.831 94.9046L159.704 98.0768L153.867 98.2037L145.112 96.3004L139.656 95.5391L134.834 91.4787L125.064 90.3367L115.167 85.7687L107.807 81.8352L100.448 78.7899L101.59 71.1767L105.143 67.3701L107.553 65.4668L113.644 68.0045L121.765 73.3338L125.952 74.4758L129.124 78.4093L134.834 79.9319L141.178 83.6116L149.426 85.3881L157.674 86.2763Z" fill="#4A5E97" fill-opacity="0.6" stroke="#0D0A1C" stroke-width="0.253774" stroke-linecap="round" stroke-linejoin="round"/>
<path d="M72.1522 24.1024L67.3306 30.9543L60.0979 32.2232L49.3125 30.1931L46.7748 33.7459L50.9621 40.8516L54.6419 46.4346L61.1131 50.3681L56.2913 55.0629L57.5602 60.8997L52.6116 69.1474L49.8201 77.3951L44.1102 85.8965L35.8625 85.2621L29.645 93.8904L34.7205 97.4432L36.497 103.788L40.938 107.848L43.222 114.827H27.8686L23.8083 120.283L18.4791 118.253L15.6874 112.416L9.46995 106.198L-3.21877 107.721L-14.6386 107.848L-24.282 108.99L-22.8863 99.6003L-13.3697 95.2861L-14.5116 91.6064L-17.9376 90.2107L-19.2065 83.105L-26.439 79.5521L-29.9919 74.6036L-34.0522 70.2894L-21.8711 74.4767L-15.146 73.2078L-10.832 74.2229L-9.68998 72.4465L-4.74135 73.2078L3.63317 69.7818L2.61816 62.9299L5.53648 58.2351H10.7388L10.9927 56.078L16.0682 54.936L18.7328 55.6973L21.0168 53.4134L19.6209 48.4648L21.3974 43.6431L25.3308 41.486L21.3974 36.1567L27.9956 36.4105L29.1375 33.4921L28.1224 30.3199L30.6602 26.894L28.8837 22.8336L26.4729 19.4076L29.5182 15.8548L36.2433 14.2053L43.7295 13.1901L46.7748 11.7944L50.4546 10.7793L56.4182 14.5859L60.0979 20.9303L72.1522 24.1024Z" fill="#4A5E97" fill-opacity="0.6" stroke="#0D0A1C" stroke-width="0.253774" stroke-linecap="round" stroke-linejoin="round"/>
<path d="M295.346 197.05L288.621 195.908L279.612 197.431L275.679 204.156L278.343 214.053L271.618 210.246L265.528 210.5L265.908 204.029H259.691L259.945 213.038L257.153 224.965L255.377 232.198L256.265 238.035L260.96 238.288L264.386 245.775L266.035 252.754L270.349 257.448L274.664 258.337L278.597 262.651L276.44 265.95L271.745 266.965L270.984 262.778L264.893 259.225L263.751 260.621L260.833 257.575L259.31 253.515L255.25 248.947L251.57 245.013L250.682 249.835L249.032 245.267L249.54 240.192L251.063 232.452L253.854 224.077L257.153 216.464L253.727 208.977L253.473 205.171L252.205 200.603L246.748 194.132L244.464 190.071L246.748 188.549L248.525 181.57L244.845 176.114L239.643 170.15L235.202 163.044L237.993 161.522L239.897 152.766L244.845 152.386L248.398 148.833L252.205 146.93L255.63 149.467L256.772 154.416L261.594 154.797L261.087 163.298L262.356 170.658L269.081 165.836L271.491 167.232L275.552 166.978L276.567 164.186L282.023 164.694L288.367 171.292L290.017 179.413L296.742 186.518L297.249 193.37L295.346 197.05Z" fill="#4A5E97" fill-opacity="0.6" stroke="#0D0A1C" stroke-width="0.253774" stroke-linecap="round" stroke-linejoin="round"/>
<path d="M15.5597 -14.3448L13.7833 -11.934L6.17004 -13.2028L6.93133 -8.6349L13.9101 -9.26934L22.9192 -6.60472L35.1004 -7.87359L39.0338 -0.260363L40.9371 -1.14857L45.6319 0.754738L46.2663 3.92692L48.5504 8.49486H41.6984L36.8768 7.86043L33.7046 11.5401L30.913 12.3015L29.0097 14.0779L25.5838 11.4132L24.4418 4.56135L22.2848 4.18071L22.4117 1.64296L18.2243 -0.133469L16.0673 2.65804L16.321 5.95712L15.5597 7.09909L11.4994 6.9722L10.3574 10.6519L7.69278 9.1293L3.37858 11.667L1.09455 10.7788L2.74415 2.53115L-0.301173 -3.55942L-5.63037 -5.46272L-4.86908 -9.01557L0.713986 -8.6349L2.61729 -13.076L3.25173 -18.2783L11.4994 -20.1816L11.2455 -16.375L12.8951 -14.2179L15.5597 -14.3448Z" fill="#4A5E97" fill-opacity="0.6" stroke="#0D0A1C" stroke-width="0.253774" stroke-linecap="round" stroke-linejoin="round"/>
<path d="M10.104 -30.7131L12.2612 -29.9517L8.45454 -24.7494L14.2913 -21.7041L18.3516 -23.7343L27.4876 -19.4201L20.7625 -13.5833L15.5602 -14.3446L12.8956 -14.2177L11.246 -16.3748L11.4999 -20.1814L3.2522 -18.2781L2.61777 -13.0758L0.714455 -8.6347L-4.86861 -9.01537L-5.6299 -5.46252L-0.300697 -3.55922L2.74462 2.53135L1.09502 10.779L-4.36102 9.0026H-8.16764L-9.1828 4.05401L-18.953 0.501171L-26.947 -3.43234L-32.2762 -7.23895L-41.2853 -12.822L-46.7414 -21.1965L-49.406 -22.7192L-56.3847 -22.3385L-59.3032 -23.9881L-61.7141 -30.3324L-71.7382 -34.6466L-76.0522 -29.9517L-80.874 -27.1602L-78.717 -23.0998L-86.2032 -22.9729L-94.0703 -52.6646L-78.8439 -57.3594L-77.4481 -56.7249L-65.7744 -51.015L-59.6839 -47.9697L-51.3093 -40.7372L-44.0768 -41.8791L-33.1645 -42.5136L-23.5211 -36.6768L-21.6178 -28.556L-18.3186 -28.4291L-15.1464 -21.831L-6.64506 -21.5772L-3.72659 -17.7706H-1.18885L-0.0469894 -23.6074L6.80495 -29.1904L10.104 -30.7131Z" fill="#4A5E97" fill-opacity="0.6" stroke="#0D0A1C" stroke-width="0.253774" stroke-linecap="round" stroke-linejoin="round"/>
<path d="M306.766 137.793L298.518 144.645L293.823 152.385L293.062 158.095L299.787 166.597L308.035 177.255L315.267 182.331L320.47 188.802L325.545 203.901L326.053 218.24L320.597 223.569L312.857 228.898L307.527 235.623L299.153 243.236L296.234 238.034L297.757 232.451L292.174 227.883L298.011 224.584L305.497 223.949L301.944 219.128L313.364 212.783L313.237 203.013L310.953 197.557L311.207 189.436L308.669 183.726L302.452 178.016L296.869 170.911L289.636 161.267L280.373 156.319L281.896 153.4L286.083 151.243L282.277 144.137H273.648L269.207 136.778L264.132 130.307L267.558 128.277L273.141 128.403L279.866 127.388L285.068 123.074L289.002 126.12L295.727 127.642L295.346 132.337L299.28 135.636L306.766 137.793Z" fill="#4A5E97" fill-opacity="0.6" stroke="#0D0A1C" stroke-width="0.253774" stroke-linecap="round" stroke-linejoin="round"/>
<path d="M73.8028 279.018V279.272L73.5483 279.145L73.8028 278.891V279.018Z" fill="#4A5E97" fill-opacity="0.6" stroke="#0D0A1C" stroke-width="0.253774" stroke-linecap="round" stroke-linejoin="round"/>
</g>
<defs>
<linearGradient id="paint0_linear_807_3060" x1="16.5148" y1="0.480443" x2="176.24" y2="145.625" gradientUnits="userSpaceOnUse">
<stop stop-color="#8FCFF2"/>
<stop offset="1" stop-color="#646FCC" stop-opacity="0"/>
</linearGradient>
<clipPath id="clip0_807_3060">
<path d="M0 0.480469H280.775C290.288 0.480469 298 8.19256 298 17.7059V349.295C298 358.809 290.288 366.521 280.775 366.521H0V0.480469Z" fill="white"/>
</clipPath>
</defs>
</svg>
