<svg width="117" height="108" viewBox="0 0 117 108" fill="none" xmlns="http://www.w3.org/2000/svg">
<g id="Mark" clip-path="url(#clip0_311_416)">
<g id="Union">
<path fill-rule="evenodd" clip-rule="evenodd" d="M-38.8861 123.008C-20.2453 69.3738 7.09254 38.8814 28.7476 26.4433C50.7635 13.7979 68.843 17.7672 75.0723 26.2443L75.0578 26.2578C83.2126 36.8484 82.8155 54.6809 73.3876 68.4955C65.6152 79.8842 52.0039 87.0998 39.3792 88.0611C33.2401 88.5286 28.1785 87.3945 24.9575 85.1508C21.8171 82.9634 20.671 79.9727 21.1092 76.4595L2.89907 81.3389C1.64021 91.4312 5.41015 98.4035 11.2876 102.498C17.0844 106.535 25.1422 108.001 33.713 107.349C50.5082 106.07 72.6782 96.1645 86.958 75.2406C102.942 51.8201 101.691 26.7903 91.3014 12.441C80.6848 -2.43579 53.0837 -5.48233 26.8444 12.1174C0.243618 29.9594 -23.0656 64.7826 -43.3022 123.009L-38.8861 123.008Z" fill="url(#paint0_linear_311_416)"/>
<path fill-rule="evenodd" clip-rule="evenodd" d="M-38.8861 123.008C-20.2453 69.3738 7.09254 38.8814 28.7476 26.4433C50.7635 13.7979 68.843 17.7672 75.0723 26.2443L75.0578 26.2578C83.2126 36.8484 82.8155 54.6809 73.3876 68.4955C65.6152 79.8842 52.0039 87.0998 39.3792 88.0611C33.2401 88.5286 28.1785 87.3945 24.9575 85.1508C21.8171 82.9634 20.671 79.9727 21.1092 76.4595L2.89907 81.3389C1.64021 91.4312 5.41015 98.4035 11.2876 102.498C17.0844 106.535 25.1422 108.001 33.713 107.349C50.5082 106.07 72.6782 96.1645 86.958 75.2406C102.942 51.8201 101.691 26.7903 91.3014 12.441C80.6848 -2.43579 53.0837 -5.48233 26.8444 12.1174C0.243618 29.9594 -23.0656 64.7826 -43.3022 123.009L-38.8861 123.008Z" fill="url(#paint1_linear_311_416)"/>
<path fill-rule="evenodd" clip-rule="evenodd" d="M-38.8861 123.008C-20.2453 69.3738 7.09254 38.8814 28.7476 26.4433C50.7635 13.7979 68.843 17.7672 75.0723 26.2443L75.0578 26.2578C83.2126 36.8484 82.8155 54.6809 73.3876 68.4955C65.6152 79.8842 52.0039 87.0998 39.3792 88.0611C33.2401 88.5286 28.1785 87.3945 24.9575 85.1508C21.8171 82.9634 20.671 79.9727 21.1092 76.4595L2.89907 81.3389C1.64021 91.4312 5.41015 98.4035 11.2876 102.498C17.0844 106.535 25.1422 108.001 33.713 107.349C50.5082 106.07 72.6782 96.1645 86.958 75.2406C102.942 51.8201 101.691 26.7903 91.3014 12.441C80.6848 -2.43579 53.0837 -5.48233 26.8444 12.1174C0.243618 29.9594 -23.0656 64.7826 -43.3022 123.009L-38.8861 123.008Z" fill="url(#paint2_linear_311_416)"/>
<path fill-rule="evenodd" clip-rule="evenodd" d="M-38.8861 123.008C-20.2453 69.3738 7.09254 38.8814 28.7476 26.4433C50.7635 13.7979 68.843 17.7672 75.0723 26.2443L75.0578 26.2578C83.2126 36.8484 82.8155 54.6809 73.3876 68.4955C65.6152 79.8842 52.0039 87.0998 39.3792 88.0611C33.2401 88.5286 28.1785 87.3945 24.9575 85.1508C21.8171 82.9634 20.671 79.9727 21.1092 76.4595L2.89907 81.3389C1.64021 91.4312 5.41015 98.4035 11.2876 102.498C17.0844 106.535 25.1422 108.001 33.713 107.349C50.5082 106.07 72.6782 96.1645 86.958 75.2406C102.942 51.8201 101.691 26.7903 91.3014 12.441C80.6848 -2.43579 53.0837 -5.48233 26.8444 12.1174C0.243618 29.9594 -23.0656 64.7826 -43.3022 123.009L-38.8861 123.008Z" fill="url(#paint3_linear_311_416)"/>
<path fill-rule="evenodd" clip-rule="evenodd" d="M-38.8861 123.008C-20.2453 69.3738 7.09254 38.8814 28.7476 26.4433C50.7635 13.7979 68.843 17.7672 75.0723 26.2443L75.0578 26.2578C83.2126 36.8484 82.8155 54.6809 73.3876 68.4955C65.6152 79.8842 52.0039 87.0998 39.3792 88.0611C33.2401 88.5286 28.1785 87.3945 24.9575 85.1508C21.8171 82.9634 20.671 79.9727 21.1092 76.4595L2.89907 81.3389C1.64021 91.4312 5.41015 98.4035 11.2876 102.498C17.0844 106.535 25.1422 108.001 33.713 107.349C50.5082 106.07 72.6782 96.1645 86.958 75.2406C102.942 51.8201 101.691 26.7903 91.3014 12.441C80.6848 -2.43579 53.0837 -5.48233 26.8444 12.1174C0.243618 29.9594 -23.0656 64.7826 -43.3022 123.009L-38.8861 123.008Z" fill="url(#paint4_linear_311_416)"/>
</g>
<path id="Union_2" fill-rule="evenodd" clip-rule="evenodd" d="M6.10578 69.9973C11.0967 58.4112 20.8437 48.2856 31.4408 41.7244C45.5023 33.0182 62.747 28.8496 79.1265 28.6377C112.354 28.2077 143.846 48.1026 140.794 103.407L120.907 118.958C123.478 72.3518 97.8442 53.4081 71.117 51.6534C57.5658 50.7638 45.4711 52.755 36.1975 58.408C28.1865 63.2912 23.2392 69.3165 21.6245 74.2014C21.3773 75.0414 21.2083 75.8617 21.1091 76.6572L2.89893 81.5366C2.90924 81.4539 2.91982 81.3713 2.93068 81.2887L2.90023 81.2968C3.39511 77.3292 4.50681 73.553 6.10578 69.9973Z" fill="white"/>
</g>
<defs>
<linearGradient id="paint0_linear_311_416" x1="63.9081" y1="104.046" x2="95.856" y2="7.58809" gradientUnits="userSpaceOnUse">
<stop stop-color="white"/>
<stop offset="0.572337" stop-color="white" stop-opacity="0"/>
<stop offset="1" stop-color="white"/>
</linearGradient>
<linearGradient id="paint1_linear_311_416" x1="78.9604" y1="106.503" x2="93.7056" y2="19.8757" gradientUnits="userSpaceOnUse">
<stop stop-color="white" stop-opacity="0.47"/>
<stop offset="0.83436" stop-color="white" stop-opacity="0"/>
<stop offset="1" stop-color="white" stop-opacity="0"/>
</linearGradient>
<linearGradient id="paint2_linear_311_416" x1="78.9604" y1="106.503" x2="85.6705" y2="14.7996" gradientUnits="userSpaceOnUse">
<stop stop-color="white" stop-opacity="0"/>
<stop offset="0.717173" stop-color="white" stop-opacity="0"/>
<stop offset="1" stop-color="white"/>
</linearGradient>
<linearGradient id="paint3_linear_311_416" x1="23.5127" y1="18.8005" x2="69.7448" y2="47.8299" gradientUnits="userSpaceOnUse">
<stop stop-color="white"/>
<stop offset="1" stop-color="white" stop-opacity="0"/>
</linearGradient>
<linearGradient id="paint4_linear_311_416" x1="27.6502" y1="82.5654" x2="56.2069" y2="55.1417" gradientUnits="userSpaceOnUse">
<stop stop-color="white"/>
<stop offset="1" stop-color="white" stop-opacity="0"/>
</linearGradient>
<clipPath id="clip0_311_416">
<rect width="116.947" height="107.51" fill="white" transform="translate(0 0.0678711)"/>
</clipPath>
</defs>
</svg>
