<svg width="40" height="40" viewBox="0 0 40 40" fill="none" xmlns="http://www.w3.org/2000/svg">
<path d="M35.1472 34.8527C35.2285 34.934 35.2285 35.0659 35.1472 35.1473C35.0658 35.2287 34.9339 35.2287 34.8525 35.1473C34.7712 35.0659 34.7712 34.934 34.8525 34.8527C34.9339 34.7713 35.0658 34.7713 35.1472 34.8527" stroke="white" stroke-width="2.5" stroke-linecap="round" stroke-linejoin="round"/>
<path d="M35.1472 19.8527C35.2285 19.934 35.2285 20.0659 35.1472 20.1473C35.0658 20.2287 34.9339 20.2287 34.8525 20.1473C34.7712 20.0659 34.7712 19.934 34.8525 19.8527C34.9339 19.7713 35.0658 19.7713 35.1472 19.8527" stroke="white" stroke-width="2.5" stroke-linecap="round" stroke-linejoin="round"/>
<path d="M35.1472 27.3527C35.2285 27.434 35.2285 27.5659 35.1472 27.6473C35.0658 27.7287 34.9339 27.7287 34.8525 27.6473C34.7712 27.5659 34.7712 27.434 34.8525 27.3527C34.9339 27.2713 35.0658 27.2713 35.1472 27.3527" stroke="white" stroke-width="2.5" stroke-linecap="round" stroke-linejoin="round"/>
<path d="M35.1472 12.3527C35.2285 12.434 35.2285 12.5659 35.1472 12.6473C35.0658 12.7287 34.9339 12.7287 34.8525 12.6473C34.7712 12.5659 34.7712 12.434 34.8525 12.3527C34.9339 12.2713 35.0658 12.2713 35.1472 12.3527" stroke="white" stroke-width="2.5" stroke-linecap="round" stroke-linejoin="round"/>
<path d="M27.6472 34.8527C27.7285 34.934 27.7285 35.0659 27.6472 35.1473C27.5658 35.2287 27.4339 35.2287 27.3525 35.1473C27.2712 35.0659 27.2712 34.934 27.3525 34.8527C27.4339 34.7713 27.5658 34.7713 27.6472 34.8527" stroke="white" stroke-width="2.5" stroke-linecap="round" stroke-linejoin="round"/>
<path d="M5.14715 4.85268C5.22851 4.93403 5.22851 5.06594 5.14715 5.1473C5.06579 5.22866 4.93388 5.22866 4.85252 5.1473C4.77116 5.06594 4.77116 4.93404 4.85252 4.85268C4.93388 4.77132 5.06579 4.77132 5.14715 4.85268" stroke="white" stroke-width="2.5" stroke-linecap="round" stroke-linejoin="round"/>
<path d="M35.1472 4.85268C35.2285 4.93403 35.2285 5.06594 35.1472 5.1473C35.0658 5.22866 34.9339 5.22866 34.8525 5.1473C34.7712 5.06594 34.7712 4.93404 34.8525 4.85268C34.9339 4.77132 35.0658 4.77132 35.1472 4.85268" stroke="white" stroke-width="2.5" stroke-linecap="round" stroke-linejoin="round"/>
<path d="M20.1472 4.85268C20.2285 4.93403 20.2285 5.06594 20.1472 5.1473C20.0658 5.22866 19.9339 5.22866 19.8525 5.1473C19.7712 5.06594 19.7712 4.93404 19.8525 4.85268C19.9339 4.77132 20.0658 4.77132 20.1472 4.85268" stroke="white" stroke-width="2.5" stroke-linecap="round" stroke-linejoin="round"/>
<path d="M12.6472 4.85268C12.7285 4.93403 12.7285 5.06594 12.6472 5.1473C12.5658 5.22866 12.4339 5.22866 12.3525 5.1473C12.2712 5.06594 12.2712 4.93404 12.3525 4.85268C12.4339 4.77132 12.5658 4.77132 12.6472 4.85268" stroke="white" stroke-width="2.5" stroke-linecap="round" stroke-linejoin="round"/>
<path d="M27.6472 4.85268C27.7285 4.93403 27.7285 5.06594 27.6472 5.1473C27.5658 5.22866 27.4339 5.22866 27.3525 5.1473C27.2712 5.06594 27.2712 4.93404 27.3525 4.85268C27.4339 4.77132 27.5658 4.77132 27.6472 4.85268" stroke="white" stroke-width="2.5" stroke-linecap="round" stroke-linejoin="round"/>
<path d="M5.14715 12.3527C5.22851 12.434 5.22851 12.5659 5.14715 12.6473C5.06579 12.7287 4.93388 12.7287 4.85252 12.6473C4.77116 12.5659 4.77116 12.434 4.85252 12.3527C4.93388 12.2713 5.06579 12.2713 5.14715 12.3527" stroke="white" stroke-width="2.5" stroke-linecap="round" stroke-linejoin="round"/>
<path fill-rule="evenodd" clip-rule="evenodd" d="M16.99 35H8.01C6.34833 35 5 33.6517 5 31.99V23.01C5 21.3483 6.34833 20 8.01 20H16.99C18.6517 20 20 21.3483 20 23.01V31.99C20 33.6517 18.6517 35 16.99 35V35Z" stroke="white" stroke-width="2.5" stroke-linecap="round" stroke-linejoin="round"/>
<path d="M19.1162 20.8833L26.6662 13.3333" stroke="white" stroke-width="2.5" stroke-linecap="round" stroke-linejoin="round"/>
<path d="M26.6663 20V13.3333" stroke="white" stroke-width="2.5" stroke-linecap="round" stroke-linejoin="round"/>
<path d="M20 13.3333H26.6667" stroke="white" stroke-width="2.5" stroke-linecap="round" stroke-linejoin="round"/>
</svg>
