<svg width="34" height="32" viewBox="0 0 34 32" fill="none" xmlns="http://www.w3.org/2000/svg">
<g id="Sign" clip-path="url(#clip0_299_20057)">
<path id="Union" fill-rule="evenodd" clip-rule="evenodd" d="M-11.2122 36.0186C-5.83717 20.5531 2.04565 11.7607 8.28986 8.17415C14.1943 4.78279 19.1168 5.5358 21.2215 7.62436C21.567 7.59377 21.912 7.56813 22.2561 7.54743L22.25 7.55321C22.3264 7.54841 22.4029 7.54386 22.4793 7.53955C24.3597 7.43341 26.2326 7.51014 28.0521 7.79314C27.6684 6.41361 27.0792 5.17347 26.3222 4.12973C23.2573 -0.154018 15.3031 -1.02882 7.74105 4.04329C0.0707788 9.18802 -6.65038 19.2292 -12.4856 36.0188L-11.2122 36.0186ZM22.6307 17.3926C22.2789 18.3967 21.7898 19.3791 21.1616 20.2995C18.9204 23.5835 14.9956 25.6641 11.3553 25.9413C9.5851 26.0761 8.12559 25.749 7.19682 25.1021C6.30913 24.4837 5.97407 23.6428 6.08027 22.6556L6.08709 22.6538C6.11587 22.423 6.165 22.185 6.23697 21.9413C6.70389 20.5334 8.12996 18.798 10.4378 17.3912C13.1118 15.7611 16.5993 15.187 20.5068 15.4435C28.2135 15.9494 35.6051 21.4118 34.8636 34.8508L40.1494 33.0572C40.198 32.1758 40.2166 31.3236 40.2067 30.4999L40.5981 30.3671C41.478 14.4201 32.3974 8.68343 22.8163 8.80741C18.0933 8.86853 13.1208 10.0705 9.06621 12.581C6.01397 14.4708 3.20632 17.386 1.76574 20.7222C1.30209 21.7506 0.979791 22.8431 0.836595 23.9911L0.845439 23.9888L0.843884 24.0009L0.836323 24.0029C0.473333 26.913 1.56039 28.9235 3.25514 30.104C4.92663 31.2683 7.2501 31.691 9.72147 31.5028C14.5643 31.1341 20.957 28.2779 25.0746 22.2445C25.7316 21.2817 26.2877 20.3095 26.7495 19.3381C25.6888 18.3249 24.344 17.7129 22.9347 17.4465C22.8329 17.4273 22.7316 17.4093 22.6307 17.3926Z" fill="white"/>
</g>
<defs>
<clipPath id="clip0_299_20057">
<rect width="33.7212" height="31" fill="white" transform="translate(0 0.567871)"/>
</clipPath>
</defs>
</svg>
