<svg width="40" height="40" viewBox="0 0 40 40" fill="none" xmlns="http://www.w3.org/2000/svg">
<path d="M5 17.3867V13.6283C5 12.4167 5.65667 11.3017 6.715 10.7133L10 8.88832" stroke="white" stroke-width="2.5" stroke-linecap="round" stroke-linejoin="round"/>
<path d="M25 33.8883L21.6183 35.7667C20.6117 36.3267 19.3867 36.3267 18.38 35.7667L15 33.8883" stroke="white" stroke-width="2.5" stroke-linecap="round" stroke-linejoin="round"/>
<path d="M14.595 19.0583V17.7033C14.595 17.2667 14.8316 16.865 15.2133 16.6533L18.1983 14.995" stroke="white" stroke-width="2.5" stroke-linecap="round" stroke-linejoin="round"/>
<path d="M21.8017 25.005L20.5834 25.6817C20.2201 25.8833 19.7784 25.8833 19.4167 25.6817L16.3967 24.0033" stroke="white" stroke-width="2.5" stroke-linecap="round" stroke-linejoin="round"/>
<path d="M25.4051 19.0583V22.2967C25.4051 22.7333 25.1684 23.135 24.7868 23.3467L21.8018 25.005" stroke="white" stroke-width="2.5" stroke-linecap="round" stroke-linejoin="round"/>
<path d="M25.4051 19.0583V17.7033C25.4051 17.2667 25.1684 16.865 24.7868 16.6533L21.8018 14.995" stroke="white" stroke-width="2.5" stroke-linecap="round" stroke-linejoin="round"/>
<path d="M18.1982 14.995L19.4166 14.3183C19.7799 14.1167 20.2216 14.1167 20.5832 14.3183L21.8016 14.995" stroke="white" stroke-width="2.5" stroke-linecap="round" stroke-linejoin="round"/>
<path d="M14.595 19.0583V22.2967C14.595 22.7333 14.8316 23.135 15.2133 23.3467L16.3966 24.005" stroke="white" stroke-width="2.5" stroke-linecap="round" stroke-linejoin="round"/>
<path d="M35 22.6133V26.3717C35 27.5817 34.3433 28.6983 33.285 29.285L30 31.1117" stroke="white" stroke-width="2.5" stroke-linecap="round" stroke-linejoin="round"/>
<path d="M35 17.3867V13.6283C35 12.4183 34.3433 11.3017 33.285 10.715L30 8.88832" stroke="white" stroke-width="2.5" stroke-linecap="round" stroke-linejoin="round"/>
<path d="M15 6.11166L18.3817 4.23332C19.3883 3.67332 20.6133 3.67332 21.62 4.23332L25 6.11166" stroke="white" stroke-width="2.5" stroke-linecap="round" stroke-linejoin="round"/>
<path d="M5 22.6133V26.3717C5 27.5817 5.65667 28.6983 6.715 29.285L10 31.1117" stroke="white" stroke-width="2.5" stroke-linecap="round" stroke-linejoin="round"/>
<path d="M35 17.3867V13.6283C35 12.4183 34.3433 11.3017 33.285 10.715L30 8.88834" stroke="white" stroke-width="2.5" stroke-linecap="round" stroke-linejoin="round"/>
<path d="M5 22.6133V26.3717C5 27.5817 5.65667 28.6983 6.715 29.285L10 31.1117" stroke="white" stroke-width="2.5" stroke-linecap="round" stroke-linejoin="round"/>
</svg>
