<svg width="40" height="40" viewBox="0 0 40 40" fill="none" xmlns="http://www.w3.org/2000/svg">
<g id="Support, Help, Question/Headphones, Customer, support">
<g id="Group">
<g id="Group_2">
<path id="Path" fill-rule="evenodd" clip-rule="evenodd" d="M31.6666 28.3333H29.9999C29.0799 28.3333 28.3333 27.5867 28.3333 26.6667V18.3333C28.3333 17.4133 29.0799 16.6667 29.9999 16.6667H31.6666C33.5083 16.6667 34.9999 18.1583 34.9999 20V25C34.9999 26.8417 33.5083 28.3333 31.6666 28.3333Z" stroke="white" stroke-width="2.5" stroke-linecap="round" stroke-linejoin="round"/>
<path id="Path_2" fill-rule="evenodd" clip-rule="evenodd" d="M10 28.3333H8.33333C6.49167 28.3333 5 26.8417 5 25V20C5 18.1583 6.49167 16.6667 8.33333 16.6667H10C10.92 16.6667 11.6667 17.4133 11.6667 18.3333V26.6667C11.6667 27.5867 10.92 28.3333 10 28.3333Z" stroke="white" stroke-width="2.5" stroke-linecap="round" stroke-linejoin="round"/>
<path id="Path_3" d="M30.8334 16.6667V15.8333C30.8334 9.85 25.9834 5 20.0001 5V5C14.0167 5 9.16675 9.85 9.16675 15.8333V16.6667" stroke="white" stroke-width="2.5" stroke-linecap="round" stroke-linejoin="round"/>
<path id="Path_4" fill-rule="evenodd" clip-rule="evenodd" d="M21.0417 35.4167H18.9583C17.8083 35.4167 16.875 34.4833 16.875 33.3333V33.3333C16.875 32.1833 17.8083 31.25 18.9583 31.25H21.0417C22.1917 31.25 23.125 32.1833 23.125 33.3333V33.3333C23.125 34.4833 22.1917 35.4167 21.0417 35.4167Z" stroke="white" stroke-width="2.5" stroke-linecap="round" stroke-linejoin="round"/>
<path id="Path_5" d="M23.125 33.3333H26.6667C28.5083 33.3333 30 31.8417 30 30V28.3333" stroke="white" stroke-width="2.5" stroke-linecap="round" stroke-linejoin="round"/>
</g>
</g>
</g>
</svg>
