<svg width="40" height="40" viewBox="0 0 40 40" fill="none" xmlns="http://www.w3.org/2000/svg">
<path fill-rule="evenodd" clip-rule="evenodd" d="M31.6668 35H26.6668C24.8252 35 23.3335 33.5083 23.3335 31.6667V23.3333C23.3335 21.4917 24.8252 20 26.6668 20H31.6668C33.5085 20 35.0002 21.4917 35.0002 23.3333V31.6667C35.0002 33.5083 33.5085 35 31.6668 35Z" stroke="white" stroke-width="2.5" stroke-linecap="round" stroke-linejoin="round"/>
<path fill-rule="evenodd" clip-rule="evenodd" d="M31.6668 15H26.6668C24.8252 15 23.3335 13.5083 23.3335 11.6667V8.33333C23.3335 6.49167 24.8252 5 26.6668 5H31.6668C33.5085 5 35.0002 6.49167 35.0002 8.33333V11.6667C35.0002 13.5083 33.5085 15 31.6668 15Z" stroke="white" stroke-width="2.5" stroke-linecap="round" stroke-linejoin="round"/>
<path fill-rule="evenodd" clip-rule="evenodd" d="M8.33333 5H13.3333C15.175 5 16.6667 6.49167 16.6667 8.33333V16.6667C16.6667 18.5083 15.175 20 13.3333 20H8.33333C6.49167 20 5 18.5083 5 16.6667V8.33333C5 6.49167 6.49167 5 8.33333 5Z" stroke="white" stroke-width="2.5" stroke-linecap="round" stroke-linejoin="round"/>
<path fill-rule="evenodd" clip-rule="evenodd" d="M8.33333 25H13.3333C15.175 25 16.6667 26.4917 16.6667 28.3333V31.6667C16.6667 33.5083 15.175 35 13.3333 35H8.33333C6.49167 35 5 33.5083 5 31.6667V28.3333C5 26.4917 6.49167 25 8.33333 25Z" stroke="white" stroke-width="2.5" stroke-linecap="round" stroke-linejoin="round"/>
</svg>
